M48
;Layer_Color=9474304
;FILE_FORMAT=4:4
METRIC,LZ
;TYPE=PLATED
T1F00S00C0.3000
T3F00S00C1.0000
T4F00S00C1.1000
T5F00S00C1.5000
T6F00S00C3.2000
;TYPE=NON_PLATED
T7F00S00C3.2000
%
T01
X00372Y00067
X00395Y00086
X00404Y00112
X0045725Y001145
X00482Y00105
X00474Y00095
X0046525Y0004625
X0044725Y000465
X00429Y00065
X00422
X00415
X00455Y00155
X0044425Y0021825
X0047275Y0025675
X0039425Y00255
X0060775Y001805
X006275Y0018375
X0064175Y001725
X0067075Y0015675
X006785Y0012575
X00615Y00083
X006155Y00076
X00326Y00068
X00319
X00305Y000805
X00289Y00068
X00231Y001345
X00208Y00135
X00193Y001425
X0015575Y0013875
X00161Y00131
X00135Y00169
Y00176
Y00183
X00117Y00176
Y00162
X00109
Y00154
X00101
X000805Y0018325
X0008Y0022625
X0006Y0022925
Y0022075
X0007975Y002515
X00107Y0024725
X001Y0027225
X000795Y0029275
X00091Y0032
X00040875Y00286375
X0001225Y0028125
X0015Y00274
X0018175Y00288
X0022Y0025175
X00209Y00208
X00197Y00208
X00175Y002075
X0016325Y0020575
X0016275Y0019525
X001475Y0019925
X00139Y00224
X001185Y00216
Y00195
X000885Y00111
Y00101
X00238Y00179
X0023575Y0019825
X002715Y0024125
X00312Y00227
X00327Y00246
X003275Y0018075
X0030225Y0018025
X00274Y00348
X00221Y0033675
Y00407
X00215Y0043175
X0022675Y0044025
X00242375Y00465875
X00285875Y00486875
X0028325Y0041725
X0031Y00419
X00311Y00409
X001925Y0041325
X00174209Y00413791
X00126Y00412
X00118Y00408
Y00417
X00101Y00365
X00091Y0036975
X0006Y00452
X00057Y0052225
X004Y00486
X00407
Y00478
X004
X004Y00387
X00407
Y00379
X004
X00545Y0041
X00575Y00409
X00575Y00397
X00575Y0039
Y00383
X00569Y00417
Y00426
X0062375Y004535
T03
X006025Y002615
Y003065
X006675
Y002615
X002445Y0008475
X001995
Y0001975
X002445
T04
X003302Y000254
X003556
X00381
X004064
X004318
X004572
X00508
X005334
X005588
X005842
X006096
X00635
X0062065Y0012573
X0059525
X0056985
X0054445
X0051905
X0049365
X0046825
X0044285
X0041745
X0039205
X0036665
X0034125
Y0020193
X0036665
X0039205
X0041745
X0044285
X0046825
X0049365
X0051905
X0054445
X0056985
X0059525
X0062065
X0031585
X0029045
Y0012573
X0031585
X003048Y000254
X002794
X00167Y00088
X001416
X001162
X000508Y003166
X000254
Y00342
X000508
Y0038608
X000254
Y0041148
X000508
X000762
Y0038608
X00146Y003952
Y004206
Y00446
Y003698
X000762Y0047244
X000508
X000254
Y0049784
X000508
X000762
X0018796Y00508
X0021336
X0023876
X0026416
X0028956
X0031496
X0034036
X0036576
X0039116
X0041656
X004572
X004826
X00508
X005334
X005588
X005842
X006096
X00635
X00662Y00469
Y004436
Y004182
T05
X00021Y00025
Y00133
T06
X006604Y000762
X001397Y000254
X006604Y003556
T07
X001524Y00508
M30
