G04*
G04 #@! TF.GenerationSoftware,Altium Limited,Altium Designer,19.1.4 (82)*
G04*
G04 Layer_Color=65535*
%FSLAX44Y44*%
%MOMM*%
G71*
G01*
G75*
%ADD10C,0.5000*%
%ADD11C,0.2000*%
%ADD12C,0.4000*%
G36*
X410661Y339166D02*
X408203D01*
Y341429D01*
X410661D01*
Y339166D01*
D02*
G37*
G36*
X418756Y338074D02*
X418951Y338054D01*
X419185Y338015D01*
X419439Y337976D01*
X419693Y337898D01*
X419946Y337800D01*
X419985Y337781D01*
X420063Y337742D01*
X420180Y337683D01*
X420317Y337605D01*
X420492Y337488D01*
X420648Y337352D01*
X420824Y337215D01*
X420961Y337040D01*
X420980Y337020D01*
X421019Y336962D01*
X421078Y336864D01*
X421156Y336747D01*
X421234Y336591D01*
X421312Y336415D01*
X421390Y336220D01*
X421448Y336006D01*
Y335986D01*
X421468Y335908D01*
X421487Y335772D01*
X421526Y335596D01*
X421546Y335362D01*
X421565Y335069D01*
X421585Y334738D01*
Y334367D01*
Y328613D01*
X419127D01*
Y333333D01*
Y333353D01*
Y333392D01*
Y333470D01*
Y333567D01*
Y333704D01*
Y333840D01*
X419107Y334133D01*
X419088Y334465D01*
X419049Y334777D01*
X419010Y335050D01*
X418990Y335167D01*
X418951Y335265D01*
Y335284D01*
X418932Y335342D01*
X418893Y335420D01*
X418834Y335518D01*
X418678Y335752D01*
X418444Y335967D01*
X418425Y335986D01*
X418386Y336006D01*
X418307Y336045D01*
X418210Y336103D01*
X418093Y336142D01*
X417937Y336181D01*
X417781Y336201D01*
X417605Y336220D01*
X417488D01*
X417371Y336201D01*
X417215Y336181D01*
X417040Y336142D01*
X416844Y336064D01*
X416649Y335986D01*
X416454Y335869D01*
X416435Y335850D01*
X416376Y335811D01*
X416298Y335733D01*
X416181Y335616D01*
X416084Y335479D01*
X415967Y335323D01*
X415850Y335147D01*
X415772Y334933D01*
Y334913D01*
X415752Y334816D01*
X415713Y334679D01*
X415694Y334465D01*
X415674Y334328D01*
X415655Y334172D01*
X415635Y333997D01*
X415616Y333801D01*
Y333587D01*
X415596Y333353D01*
Y333080D01*
Y332807D01*
Y328613D01*
X413138D01*
Y337898D01*
X415420D01*
Y336532D01*
X415440Y336552D01*
X415479Y336591D01*
X415537Y336669D01*
X415635Y336786D01*
X415752Y336903D01*
X415908Y337020D01*
X416064Y337176D01*
X416259Y337313D01*
X416474Y337449D01*
X416688Y337605D01*
X416942Y337722D01*
X417215Y337859D01*
X417508Y337957D01*
X417800Y338035D01*
X418132Y338074D01*
X418464Y338093D01*
X418600D01*
X418756Y338074D01*
D02*
G37*
G36*
X427925D02*
X428120Y338054D01*
X428529Y338015D01*
X428978Y337937D01*
X429466Y337839D01*
X429895Y337683D01*
X430109Y337586D01*
X430285Y337469D01*
X430304D01*
X430324Y337449D01*
X430441Y337352D01*
X430597Y337215D01*
X430792Y337001D01*
X431007Y336747D01*
X431221Y336435D01*
X431416Y336084D01*
X431572Y335655D01*
X429251Y335225D01*
Y335245D01*
X429212Y335303D01*
X429173Y335401D01*
X429114Y335518D01*
X429036Y335655D01*
X428939Y335791D01*
X428822Y335928D01*
X428666Y336045D01*
X428646Y336064D01*
X428588Y336084D01*
X428490Y336142D01*
X428373Y336201D01*
X428198Y336240D01*
X428003Y336298D01*
X427769Y336318D01*
X427495Y336337D01*
X427339D01*
X427164Y336318D01*
X426949Y336298D01*
X426501Y336220D01*
X426286Y336162D01*
X426110Y336064D01*
X426091D01*
X426071Y336025D01*
X425974Y335928D01*
X425876Y335772D01*
X425857Y335674D01*
X425837Y335557D01*
Y335538D01*
Y335518D01*
X425876Y335401D01*
X425935Y335245D01*
X425993Y335187D01*
X426071Y335108D01*
X426091Y335089D01*
X426149Y335069D01*
X426286Y335011D01*
X426364Y334972D01*
X426481Y334933D01*
X426618Y334874D01*
X426774Y334835D01*
X426969Y334777D01*
X427183Y334699D01*
X427417Y334640D01*
X427691Y334562D01*
X428003Y334484D01*
X428354Y334406D01*
X428373D01*
X428432Y334387D01*
X428549Y334367D01*
X428666Y334328D01*
X428841Y334289D01*
X429017Y334231D01*
X429446Y334114D01*
X429895Y333957D01*
X430344Y333762D01*
X430753Y333548D01*
X430948Y333431D01*
X431104Y333314D01*
X431143Y333275D01*
X431221Y333197D01*
X431358Y333041D01*
X431494Y332846D01*
X431631Y332592D01*
X431768Y332260D01*
X431846Y331909D01*
X431885Y331480D01*
Y331461D01*
Y331422D01*
Y331363D01*
X431865Y331265D01*
X431846Y331168D01*
X431826Y331031D01*
X431748Y330739D01*
X431631Y330388D01*
X431436Y330017D01*
X431319Y329841D01*
X431163Y329646D01*
X431007Y329471D01*
X430812Y329295D01*
X430792D01*
X430773Y329256D01*
X430695Y329217D01*
X430617Y329159D01*
X430499Y329081D01*
X430363Y329003D01*
X430207Y328925D01*
X430031Y328847D01*
X429817Y328749D01*
X429583Y328671D01*
X429329Y328593D01*
X429036Y328515D01*
X428744Y328456D01*
X428412Y328418D01*
X428042Y328398D01*
X427671Y328378D01*
X427495D01*
X427359Y328398D01*
X427203D01*
X427008Y328418D01*
X426813Y328437D01*
X426579Y328476D01*
X426110Y328573D01*
X425603Y328691D01*
X425116Y328886D01*
X424667Y329139D01*
X424647D01*
X424628Y329178D01*
X424569Y329217D01*
X424491Y329276D01*
X424296Y329451D01*
X424082Y329685D01*
X423848Y329978D01*
X423614Y330349D01*
X423399Y330758D01*
X423243Y331227D01*
X425701Y331597D01*
Y331558D01*
X425740Y331480D01*
X425779Y331343D01*
X425837Y331188D01*
X425915Y331012D01*
X426032Y330836D01*
X426169Y330661D01*
X426325Y330505D01*
X426344Y330485D01*
X426423Y330446D01*
X426520Y330388D01*
X426676Y330329D01*
X426871Y330271D01*
X427105Y330212D01*
X427359Y330173D01*
X427671Y330154D01*
X427827D01*
X428003Y330173D01*
X428198Y330193D01*
X428432Y330232D01*
X428666Y330290D01*
X428900Y330368D01*
X429095Y330485D01*
X429114Y330505D01*
X429154Y330524D01*
X429193Y330583D01*
X429271Y330661D01*
X429368Y330875D01*
X429407Y331012D01*
X429427Y331148D01*
Y331168D01*
Y331207D01*
X429407Y331324D01*
X429349Y331461D01*
X429251Y331617D01*
X429212Y331656D01*
X429154Y331675D01*
X429076Y331734D01*
X428959Y331773D01*
X428822Y331831D01*
X428627Y331890D01*
X428412Y331948D01*
X428373D01*
X428276Y331987D01*
X428139Y332007D01*
X427944Y332065D01*
X427710Y332124D01*
X427437Y332182D01*
X427144Y332260D01*
X426832Y332338D01*
X426189Y332514D01*
X425876Y332612D01*
X425564Y332729D01*
X425291Y332826D01*
X425037Y332924D01*
X424823Y333041D01*
X424647Y333138D01*
X424628D01*
X424608Y333177D01*
X424472Y333275D01*
X424296Y333450D01*
X424101Y333684D01*
X423906Y333977D01*
X423731Y334348D01*
X423594Y334757D01*
X423574Y334991D01*
X423555Y335225D01*
Y335245D01*
Y335284D01*
Y335342D01*
X423574Y335420D01*
X423614Y335655D01*
X423672Y335928D01*
X423789Y336259D01*
X423945Y336591D01*
X424179Y336942D01*
X424335Y337098D01*
X424491Y337254D01*
X424511Y337274D01*
X424530Y337293D01*
X424589Y337332D01*
X424667Y337391D01*
X424784Y337449D01*
X424901Y337527D01*
X425057Y337605D01*
X425213Y337683D01*
X425408Y337761D01*
X425642Y337820D01*
X425876Y337898D01*
X426149Y337957D01*
X426442Y338015D01*
X426754Y338054D01*
X427086Y338093D01*
X427769D01*
X427925Y338074D01*
D02*
G37*
G36*
X445110Y328613D02*
X442321D01*
X437737Y341429D01*
X440526D01*
X443784Y331948D01*
X446905Y341429D01*
X449675Y341429D01*
X445110Y328613D01*
D02*
G37*
G36*
X471660Y328613D02*
X469202D01*
Y337859D01*
X469182Y337840D01*
X469143Y337800D01*
X469065Y337742D01*
X468968Y337644D01*
X468831Y337547D01*
X468675Y337430D01*
X468500Y337293D01*
X468285Y337157D01*
X468070Y337001D01*
X467817Y336845D01*
X467290Y336552D01*
X466685Y336259D01*
X466022Y336006D01*
Y338230D01*
X466042D01*
X466061Y338249D01*
X466120Y338269D01*
X466198Y338288D01*
X466393Y338366D01*
X466646Y338503D01*
X466959Y338659D01*
X467310Y338873D01*
X467700Y339107D01*
X468109Y339420D01*
X468129Y339439D01*
X468168Y339459D01*
X468227Y339517D01*
X468285Y339576D01*
X468480Y339751D01*
X468734Y340005D01*
X468987Y340297D01*
X469241Y340648D01*
X469475Y341039D01*
X469650Y341468D01*
X471660D01*
Y328613D01*
D02*
G37*
G36*
X463447D02*
X460853D01*
Y341429D01*
X463447D01*
Y328613D01*
D02*
G37*
G36*
X456737D02*
X454279D01*
Y337859D01*
X454259Y337840D01*
X454220Y337800D01*
X454142Y337742D01*
X454045Y337644D01*
X453908Y337547D01*
X453752Y337430D01*
X453577Y337293D01*
X453362Y337157D01*
X453147Y337001D01*
X452894Y336845D01*
X452367Y336552D01*
X451762Y336259D01*
X451099Y336006D01*
Y338230D01*
X451119D01*
X451138Y338249D01*
X451197Y338269D01*
X451275Y338288D01*
X451470Y338366D01*
X451723Y338503D01*
X452035Y338659D01*
X452387Y338873D01*
X452777Y339107D01*
X453186Y339420D01*
X453206Y339439D01*
X453245Y339459D01*
X453303Y339517D01*
X453362Y339576D01*
X453557Y339751D01*
X453811Y340005D01*
X454064Y340297D01*
X454318Y340648D01*
X454552Y341039D01*
X454728Y341468D01*
X456737D01*
Y328613D01*
D02*
G37*
G36*
X410661Y328613D02*
X408203D01*
Y337898D01*
X410661D01*
Y328613D01*
D02*
G37*
G36*
X401434Y341409D02*
X401687D01*
X402214Y341390D01*
X402721Y341351D01*
X402955Y341331D01*
X403170Y341292D01*
X403345Y341273D01*
X403502Y341234D01*
X403521D01*
X403560Y341214D01*
X403599Y341195D01*
X403677Y341175D01*
X403892Y341097D01*
X404145Y340961D01*
X404438Y340804D01*
X404730Y340570D01*
X405043Y340297D01*
X405335Y339966D01*
Y339946D01*
X405374Y339927D01*
X405413Y339868D01*
X405452Y339790D01*
X405511Y339693D01*
X405569Y339576D01*
X405725Y339302D01*
X405862Y338932D01*
X405979Y338503D01*
X406057Y338015D01*
X406096Y337469D01*
Y337449D01*
Y337410D01*
Y337352D01*
Y337274D01*
X406077Y337059D01*
X406037Y336786D01*
X405998Y336474D01*
X405920Y336142D01*
X405803Y335811D01*
X405667Y335499D01*
X405647Y335460D01*
X405589Y335362D01*
X405491Y335225D01*
X405374Y335050D01*
X405218Y334835D01*
X405023Y334621D01*
X404809Y334426D01*
X404575Y334231D01*
X404555Y334211D01*
X404457Y334153D01*
X404321Y334075D01*
X404165Y333997D01*
X403950Y333880D01*
X403736Y333782D01*
X403482Y333704D01*
X403228Y333626D01*
X403190D01*
X403131Y333606D01*
X403053D01*
X402955Y333587D01*
X402838Y333567D01*
X402702Y333548D01*
X402546D01*
X402370Y333528D01*
X402175Y333509D01*
X401960Y333489D01*
X401707Y333470D01*
X401453D01*
X401180Y333450D01*
X398878D01*
Y328613D01*
X396284D01*
Y341429D01*
X401200D01*
X401434Y341409D01*
D02*
G37*
G36*
X380366Y341448D02*
X380522Y341429D01*
X380717Y341409D01*
X380912Y341390D01*
X381146Y341331D01*
X381614Y341214D01*
X382122Y341039D01*
X382356Y340922D01*
X382609Y340785D01*
X382824Y340610D01*
X383038Y340434D01*
X383058Y340414D01*
X383078Y340395D01*
X383136Y340336D01*
X383214Y340258D01*
X383292Y340161D01*
X383390Y340024D01*
X383585Y339732D01*
X383780Y339361D01*
X383955Y338932D01*
X384092Y338444D01*
X384111Y338171D01*
X384131Y337898D01*
Y337859D01*
Y337761D01*
X384111Y337586D01*
X384092Y337371D01*
X384053Y337118D01*
X383994Y336845D01*
X383916Y336532D01*
X383819Y336240D01*
X383799Y336201D01*
X383760Y336103D01*
X383682Y335947D01*
X383585Y335752D01*
X383448Y335499D01*
X383273Y335225D01*
X383058Y334933D01*
X382824Y334621D01*
X382804Y334601D01*
X382746Y334523D01*
X382629Y334387D01*
X382453Y334211D01*
X382239Y333977D01*
X381946Y333684D01*
X381614Y333353D01*
X381205Y332982D01*
X381185Y332963D01*
X381146Y332943D01*
X381088Y332885D01*
X381029Y332807D01*
X380834Y332631D01*
X380600Y332397D01*
X380346Y332163D01*
X380112Y331929D01*
X379898Y331714D01*
X379820Y331636D01*
X379742Y331558D01*
X379722Y331539D01*
X379683Y331500D01*
X379625Y331441D01*
X379566Y331343D01*
X379391Y331148D01*
X379235Y330895D01*
X384131D01*
Y328613D01*
X375528D01*
Y328632D01*
Y328671D01*
X375548Y328749D01*
X375567Y328827D01*
X375587Y328944D01*
X375606Y329081D01*
X375684Y329393D01*
X375782Y329783D01*
X375938Y330193D01*
X376114Y330622D01*
X376348Y331051D01*
Y331070D01*
X376387Y331109D01*
X376426Y331168D01*
X376484Y331265D01*
X376582Y331382D01*
X376679Y331519D01*
X376816Y331695D01*
X376952Y331870D01*
X377128Y332085D01*
X377342Y332319D01*
X377557Y332573D01*
X377811Y332846D01*
X378103Y333138D01*
X378396Y333450D01*
X378747Y333782D01*
X379118Y334133D01*
X379137Y334153D01*
X379196Y334192D01*
X379274Y334289D01*
X379391Y334387D01*
X379508Y334504D01*
X379664Y334660D01*
X379995Y334972D01*
X380346Y335323D01*
X380678Y335674D01*
X380834Y335830D01*
X380971Y335967D01*
X381088Y336103D01*
X381166Y336220D01*
X381185Y336259D01*
X381244Y336357D01*
X381322Y336493D01*
X381419Y336688D01*
X381517Y336923D01*
X381595Y337176D01*
X381654Y337449D01*
X381673Y337722D01*
Y337761D01*
Y337859D01*
X381654Y338015D01*
X381614Y338191D01*
X381556Y338386D01*
X381478Y338600D01*
X381380Y338815D01*
X381224Y338990D01*
X381205Y339010D01*
X381146Y339068D01*
X381049Y339127D01*
X380912Y339224D01*
X380737Y339302D01*
X380522Y339361D01*
X380269Y339420D01*
X379995Y339439D01*
X379878D01*
X379722Y339420D01*
X379566Y339380D01*
X379371Y339322D01*
X379157Y339244D01*
X378961Y339127D01*
X378767Y338971D01*
X378747Y338951D01*
X378688Y338873D01*
X378630Y338776D01*
X378532Y338600D01*
X378454Y338386D01*
X378357Y338132D01*
X378298Y337800D01*
X378259Y337430D01*
X375821Y337664D01*
Y337683D01*
X375840Y337761D01*
Y337859D01*
X375879Y337995D01*
X375899Y338171D01*
X375957Y338347D01*
X375996Y338561D01*
X376074Y338795D01*
X376250Y339263D01*
X376484Y339751D01*
X376640Y339985D01*
X376796Y340200D01*
X376991Y340395D01*
X377186Y340570D01*
X377206Y340590D01*
X377245Y340610D01*
X377303Y340648D01*
X377401Y340707D01*
X377499Y340785D01*
X377635Y340863D01*
X377791Y340941D01*
X377986Y341019D01*
X378181Y341097D01*
X378396Y341175D01*
X378884Y341331D01*
X379430Y341429D01*
X379742Y341468D01*
X380229D01*
X380366Y341448D01*
D02*
G37*
G36*
X390217D02*
X390373D01*
X390549Y341429D01*
X390744Y341390D01*
X390959Y341351D01*
X391407Y341234D01*
X391875Y341078D01*
X392343Y340844D01*
X392558Y340687D01*
X392753Y340531D01*
X392773Y340512D01*
X392792Y340492D01*
X392851Y340434D01*
X392909Y340356D01*
X393065Y340161D01*
X393260Y339888D01*
X393455Y339537D01*
X393611Y339127D01*
X393728Y338678D01*
X393748Y338425D01*
X393768Y338152D01*
Y338112D01*
Y337995D01*
X393748Y337839D01*
X393709Y337625D01*
X393650Y337371D01*
X393572Y337118D01*
X393455Y336845D01*
X393299Y336572D01*
X393280Y336532D01*
X393221Y336454D01*
X393104Y336337D01*
X392968Y336181D01*
X392773Y336006D01*
X392558Y335830D01*
X392285Y335674D01*
X391992Y335518D01*
X392012D01*
X392031Y335499D01*
X392090Y335479D01*
X392168Y335440D01*
X392363Y335342D01*
X392597Y335206D01*
X392851Y335030D01*
X393124Y334816D01*
X393377Y334562D01*
X393611Y334270D01*
X393631Y334231D01*
X393709Y334133D01*
X393787Y333957D01*
X393904Y333723D01*
X394002Y333450D01*
X394099Y333119D01*
X394158Y332748D01*
X394177Y332358D01*
Y332338D01*
Y332280D01*
Y332182D01*
X394158Y332065D01*
X394138Y331909D01*
X394119Y331734D01*
X394080Y331539D01*
X394041Y331324D01*
X393904Y330875D01*
X393806Y330641D01*
X393689Y330388D01*
X393553Y330154D01*
X393416Y329920D01*
X393221Y329685D01*
X393026Y329471D01*
X393007Y329451D01*
X392968Y329432D01*
X392909Y329373D01*
X392812Y329295D01*
X392714Y329217D01*
X392578Y329120D01*
X392402Y329022D01*
X392226Y328925D01*
X392031Y328827D01*
X391797Y328730D01*
X391544Y328632D01*
X391290Y328554D01*
X390998Y328476D01*
X390685Y328418D01*
X390373Y328398D01*
X390022Y328378D01*
X389846D01*
X389729Y328398D01*
X389573D01*
X389398Y328437D01*
X389203Y328456D01*
X389008Y328495D01*
X388540Y328613D01*
X388052Y328769D01*
X387564Y329003D01*
X387330Y329139D01*
X387116Y329295D01*
X387096Y329315D01*
X387057Y329354D01*
X386998Y329412D01*
X386901Y329490D01*
X386803Y329607D01*
X386686Y329744D01*
X386569Y329900D01*
X386433Y330076D01*
X386316Y330271D01*
X386179Y330485D01*
X386062Y330739D01*
X385965Y330992D01*
X385867Y331285D01*
X385809Y331597D01*
X385770Y331909D01*
X385750Y332260D01*
Y332280D01*
Y332299D01*
Y332358D01*
Y332436D01*
X385770Y332631D01*
X385809Y332885D01*
X385867Y333177D01*
X385965Y333509D01*
X386082Y333840D01*
X386257Y334172D01*
Y334192D01*
X386277Y334211D01*
X386355Y334309D01*
X386472Y334484D01*
X386647Y334679D01*
X386881Y334894D01*
X387155Y335108D01*
X387486Y335323D01*
X387876Y335518D01*
X387857D01*
X387837Y335538D01*
X387720Y335596D01*
X387564Y335674D01*
X387350Y335811D01*
X387135Y335947D01*
X386901Y336142D01*
X386686Y336357D01*
X386511Y336610D01*
X386491Y336650D01*
X386452Y336727D01*
X386374Y336884D01*
X386296Y337059D01*
X386218Y337293D01*
X386140Y337566D01*
X386101Y337839D01*
X386082Y338152D01*
Y338171D01*
Y338210D01*
Y338288D01*
X386101Y338386D01*
X386121Y338522D01*
X386140Y338659D01*
X386199Y338990D01*
X386316Y339361D01*
X386511Y339771D01*
X386608Y339966D01*
X386745Y340161D01*
X386901Y340356D01*
X387076Y340531D01*
X387096Y340551D01*
X387116Y340570D01*
X387174Y340610D01*
X387252Y340687D01*
X387369Y340746D01*
X387486Y340824D01*
X387642Y340922D01*
X387798Y341000D01*
X387993Y341097D01*
X388208Y341175D01*
X388442Y341253D01*
X388696Y341331D01*
X388969Y341390D01*
X389261Y341429D01*
X389593Y341448D01*
X389925Y341468D01*
X390100D01*
X390217Y341448D01*
D02*
G37*
G36*
X448641Y312765D02*
X445852D01*
X441268Y325581D01*
X444057D01*
X447315Y316101D01*
X450436Y325581D01*
X453206D01*
X448641Y312765D01*
D02*
G37*
G36*
X380971Y325796D02*
X381166D01*
X381380Y325776D01*
X381634Y325737D01*
X381927Y325718D01*
X382219Y325659D01*
X382531Y325601D01*
X383195Y325445D01*
X383858Y325249D01*
X384189Y325113D01*
X384521Y324957D01*
X384541D01*
X384599Y324918D01*
X384677Y324859D01*
X384814Y324801D01*
X384950Y324703D01*
X385106Y324606D01*
X385496Y324333D01*
X385906Y323982D01*
X386355Y323572D01*
X386764Y323084D01*
X387135Y322519D01*
X387155Y322499D01*
X387174Y322440D01*
X387213Y322362D01*
X387272Y322245D01*
X387350Y322089D01*
X387428Y321914D01*
X387506Y321719D01*
X387603Y321504D01*
X387681Y321250D01*
X387759Y320977D01*
X387915Y320392D01*
X388013Y319748D01*
X388052Y319417D01*
Y319066D01*
Y319046D01*
Y318968D01*
Y318851D01*
X388032Y318695D01*
X388013Y318500D01*
X387974Y318266D01*
X387935Y318012D01*
X387876Y317720D01*
X387798Y317408D01*
X387720Y317096D01*
X387603Y316764D01*
X387467Y316413D01*
X387311Y316062D01*
X387116Y315711D01*
X386921Y315379D01*
X386667Y315028D01*
X386647Y315008D01*
X386589Y314930D01*
X386491Y314813D01*
X386355Y314677D01*
X386179Y314501D01*
X385984Y314306D01*
X385750Y314111D01*
X385477Y313896D01*
X385165Y313682D01*
X384833Y313487D01*
X384482Y313292D01*
X384092Y313116D01*
X383663Y312980D01*
X383214Y312862D01*
X382746Y312784D01*
X382258Y312765D01*
X382141D01*
X382005Y312784D01*
X381849Y312804D01*
X381497Y312882D01*
X381322Y312940D01*
X381166Y313018D01*
X381146Y313038D01*
X381107Y313057D01*
X381049Y313116D01*
X380971Y313214D01*
X380893Y313311D01*
X380795Y313448D01*
X380737Y313584D01*
X380678Y313760D01*
X380659Y313740D01*
X380639Y313721D01*
X380581Y313662D01*
X380503Y313604D01*
X380405Y313526D01*
X380288Y313448D01*
X379995Y313272D01*
X379644Y313077D01*
X379235Y312921D01*
X378786Y312804D01*
X378552Y312784D01*
X378298Y312765D01*
X378162D01*
X378064Y312784D01*
X377928Y312804D01*
X377791Y312823D01*
X377459Y312882D01*
X377069Y312999D01*
X376679Y313194D01*
X376484Y313292D01*
X376269Y313428D01*
X376074Y313584D01*
X375899Y313760D01*
X375879Y313779D01*
X375860Y313799D01*
X375821Y313857D01*
X375743Y313935D01*
X375684Y314033D01*
X375606Y314169D01*
X375509Y314306D01*
X375431Y314462D01*
X375255Y314852D01*
X375099Y315301D01*
X374982Y315828D01*
X374963Y316101D01*
X374943Y316413D01*
Y316432D01*
Y316510D01*
Y316608D01*
X374963Y316764D01*
X374982Y316939D01*
X375002Y317154D01*
X375041Y317388D01*
X375080Y317642D01*
X375158Y317934D01*
X375216Y318227D01*
X375314Y318539D01*
X375431Y318851D01*
X375567Y319183D01*
X375723Y319514D01*
X375899Y319846D01*
X376094Y320158D01*
X376114Y320178D01*
X376152Y320256D01*
X376231Y320353D01*
X376348Y320490D01*
X376484Y320646D01*
X376640Y320821D01*
X376835Y320997D01*
X377069Y321192D01*
X377303Y321387D01*
X377576Y321563D01*
X377869Y321738D01*
X378181Y321894D01*
X378532Y322031D01*
X378884Y322128D01*
X379274Y322206D01*
X379664Y322226D01*
X379820D01*
X379917Y322206D01*
X380054Y322187D01*
X380191Y322167D01*
X380542Y322070D01*
X380912Y321933D01*
X381107Y321836D01*
X381302Y321719D01*
X381478Y321582D01*
X381654Y321407D01*
X381810Y321231D01*
X381966Y321016D01*
X382180Y322011D01*
X384482D01*
X383175Y315730D01*
Y315711D01*
X383156Y315632D01*
X383136Y315535D01*
X383117Y315418D01*
X383078Y315164D01*
X383058Y315047D01*
Y314969D01*
Y314930D01*
X383078Y314852D01*
X383097Y314735D01*
X383156Y314638D01*
X383175Y314618D01*
X383214Y314599D01*
X383292Y314559D01*
X383390Y314540D01*
X383468D01*
X383546Y314559D01*
X383682Y314599D01*
X383838Y314657D01*
X384014Y314755D01*
X384229Y314872D01*
X384463Y315047D01*
X384482D01*
X384502Y315086D01*
X384619Y315164D01*
X384775Y315320D01*
X384989Y315515D01*
X385204Y315769D01*
X385457Y316081D01*
X385691Y316432D01*
X385906Y316822D01*
Y316842D01*
X385926Y316881D01*
X385965Y316939D01*
X386004Y317017D01*
X386043Y317115D01*
X386082Y317251D01*
X386199Y317544D01*
X386296Y317895D01*
X386394Y318285D01*
X386452Y318695D01*
X386472Y319144D01*
Y319163D01*
Y319241D01*
Y319358D01*
X386452Y319514D01*
X386433Y319690D01*
X386394Y319904D01*
X386335Y320139D01*
X386277Y320412D01*
X386199Y320685D01*
X386101Y320977D01*
X385965Y321270D01*
X385809Y321582D01*
X385633Y321875D01*
X385418Y322187D01*
X385184Y322480D01*
X384911Y322753D01*
X384892Y322772D01*
X384833Y322811D01*
X384755Y322889D01*
X384619Y322987D01*
X384463Y323084D01*
X384268Y323221D01*
X384053Y323357D01*
X383780Y323494D01*
X383487Y323630D01*
X383156Y323747D01*
X382804Y323884D01*
X382414Y323982D01*
X382005Y324079D01*
X381556Y324157D01*
X381068Y324196D01*
X380561Y324216D01*
X380327D01*
X380171Y324196D01*
X379956D01*
X379722Y324157D01*
X379469Y324138D01*
X379176Y324099D01*
X378552Y323982D01*
X377869Y323806D01*
X377537Y323689D01*
X377186Y323572D01*
X376855Y323416D01*
X376543Y323240D01*
X376523Y323221D01*
X376465Y323201D01*
X376387Y323143D01*
X376269Y323065D01*
X376133Y322967D01*
X375977Y322831D01*
X375801Y322694D01*
X375626Y322538D01*
X375431Y322343D01*
X375216Y322148D01*
X375021Y321914D01*
X374807Y321680D01*
X374416Y321133D01*
X374065Y320509D01*
Y320490D01*
X374026Y320431D01*
X373987Y320334D01*
X373929Y320197D01*
X373870Y320041D01*
X373812Y319846D01*
X373734Y319631D01*
X373656Y319397D01*
X373577Y319124D01*
X373499Y318851D01*
X373382Y318227D01*
X373285Y317564D01*
X373246Y316861D01*
Y316842D01*
Y316783D01*
Y316686D01*
X373265Y316549D01*
Y316393D01*
X373304Y316198D01*
X373324Y315984D01*
X373363Y315749D01*
X373480Y315223D01*
X373636Y314657D01*
X373870Y314091D01*
X374007Y313799D01*
X374163Y313506D01*
X374182Y313487D01*
X374202Y313448D01*
X374260Y313370D01*
X374338Y313253D01*
X374436Y313136D01*
X374553Y312999D01*
X374689Y312843D01*
X374846Y312667D01*
X375021Y312492D01*
X375216Y312316D01*
X375665Y311946D01*
X376191Y311594D01*
X376777Y311302D01*
X376796D01*
X376855Y311263D01*
X376952Y311243D01*
X377069Y311185D01*
X377225Y311146D01*
X377421Y311087D01*
X377635Y311009D01*
X377889Y310951D01*
X378162Y310892D01*
X378454Y310814D01*
X378767Y310756D01*
X379098Y310717D01*
X379839Y310639D01*
X380620Y310600D01*
X380815D01*
X380971Y310619D01*
X381146D01*
X381361Y310639D01*
X381595Y310658D01*
X381849Y310678D01*
X382414Y310736D01*
X383019Y310853D01*
X383624Y310990D01*
X384209Y311185D01*
X384229D01*
X384268Y311204D01*
X384346Y311243D01*
X384463Y311302D01*
X384580Y311360D01*
X384736Y311438D01*
X385087Y311633D01*
X385457Y311868D01*
X385867Y312180D01*
X386277Y312531D01*
X386647Y312940D01*
X388520D01*
Y312921D01*
X388481Y312862D01*
X388423Y312765D01*
X388364Y312648D01*
X388266Y312492D01*
X388149Y312336D01*
X388013Y312141D01*
X387857Y311926D01*
X387681Y311712D01*
X387486Y311477D01*
X387252Y311263D01*
X387018Y311029D01*
X386745Y310795D01*
X386472Y310580D01*
X386160Y310366D01*
X385828Y310170D01*
X385809Y310151D01*
X385731Y310112D01*
X385614Y310053D01*
X385457Y309995D01*
X385262Y309897D01*
X385009Y309800D01*
X384736Y309702D01*
X384423Y309585D01*
X384072Y309468D01*
X383682Y309371D01*
X383273Y309273D01*
X382824Y309176D01*
X382356Y309117D01*
X381849Y309058D01*
X381322Y309020D01*
X380776Y309000D01*
X380503D01*
X380288Y309020D01*
X380034Y309039D01*
X379761Y309058D01*
X379430Y309078D01*
X379079Y309117D01*
X378688Y309176D01*
X378279Y309234D01*
X377459Y309410D01*
X377030Y309527D01*
X376601Y309663D01*
X376191Y309800D01*
X375782Y309975D01*
X375762Y309995D01*
X375684Y310014D01*
X375587Y310073D01*
X375450Y310151D01*
X375275Y310268D01*
X375060Y310385D01*
X374846Y310522D01*
X374611Y310697D01*
X374358Y310892D01*
X374104Y311107D01*
X373851Y311341D01*
X373597Y311594D01*
X373343Y311868D01*
X373109Y312180D01*
X372875Y312492D01*
X372680Y312843D01*
X372661Y312862D01*
X372641Y312921D01*
X372583Y313038D01*
X372524Y313174D01*
X372446Y313350D01*
X372368Y313565D01*
X372271Y313799D01*
X372173Y314072D01*
X372076Y314364D01*
X371978Y314677D01*
X371900Y315028D01*
X371822Y315379D01*
X371705Y316159D01*
X371685Y316569D01*
X371666Y316978D01*
Y316998D01*
Y317096D01*
Y317213D01*
X371685Y317388D01*
X371705Y317622D01*
X371724Y317876D01*
X371763Y318149D01*
X371802Y318480D01*
X371880Y318812D01*
X371939Y319183D01*
X372037Y319553D01*
X372154Y319944D01*
X372290Y320353D01*
X372446Y320763D01*
X372622Y321153D01*
X372817Y321563D01*
X372836Y321582D01*
X372875Y321660D01*
X372934Y321758D01*
X373031Y321914D01*
X373148Y322089D01*
X373285Y322284D01*
X373461Y322519D01*
X373656Y322753D01*
X373870Y323006D01*
X374104Y323279D01*
X374377Y323533D01*
X374650Y323806D01*
X374963Y324059D01*
X375275Y324313D01*
X375626Y324528D01*
X375996Y324742D01*
X376016Y324762D01*
X376094Y324781D01*
X376191Y324840D01*
X376348Y324918D01*
X376543Y324996D01*
X376777Y325074D01*
X377030Y325172D01*
X377323Y325289D01*
X377654Y325386D01*
X378006Y325484D01*
X378376Y325562D01*
X378786Y325640D01*
X379215Y325718D01*
X379664Y325776D01*
X380112Y325796D01*
X380600Y325815D01*
X380815D01*
X380971Y325796D01*
D02*
G37*
G36*
X469104Y314930D02*
X475522D01*
Y312765D01*
X466510D01*
Y325464D01*
X469104D01*
Y314930D01*
D02*
G37*
G36*
X463993Y323416D02*
X457107D01*
Y320568D01*
X463506D01*
Y318403D01*
X457107D01*
Y314930D01*
X464247D01*
Y312765D01*
X454513D01*
Y325581D01*
X463993D01*
Y323416D01*
D02*
G37*
G36*
X440117Y323416D02*
X433231D01*
Y320568D01*
X439629D01*
Y318403D01*
X433231D01*
Y314930D01*
X440370D01*
Y312765D01*
X430636D01*
Y325581D01*
X440117D01*
Y323416D01*
D02*
G37*
G36*
X422970Y325562D02*
X423321Y325542D01*
X423731Y325523D01*
X424121Y325484D01*
X424511Y325406D01*
X424862Y325327D01*
X424882D01*
X424921Y325308D01*
X424979Y325289D01*
X425057Y325269D01*
X425252Y325172D01*
X425525Y325054D01*
X425818Y324898D01*
X426130Y324684D01*
X426462Y324430D01*
X426774Y324138D01*
X426793D01*
X426813Y324099D01*
X426910Y323982D01*
X427047Y323806D01*
X427242Y323572D01*
X427437Y323260D01*
X427632Y322909D01*
X427827Y322519D01*
X428003Y322070D01*
Y322050D01*
X428022Y322011D01*
X428042Y321953D01*
X428061Y321855D01*
X428100Y321738D01*
X428139Y321582D01*
X428178Y321426D01*
X428217Y321231D01*
X428256Y321016D01*
X428295Y320802D01*
X428373Y320275D01*
X428412Y319690D01*
X428432Y319046D01*
Y319027D01*
Y318968D01*
Y318890D01*
Y318773D01*
X428412Y318636D01*
Y318480D01*
X428373Y318110D01*
X428334Y317681D01*
X428256Y317232D01*
X428159Y316764D01*
X428022Y316315D01*
Y316296D01*
X428003Y316257D01*
X427983Y316179D01*
X427944Y316081D01*
X427886Y315964D01*
X427827Y315828D01*
X427671Y315515D01*
X427476Y315145D01*
X427242Y314774D01*
X426969Y314403D01*
X426657Y314052D01*
X426618Y314033D01*
X426540Y313935D01*
X426384Y313818D01*
X426189Y313682D01*
X425915Y313506D01*
X425603Y313331D01*
X425252Y313174D01*
X424842Y313018D01*
X424803Y312999D01*
X424686Y312980D01*
X424511Y312940D01*
X424238Y312901D01*
X423926Y312843D01*
X423535Y312804D01*
X423067Y312784D01*
X422560Y312765D01*
X417722D01*
Y325581D01*
X422814D01*
X422970Y325562D01*
D02*
G37*
G36*
X415264Y323416D02*
X408378D01*
Y320568D01*
X414777D01*
Y318403D01*
X408378D01*
Y314930D01*
X415518D01*
Y312765D01*
X405784D01*
Y325581D01*
X415264D01*
Y323416D01*
D02*
G37*
G36*
X403638D02*
X397454D01*
Y320373D01*
X402799D01*
Y318207D01*
X397454D01*
Y312765D01*
X394860D01*
Y325581D01*
X403638D01*
Y323416D01*
D02*
G37*
G36*
X491292Y366844D02*
X487603D01*
Y370241D01*
X491292D01*
Y366844D01*
D02*
G37*
G36*
X467571Y351000D02*
X464144D01*
Y353021D01*
X464115Y352962D01*
X463998Y352816D01*
X463793Y352611D01*
X463559Y352347D01*
X463266Y352084D01*
X462914Y351762D01*
X462533Y351498D01*
X462094Y351234D01*
X462036Y351205D01*
X461889Y351146D01*
X461684Y351059D01*
X461391Y350941D01*
X461040Y350824D01*
X460630Y350736D01*
X460220Y350678D01*
X459781Y350649D01*
X459546D01*
X459371Y350678D01*
X459166Y350707D01*
X458931Y350766D01*
X458375Y350883D01*
X457730Y351117D01*
X457379Y351264D01*
X457028Y351469D01*
X456676Y351674D01*
X456354Y351937D01*
X456003Y352230D01*
X455681Y352581D01*
X455651Y352611D01*
X455622Y352669D01*
X455534Y352786D01*
X455417Y352933D01*
X455300Y353138D01*
X455153Y353372D01*
X454978Y353665D01*
X454831Y353987D01*
X454685Y354339D01*
X454509Y354749D01*
X454363Y355188D01*
X454245Y355686D01*
X454128Y356184D01*
X454070Y356740D01*
X454011Y357355D01*
X453982Y357970D01*
Y357999D01*
Y358117D01*
Y358322D01*
X454011Y358556D01*
X454040Y358849D01*
X454070Y359200D01*
X454128Y359581D01*
X454187Y359962D01*
X454392Y360840D01*
X454685Y361748D01*
X454860Y362187D01*
X455095Y362597D01*
X455329Y363007D01*
X455622Y363359D01*
X455651Y363388D01*
X455710Y363447D01*
X455798Y363535D01*
X455915Y363652D01*
X456091Y363798D01*
X456296Y363945D01*
X456530Y364120D01*
X456764Y364296D01*
X457057Y364472D01*
X457379Y364647D01*
X458111Y364940D01*
X458492Y365057D01*
X458931Y365145D01*
X459371Y365204D01*
X459839Y365233D01*
X460073D01*
X460220Y365204D01*
X460425Y365174D01*
X460659Y365116D01*
X461216Y364999D01*
X461831Y364765D01*
X462182Y364589D01*
X462533Y364413D01*
X462856Y364179D01*
X463207Y363915D01*
X463559Y363622D01*
X463881Y363271D01*
Y370241D01*
X467571D01*
Y351000D01*
D02*
G37*
G36*
X451229Y365204D02*
X451551Y365145D01*
X451903Y365057D01*
X452342Y364940D01*
X452781Y364765D01*
X453220Y364530D01*
X452078Y361309D01*
X452049Y361338D01*
X451932Y361397D01*
X451727Y361514D01*
X451522Y361631D01*
X451229Y361719D01*
X450936Y361836D01*
X450643Y361894D01*
X450321Y361924D01*
X450204D01*
X450057Y361894D01*
X449882Y361865D01*
X449677Y361807D01*
X449442Y361748D01*
X449208Y361631D01*
X449003Y361484D01*
X448974Y361455D01*
X448915Y361397D01*
X448828Y361279D01*
X448710Y361133D01*
X448564Y360928D01*
X448418Y360635D01*
X448271Y360313D01*
X448154Y359932D01*
Y359874D01*
X448125Y359815D01*
X448095Y359698D01*
Y359581D01*
X448066Y359405D01*
X448037Y359171D01*
X448008Y358937D01*
X447978Y358644D01*
X447949Y358322D01*
X447920Y357941D01*
Y357501D01*
X447890Y357033D01*
X447861Y356506D01*
Y355920D01*
Y355276D01*
Y351000D01*
X444171D01*
Y364940D01*
X447598D01*
Y362978D01*
X447627Y363007D01*
X447744Y363183D01*
X447920Y363417D01*
X448125Y363710D01*
X448359Y364032D01*
X448623Y364325D01*
X448915Y364589D01*
X449179Y364794D01*
X449208Y364823D01*
X449296Y364852D01*
X449442Y364940D01*
X449647Y365028D01*
X449882Y365087D01*
X450145Y365174D01*
X450438Y365204D01*
X450760Y365233D01*
X450965D01*
X451229Y365204D01*
D02*
G37*
G36*
X503446D02*
X503739Y365174D01*
X504091Y365116D01*
X504471Y365057D01*
X504852Y364940D01*
X505233Y364794D01*
X505291Y364765D01*
X505409Y364706D01*
X505584Y364618D01*
X505789Y364501D01*
X506053Y364325D01*
X506287Y364120D01*
X506551Y363915D01*
X506756Y363652D01*
X506785Y363622D01*
X506843Y363535D01*
X506931Y363388D01*
X507048Y363212D01*
X507166Y362978D01*
X507283Y362715D01*
X507400Y362422D01*
X507488Y362099D01*
Y362070D01*
X507517Y361953D01*
X507546Y361748D01*
X507605Y361484D01*
X507634Y361133D01*
X507663Y360694D01*
X507693Y360196D01*
Y359639D01*
Y351000D01*
X504003D01*
Y358087D01*
Y358117D01*
Y358175D01*
Y358292D01*
Y358439D01*
Y358644D01*
Y358849D01*
X503973Y359288D01*
X503944Y359786D01*
X503886Y360254D01*
X503827Y360664D01*
X503798Y360840D01*
X503739Y360987D01*
Y361016D01*
X503710Y361104D01*
X503651Y361221D01*
X503563Y361367D01*
X503329Y361719D01*
X502978Y362041D01*
X502948Y362070D01*
X502890Y362099D01*
X502773Y362158D01*
X502626Y362246D01*
X502451Y362304D01*
X502216Y362363D01*
X501982Y362392D01*
X501718Y362422D01*
X501543D01*
X501367Y362392D01*
X501133Y362363D01*
X500869Y362304D01*
X500576Y362187D01*
X500283Y362070D01*
X499991Y361894D01*
X499961Y361865D01*
X499873Y361807D01*
X499756Y361689D01*
X499580Y361514D01*
X499434Y361309D01*
X499258Y361074D01*
X499083Y360811D01*
X498965Y360489D01*
Y360460D01*
X498936Y360313D01*
X498878Y360108D01*
X498848Y359786D01*
X498819Y359581D01*
X498790Y359347D01*
X498760Y359083D01*
X498731Y358790D01*
Y358468D01*
X498702Y358117D01*
Y357706D01*
Y357296D01*
Y351000D01*
X495012D01*
Y364940D01*
X498438D01*
Y362890D01*
X498468Y362920D01*
X498526Y362978D01*
X498614Y363095D01*
X498760Y363271D01*
X498936Y363447D01*
X499170Y363622D01*
X499405Y363857D01*
X499698Y364062D01*
X500020Y364267D01*
X500342Y364501D01*
X500723Y364677D01*
X501133Y364882D01*
X501572Y365028D01*
X502011Y365145D01*
X502509Y365204D01*
X503007Y365233D01*
X503212D01*
X503446Y365204D01*
D02*
G37*
G36*
X349694Y362744D02*
X357308Y351000D01*
X352300D01*
X346999Y360020D01*
X343895Y356799D01*
Y351000D01*
X340000D01*
Y370241D01*
X343895D01*
Y361719D01*
X351715Y370241D01*
X356927D01*
X349694Y362744D01*
D02*
G37*
G36*
X483795Y351000D02*
X480369D01*
Y353079D01*
X480340Y353021D01*
X480222Y352904D01*
X480076Y352699D01*
X479842Y352435D01*
X479549Y352142D01*
X479197Y351849D01*
X478787Y351556D01*
X478348Y351293D01*
X478289Y351264D01*
X478143Y351205D01*
X477879Y351088D01*
X477557Y350971D01*
X477177Y350854D01*
X476737Y350736D01*
X476239Y350678D01*
X475742Y350649D01*
X475507D01*
X475244Y350678D01*
X474892Y350736D01*
X474511Y350795D01*
X474101Y350912D01*
X473662Y351059D01*
X473223Y351264D01*
X473164Y351293D01*
X473047Y351381D01*
X472842Y351527D01*
X472608Y351703D01*
X472344Y351967D01*
X472081Y352259D01*
X471817Y352611D01*
X471612Y352991D01*
X471583Y353050D01*
X471554Y353196D01*
X471466Y353460D01*
X471378Y353811D01*
X471290Y354251D01*
X471231Y354778D01*
X471173Y355393D01*
X471144Y356096D01*
Y364940D01*
X474834D01*
Y358497D01*
Y358468D01*
Y358380D01*
Y358234D01*
Y358029D01*
Y357794D01*
Y357531D01*
X474863Y356945D01*
Y356301D01*
X474921Y355715D01*
Y355452D01*
X474951Y355217D01*
X474980Y355012D01*
X475009Y354866D01*
Y354837D01*
X475039Y354749D01*
X475097Y354632D01*
X475185Y354485D01*
X475419Y354163D01*
X475566Y353987D01*
X475742Y353841D01*
X475771Y353811D01*
X475829Y353782D01*
X475976Y353724D01*
X476122Y353665D01*
X476327Y353577D01*
X476562Y353519D01*
X476825Y353489D01*
X477118Y353460D01*
X477264D01*
X477440Y353489D01*
X477674Y353519D01*
X477938Y353577D01*
X478231Y353665D01*
X478494Y353782D01*
X478787Y353958D01*
X478817Y353987D01*
X478904Y354046D01*
X479051Y354163D01*
X479197Y354309D01*
X479373Y354514D01*
X479549Y354719D01*
X479695Y354983D01*
X479812Y355247D01*
Y355276D01*
X479871Y355422D01*
Y355510D01*
X479900Y355657D01*
X479930Y355832D01*
X479959Y356008D01*
X479988Y356242D01*
X480017Y356506D01*
X480047Y356828D01*
Y357179D01*
X480076Y357560D01*
X480105Y357999D01*
Y358497D01*
Y359024D01*
Y364940D01*
X483795D01*
Y351000D01*
D02*
G37*
G36*
X491292D02*
X487603D01*
Y364940D01*
X491292D01*
Y351000D01*
D02*
G37*
G36*
X442326D02*
X438109D01*
X436469Y355364D01*
X428708D01*
X427127Y351000D01*
X423026D01*
X430494Y370241D01*
X434594D01*
X442326Y351000D01*
D02*
G37*
G36*
X386126Y370212D02*
X386741D01*
X387063Y370182D01*
X387795Y370124D01*
X388527Y370007D01*
X389230Y369890D01*
X389552Y369802D01*
X389816Y369714D01*
X389845D01*
X389874Y369685D01*
X390050Y369626D01*
X390314Y369480D01*
X390636Y369275D01*
X390987Y369011D01*
X391368Y368689D01*
X391719Y368308D01*
X392071Y367840D01*
X392100Y367781D01*
X392217Y367605D01*
X392334Y367342D01*
X392510Y366961D01*
X392657Y366522D01*
X392803Y366024D01*
X392891Y365438D01*
X392920Y364823D01*
Y364794D01*
Y364735D01*
Y364618D01*
X392891Y364472D01*
Y364267D01*
X392862Y364062D01*
X392774Y363564D01*
X392598Y363007D01*
X392364Y362392D01*
X392071Y361807D01*
X391866Y361514D01*
X391632Y361250D01*
Y361221D01*
X391573Y361192D01*
X391485Y361133D01*
X391397Y361016D01*
X391251Y360928D01*
X391104Y360782D01*
X390899Y360635D01*
X390694Y360489D01*
X390431Y360342D01*
X390167Y360196D01*
X389845Y360049D01*
X389494Y359903D01*
X389142Y359757D01*
X388732Y359639D01*
X388322Y359552D01*
X387854Y359464D01*
X387883D01*
X387912Y359434D01*
X388059Y359347D01*
X388293Y359200D01*
X388586Y358995D01*
X388908Y358761D01*
X389259Y358468D01*
X389611Y358175D01*
X389933Y357853D01*
X389962Y357824D01*
X390079Y357677D01*
X390255Y357472D01*
X390519Y357150D01*
X390841Y356711D01*
X391192Y356184D01*
X391427Y355862D01*
X391632Y355510D01*
X391866Y355159D01*
X392129Y354749D01*
X394472Y351000D01*
X389816D01*
X387063Y355159D01*
X387034Y355188D01*
X387004Y355247D01*
X386917Y355364D01*
X386829Y355510D01*
X386712Y355715D01*
X386565Y355891D01*
X386243Y356359D01*
X385921Y356857D01*
X385569Y357296D01*
X385247Y357706D01*
X385130Y357882D01*
X385013Y357999D01*
X384984Y358029D01*
X384925Y358087D01*
X384808Y358204D01*
X384661Y358322D01*
X384281Y358585D01*
X384076Y358702D01*
X383841Y358790D01*
X383812D01*
X383724Y358819D01*
X383578Y358878D01*
X383373Y358907D01*
X383109Y358966D01*
X382787Y358995D01*
X382377Y359024D01*
X381147D01*
Y351000D01*
X377252D01*
Y370241D01*
X385862D01*
X386126Y370212D01*
D02*
G37*
G36*
X373562Y366990D02*
X363224D01*
Y362715D01*
X372830D01*
Y359464D01*
X363224D01*
Y354251D01*
X373943D01*
Y351000D01*
X359329D01*
Y370241D01*
X373562D01*
Y366990D01*
D02*
G37*
G36*
X518294Y365204D02*
X518558Y365174D01*
X518880Y365116D01*
X519202Y365057D01*
X519583Y364969D01*
X519993Y364852D01*
X520403Y364735D01*
X520842Y364560D01*
X521252Y364355D01*
X521692Y364120D01*
X522131Y363827D01*
X522541Y363535D01*
X522922Y363154D01*
X522951Y363125D01*
X523009Y363066D01*
X523097Y362949D01*
X523244Y362773D01*
X523390Y362597D01*
X523566Y362334D01*
X523742Y362070D01*
X523947Y361748D01*
X524122Y361367D01*
X524298Y360987D01*
X524474Y360547D01*
X524620Y360108D01*
X524767Y359610D01*
X524855Y359083D01*
X524913Y358556D01*
X524942Y357970D01*
Y357941D01*
Y357824D01*
Y357677D01*
X524913Y357443D01*
X524884Y357179D01*
X524825Y356857D01*
X524767Y356506D01*
X524679Y356125D01*
X524591Y355715D01*
X524445Y355305D01*
X524269Y354866D01*
X524093Y354426D01*
X523829Y353987D01*
X523566Y353548D01*
X523244Y353138D01*
X522892Y352728D01*
X522863Y352699D01*
X522804Y352640D01*
X522687Y352523D01*
X522541Y352406D01*
X522336Y352259D01*
X522102Y352084D01*
X521809Y351879D01*
X521487Y351703D01*
X521135Y351498D01*
X520754Y351293D01*
X520344Y351117D01*
X519876Y350971D01*
X519407Y350854D01*
X518880Y350736D01*
X518324Y350678D01*
X517767Y350649D01*
X517445D01*
X517269Y350678D01*
X517064Y350707D01*
X516596Y350766D01*
X516039Y350854D01*
X515424Y351000D01*
X514780Y351205D01*
X514136Y351498D01*
X514106D01*
X514048Y351527D01*
X513960Y351586D01*
X513843Y351674D01*
X513550Y351879D01*
X513169Y352142D01*
X512730Y352494D01*
X512291Y352933D01*
X511881Y353460D01*
X511500Y354046D01*
Y354075D01*
X511471Y354134D01*
X511412Y354221D01*
X511354Y354339D01*
X511295Y354514D01*
X511236Y354690D01*
X511149Y354924D01*
X511061Y355188D01*
X510914Y355774D01*
X510768Y356477D01*
X510651Y357267D01*
X510621Y358117D01*
Y358146D01*
Y358204D01*
Y358292D01*
X510651Y358439D01*
Y358585D01*
X510680Y358790D01*
X510739Y359259D01*
X510826Y359815D01*
X511002Y360401D01*
X511207Y361045D01*
X511500Y361689D01*
Y361719D01*
X511529Y361777D01*
X511588Y361865D01*
X511676Y361982D01*
X511881Y362275D01*
X512174Y362656D01*
X512525Y363095D01*
X512964Y363535D01*
X513462Y363945D01*
X514048Y364325D01*
X514077D01*
X514136Y364355D01*
X514224Y364413D01*
X514341Y364472D01*
X514487Y364530D01*
X514692Y364618D01*
X515131Y364794D01*
X515688Y364940D01*
X516332Y365087D01*
X517006Y365204D01*
X517767Y365233D01*
X518060D01*
X518294Y365204D01*
D02*
G37*
G36*
X405542Y370534D02*
X405835D01*
X406187Y370475D01*
X406597Y370417D01*
X407065Y370329D01*
X407563Y370241D01*
X408120Y370095D01*
X408647Y369919D01*
X409233Y369685D01*
X409789Y369450D01*
X410345Y369128D01*
X410902Y368777D01*
X411429Y368367D01*
X411927Y367898D01*
X411956Y367869D01*
X412044Y367781D01*
X412161Y367635D01*
X412337Y367400D01*
X412513Y367137D01*
X412747Y366815D01*
X412952Y366434D01*
X413215Y365994D01*
X413450Y365497D01*
X413684Y364940D01*
X413889Y364355D01*
X414065Y363710D01*
X414240Y363007D01*
X414358Y362246D01*
X414445Y361426D01*
X414475Y360577D01*
Y360518D01*
Y360372D01*
X414445Y360137D01*
Y359815D01*
X414387Y359405D01*
X414328Y358966D01*
X414270Y358439D01*
X414153Y357912D01*
X414035Y357326D01*
X413860Y356740D01*
X413655Y356125D01*
X413391Y355510D01*
X413098Y354924D01*
X412776Y354339D01*
X412366Y353782D01*
X411927Y353255D01*
X411898Y353226D01*
X411810Y353138D01*
X411663Y353021D01*
X411458Y352845D01*
X411224Y352640D01*
X410902Y352435D01*
X410550Y352201D01*
X410140Y351967D01*
X409672Y351703D01*
X409174Y351469D01*
X408618Y351264D01*
X408003Y351059D01*
X407358Y350883D01*
X406685Y350766D01*
X405952Y350678D01*
X405162Y350649D01*
X404986D01*
X404752Y350678D01*
X404459D01*
X404108Y350736D01*
X403668Y350795D01*
X403200Y350854D01*
X402702Y350971D01*
X402175Y351117D01*
X401618Y351293D01*
X401062Y351498D01*
X400505Y351762D01*
X399920Y352054D01*
X399392Y352406D01*
X398865Y352786D01*
X398367Y353255D01*
X398338Y353284D01*
X398250Y353372D01*
X398133Y353519D01*
X397987Y353724D01*
X397782Y353987D01*
X397577Y354309D01*
X397342Y354690D01*
X397108Y355129D01*
X396874Y355627D01*
X396640Y356154D01*
X396435Y356740D01*
X396230Y357384D01*
X396083Y358087D01*
X395966Y358819D01*
X395878Y359610D01*
X395849Y360460D01*
Y360489D01*
Y360606D01*
Y360752D01*
Y360957D01*
X395878Y361221D01*
X395907Y361514D01*
Y361836D01*
X395966Y362187D01*
X396054Y362978D01*
X396200Y363798D01*
X396405Y364618D01*
X396698Y365409D01*
Y365438D01*
X396727Y365467D01*
X396815Y365643D01*
X396962Y365936D01*
X397167Y366287D01*
X397430Y366697D01*
X397723Y367137D01*
X398104Y367605D01*
X398484Y368045D01*
X398543Y368103D01*
X398690Y368250D01*
X398924Y368455D01*
X399217Y368689D01*
X399597Y368982D01*
X400007Y369275D01*
X400476Y369538D01*
X400974Y369772D01*
X401003D01*
X401062Y369802D01*
X401150Y369860D01*
X401296Y369890D01*
X401472Y369948D01*
X401677Y370036D01*
X401911Y370095D01*
X402175Y370182D01*
X402790Y370300D01*
X403493Y370446D01*
X404283Y370534D01*
X405132Y370563D01*
X405308D01*
X405542Y370534D01*
D02*
G37*
%LPC*%
G36*
X400810Y339263D02*
X398878D01*
Y335616D01*
X400653D01*
X400790Y335635D01*
X401102D01*
X401453Y335655D01*
X401785Y335694D01*
X402078Y335752D01*
X402214Y335772D01*
X402312Y335811D01*
X402331Y335830D01*
X402390Y335850D01*
X402487Y335889D01*
X402604Y335967D01*
X402741Y336045D01*
X402877Y336162D01*
X403014Y336279D01*
X403131Y336435D01*
X403150Y336454D01*
X403170Y336513D01*
X403228Y336610D01*
X403287Y336727D01*
X403326Y336864D01*
X403385Y337040D01*
X403404Y337235D01*
X403424Y337430D01*
Y337469D01*
Y337547D01*
X403404Y337683D01*
X403365Y337839D01*
X403326Y338015D01*
X403248Y338210D01*
X403150Y338405D01*
X403014Y338581D01*
X402994Y338600D01*
X402936Y338659D01*
X402858Y338737D01*
X402721Y338834D01*
X402585Y338932D01*
X402390Y339029D01*
X402195Y339107D01*
X401960Y339166D01*
X401941D01*
X401863Y339185D01*
X401746Y339205D01*
X401570Y339224D01*
X401317D01*
X400985Y339244D01*
X400810Y339263D01*
D02*
G37*
G36*
X389944Y339517D02*
X389827D01*
X389691Y339497D01*
X389534Y339459D01*
X389359Y339420D01*
X389164Y339342D01*
X388988Y339224D01*
X388813Y339088D01*
X388793Y339068D01*
X388754Y339010D01*
X388676Y338912D01*
X388618Y338795D01*
X388540Y338639D01*
X388461Y338444D01*
X388423Y338230D01*
X388403Y337976D01*
Y337937D01*
Y337859D01*
X388423Y337722D01*
X388461Y337566D01*
X388501Y337391D01*
X388579Y337196D01*
X388676Y337020D01*
X388813Y336845D01*
X388832Y336825D01*
X388891Y336786D01*
X388988Y336708D01*
X389105Y336650D01*
X389261Y336572D01*
X389456Y336493D01*
X389671Y336454D01*
X389925Y336435D01*
X390042D01*
X390159Y336454D01*
X390315Y336493D01*
X390490Y336532D01*
X390685Y336610D01*
X390861Y336708D01*
X391036Y336845D01*
X391056Y336864D01*
X391095Y336923D01*
X391173Y337020D01*
X391251Y337137D01*
X391329Y337313D01*
X391407Y337508D01*
X391446Y337742D01*
X391466Y337995D01*
Y338035D01*
Y338112D01*
X391446Y338230D01*
X391407Y338386D01*
X391368Y338561D01*
X391290Y338737D01*
X391173Y338932D01*
X391036Y339088D01*
X391017Y339107D01*
X390959Y339146D01*
X390880Y339224D01*
X390744Y339302D01*
X390588Y339380D01*
X390412Y339459D01*
X390178Y339497D01*
X389944Y339517D01*
D02*
G37*
G36*
Y334484D02*
X389788D01*
X389632Y334445D01*
X389437Y334406D01*
X389222Y334328D01*
X389008Y334231D01*
X388793Y334075D01*
X388598Y333860D01*
X388579Y333840D01*
X388540Y333743D01*
X388461Y333626D01*
X388383Y333450D01*
X388306Y333255D01*
X388227Y333021D01*
X388188Y332768D01*
X388169Y332495D01*
Y332475D01*
Y332455D01*
Y332319D01*
X388188Y332143D01*
X388227Y331909D01*
X388286Y331656D01*
X388383Y331402D01*
X388501Y331148D01*
X388676Y330914D01*
X388696Y330895D01*
X388774Y330836D01*
X388891Y330739D01*
X389047Y330641D01*
X389222Y330524D01*
X389456Y330446D01*
X389710Y330368D01*
X389983Y330349D01*
X390120D01*
X390256Y330388D01*
X390432Y330427D01*
X390627Y330485D01*
X390841Y330583D01*
X391056Y330719D01*
X391251Y330895D01*
X391271Y330914D01*
X391329Y330992D01*
X391407Y331129D01*
X391505Y331305D01*
X391602Y331519D01*
X391680Y331792D01*
X391739Y332104D01*
X391758Y332475D01*
Y332495D01*
Y332514D01*
Y332631D01*
X391739Y332787D01*
X391700Y333002D01*
X391622Y333216D01*
X391544Y333470D01*
X391407Y333704D01*
X391232Y333918D01*
X391212Y333938D01*
X391134Y334016D01*
X391036Y334094D01*
X390880Y334211D01*
X390685Y334309D01*
X390471Y334406D01*
X390217Y334465D01*
X389944Y334484D01*
D02*
G37*
G36*
X379878Y320646D02*
X379742D01*
X379605Y320607D01*
X379410Y320568D01*
X379196Y320509D01*
X378961Y320392D01*
X378727Y320256D01*
X378474Y320061D01*
X378454Y320041D01*
X378376Y319944D01*
X378259Y319827D01*
X378123Y319631D01*
X377967Y319397D01*
X377811Y319124D01*
X377654Y318773D01*
X377518Y318403D01*
Y318383D01*
X377499Y318363D01*
Y318305D01*
X377479Y318227D01*
X377421Y318012D01*
X377362Y317759D01*
X377303Y317466D01*
X377264Y317154D01*
X377225Y316822D01*
X377206Y316510D01*
Y316491D01*
Y316471D01*
Y316413D01*
Y316335D01*
X377225Y316140D01*
X377264Y315886D01*
X377323Y315613D01*
X377401Y315359D01*
X377499Y315086D01*
X377654Y314872D01*
X377674Y314852D01*
X377733Y314794D01*
X377830Y314716D01*
X377967Y314618D01*
X378123Y314520D01*
X378318Y314443D01*
X378532Y314384D01*
X378767Y314364D01*
X378844D01*
X378942Y314384D01*
X379059Y314403D01*
X379215Y314423D01*
X379371Y314462D01*
X379527Y314520D01*
X379703Y314599D01*
X379722D01*
X379761Y314638D01*
X379820Y314677D01*
X379917Y314735D01*
X380112Y314911D01*
X380346Y315145D01*
X380366Y315164D01*
X380425Y315242D01*
X380522Y315359D01*
X380620Y315535D01*
X380756Y315749D01*
X380873Y316023D01*
X381010Y316335D01*
X381146Y316686D01*
Y316705D01*
X381166Y316725D01*
X381185Y316783D01*
X381205Y316861D01*
X381263Y317057D01*
X381322Y317310D01*
X381380Y317603D01*
X381439Y317934D01*
X381478Y318266D01*
X381497Y318598D01*
Y318617D01*
Y318636D01*
Y318754D01*
X381478Y318929D01*
X381439Y319144D01*
X381380Y319397D01*
X381302Y319651D01*
X381185Y319885D01*
X381029Y320100D01*
X381010Y320119D01*
X380951Y320178D01*
X380854Y320275D01*
X380717Y320373D01*
X380542Y320470D01*
X380346Y320568D01*
X380132Y320626D01*
X379878Y320646D01*
D02*
G37*
G36*
X422014Y323416D02*
X420317D01*
Y314930D01*
X422599D01*
X422833Y314950D01*
X423067D01*
X423340Y314989D01*
X423574Y315008D01*
X423770Y315047D01*
X423789D01*
X423887Y315086D01*
X424004Y315125D01*
X424140Y315164D01*
X424491Y315340D01*
X424667Y315437D01*
X424823Y315574D01*
X424842Y315593D01*
X424901Y315652D01*
X424959Y315730D01*
X425057Y315867D01*
X425174Y316042D01*
X425272Y316257D01*
X425389Y316510D01*
X425486Y316803D01*
Y316822D01*
X425506Y316842D01*
Y316900D01*
X425525Y316959D01*
X425564Y317154D01*
X425623Y317427D01*
X425681Y317759D01*
X425720Y318168D01*
X425740Y318636D01*
X425759Y319163D01*
Y319183D01*
Y319222D01*
Y319300D01*
Y319417D01*
Y319534D01*
X425740Y319670D01*
X425720Y320002D01*
X425701Y320373D01*
X425642Y320743D01*
X425584Y321114D01*
X425486Y321426D01*
X425467Y321465D01*
X425447Y321563D01*
X425389Y321699D01*
X425311Y321875D01*
X425194Y322089D01*
X425076Y322284D01*
X424940Y322499D01*
X424764Y322674D01*
X424745Y322694D01*
X424686Y322753D01*
X424569Y322831D01*
X424433Y322928D01*
X424277Y323026D01*
X424062Y323123D01*
X423828Y323201D01*
X423574Y323279D01*
X423555D01*
X423457Y323299D01*
X423321Y323318D01*
X423106Y323357D01*
X422970D01*
X422814Y323377D01*
X422658D01*
X422463Y323396D01*
X422248D01*
X422014Y323416D01*
D02*
G37*
G36*
X460806Y362422D02*
X460747D01*
X460601Y362392D01*
X460366Y362363D01*
X460044Y362304D01*
X459722Y362158D01*
X459341Y361982D01*
X458990Y361719D01*
X458638Y361367D01*
X458609Y361309D01*
X458492Y361162D01*
X458375Y360928D01*
X458199Y360577D01*
X458053Y360137D01*
X457906Y359610D01*
X457789Y358966D01*
X457760Y358234D01*
Y358204D01*
Y358146D01*
Y358029D01*
Y357853D01*
X457789Y357677D01*
Y357472D01*
X457848Y356974D01*
X457906Y356447D01*
X457994Y355920D01*
X458140Y355422D01*
X458258Y355188D01*
X458345Y354983D01*
Y354954D01*
X458375Y354924D01*
X458521Y354749D01*
X458726Y354544D01*
X458990Y354280D01*
X459341Y354016D01*
X459781Y353782D01*
X460278Y353606D01*
X460542Y353577D01*
X460835Y353548D01*
X460893D01*
X461040Y353577D01*
X461274Y353606D01*
X461567Y353694D01*
X461918Y353811D01*
X462270Y354016D01*
X462621Y354280D01*
X462973Y354632D01*
X463002Y354690D01*
X463119Y354837D01*
X463266Y355100D01*
X463441Y355452D01*
X463588Y355891D01*
X463734Y356447D01*
X463851Y357121D01*
X463881Y357882D01*
Y357912D01*
Y357999D01*
Y358117D01*
Y358263D01*
X463851Y358468D01*
X463822Y358702D01*
X463764Y359229D01*
X463676Y359786D01*
X463500Y360342D01*
X463295Y360899D01*
X463148Y361133D01*
X463002Y361338D01*
X462973Y361397D01*
X462856Y361514D01*
X462651Y361689D01*
X462416Y361894D01*
X462094Y362070D01*
X461713Y362246D01*
X461274Y362363D01*
X460806Y362422D01*
D02*
G37*
G36*
X432515Y365760D02*
X429909Y358614D01*
X435209D01*
X432515Y365760D01*
D02*
G37*
G36*
X385569Y366990D02*
X381147D01*
Y362099D01*
X384896D01*
X385452Y362129D01*
X386038Y362158D01*
X386594Y362187D01*
X386858Y362217D01*
X387063Y362246D01*
X387268Y362304D01*
X387414Y362334D01*
X387444D01*
X387532Y362392D01*
X387649Y362451D01*
X387824Y362509D01*
X388176Y362773D01*
X388352Y362920D01*
X388498Y363125D01*
X388527Y363154D01*
X388557Y363242D01*
X388615Y363359D01*
X388703Y363535D01*
X388791Y363740D01*
X388849Y364003D01*
X388879Y364267D01*
X388908Y364589D01*
Y364618D01*
Y364765D01*
X388879Y364940D01*
X388849Y365145D01*
X388791Y365379D01*
X388674Y365643D01*
X388557Y365907D01*
X388381Y366141D01*
X388352Y366170D01*
X388293Y366229D01*
X388176Y366346D01*
X388000Y366463D01*
X387795Y366610D01*
X387561Y366727D01*
X387268Y366815D01*
X386946Y366902D01*
X386917D01*
X386829Y366932D01*
X386682D01*
X386419Y366961D01*
X385833D01*
X385569Y366990D01*
D02*
G37*
G36*
X517767Y362217D02*
X517709D01*
X517533Y362187D01*
X517269Y362158D01*
X516918Y362070D01*
X516537Y361953D01*
X516157Y361748D01*
X515746Y361484D01*
X515366Y361104D01*
X515336Y361045D01*
X515219Y360899D01*
X515073Y360635D01*
X514897Y360284D01*
X514692Y359844D01*
X514546Y359288D01*
X514429Y358673D01*
X514399Y357941D01*
Y357912D01*
Y357853D01*
Y357736D01*
X514429Y357589D01*
Y357414D01*
X514458Y357238D01*
X514516Y356769D01*
X514634Y356242D01*
X514809Y355715D01*
X515044Y355217D01*
X515366Y354749D01*
X515424Y354690D01*
X515541Y354573D01*
X515746Y354397D01*
X516039Y354221D01*
X516391Y354016D01*
X516801Y353841D01*
X517240Y353724D01*
X517767Y353665D01*
X517826D01*
X518002Y353694D01*
X518265Y353724D01*
X518616Y353811D01*
X518997Y353929D01*
X519378Y354134D01*
X519788Y354397D01*
X520169Y354749D01*
X520198Y354807D01*
X520315Y354954D01*
X520491Y355217D01*
X520667Y355569D01*
X520842Y356008D01*
X521018Y356564D01*
X521135Y357209D01*
X521164Y357941D01*
Y357970D01*
Y358029D01*
Y358146D01*
Y358292D01*
X521135Y358439D01*
X521106Y358644D01*
X521047Y359112D01*
X520930Y359610D01*
X520754Y360137D01*
X520491Y360635D01*
X520169Y361104D01*
X520139Y361162D01*
X519993Y361279D01*
X519788Y361455D01*
X519495Y361660D01*
X519173Y361865D01*
X518763Y362041D01*
X518294Y362158D01*
X517767Y362217D01*
D02*
G37*
G36*
X405162Y367254D02*
X404927D01*
X404752Y367225D01*
X404547Y367195D01*
X404313Y367166D01*
X403785Y367049D01*
X403170Y366844D01*
X402848Y366727D01*
X402526Y366551D01*
X402204Y366346D01*
X401882Y366141D01*
X401589Y365877D01*
X401296Y365584D01*
X401267Y365555D01*
X401237Y365497D01*
X401179Y365409D01*
X401062Y365292D01*
X400974Y365116D01*
X400857Y364882D01*
X400710Y364647D01*
X400593Y364355D01*
X400447Y364032D01*
X400330Y363652D01*
X400183Y363242D01*
X400095Y362802D01*
X400007Y362304D01*
X399920Y361777D01*
X399890Y361221D01*
X399861Y360606D01*
Y360577D01*
Y360460D01*
Y360284D01*
X399890Y360079D01*
X399920Y359786D01*
X399949Y359493D01*
X399978Y359142D01*
X400037Y358761D01*
X400212Y357941D01*
X400505Y357121D01*
X400652Y356711D01*
X400857Y356330D01*
X401091Y355949D01*
X401355Y355627D01*
X401384Y355598D01*
X401413Y355569D01*
X401501Y355481D01*
X401618Y355364D01*
X401765Y355247D01*
X401940Y355100D01*
X402380Y354807D01*
X402936Y354485D01*
X403580Y354221D01*
X403961Y354104D01*
X404342Y354016D01*
X404752Y353987D01*
X405162Y353958D01*
X405396D01*
X405542Y353987D01*
X405747Y354016D01*
X405982Y354046D01*
X406509Y354163D01*
X407095Y354368D01*
X407417Y354514D01*
X407739Y354661D01*
X408061Y354866D01*
X408383Y355071D01*
X408676Y355334D01*
X408969Y355627D01*
X408998Y355657D01*
X409028Y355715D01*
X409115Y355803D01*
X409203Y355949D01*
X409320Y356125D01*
X409438Y356330D01*
X409584Y356594D01*
X409730Y356886D01*
X409848Y357209D01*
X409994Y357589D01*
X410111Y357999D01*
X410228Y358468D01*
X410316Y358937D01*
X410404Y359493D01*
X410433Y360049D01*
X410463Y360664D01*
Y360694D01*
Y360811D01*
Y360987D01*
X410433Y361221D01*
Y361484D01*
X410375Y361807D01*
X410345Y362158D01*
X410287Y362539D01*
X410111Y363330D01*
X409848Y364150D01*
X409672Y364560D01*
X409496Y364940D01*
X409262Y365292D01*
X408998Y365614D01*
X408969Y365643D01*
X408940Y365672D01*
X408852Y365760D01*
X408735Y365877D01*
X408588Y365994D01*
X408413Y366141D01*
X408208Y366287D01*
X407973Y366434D01*
X407446Y366727D01*
X406772Y366990D01*
X406011Y367195D01*
X405601Y367225D01*
X405162Y367254D01*
D02*
G37*
%LPD*%
D10*
X199000Y263000D02*
G03*
X199000Y263000I-1000J0D01*
G01*
D11*
X633550Y170180D02*
G03*
X633550Y157480I0J-6350D01*
G01*
X118684Y492761D02*
G03*
X187152Y495300I33716J15239D01*
G01*
X73000Y284000D02*
X76560D01*
X76780Y284220D01*
Y285780D01*
X54000Y284000D02*
X62000D01*
X41220Y284090D02*
X42910D01*
X41220D02*
Y304410D01*
X76780Y285780D02*
Y304410D01*
X677780Y115000D02*
Y135160D01*
X642220Y114840D02*
X650000D01*
X213000Y82250D02*
X231000D01*
X213000Y22250D02*
X231000D01*
X192000Y32250D02*
Y72250D01*
X252000Y32250D02*
Y72250D01*
X615000Y254000D02*
X655000D01*
X615000Y314000D02*
X655000D01*
X605000Y275000D02*
Y293000D01*
X665000Y275000D02*
Y293000D01*
X133300Y357100D02*
X158700D01*
X133300D02*
Y458700D01*
X158700Y357100D02*
Y458700D01*
X133300D02*
X158700D01*
X182160Y380490D02*
Y413510D01*
X161840D02*
X182160D01*
X161840Y380490D02*
Y413510D01*
Y380490D02*
X182160D01*
X265490Y429340D02*
Y449660D01*
X298510D01*
Y429340D02*
Y449660D01*
X265490Y429340D02*
X298510D01*
X265490Y407340D02*
X298510D01*
Y427660D01*
X265490D02*
X298510D01*
X265490Y407340D02*
Y427660D01*
X109260Y341590D02*
Y361910D01*
X76240Y341590D02*
X109260D01*
X76240D02*
Y361910D01*
X109260D01*
X82490Y205840D02*
X115510D01*
Y226160D01*
X82490D02*
X115510D01*
X82490Y205840D02*
Y226160D01*
Y184840D02*
Y205160D01*
X115510D01*
Y184840D02*
Y205160D01*
X82490Y184840D02*
X115510D01*
X82490Y162840D02*
X115510D01*
Y183160D01*
X82490D02*
X115510D01*
X82490Y162840D02*
Y183160D01*
X210840Y261490D02*
X231160D01*
X210840D02*
Y294510D01*
X231160D01*
Y261490D02*
Y294510D01*
X620160Y447490D02*
Y480510D01*
X599840D02*
X620160D01*
X599840Y447490D02*
Y480510D01*
Y447490D02*
X620160D01*
X569840D02*
X590160D01*
X569840D02*
Y480510D01*
X590160D01*
Y447490D02*
Y480510D01*
X646160Y406490D02*
Y439510D01*
X625840D02*
X646160D01*
X625840Y406490D02*
Y439510D01*
Y406490D02*
X646160D01*
X397510Y88840D02*
Y109160D01*
X364490Y88840D02*
X397510D01*
X364490D02*
Y109160D01*
X397510D01*
X228490Y450160D02*
X261510D01*
X228490Y429840D02*
Y450160D01*
Y429840D02*
X261510D01*
Y450160D01*
X432510Y219840D02*
Y240160D01*
X399490Y219840D02*
X432510D01*
X399490D02*
Y240160D01*
X432510D01*
X565490Y359160D02*
X598510D01*
X565490Y338840D02*
Y359160D01*
Y338840D02*
X598510D01*
Y359160D01*
X241840Y137490D02*
X262160D01*
X241840D02*
Y170510D01*
X262160D01*
Y137490D02*
Y170510D01*
X4490Y243840D02*
X37510D01*
Y264160D01*
X4490D02*
X37510D01*
X4490Y243840D02*
Y264160D01*
X638840Y248510D02*
X659160D01*
Y215490D02*
Y248510D01*
X638840Y215490D02*
X659160D01*
X638840D02*
Y248510D01*
X263490Y97160D02*
X296510D01*
X263490Y76840D02*
Y97160D01*
Y76840D02*
X296510D01*
Y97160D01*
X121490Y201840D02*
Y222160D01*
X154510D01*
Y201840D02*
Y222160D01*
X121490Y201840D02*
X154510D01*
X321840Y59490D02*
Y92510D01*
Y59490D02*
X342160D01*
Y92510D01*
X321840D02*
X342160D01*
X321840Y73510D02*
X342160D01*
Y40490D02*
Y73510D01*
X321840Y40490D02*
X342160D01*
X321840D02*
Y73510D01*
X79840Y254490D02*
Y287510D01*
Y254490D02*
X100160D01*
Y287510D01*
X79840D02*
X100160D01*
X599490Y215840D02*
Y236160D01*
X632510D01*
Y215840D02*
Y236160D01*
X599490Y215840D02*
X632510D01*
X660840Y179490D02*
Y212510D01*
Y179490D02*
X681160D01*
Y212510D01*
X660840D02*
X681160D01*
X19840Y298510D02*
X40160D01*
Y265490D02*
Y298510D01*
X19840Y265490D02*
X40160D01*
X19840D02*
Y298510D01*
X681160Y215490D02*
Y248510D01*
X660840D02*
X681160D01*
X660840Y215490D02*
Y248510D01*
Y215490D02*
X681160D01*
X263840Y41490D02*
X284160D01*
X263840D02*
Y74510D01*
X284160D01*
Y41490D02*
Y74510D01*
X5000Y265000D02*
Y301000D01*
Y265000D02*
X19000D01*
Y301000D01*
X610000Y251000D02*
X635000D01*
Y237000D02*
Y251000D01*
X599000Y237000D02*
X635000D01*
X189000Y333000D02*
Y335000D01*
X187000D02*
X189000D01*
X119000D02*
X121000D01*
X119000Y333000D02*
Y335000D01*
Y265000D02*
X121000D01*
X119000D02*
Y267000D01*
X188000Y264000D02*
X190000Y266000D01*
X277550Y111830D02*
X633550D01*
Y157480D01*
X277550Y215830D02*
X633550D01*
Y170180D02*
Y215830D01*
X277550Y111830D02*
Y215830D01*
X103500Y75300D02*
Y100700D01*
X179700D01*
X103500Y75300D02*
X179700D01*
Y100700D01*
X63500Y303900D02*
Y354700D01*
X12700Y303900D02*
X63500D01*
X12700D02*
Y354700D01*
X63500D01*
X649300Y481700D02*
X674700D01*
Y405500D02*
Y481700D01*
X649300Y405500D02*
Y481700D01*
Y405500D02*
X674700D01*
X34370Y240000D02*
X36370D01*
X34370Y162000D02*
X36370D01*
X51370Y219000D02*
Y222000D01*
Y180000D02*
Y183000D01*
X-5630Y241000D02*
X10370D01*
X-5630Y161000D02*
Y241000D01*
Y161000D02*
X10370D01*
X370D02*
Y241000D01*
X7370Y161000D02*
Y241000D01*
X-14630Y146000D02*
Y256000D01*
X-26630Y146000D02*
X-14630D01*
X-26630Y256000D02*
X-14630D01*
Y166000D02*
X-9630D01*
X-14630Y236000D02*
X-9630D01*
X-26630Y201000D02*
X-14630D01*
X-19630Y196000D02*
X-14630Y201000D01*
X-19630Y206000D02*
X-14630Y201000D01*
X12700Y373380D02*
X88900D01*
Y424180D01*
X12700D02*
X88900D01*
X12700Y373380D02*
Y424180D01*
Y459740D02*
X88900D01*
Y510540D01*
X12700D02*
X88900D01*
X12700Y459740D02*
Y510540D01*
X172720Y520700D02*
X431800D01*
X172720Y495300D02*
Y520700D01*
Y495300D02*
X431800D01*
Y520700D01*
X650240Y495300D02*
Y520700D01*
X441960Y495300D02*
X650240D01*
X441960Y520700D02*
X650240D01*
X441960Y495300D02*
Y520700D01*
X650240Y12700D02*
Y38100D01*
X492760Y12700D02*
X650240D01*
X492760Y38100D02*
X650240D01*
X492760Y12700D02*
Y38100D01*
X264160Y12700D02*
Y38100D01*
X472440D01*
X264160Y12700D02*
X472440D01*
Y38100D01*
X187840Y209220D02*
X208160D01*
X187840D02*
Y244780D01*
X208160D01*
Y209220D02*
Y244780D01*
X209840D02*
X230160D01*
Y209220D02*
Y244780D01*
X209840Y209220D02*
X230160D01*
X209840D02*
Y244780D01*
X269780Y231840D02*
Y252160D01*
X234220Y231840D02*
X269780D01*
X234220D02*
Y252160D01*
X269780D01*
X44500Y102500D02*
Y147500D01*
X59500D01*
X84500D02*
X99500D01*
X54500Y92500D02*
X59500D01*
X44500Y102500D02*
X54500Y92500D01*
X89500D02*
X99500Y102500D01*
X84500Y92500D02*
X89500D01*
X99500Y102500D02*
Y147500D01*
X164840Y209220D02*
X185160D01*
X164840D02*
Y244780D01*
X185160D01*
Y209220D02*
Y244780D01*
X44500Y22500D02*
Y67500D01*
X59500D01*
X84500D02*
X99500D01*
X54500Y12500D02*
X59500D01*
X44500Y22500D02*
X54500Y12500D01*
X89500D02*
X99500Y22500D01*
X84500Y12500D02*
X89500D01*
X99500Y22500D02*
Y67500D01*
X625840Y445220D02*
X646160D01*
X625840D02*
Y480780D01*
X646160D01*
Y445220D02*
Y480780D01*
X12840Y459780D02*
X33160D01*
Y424220D02*
Y459780D01*
X12840Y424220D02*
X33160D01*
X12840D02*
Y459780D01*
X48780Y511840D02*
Y532160D01*
X13220Y511840D02*
X48780D01*
X13220D02*
Y532160D01*
X48780D01*
X457220Y66840D02*
Y87160D01*
X492780D01*
Y66840D02*
Y87160D01*
X457220Y66840D02*
X492780D01*
X410780Y38840D02*
Y59160D01*
X375220Y38840D02*
X410780D01*
X375220D02*
Y59160D01*
X410780D01*
X294840Y75780D02*
X315160D01*
Y40220D02*
Y75780D01*
X294840Y40220D02*
X315160D01*
X294840D02*
Y75780D01*
X103840Y138780D02*
X124160D01*
Y103220D02*
Y138780D01*
X103840Y103220D02*
X124160D01*
X103840D02*
Y138780D01*
X344840Y75780D02*
X365160D01*
Y40220D02*
Y75780D01*
X344840Y40220D02*
X365160D01*
X344840D02*
Y75780D01*
X155780Y223840D02*
Y244160D01*
X120220Y223840D02*
X155780D01*
X120220D02*
Y244160D01*
X155780D01*
X269780Y337840D02*
Y358160D01*
X234220Y337840D02*
X269780D01*
X234220D02*
Y358160D01*
X269780D01*
X197840Y132780D02*
X218160D01*
Y97220D02*
Y132780D01*
X197840Y97220D02*
X218160D01*
X197840D02*
Y132780D01*
X210840Y331780D02*
X231160D01*
Y296220D02*
Y331780D01*
X210840Y296220D02*
X231160D01*
X210840D02*
Y331780D01*
X436840Y51220D02*
X457160D01*
X436840D02*
Y86780D01*
X457160D01*
Y51220D02*
Y86780D01*
X470780Y244840D02*
Y265160D01*
X435220Y244840D02*
X470780D01*
X435220D02*
Y265160D01*
X470780D01*
X209840Y206780D02*
X230160D01*
Y171220D02*
Y206780D01*
X209840Y171220D02*
X230160D01*
X209840D02*
Y206780D01*
X228220Y393380D02*
X230760D01*
Y395920D02*
Y408620D01*
X228220D02*
X230760D01*
X228220Y393380D02*
Y408620D01*
X230760D02*
X261240D01*
X230760Y393380D02*
Y408620D01*
X261240Y393380D02*
Y408620D01*
X230760Y393380D02*
X261240D01*
X642220Y114840D02*
Y135160D01*
X677780D01*
X399220Y88840D02*
Y109160D01*
X434780D01*
Y88840D02*
Y109160D01*
X399220Y88840D02*
X434780D01*
X41220Y304410D02*
X76780D01*
X457220Y44840D02*
Y65160D01*
X492780D01*
Y44840D02*
Y65160D01*
X457220Y44840D02*
X492780D01*
X228220Y414380D02*
X230760D01*
Y416920D02*
Y429620D01*
X228220D02*
X230760D01*
X228220Y414380D02*
Y429620D01*
X230760D02*
X261240D01*
X230760Y414380D02*
Y429620D01*
X261240Y414380D02*
Y429620D01*
X230760Y414380D02*
X261240D01*
X220840Y132780D02*
X241160D01*
Y97220D02*
Y132780D01*
X220840Y97220D02*
X241160D01*
X220840D02*
Y132780D01*
X399220Y66840D02*
Y87160D01*
X434780D01*
Y66840D02*
Y87160D01*
X399220Y66840D02*
X434780D01*
X565220Y359380D02*
X567760D01*
Y361920D02*
Y374620D01*
X565220D02*
X567760D01*
X565220Y359380D02*
Y374620D01*
X567760D02*
X598240D01*
X567760Y359380D02*
Y374620D01*
X598240Y359380D02*
Y374620D01*
X567760Y359380D02*
X598240D01*
X638840Y178220D02*
X659160D01*
X638840D02*
Y213780D01*
X659160D01*
Y178220D02*
Y213780D01*
X204840Y414220D02*
X225160D01*
X204840D02*
Y449780D01*
X225160D01*
Y414220D02*
Y449780D01*
X187840Y171220D02*
X208160D01*
X187840D02*
Y206780D01*
X208160D01*
Y171220D02*
Y206780D01*
X436220Y219840D02*
Y240160D01*
X471780D01*
Y219840D02*
Y240160D01*
X436220Y219840D02*
X471780D01*
X5000Y51000D02*
Y109000D01*
Y51000D02*
X37000D01*
Y109000D01*
X5000D02*
X37000D01*
X115780Y225840D02*
Y246160D01*
X80220Y225840D02*
X115780D01*
X80220D02*
Y246160D01*
X115780D01*
X269780Y474840D02*
Y495160D01*
X234220Y474840D02*
X269780D01*
X234220D02*
Y495160D01*
X269780D01*
X471780Y88840D02*
Y109160D01*
X436220Y88840D02*
X471780D01*
X436220D02*
Y109160D01*
X471780D01*
X599780Y317840D02*
Y338160D01*
X564220Y317840D02*
X599780D01*
X564220D02*
Y338160D01*
X599780D01*
X228220Y375380D02*
X230760D01*
Y377920D02*
Y390620D01*
X228220D02*
X230760D01*
X228220Y375380D02*
Y390620D01*
X230760D02*
X261240D01*
X230760Y375380D02*
Y390620D01*
X261240Y375380D02*
Y390620D01*
X230760Y375380D02*
X261240D01*
X397220Y244840D02*
Y265160D01*
X432780D01*
Y244840D02*
Y265160D01*
X397220Y244840D02*
X432780D01*
X173000Y449000D02*
X191000D01*
X173000Y417000D02*
X191000D01*
Y430000D02*
Y436000D01*
X42000Y256000D02*
Y274000D01*
X74000Y256000D02*
Y274000D01*
X55000D02*
X61000D01*
X233000Y254000D02*
X271000D01*
X233000D02*
Y336000D01*
X271000D01*
Y254000D02*
Y336000D01*
X64380Y176030D02*
Y203970D01*
X79620D01*
Y176030D02*
Y203970D01*
X64380Y176030D02*
X79620D01*
X677000Y147000D02*
Y165000D01*
X645000Y147000D02*
Y165000D01*
X658000Y147000D02*
X664000D01*
X79620Y205030D02*
Y232970D01*
X64380Y205030D02*
X79620D01*
X64380D02*
Y232970D01*
X79620D01*
X210000Y168000D02*
X228000D01*
X210000Y136000D02*
X228000D01*
Y149000D02*
Y155000D01*
X473000Y268000D02*
Y306000D01*
X391000Y268000D02*
X473000D01*
X391000D02*
Y306000D01*
X473000D01*
X195000Y127000D02*
Y165000D01*
X127000Y127000D02*
Y165000D01*
X140000D01*
X182000D02*
X195000D01*
X127000Y127000D02*
X129000D01*
X193000D02*
X195000D01*
X123140Y440920D02*
X126472D01*
X124806D01*
Y450917D01*
X123140Y449251D01*
X218000Y410997D02*
Y402666D01*
X219666Y401000D01*
X222998D01*
X224664Y402666D01*
Y410997D01*
X208000Y399997D02*
X214664D01*
X211332D01*
Y390000D01*
X217997Y396665D02*
X224661Y390000D01*
X221329Y393332D01*
X224661Y396665D01*
X217997Y390000D01*
X208000Y376000D02*
Y385997D01*
X212998D01*
X214664Y384331D01*
Y380998D01*
X212998Y379332D01*
X208000D01*
X211332D02*
X214664Y376000D01*
X217997Y382664D02*
X224661Y376000D01*
X221329Y379332D01*
X224661Y382664D01*
X217997Y376000D01*
X549000Y95665D02*
Y89000D01*
X542336Y95665D01*
X540669D01*
X539003Y93998D01*
Y90666D01*
X540669Y89000D01*
X539003Y105661D02*
Y98997D01*
X544002D01*
X542336Y102329D01*
Y103995D01*
X544002Y105661D01*
X547334D01*
X549000Y103995D01*
Y100663D01*
X547334Y98997D01*
X318000Y93000D02*
Y96332D01*
Y94666D01*
X308003D01*
X309669Y93000D01*
X308003Y107995D02*
X309669Y104663D01*
X313002Y101331D01*
X316334D01*
X318000Y102997D01*
Y106329D01*
X316334Y107995D01*
X314668D01*
X313002Y106329D01*
Y101331D01*
X295000Y221000D02*
Y224332D01*
Y222666D01*
X285003D01*
X286669Y221000D01*
X295000Y234329D02*
X285003D01*
X290002Y229331D01*
Y235995D01*
X396000Y221000D02*
Y224332D01*
Y222666D01*
X386003D01*
X387669Y221000D01*
Y229331D02*
X386003Y230997D01*
Y234329D01*
X387669Y235995D01*
X394334D01*
X396000Y234329D01*
Y230997D01*
X394334Y229331D01*
X387669D01*
X513003Y228664D02*
Y222000D01*
X518002D01*
X516335Y225332D01*
Y226998D01*
X518002Y228664D01*
X521334D01*
X523000Y226998D01*
Y223666D01*
X521334Y222000D01*
X7998Y312000D02*
Y321997D01*
X3000Y316998D01*
X9664D01*
X3000Y346331D02*
X4666Y347997D01*
X7998D01*
X9664Y346331D01*
Y344664D01*
X7998Y342998D01*
X6332D01*
X7998D01*
X9664Y341332D01*
Y339666D01*
X7998Y338000D01*
X4666D01*
X3000Y339666D01*
X73664Y312000D02*
X67000D01*
X73664Y318664D01*
Y320331D01*
X71998Y321997D01*
X68666D01*
X67000Y320331D01*
X62000Y438997D02*
X65332D01*
X63666D01*
Y429000D01*
X62000D01*
X65332D01*
X76995Y437331D02*
X75329Y438997D01*
X71997D01*
X70331Y437331D01*
Y430666D01*
X71997Y429000D01*
X75329D01*
X76995Y430666D01*
X86992Y437331D02*
X85326Y438997D01*
X81994D01*
X80327Y437331D01*
Y435664D01*
X81994Y433998D01*
X85326D01*
X86992Y432332D01*
Y430666D01*
X85326Y429000D01*
X81994D01*
X80327Y430666D01*
X90324Y429000D02*
Y438997D01*
X95323D01*
X96989Y437331D01*
Y433998D01*
X95323Y432332D01*
X90324D01*
X100321Y429000D02*
X103653D01*
X101987D01*
Y438997D01*
X100321Y437331D01*
X62000Y524997D02*
X65332D01*
X63666D01*
Y515000D01*
X62000D01*
X65332D01*
X76995Y523331D02*
X75329Y524997D01*
X71997D01*
X70331Y523331D01*
Y516666D01*
X71997Y515000D01*
X75329D01*
X76995Y516666D01*
X86992Y523331D02*
X85326Y524997D01*
X81994D01*
X80327Y523331D01*
Y521665D01*
X81994Y519998D01*
X85326D01*
X86992Y518332D01*
Y516666D01*
X85326Y515000D01*
X81994D01*
X80327Y516666D01*
X90324Y515000D02*
Y524997D01*
X95323D01*
X96989Y523331D01*
Y519998D01*
X95323Y518332D01*
X90324D01*
X179003Y34000D02*
X187334D01*
X189000Y35666D01*
Y38998D01*
X187334Y40665D01*
X179003D01*
X180669Y50661D02*
X179003Y48995D01*
Y45663D01*
X180669Y43997D01*
X182335D01*
X184002Y45663D01*
Y48995D01*
X185668Y50661D01*
X187334D01*
X189000Y48995D01*
Y45663D01*
X187334Y43997D01*
X179003Y60658D02*
Y53994D01*
X189000D01*
Y60658D01*
X184002Y53994D02*
Y57326D01*
X189000Y63990D02*
X179003D01*
Y68989D01*
X180669Y70655D01*
X184002D01*
X185668Y68989D01*
Y63990D01*
Y67323D02*
X189000Y70655D01*
X585000Y263000D02*
X575003D01*
Y267998D01*
X576669Y269664D01*
X580002D01*
X581668Y267998D01*
Y263000D01*
Y266332D02*
X585000Y269664D01*
X575003Y279661D02*
Y272997D01*
X585000D01*
Y279661D01*
X580002Y272997D02*
Y276329D01*
X576669Y289658D02*
X575003Y287992D01*
Y284660D01*
X576669Y282994D01*
X578335D01*
X580002Y284660D01*
Y287992D01*
X581668Y289658D01*
X583334D01*
X585000Y287992D01*
Y284660D01*
X583334Y282994D01*
X575003Y299655D02*
Y292990D01*
X585000D01*
Y299655D01*
X580002Y292990D02*
Y296323D01*
X575003Y302987D02*
Y309652D01*
Y306319D01*
X585000D01*
X95000Y83000D02*
X98332D01*
X96666D01*
Y92997D01*
X95000Y91331D01*
X68000Y338000D02*
X71332D01*
X69666D01*
Y347997D01*
X68000Y346331D01*
X678500Y463750D02*
X681832D01*
X680166D01*
Y473747D01*
X678500Y472081D01*
X6000Y382000D02*
X9332D01*
X7666D01*
Y391997D01*
X6000Y390331D01*
X5000Y469250D02*
X8332D01*
X6666D01*
Y479247D01*
X5000Y477581D01*
X422000Y525000D02*
Y528332D01*
Y526666D01*
X412003D01*
X413669Y525000D01*
X640000Y526000D02*
Y529332D01*
Y527666D01*
X630003D01*
X631669Y526000D01*
X513080Y2540D02*
Y5872D01*
Y4206D01*
X503083D01*
X504749Y2540D01*
X284480D02*
Y5872D01*
Y4206D01*
X274483D01*
X276149Y2540D01*
X170665Y373997D02*
X167332D01*
X168998D01*
Y365666D01*
X167332Y364000D01*
X165666D01*
X164000Y365666D01*
X173997Y364000D02*
Y373997D01*
X178995D01*
X180661Y372331D01*
Y368998D01*
X178995Y367332D01*
X173997D01*
X183994Y372331D02*
X185660Y373997D01*
X188992D01*
X190658Y372331D01*
Y370664D01*
X188992Y368998D01*
X187326D01*
X188992D01*
X190658Y367332D01*
Y365666D01*
X188992Y364000D01*
X185660D01*
X183994Y365666D01*
X144000Y307997D02*
Y299666D01*
X145666Y298000D01*
X148998D01*
X150665Y299666D01*
Y307997D01*
X160661Y298000D02*
X153997D01*
X160661Y304664D01*
Y306331D01*
X158995Y307997D01*
X155663D01*
X153997Y306331D01*
X607000Y168997D02*
Y160666D01*
X608666Y159000D01*
X611998D01*
X613665Y160666D01*
Y168997D01*
X616997Y159000D02*
X620329D01*
X618663D01*
Y168997D01*
X616997Y167331D01*
X214664Y10331D02*
X212998Y11997D01*
X209666D01*
X208000Y10331D01*
Y8665D01*
X209666Y6998D01*
X212998D01*
X214664Y5332D01*
Y3666D01*
X212998Y2000D01*
X209666D01*
X208000Y3666D01*
X217997Y11997D02*
Y2000D01*
X221329Y5332D01*
X224661Y2000D01*
Y11997D01*
X234658Y2000D02*
X227994D01*
X234658Y8665D01*
Y10331D01*
X232992Y11997D01*
X229660D01*
X227994Y10331D01*
X612765Y331831D02*
X611098Y333497D01*
X607766D01*
X606100Y331831D01*
Y330164D01*
X607766Y328498D01*
X611098D01*
X612765Y326832D01*
Y325166D01*
X611098Y323500D01*
X607766D01*
X606100Y325166D01*
X616097Y333497D02*
Y323500D01*
X619429Y326832D01*
X622761Y323500D01*
Y333497D01*
X626094Y323500D02*
X629426D01*
X627760D01*
Y333497D01*
X626094Y331831D01*
X109925Y71887D02*
X106962D01*
X108443D01*
Y64481D01*
X106962Y63000D01*
X105481D01*
X104000Y64481D01*
X112887Y63000D02*
Y71887D01*
X117331D01*
X118812Y70406D01*
Y67444D01*
X117331Y65962D01*
X112887D01*
X126218Y63000D02*
Y71887D01*
X121774Y67444D01*
X127699D01*
X29664Y368997D02*
X26332D01*
X27998D01*
Y360666D01*
X26332Y359000D01*
X24666D01*
X23000Y360666D01*
X32997Y359000D02*
Y368997D01*
X37995D01*
X39661Y367331D01*
Y363998D01*
X37995Y362332D01*
X32997D01*
X49658Y359000D02*
X42994D01*
X49658Y365664D01*
Y367331D01*
X47992Y368997D01*
X44660D01*
X42994Y367331D01*
X658664Y494997D02*
X655332D01*
X656998D01*
Y486666D01*
X655332Y485000D01*
X653666D01*
X652000Y486666D01*
X661997Y485000D02*
Y494997D01*
X666995D01*
X668661Y493331D01*
Y489998D01*
X666995Y488332D01*
X661997D01*
X671994Y485000D02*
X675326D01*
X673660D01*
Y494997D01*
X671994Y493331D01*
X65665Y168997D02*
X62332D01*
X63998D01*
Y160666D01*
X62332Y159000D01*
X60666D01*
X59000Y160666D01*
X68997Y168997D02*
X75661D01*
Y167331D01*
X68997Y160666D01*
Y159000D01*
X99664Y394997D02*
X96332D01*
X97998D01*
Y386666D01*
X96332Y385000D01*
X94666D01*
X93000Y386666D01*
X109661Y394997D02*
X106329Y393331D01*
X102997Y389998D01*
Y386666D01*
X104663Y385000D01*
X107995D01*
X109661Y386666D01*
Y388332D01*
X107995Y389998D01*
X102997D01*
X98665Y483997D02*
X95332D01*
X96998D01*
Y475666D01*
X95332Y474000D01*
X93666D01*
X92000Y475666D01*
X108661Y483997D02*
X101997D01*
Y478998D01*
X105329Y480664D01*
X106995D01*
X108661Y478998D01*
Y475666D01*
X106995Y474000D01*
X103663D01*
X101997Y475666D01*
X324664Y489997D02*
X321332D01*
X322998D01*
Y481666D01*
X321332Y480000D01*
X319666D01*
X318000Y481666D01*
X332995Y480000D02*
Y489997D01*
X327997Y484998D01*
X334661D01*
X542664Y490997D02*
X539332D01*
X540998D01*
Y482666D01*
X539332Y481000D01*
X537666D01*
X536000Y482666D01*
X545997Y489331D02*
X547663Y490997D01*
X550995D01*
X552661Y489331D01*
Y487664D01*
X550995Y485998D01*
X549329D01*
X550995D01*
X552661Y484332D01*
Y482666D01*
X550995Y481000D01*
X547663D01*
X545997Y482666D01*
X570664Y52997D02*
X567332D01*
X568998D01*
Y44666D01*
X567332Y43000D01*
X565666D01*
X564000Y44666D01*
X580661Y43000D02*
X573997D01*
X580661Y49665D01*
Y51331D01*
X578995Y52997D01*
X575663D01*
X573997Y51331D01*
X423665Y52997D02*
X420332D01*
X421998D01*
Y44666D01*
X420332Y43000D01*
X418666D01*
X417000Y44666D01*
X426997Y43000D02*
X430329D01*
X428663D01*
Y52997D01*
X426997Y51331D01*
D12*
X10000Y303000D02*
X14000D01*
X597000Y242000D02*
Y246000D01*
M02*
