G04*
G04 #@! TF.GenerationSoftware,Altium Limited,Altium Designer,19.1.4 (82)*
G04*
G04 Layer_Color=8388736*
%FSLAX44Y44*%
%MOMM*%
G71*
G01*
G75*
%ADD11C,0.2000*%
%ADD70C,0.7000*%
%ADD84C,0.2540*%
%ADD85C,1.0160*%
%ADD86C,0.3810*%
%ADD87C,0.1524*%
D11*
X21000Y133000D02*
Y141900D01*
X28800Y133000D02*
X30900D01*
X21000D02*
X28800D01*
X21000Y124700D02*
Y133000D01*
X11200D02*
X21000D01*
X8300Y168000D02*
X22000D01*
X44400D01*
X8100Y233934D02*
X34290D01*
X47244D01*
X19050Y386080D02*
X31750D01*
X25400D02*
X31750D01*
X7620Y24130D02*
X17780D01*
X21000Y8300D02*
Y24130D01*
Y8300D02*
Y39960D01*
X25400Y13970D02*
Y472440D01*
X508000Y20320D02*
Y30480D01*
Y25400D02*
Y30480D01*
X26670Y355600D02*
X660400D01*
X664210D01*
X660400D02*
Y359410D01*
X139700Y25400D02*
X643890D01*
X139700Y20320D02*
Y30480D01*
Y25400D02*
Y30480D01*
X15240Y25400D02*
X139700D01*
X152400Y52070D02*
Y514350D01*
X416560Y29210D02*
Y34290D01*
Y510540D01*
X115570Y508000D02*
X627380D01*
X635000Y29210D02*
Y508000D01*
X660400Y76200D02*
Y355600D01*
D70*
X466200Y730789D02*
X489526D01*
X477863D01*
Y695800D01*
X501189Y719126D02*
Y695800D01*
Y707463D01*
X507020Y713294D01*
X512852Y719126D01*
X518683D01*
X536177Y695800D02*
X547840D01*
X542009D01*
Y719126D01*
X536177D01*
X571166D02*
X582829D01*
X588660Y713294D01*
Y695800D01*
X571166D01*
X565335Y701631D01*
X571166Y707463D01*
X588660D01*
X600323Y695800D02*
X611986D01*
X606155D01*
Y730789D01*
X600323D01*
X664469Y695800D02*
X676132D01*
X670301D01*
Y730789D01*
X664469Y724957D01*
X95232Y704800D02*
X106894D01*
X112726Y710631D01*
Y722294D01*
X106894Y728126D01*
X95232D01*
X89400Y722294D01*
Y710631D01*
X95232Y704800D01*
X130220D02*
Y733957D01*
Y722294D01*
X124389D01*
X136052D01*
X130220D01*
Y733957D01*
X136052Y739789D01*
X211860Y704800D02*
X188535D01*
X211860Y728126D01*
Y733957D01*
X206029Y739789D01*
X194366D01*
X188535Y733957D01*
X223523D02*
X229355Y739789D01*
X241018D01*
X246849Y733957D01*
Y728126D01*
X241018Y722294D01*
X246849Y716463D01*
Y710631D01*
X241018Y704800D01*
X229355D01*
X223523Y710631D01*
Y716463D01*
X229355Y722294D01*
X223523Y728126D01*
Y733957D01*
X229355Y722294D02*
X241018D01*
X258512Y704800D02*
Y739789D01*
X276006D01*
X281838Y733957D01*
Y722294D01*
X276006Y716463D01*
X258512D01*
X293501Y704800D02*
X305164D01*
X299332D01*
Y728126D01*
X293501D01*
X322658Y704800D02*
Y728126D01*
X340152D01*
X345984Y722294D01*
Y704800D01*
X357647D02*
X375141D01*
X380973Y710631D01*
X375141Y716463D01*
X363478D01*
X357647Y722294D01*
X363478Y728126D01*
X380973D01*
X78400Y770000D02*
Y804989D01*
X90063Y793326D01*
X101726Y804989D01*
Y770000D01*
X130883D02*
X119220D01*
X113389Y775832D01*
Y787494D01*
X119220Y793326D01*
X130883D01*
X136714Y787494D01*
Y781663D01*
X113389D01*
X171703Y793326D02*
X154209D01*
X148377Y787494D01*
Y775832D01*
X154209Y770000D01*
X171703D01*
X183366Y804989D02*
Y770000D01*
Y787494D01*
X189198Y793326D01*
X200861D01*
X206692Y787494D01*
Y770000D01*
X224186Y793326D02*
X235849D01*
X241681Y787494D01*
Y770000D01*
X224186D01*
X218355Y775832D01*
X224186Y781663D01*
X241681D01*
X253344Y770000D02*
Y793326D01*
X270838D01*
X276669Y787494D01*
Y770000D01*
X288332D02*
X299995D01*
X294164D01*
Y793326D01*
X288332D01*
X340815D02*
X323321D01*
X317489Y787494D01*
Y775832D01*
X323321Y770000D01*
X340815D01*
X358310Y793326D02*
X369972D01*
X375804Y787494D01*
Y770000D01*
X358310D01*
X352478Y775832D01*
X358310Y781663D01*
X375804D01*
X387467Y770000D02*
X399130D01*
X393298D01*
Y804989D01*
X387467D01*
X451613D02*
Y770000D01*
X469107D01*
X474939Y775832D01*
Y799157D01*
X469107Y804989D01*
X451613D01*
X486601Y793326D02*
Y770000D01*
Y781663D01*
X492433Y787494D01*
X498264Y793326D01*
X504096D01*
X527422D02*
X539085D01*
X544916Y787494D01*
Y770000D01*
X527422D01*
X521590Y775832D01*
X527422Y781663D01*
X544916D01*
X556579Y793326D02*
Y775832D01*
X562410Y770000D01*
X568242Y775832D01*
X574073Y770000D01*
X579905Y775832D01*
Y793326D01*
X591568Y770000D02*
X603231D01*
X597399D01*
Y793326D01*
X591568D01*
X620725Y770000D02*
Y793326D01*
X638219D01*
X644051Y787494D01*
Y770000D01*
X667376Y758337D02*
X673208D01*
X679039Y764169D01*
Y793326D01*
X661545D01*
X655714Y787494D01*
Y775832D01*
X661545Y770000D01*
X679039D01*
D84*
X32724Y25000D02*
G03*
X32724Y25000I-11724J0D01*
G01*
X-61000Y0D02*
X-55920Y-15240D01*
X-66080D02*
X-61000Y0D01*
X-66080Y91440D02*
X-61000Y76200D01*
X-55920Y91440D01*
X-61000Y-25400D02*
Y0D01*
Y76200D02*
Y101600D01*
X-63540Y76200D02*
X619860D01*
X-63540Y0D02*
X-7620D01*
X-83500Y133000D02*
X-78420Y117760D01*
X-88580D02*
X-83500Y133000D01*
X-88580Y15240D02*
X-83500Y0D01*
X-78420Y15240D01*
X-83500Y89091D02*
Y133000D01*
Y0D02*
Y40336D01*
X-86040Y133000D02*
X17460D01*
X-86040Y0D02*
X-7620D01*
X-103600Y168000D02*
X-98520Y152760D01*
X-108680D02*
X-103600Y168000D01*
X-108680Y15240D02*
X-103600Y0D01*
X-98520Y15240D01*
X-103600Y101774D02*
Y168000D01*
Y0D02*
Y58098D01*
X-106140Y168000D02*
X18460D01*
X-106140Y0D02*
X-7620D01*
X-125200Y233934D02*
X-120120Y218694D01*
X-130280D02*
X-125200Y233934D01*
X-130280Y15240D02*
X-125200Y0D01*
X-120120Y15240D01*
X-125200Y134741D02*
Y233934D01*
Y0D02*
Y91065D01*
X-127740Y233934D02*
X30750D01*
X-127740Y0D02*
X-7620D01*
X-147320Y355600D02*
X-142240Y340360D01*
X-152400D02*
X-147320Y355600D01*
X-152400Y15240D02*
X-147320Y0D01*
X-142240Y15240D01*
X-147320Y204461D02*
Y355600D01*
Y0D02*
Y143011D01*
X-149860Y355600D02*
X23130D01*
X-149860Y0D02*
X-7620D01*
X-198120Y386080D02*
X-193040Y370840D01*
X-203200D02*
X-198120Y386080D01*
X-203200Y15240D02*
X-198120Y0D01*
X-193040Y15240D01*
X-198120Y219701D02*
Y386080D01*
Y0D02*
Y158251D01*
X-200660Y386080D02*
X15510D01*
X-200660Y0D02*
X-7620D01*
X-245110Y472440D02*
X-240030Y457200D01*
X-250190D02*
X-245110Y472440D01*
X-250190Y15240D02*
X-245110Y0D01*
X-240030Y15240D01*
X-245110Y262881D02*
Y472440D01*
Y0D02*
Y201431D01*
X-247650Y472440D02*
X21860D01*
X-247650Y0D02*
X-7620D01*
X-290830Y508000D02*
X-285750Y492760D01*
X-295910D02*
X-290830Y508000D01*
X-295910Y15240D02*
X-290830Y0D01*
X-285750Y15240D01*
X-290830Y281931D02*
Y508000D01*
Y0D02*
Y217941D01*
X-293370Y508000D02*
X112030D01*
X-293370Y0D02*
X-7620D01*
X-46480Y40640D02*
X-41400Y25400D01*
X-36320Y40640D01*
X-41400Y0D02*
X-36320Y-15240D01*
X-46480D02*
X-41400Y0D01*
Y25400D02*
Y50800D01*
Y-25400D02*
Y0D01*
X-43940D02*
X-7620D01*
X-43940Y25400D02*
X11700D01*
X-15240Y-38100D02*
X0Y-33020D01*
X-15240Y-27940D02*
X0Y-33020D01*
X21000D02*
X36240Y-27940D01*
X21000Y-33020D02*
X36240Y-38100D01*
X-25400Y-33020D02*
X0D01*
X21000D02*
X46400D01*
X21000Y-35560D02*
Y4760D01*
X0Y-35560D02*
Y-7620D01*
X-15240Y-63500D02*
X0Y-58420D01*
X-15240Y-53340D02*
X0Y-58420D01*
X25400D02*
X40640Y-53340D01*
X25400Y-58420D02*
X40640Y-63500D01*
X-25400Y-58420D02*
X0D01*
X25400D02*
X50800D01*
X25400Y-60960D02*
Y10430D01*
X0Y-60960D02*
Y-7620D01*
Y-90170D02*
X15240Y-85090D01*
X0Y-90170D02*
X15240Y-95250D01*
X124460D02*
X139700Y-90170D01*
X124460Y-85090D02*
X139700Y-90170D01*
X0D02*
X41409D01*
X90163D02*
X139700D01*
X0Y-92710D02*
Y-7620D01*
X139700Y-92710D02*
Y33020D01*
X0Y-123190D02*
X15240Y-118110D01*
X0Y-123190D02*
X15240Y-128270D01*
X137160D02*
X152400Y-123190D01*
X137160Y-118110D02*
X152400Y-123190D01*
X0D02*
X47759D01*
X96513D02*
X152400D01*
X0Y-125730D02*
Y-7620D01*
X152400Y-125730D02*
Y48530D01*
X0Y-157480D02*
X15240Y-152400D01*
X0Y-157480D02*
X15240Y-162560D01*
X264160D02*
X279400Y-157480D01*
X264160Y-152400D02*
X279400Y-157480D01*
X0D02*
X106180D01*
X165092D02*
X279400D01*
X0Y-160020D02*
Y-7620D01*
X279400Y-160020D02*
Y33020D01*
X0Y-190500D02*
X15240Y-185420D01*
X0Y-190500D02*
X15240Y-195580D01*
X401320D02*
X416560Y-190500D01*
X401320Y-185420D02*
X416560Y-190500D01*
X0D02*
X173491D01*
X234941D02*
X416560D01*
X0Y-193040D02*
Y-7620D01*
X416560Y-193040D02*
Y30750D01*
X0Y-222250D02*
X15240Y-217170D01*
X0Y-222250D02*
X15240Y-227330D01*
X492760D02*
X508000Y-222250D01*
X492760Y-217170D02*
X508000Y-222250D01*
X0D02*
X217941D01*
X281931D02*
X508000D01*
X0Y-224790D02*
Y-7620D01*
X508000Y-224790D02*
Y45720D01*
X619760Y-259080D02*
X635000Y-254000D01*
X619760Y-248920D02*
X635000Y-254000D01*
X0D02*
X15240Y-248920D01*
X0Y-254000D02*
X15240Y-259080D01*
X345431Y-254000D02*
X635000D01*
X0D02*
X281441D01*
X635000Y-256540D02*
Y21590D01*
X0Y-256540D02*
Y-7620D01*
X645160Y-289560D02*
X660400Y-284480D01*
X645160Y-279400D02*
X660400Y-284480D01*
X0D02*
X15240Y-279400D01*
X0Y-284480D02*
X15240Y-289560D01*
X358131Y-284480D02*
X660400D01*
X0D02*
X294141D01*
X660400Y-287020D02*
Y72660D01*
X0Y-287020D02*
Y-7620D01*
Y-316230D02*
X15240Y-311150D01*
X0Y-316230D02*
X15240Y-321310D01*
X670560D02*
X685800Y-316230D01*
X670560Y-311150D02*
X685800Y-316230D01*
X0D02*
X306841D01*
X370831D02*
X685800D01*
X0Y-318770D02*
Y-7620D01*
X685800Y-318770D02*
Y-7620D01*
X-340360Y15240D02*
X-335280Y0D01*
X-330200Y15240D01*
X-335280Y533400D02*
X-330200Y518160D01*
X-340360D02*
X-335280Y533400D01*
Y0D02*
Y231911D01*
Y293361D02*
Y533400D01*
X-337820Y0D02*
X-7620D01*
X-337820Y533400D02*
X-7620D01*
D85*
X676400Y355600D02*
G03*
X676400Y355600I-16000J0D01*
G01*
Y76200D02*
G03*
X676400Y76200I-16000J0D01*
G01*
X155700Y25400D02*
G03*
X155700Y25400I-16000J0D01*
G01*
X168400Y508000D02*
G03*
X168400Y508000I-16000J0D01*
G01*
X0Y0D02*
Y533400D01*
X685800D01*
Y0D02*
Y533400D01*
X0Y0D02*
X685800D01*
D86*
X-302648Y-155942D02*
X-306033Y-152556D01*
X-312804D01*
X-316190Y-155942D01*
Y-159328D01*
X-312804Y-162713D01*
X-306033D01*
X-302648Y-166099D01*
Y-169484D01*
X-306033Y-172870D01*
X-312804D01*
X-316190Y-169484D01*
X-282334Y-159328D02*
X-292491D01*
X-295877Y-162713D01*
Y-169484D01*
X-292491Y-172870D01*
X-282334D01*
X-272178Y-159328D02*
X-265406D01*
X-262021Y-162713D01*
Y-172870D01*
X-272178D01*
X-275563Y-169484D01*
X-272178Y-166099D01*
X-262021D01*
X-255250Y-172870D02*
X-248479D01*
X-251864D01*
Y-152556D01*
X-255250D01*
X-228165Y-172870D02*
X-234936D01*
X-238322Y-169484D01*
Y-162713D01*
X-234936Y-159328D01*
X-228165D01*
X-224780Y-162713D01*
Y-166099D01*
X-238322D01*
X-218008Y-159328D02*
X-214623D01*
Y-162713D01*
X-218008D01*
Y-159328D01*
Y-169484D02*
X-214623D01*
Y-172870D01*
X-218008D01*
Y-169484D01*
X-316190Y-206390D02*
X-309419D01*
X-312804D01*
Y-186077D01*
X-316190Y-189462D01*
X-299262Y-192848D02*
X-295877D01*
Y-196233D01*
X-299262D01*
Y-192848D01*
Y-203004D02*
X-295877D01*
Y-206390D01*
X-299262D01*
Y-203004D01*
X-282334Y-206390D02*
X-275563D01*
X-278949D01*
Y-186077D01*
X-282334Y-189462D01*
X-317100Y-115087D02*
Y-132014D01*
X-313715Y-135400D01*
X-306943D01*
X-303558Y-132014D01*
Y-115087D01*
X-296787Y-135400D02*
Y-121858D01*
X-286630D01*
X-283244Y-125243D01*
Y-135400D01*
X-276473D02*
X-269702D01*
X-273088D01*
Y-121858D01*
X-276473D01*
X-256160Y-118472D02*
Y-121858D01*
X-259545D01*
X-252774D01*
X-256160D01*
Y-132014D01*
X-252774Y-135400D01*
X-242617D02*
X-232461D01*
X-229075Y-132014D01*
X-232461Y-128629D01*
X-239232D01*
X-242617Y-125243D01*
X-239232Y-121858D01*
X-229075D01*
X-222304D02*
X-218918D01*
Y-125243D01*
X-222304D01*
Y-121858D01*
Y-132014D02*
X-218918D01*
Y-135400D01*
X-222304D01*
Y-132014D01*
X-185063Y-135400D02*
Y-121858D01*
X-181677D01*
X-178292Y-125243D01*
Y-135400D01*
Y-125243D01*
X-174906Y-121858D01*
X-171521Y-125243D01*
Y-135400D01*
X-164749D02*
X-157978D01*
X-161364D01*
Y-121858D01*
X-164749D01*
X-147822Y-135400D02*
X-141050D01*
X-144436D01*
Y-115087D01*
X-147822D01*
X-130894Y-135400D02*
X-120737D01*
X-117351Y-132014D01*
X-120737Y-128629D01*
X-127508D01*
X-130894Y-125243D01*
X-127508Y-121858D01*
X-117351D01*
D87*
X-64554Y-71615D02*
X-67094Y-69076D01*
Y-63997D01*
X-64554Y-61458D01*
X-62015D01*
X-59476Y-63997D01*
Y-66536D01*
Y-63997D01*
X-56937Y-61458D01*
X-54398D01*
X-51859Y-63997D01*
Y-69076D01*
X-54398Y-71615D01*
X-64554Y-56380D02*
X-67094Y-53841D01*
Y-48762D01*
X-64554Y-46223D01*
X-54398D01*
X-51859Y-48762D01*
Y-53841D01*
X-54398Y-56380D01*
X-64554D01*
Y-41145D02*
X-67094Y-38605D01*
Y-33527D01*
X-64554Y-30988D01*
X-54398D01*
X-51859Y-33527D01*
Y-38605D01*
X-54398Y-41145D01*
X-64554D01*
X-89135Y54557D02*
Y44400D01*
X-81517D01*
X-84057Y49478D01*
Y52017D01*
X-81517Y54557D01*
X-76439D01*
X-73900Y52017D01*
Y46939D01*
X-76439Y44400D01*
X-73900Y69792D02*
Y59635D01*
X-84057Y69792D01*
X-86596D01*
X-89135Y67253D01*
Y62174D01*
X-86596Y59635D01*
X-73900Y82488D02*
X-89135D01*
X-81517Y74870D01*
Y85027D01*
X-109693Y72319D02*
X-107154Y67240D01*
X-102076Y62162D01*
X-96998D01*
X-94459Y64701D01*
Y69779D01*
X-96998Y72319D01*
X-99537D01*
X-102076Y69779D01*
Y62162D01*
X-109693Y87554D02*
X-107154Y82475D01*
X-102076Y77397D01*
X-96998D01*
X-94459Y79936D01*
Y85014D01*
X-96998Y87554D01*
X-99537D01*
X-102076Y85014D01*
Y77397D01*
X-94459Y92632D02*
Y97710D01*
Y95171D01*
X-109693D01*
X-107154Y92632D01*
X-118598Y95129D02*
X-116059Y97668D01*
Y102746D01*
X-118598Y105286D01*
X-128754D01*
X-131293Y102746D01*
Y97668D01*
X-128754Y95129D01*
X-126215D01*
X-123676Y97668D01*
Y105286D01*
X-116059Y120520D02*
Y110364D01*
X-126215Y120520D01*
X-128754D01*
X-131293Y117981D01*
Y112903D01*
X-128754Y110364D01*
X-116059Y125599D02*
Y130677D01*
Y128138D01*
X-131293D01*
X-128754Y125599D01*
X-138179Y147075D02*
Y152153D01*
Y149614D01*
X-153413D01*
X-150874Y147075D01*
X-138179Y167388D02*
X-153413D01*
X-145796Y159770D01*
Y169927D01*
X-150874Y175006D02*
X-153413Y177545D01*
Y182623D01*
X-150874Y185162D01*
X-140718D01*
X-138179Y182623D01*
Y177545D01*
X-140718Y175006D01*
X-150874D01*
Y190241D02*
X-153413Y192780D01*
Y197858D01*
X-150874Y200397D01*
X-140718D01*
X-138179Y197858D01*
Y192780D01*
X-140718Y190241D01*
X-150874D01*
X-188979Y162315D02*
Y167393D01*
Y164854D01*
X-204214D01*
X-201674Y162315D01*
X-204214Y185167D02*
Y175011D01*
X-196596D01*
X-199135Y180089D01*
Y182628D01*
X-196596Y185167D01*
X-191518D01*
X-188979Y182628D01*
Y177550D01*
X-191518Y175011D01*
X-188979Y200402D02*
Y190246D01*
X-199135Y200402D01*
X-201674D01*
X-204214Y197863D01*
Y192785D01*
X-201674Y190246D01*
Y205481D02*
X-204214Y208020D01*
Y213098D01*
X-201674Y215637D01*
X-191518D01*
X-188979Y213098D01*
Y208020D01*
X-191518Y205481D01*
X-201674D01*
X-235968Y205495D02*
Y210573D01*
Y208034D01*
X-251203D01*
X-248664Y205495D01*
Y218190D02*
X-251203Y220730D01*
Y225808D01*
X-248664Y228347D01*
X-246125D01*
X-243586Y225808D01*
X-241047Y228347D01*
X-238508D01*
X-235968Y225808D01*
Y220730D01*
X-238508Y218190D01*
X-241047D01*
X-243586Y220730D01*
X-246125Y218190D01*
X-248664D01*
X-243586Y220730D02*
Y225808D01*
X-251203Y243582D02*
X-248664Y238504D01*
X-243586Y233426D01*
X-238508D01*
X-235968Y235965D01*
Y241043D01*
X-238508Y243582D01*
X-241047D01*
X-243586Y241043D01*
Y233426D01*
X-248664Y248661D02*
X-251203Y251200D01*
Y256278D01*
X-248664Y258817D01*
X-238508D01*
X-235968Y256278D01*
Y251200D01*
X-238508Y248661D01*
X-248664D01*
X-281688Y232162D02*
Y222005D01*
X-291845Y232162D01*
X-294384D01*
X-296924Y229623D01*
Y224544D01*
X-294384Y222005D01*
Y237240D02*
X-296924Y239779D01*
Y244858D01*
X-294384Y247397D01*
X-284228D01*
X-281688Y244858D01*
Y239779D01*
X-284228Y237240D01*
X-294384D01*
Y252475D02*
X-296924Y255014D01*
Y260093D01*
X-294384Y262632D01*
X-284228D01*
X-281688Y260093D01*
Y255014D01*
X-284228Y252475D01*
X-294384D01*
Y267710D02*
X-296924Y270249D01*
Y275328D01*
X-294384Y277867D01*
X-284228D01*
X-281688Y275328D01*
Y270249D01*
X-284228Y267710D01*
X-294384D01*
X-32259Y-69076D02*
Y-63997D01*
Y-66536D01*
X-47494D01*
X-44954Y-69076D01*
Y-56380D02*
X-47494Y-53841D01*
Y-48762D01*
X-44954Y-46223D01*
X-34798D01*
X-32259Y-48762D01*
Y-53841D01*
X-34798Y-56380D01*
X-44954D01*
Y-41145D02*
X-47494Y-38605D01*
Y-33527D01*
X-44954Y-30988D01*
X-34798D01*
X-32259Y-33527D01*
Y-38605D01*
X-34798Y-41145D01*
X-44954D01*
X48940Y-29466D02*
X51479Y-26927D01*
X56557D01*
X59097Y-29466D01*
Y-32005D01*
X56557Y-34544D01*
X59097Y-37083D01*
Y-39622D01*
X56557Y-42161D01*
X51479D01*
X48940Y-39622D01*
Y-37083D01*
X51479Y-34544D01*
X48940Y-32005D01*
Y-29466D01*
X51479Y-34544D02*
X56557D01*
X64175Y-29466D02*
X66714Y-26927D01*
X71793D01*
X74332Y-29466D01*
Y-32005D01*
X71793Y-34544D01*
X69253D01*
X71793D01*
X74332Y-37083D01*
Y-39622D01*
X71793Y-42161D01*
X66714D01*
X64175Y-39622D01*
X53340Y-67561D02*
X58418D01*
X55879D01*
Y-52326D01*
X53340Y-54866D01*
X66036D02*
X68575Y-52326D01*
X73653D01*
X76193Y-54866D01*
Y-65022D01*
X73653Y-67561D01*
X68575D01*
X66036Y-65022D01*
Y-54866D01*
X81271D02*
X83810Y-52326D01*
X88889D01*
X91428Y-54866D01*
Y-65022D01*
X88889Y-67561D01*
X83810D01*
X81271Y-65022D01*
Y-54866D01*
X55629Y-84076D02*
X45473D01*
Y-91694D01*
X50551Y-89155D01*
X53090D01*
X55629Y-91694D01*
Y-96772D01*
X53090Y-99312D01*
X48012D01*
X45473Y-96772D01*
X70864Y-84076D02*
X60708D01*
Y-91694D01*
X65786Y-89155D01*
X68325D01*
X70864Y-91694D01*
Y-96772D01*
X68325Y-99312D01*
X63247D01*
X60708Y-96772D01*
X75943Y-86616D02*
X78482Y-84076D01*
X83560D01*
X86099Y-86616D01*
Y-96772D01*
X83560Y-99312D01*
X78482D01*
X75943Y-96772D01*
Y-86616D01*
X61979Y-117097D02*
X56901Y-119636D01*
X51823Y-124714D01*
Y-129792D01*
X54362Y-132331D01*
X59440D01*
X61979Y-129792D01*
Y-127253D01*
X59440Y-124714D01*
X51823D01*
X67058Y-119636D02*
X69597Y-117097D01*
X74675D01*
X77214Y-119636D01*
Y-129792D01*
X74675Y-132331D01*
X69597D01*
X67058Y-129792D01*
Y-119636D01*
X82293D02*
X84832Y-117097D01*
X89910D01*
X92449Y-119636D01*
Y-129792D01*
X89910Y-132331D01*
X84832D01*
X82293Y-129792D01*
Y-119636D01*
X110244Y-166621D02*
X115323D01*
X112783D01*
Y-151386D01*
X110244Y-153926D01*
X122940Y-166621D02*
X128018D01*
X125479D01*
Y-151386D01*
X122940Y-153926D01*
X135636D02*
X138175Y-151386D01*
X143253D01*
X145793Y-153926D01*
Y-164082D01*
X143253Y-166621D01*
X138175D01*
X135636Y-164082D01*
Y-153926D01*
X150871D02*
X153410Y-151386D01*
X158489D01*
X161028Y-153926D01*
Y-164082D01*
X158489Y-166621D01*
X153410D01*
X150871Y-164082D01*
Y-153926D01*
X177555Y-199641D02*
X182633D01*
X180094D01*
Y-184407D01*
X177555Y-186946D01*
X200407Y-184407D02*
X195329Y-186946D01*
X190250Y-192024D01*
Y-197102D01*
X192790Y-199641D01*
X197868D01*
X200407Y-197102D01*
Y-194563D01*
X197868Y-192024D01*
X190250D01*
X213103Y-199641D02*
Y-184407D01*
X205486Y-192024D01*
X215642D01*
X220721Y-186946D02*
X223260Y-184407D01*
X228338D01*
X230877Y-186946D01*
Y-197102D01*
X228338Y-199641D01*
X223260D01*
X220721Y-197102D01*
Y-186946D01*
X232162Y-231392D02*
X222005D01*
X232162Y-221235D01*
Y-218696D01*
X229623Y-216157D01*
X224544D01*
X222005Y-218696D01*
X237240D02*
X239779Y-216157D01*
X244858D01*
X247397Y-218696D01*
Y-228852D01*
X244858Y-231392D01*
X239779D01*
X237240Y-228852D01*
Y-218696D01*
X252475D02*
X255014Y-216157D01*
X260093D01*
X262632Y-218696D01*
Y-228852D01*
X260093Y-231392D01*
X255014D01*
X252475Y-228852D01*
Y-218696D01*
X267710D02*
X270249Y-216157D01*
X275328D01*
X277867Y-218696D01*
Y-228852D01*
X275328Y-231392D01*
X270249D01*
X267710Y-228852D01*
Y-218696D01*
X295662Y-263141D02*
X285505D01*
X295662Y-252985D01*
Y-250446D01*
X293123Y-247906D01*
X288044D01*
X285505Y-250446D01*
X310897Y-247906D02*
X300740D01*
Y-255524D01*
X305818Y-252985D01*
X308358D01*
X310897Y-255524D01*
Y-260602D01*
X308358Y-263141D01*
X303279D01*
X300740Y-260602D01*
X315975Y-250446D02*
X318514Y-247906D01*
X323593D01*
X326132Y-250446D01*
Y-260602D01*
X323593Y-263141D01*
X318514D01*
X315975Y-260602D01*
Y-250446D01*
X331210D02*
X333749Y-247906D01*
X338828D01*
X341367Y-250446D01*
Y-260602D01*
X338828Y-263141D01*
X333749D01*
X331210Y-260602D01*
Y-250446D01*
X308362Y-293622D02*
X298205D01*
X308362Y-283465D01*
Y-280926D01*
X305823Y-278386D01*
X300744D01*
X298205Y-280926D01*
X323597Y-278386D02*
X318518Y-280926D01*
X313440Y-286004D01*
Y-291082D01*
X315979Y-293622D01*
X321058D01*
X323597Y-291082D01*
Y-288543D01*
X321058Y-286004D01*
X313440D01*
X328675Y-280926D02*
X331214Y-278386D01*
X336293D01*
X338832Y-280926D01*
Y-291082D01*
X336293Y-293622D01*
X331214D01*
X328675Y-291082D01*
Y-280926D01*
X343910D02*
X346449Y-278386D01*
X351528D01*
X354067Y-280926D01*
Y-291082D01*
X351528Y-293622D01*
X346449D01*
X343910Y-291082D01*
Y-280926D01*
X321062Y-325372D02*
X310905D01*
X321062Y-315215D01*
Y-312676D01*
X318523Y-310137D01*
X313444D01*
X310905Y-312676D01*
X326140Y-310137D02*
X336297D01*
Y-312676D01*
X326140Y-322832D01*
Y-325372D01*
X341375Y-312676D02*
X343914Y-310137D01*
X348993D01*
X351532Y-312676D01*
Y-322832D01*
X348993Y-325372D01*
X343914D01*
X341375Y-322832D01*
Y-312676D01*
X356610D02*
X359149Y-310137D01*
X364228D01*
X366767Y-312676D01*
Y-322832D01*
X364228Y-325372D01*
X359149D01*
X356610Y-322832D01*
Y-312676D01*
X-326138Y246131D02*
Y235975D01*
X-336295Y246131D01*
X-338834D01*
X-341373Y243592D01*
Y238514D01*
X-338834Y235975D01*
X-326138Y251210D02*
Y256288D01*
Y253749D01*
X-341373D01*
X-338834Y251210D01*
Y263906D02*
X-341373Y266445D01*
Y271523D01*
X-338834Y274062D01*
X-328678D01*
X-326138Y271523D01*
Y266445D01*
X-328678Y263906D01*
X-338834D01*
Y279141D02*
X-341373Y281680D01*
Y286758D01*
X-338834Y289297D01*
X-328678D01*
X-326138Y286758D01*
Y281680D01*
X-328678Y279141D01*
X-338834D01*
M02*
