G04*
G04 #@! TF.GenerationSoftware,Altium Limited,Altium Designer,19.1.4 (82)*
G04*
G04 Layer_Physical_Order=2*
G04 Layer_Color=16711680*
%FSLAX44Y44*%
%MOMM*%
G71*
G01*
G75*
%ADD10C,0.5000*%
%ADD11C,0.2000*%
%ADD12C,0.4000*%
%ADD20R,1.9000X1.9000*%
%ADD62C,1.9000*%
%ADD63R,1.9000X1.9000*%
%ADD69C,0.6000*%
%ADD72C,1.0000*%
%ADD73R,2.0000X1.6000*%
%ADD74O,2.0000X1.6000*%
%ADD75O,1.6000X2.0000*%
%ADD76R,1.6000X2.0000*%
%ADD77C,1.7000*%
%ADD78R,1.7000X1.7000*%
G04:AMPARAMS|DCode=79|XSize=2mm|YSize=1.25mm|CornerRadius=0.375mm|HoleSize=0mm|Usage=FLASHONLY|Rotation=0.000|XOffset=0mm|YOffset=0mm|HoleType=Round|Shape=RoundedRectangle|*
%AMROUNDEDRECTD79*
21,1,2.0000,0.5000,0,0,0.0*
21,1,1.2500,1.2500,0,0,0.0*
1,1,0.7500,0.6250,-0.2500*
1,1,0.7500,-0.6250,-0.2500*
1,1,0.7500,-0.6250,0.2500*
1,1,0.7500,0.6250,0.2500*
%
%ADD79ROUNDEDRECTD79*%
%ADD80C,7.4000*%
%ADD81C,3.2000*%
%ADD82C,4.0000*%
%ADD83C,0.6000*%
G36*
X684000Y474000D02*
X675000D01*
Y480000D01*
X649000D01*
Y474000D01*
X284000D01*
X256000Y502000D01*
Y517102D01*
X256898Y518000D01*
X272000Y518000D01*
X272000Y530586D01*
X273000Y531000D01*
X684000D01*
Y474000D01*
D02*
G37*
G36*
X94000Y462067D02*
X92827Y461581D01*
X86691Y467717D01*
X87404Y469438D01*
X87799Y472440D01*
X87404Y475442D01*
X86245Y478240D01*
X84402Y480642D01*
X82000Y482485D01*
X79202Y483644D01*
X76200Y484039D01*
X73198Y483644D01*
X70400Y482485D01*
X67998Y480642D01*
X66155Y478240D01*
X64996Y475442D01*
X64601Y472440D01*
X64996Y469438D01*
X66155Y466640D01*
X67998Y464238D01*
X70400Y462395D01*
X73198Y461236D01*
X76200Y460841D01*
X79202Y461236D01*
X80923Y461949D01*
X94000Y448872D01*
Y394000D01*
X118000D01*
Y380000D01*
X137137D01*
X137568Y378730D01*
X136155Y377645D01*
X134391Y375347D01*
X133283Y372672D01*
X132905Y369800D01*
X133283Y366928D01*
X134391Y364253D01*
X136155Y361955D01*
X138453Y360191D01*
X141128Y359083D01*
X144000Y358705D01*
X148000D01*
X150872Y359083D01*
X153547Y360191D01*
X155845Y361955D01*
X157608Y364253D01*
X158717Y366928D01*
X159095Y369800D01*
X158717Y372672D01*
X157608Y375347D01*
X155845Y377645D01*
X154432Y378730D01*
X154863Y380000D01*
X190000D01*
X190000Y415000D01*
X210000Y435000D01*
X217102Y435000D01*
X218000Y434102D01*
X218000Y414000D01*
X212000Y414000D01*
X212000Y404000D01*
X221999Y394000D01*
X561001Y394001D01*
X565422Y398422D01*
X568500D01*
X568500Y398422D01*
X570061Y398732D01*
X571384Y399616D01*
X574708Y402940D01*
X575000Y402882D01*
X575591Y403000D01*
X582000Y403000D01*
X582000Y333000D01*
X558000Y309000D01*
X558000Y184000D01*
X585000Y184000D01*
X595000Y174000D01*
X615000Y174000D01*
X615000Y188000D01*
X644000D01*
Y171000D01*
X627000Y154000D01*
X584000D01*
Y112000D01*
X632000D01*
Y133000D01*
X683000D01*
Y3000D01*
X624059D01*
X624059Y17751D01*
X625329Y18004D01*
X625392Y17852D01*
X627155Y15555D01*
X629453Y13792D01*
X632128Y12683D01*
X635000Y12305D01*
X637872Y12683D01*
X640547Y13792D01*
X642845Y15555D01*
X644609Y17852D01*
X645717Y20528D01*
X646095Y23400D01*
Y27400D01*
X645717Y30272D01*
X644609Y32947D01*
X642845Y35245D01*
X640547Y37009D01*
X637872Y38117D01*
X635000Y38495D01*
X632128Y38117D01*
X629453Y37009D01*
X627155Y35245D01*
X625392Y32947D01*
X625329Y32796D01*
X624059Y33049D01*
X624059Y68966D01*
X624000Y69262D01*
Y83138D01*
X624059Y83434D01*
Y88000D01*
X624000Y88296D01*
Y91000D01*
X621296D01*
X621000Y91059D01*
X485000Y91059D01*
X485000Y91059D01*
X484704Y91000D01*
X483000D01*
X454059Y62059D01*
X429591D01*
X429296Y62000D01*
X428704D01*
X428409Y62059D01*
X422591D01*
X422295Y62000D01*
X421704D01*
X421409Y62059D01*
X415591D01*
X415296Y62000D01*
X414704D01*
X414409Y62059D01*
X370942D01*
X356000Y77000D01*
X354296D01*
X354000Y77059D01*
X354000Y77059D01*
X304941D01*
X250000Y132000D01*
X195000Y132000D01*
X170000D01*
X168819Y130819D01*
X167837Y130163D01*
X167837Y130163D01*
X166733Y129059D01*
X164317Y129059D01*
X164021Y129000D01*
X163720D01*
X163442Y128885D01*
X163146Y128826D01*
X162896Y128659D01*
X162617Y128543D01*
X162148Y128229D01*
X161000Y128001D01*
X159852Y128229D01*
X159383Y128543D01*
X159104Y128659D01*
X158965Y128752D01*
X158229Y129852D01*
X158001Y131000D01*
X158229Y132148D01*
X158879Y133120D01*
X159852Y133771D01*
X160495Y133898D01*
X160774Y134014D01*
X161069Y134073D01*
X161319Y134240D01*
X161598Y134355D01*
X161811Y134568D01*
X162061Y134735D01*
X164163Y136837D01*
X164826Y137830D01*
X165059Y139000D01*
X165059Y139000D01*
Y146000D01*
X165000Y146295D01*
Y149000D01*
X162295D01*
X162000Y149059D01*
X96059D01*
Y178000D01*
X96000Y178295D01*
Y180000D01*
X95272D01*
X95163Y180163D01*
X94171Y180826D01*
X93000Y181059D01*
X83442D01*
X83147Y181000D01*
X82846D01*
X82567Y180885D01*
X82272Y180826D01*
X82022Y180659D01*
X81743Y180543D01*
X81648Y180479D01*
X80500Y180251D01*
X79352Y180479D01*
X78380Y181129D01*
X77729Y182102D01*
X77501Y183250D01*
X77729Y184398D01*
X78543Y185616D01*
X78658Y185894D01*
X78826Y186144D01*
X78885Y186440D01*
X79000Y186718D01*
X79000Y187019D01*
X79059Y187315D01*
X79059Y221707D01*
X79000Y222002D01*
Y222303D01*
X78885Y222582D01*
X78826Y222877D01*
X78658Y223128D01*
X78543Y223406D01*
X78330Y223619D01*
X78163Y223869D01*
X77912Y224037D01*
X77787Y224162D01*
X77787Y224163D01*
X77786Y224163D01*
X77699Y224250D01*
X77449Y224417D01*
X77323Y224543D01*
X77059Y224653D01*
Y225659D01*
X77000Y225954D01*
Y226546D01*
X77059Y226841D01*
X77059Y233000D01*
X77000Y233295D01*
Y236000D01*
X74295D01*
X74000Y236059D01*
X56000D01*
X55059Y236980D01*
X55059Y304196D01*
X55039Y304295D01*
X55052Y304396D01*
X55000Y304591D01*
Y305892D01*
X56600Y306555D01*
X59002Y308398D01*
X60845Y310800D01*
X62004Y313598D01*
X62399Y316600D01*
X62004Y319602D01*
X60845Y322400D01*
X59002Y324802D01*
X56600Y326645D01*
X55000Y327308D01*
Y328609D01*
X55052Y328804D01*
X55039Y328905D01*
X55059Y329004D01*
Y330500D01*
X62300D01*
Y353500D01*
X55059D01*
Y373676D01*
X55039Y373775D01*
X55052Y373876D01*
X55000Y374071D01*
Y375372D01*
X56600Y376035D01*
X59002Y377878D01*
X60845Y380280D01*
X62004Y383078D01*
X62399Y386080D01*
X62004Y389082D01*
X60845Y391880D01*
X59002Y394282D01*
X56600Y396125D01*
X55000Y396788D01*
Y400772D01*
X56600Y401435D01*
X59002Y403278D01*
X60845Y405680D01*
X62004Y408478D01*
X62399Y411480D01*
X62004Y414482D01*
X60845Y417280D01*
X59002Y419682D01*
X56600Y421525D01*
X55000Y422188D01*
Y423489D01*
X55052Y423684D01*
X55039Y423785D01*
X55059Y423884D01*
X55059Y460036D01*
X55039Y460135D01*
X55052Y460236D01*
X55000Y460431D01*
Y461732D01*
X56600Y462395D01*
X59002Y464238D01*
X60845Y466640D01*
X62004Y469438D01*
X62399Y472440D01*
X62004Y475442D01*
X60845Y478240D01*
X59002Y480642D01*
X56600Y482485D01*
X55000Y483148D01*
Y487132D01*
X56600Y487795D01*
X59002Y489638D01*
X60845Y492040D01*
X62004Y494838D01*
X62399Y497840D01*
X62004Y500842D01*
X60845Y503640D01*
X59002Y506042D01*
X56600Y507885D01*
X55000Y508548D01*
Y514000D01*
X51281D01*
X51036Y514057D01*
X50985Y514049D01*
X50936Y514059D01*
X3000D01*
Y530000D01*
X94000D01*
Y462067D01*
D02*
G37*
G36*
X51053Y510687D02*
X51006Y510454D01*
X50196Y509360D01*
X47798Y509044D01*
X45000Y507885D01*
X42598Y506042D01*
X40755Y503640D01*
X39596Y500842D01*
X39201Y497840D01*
X39596Y494838D01*
X40755Y492040D01*
X42598Y489638D01*
X45000Y487795D01*
X47798Y486636D01*
X50800Y486241D01*
X51467Y485162D01*
Y485118D01*
X50800Y484039D01*
X47798Y483644D01*
X45000Y482485D01*
X42598Y480642D01*
X40755Y478240D01*
X39596Y475442D01*
X39201Y472440D01*
X39596Y469438D01*
X40755Y466640D01*
X42598Y464238D01*
X45000Y462395D01*
X47798Y461236D01*
X50800Y460841D01*
X51045Y460873D01*
X52000Y460036D01*
X52000Y423884D01*
X51045Y423047D01*
X50800Y423079D01*
X47798Y422684D01*
X45000Y421525D01*
X42598Y419682D01*
X40755Y417280D01*
X39596Y414482D01*
X39201Y411480D01*
X39596Y408478D01*
X40755Y405680D01*
X42598Y403278D01*
X45000Y401435D01*
X47798Y400276D01*
X50800Y399881D01*
X51468Y398802D01*
Y398758D01*
X50800Y397679D01*
X47798Y397284D01*
X45000Y396125D01*
X42598Y394282D01*
X40755Y391880D01*
X39596Y389082D01*
X39201Y386080D01*
X39596Y383078D01*
X40755Y380280D01*
X42598Y377878D01*
X45000Y376035D01*
X47798Y374876D01*
X50800Y374481D01*
X51045Y374513D01*
X52000Y373676D01*
Y353500D01*
X39300D01*
Y330500D01*
X52000D01*
Y329004D01*
X51045Y328167D01*
X50800Y328199D01*
X47798Y327804D01*
X45000Y326645D01*
X42598Y324802D01*
X40755Y322400D01*
X39596Y319602D01*
X39201Y316600D01*
X39596Y313598D01*
X40755Y310800D01*
X42598Y308398D01*
X45000Y306555D01*
X47798Y305396D01*
X50800Y305001D01*
X51045Y305033D01*
X52000Y304196D01*
X52000Y187000D01*
X59941Y179059D01*
Y163000D01*
X60000Y162705D01*
X60000Y161000D01*
X69941Y151059D01*
Y138000D01*
X69941Y138000D01*
X70000Y137705D01*
Y136000D01*
X80941Y125058D01*
Y98000D01*
X81000Y97705D01*
Y95000D01*
X83705D01*
X84000Y94941D01*
X88204D01*
X88500Y94882D01*
X88795Y94941D01*
X93000D01*
X93295Y95000D01*
X96000D01*
Y97705D01*
X96059Y98000D01*
Y146000D01*
X162000D01*
Y139000D01*
X159898Y136898D01*
X158659Y136652D01*
X156674Y135326D01*
X155348Y133341D01*
X154882Y131000D01*
X155348Y128659D01*
X156674Y126674D01*
X157000Y126457D01*
Y126000D01*
X157683D01*
X158659Y125348D01*
X161000Y124882D01*
X163341Y125348D01*
X164317Y126000D01*
X168000Y126000D01*
X170000Y128000D01*
X249000Y128000D01*
X300369Y76631D01*
X300674Y76174D01*
X301131Y75869D01*
X303000Y74000D01*
X354000D01*
X369000Y59000D01*
X414409D01*
X415000Y58882D01*
X415591Y59000D01*
X421409D01*
X422000Y58882D01*
X422591Y59000D01*
X428409D01*
X429000Y58882D01*
X429591Y59000D01*
X456000D01*
X485000Y88000D01*
X621000Y88000D01*
Y83434D01*
X620770Y82477D01*
X620276Y76200D01*
X620770Y69923D01*
X621000Y68966D01*
X621000Y31941D01*
X619730Y31688D01*
X619208Y32947D01*
X617445Y35245D01*
X615148Y37009D01*
X612472Y38117D01*
X609600Y38495D01*
X606728Y38117D01*
X604053Y37009D01*
X601755Y35245D01*
X599991Y32947D01*
X598883Y30272D01*
X598505Y27400D01*
Y23400D01*
X598883Y20528D01*
X599991Y17852D01*
X601755Y15555D01*
X604053Y13792D01*
X606728Y12683D01*
X609600Y12305D01*
X612472Y12683D01*
X615148Y13792D01*
X617445Y15555D01*
X619208Y17852D01*
X619730Y19112D01*
X621000Y18859D01*
X621000Y3000D01*
X398000Y3000D01*
Y14380D01*
X399270Y15006D01*
X400853Y13792D01*
X403528Y12683D01*
X406400Y12305D01*
X409272Y12683D01*
X411948Y13792D01*
X414245Y15555D01*
X416008Y17852D01*
X417117Y20528D01*
X417495Y23400D01*
Y27400D01*
X417117Y30272D01*
X416008Y32947D01*
X414245Y35245D01*
X411948Y37009D01*
X409272Y38117D01*
X406400Y38495D01*
X403528Y38117D01*
X400853Y37009D01*
X399270Y35794D01*
X398000Y36421D01*
Y40000D01*
X367000D01*
X342000Y65000D01*
X340295D01*
X340000Y65059D01*
X340000Y65059D01*
X326591Y65059D01*
X326296Y65000D01*
X325704D01*
X325409Y65059D01*
X319591Y65059D01*
X319296Y65000D01*
X318704D01*
X318409Y65059D01*
X289590Y65059D01*
X289296Y65000D01*
X288704D01*
X288410Y65059D01*
X287267D01*
X278163Y74163D01*
X278163Y74163D01*
X277181Y74819D01*
X277000Y75000D01*
X276294D01*
X276000Y75059D01*
X276000Y75059D01*
X257000D01*
Y98000D01*
X242000Y98000D01*
X222000Y118000D01*
X220295D01*
X220000Y118059D01*
X220000Y118059D01*
X167000Y118059D01*
X167000Y118059D01*
X166704Y118000D01*
X165000Y118000D01*
X156000Y109000D01*
Y107297D01*
X155941Y107000D01*
X155941Y106999D01*
X155941Y94000D01*
X155941Y90272D01*
X155905Y90000D01*
Y86000D01*
X155941Y85727D01*
X155941Y78957D01*
X155043Y78059D01*
X142321Y78059D01*
X142123Y78019D01*
X141921Y78033D01*
X141674Y78000D01*
X141526D01*
X141279Y78033D01*
X141077Y78019D01*
X140879Y78059D01*
X128000Y78059D01*
X128000Y101000D01*
X127200D01*
Y101000D01*
X124295D01*
X124000Y101059D01*
X108898Y101059D01*
X108898Y101059D01*
X108603Y101000D01*
X105200Y101000D01*
X105200Y101000D01*
X105000Y101000D01*
X105000Y97397D01*
X104941Y97102D01*
X104941Y97102D01*
X104941Y95941D01*
X78000Y69000D01*
X73059Y64059D01*
X3000Y64059D01*
Y116793D01*
X4196Y117221D01*
X4658Y116658D01*
X8160Y113784D01*
X12156Y111648D01*
X16491Y110333D01*
X21000Y109889D01*
X25509Y110333D01*
X29844Y111648D01*
X33840Y113784D01*
X37342Y116658D01*
X40216Y120160D01*
X42352Y124156D01*
X43667Y128491D01*
X44111Y133000D01*
X43667Y137509D01*
X42352Y141844D01*
X40216Y145840D01*
X37342Y149342D01*
X33840Y152216D01*
X29844Y154352D01*
X25509Y155667D01*
X21000Y156111D01*
X16491Y155667D01*
X12156Y154352D01*
X8160Y152216D01*
X4658Y149342D01*
X4196Y148779D01*
X3000Y149207D01*
Y511000D01*
X50936D01*
X51053Y510687D01*
D02*
G37*
G36*
X221000Y453000D02*
X223000Y451000D01*
X231000Y451000D01*
X255000Y427000D01*
X296000Y427000D01*
X296000Y411078D01*
X227922D01*
X226000Y413000D01*
X222000Y413000D01*
X222000Y438000D01*
X217397Y438000D01*
X217102Y438059D01*
X217102Y438059D01*
X210000Y438059D01*
X209705Y438000D01*
X208000D01*
X187000Y417000D01*
Y415818D01*
X186848Y415591D01*
X186383Y413250D01*
X186848Y410909D01*
X186941Y410770D01*
X186941Y383059D01*
X154863D01*
X154763Y383039D01*
X154663Y383052D01*
X154468Y383000D01*
X149336Y383000D01*
X149253Y384270D01*
X150872Y384483D01*
X153547Y385592D01*
X155845Y387355D01*
X157608Y389653D01*
X158717Y392328D01*
X159095Y395200D01*
X158717Y398072D01*
X157608Y400747D01*
X155845Y403045D01*
X153547Y404809D01*
X150872Y405917D01*
X148000Y406295D01*
X144000D01*
X141128Y405917D01*
X138453Y404809D01*
X136155Y403045D01*
X134391Y400747D01*
X133283Y398072D01*
X132905Y395200D01*
X133283Y392328D01*
X134391Y389653D01*
X136155Y387355D01*
X138453Y385592D01*
X141128Y384483D01*
X142747Y384270D01*
X142664Y383000D01*
X137532D01*
X137337Y383052D01*
X137237Y383039D01*
X137137Y383059D01*
X121059D01*
Y394000D01*
X121000Y394295D01*
Y397000D01*
X118295D01*
X118000Y397059D01*
X97059D01*
Y435000D01*
X164000D01*
Y457000D01*
X217000D01*
X221000Y453000D01*
D02*
G37*
G36*
X74000Y226841D02*
X73882Y226250D01*
X74000Y225659D01*
Y222000D01*
X75624Y222000D01*
X75674Y221924D01*
X76000Y221707D01*
X76000Y187315D01*
X74848Y185591D01*
X74383Y183250D01*
X74848Y180909D01*
X76174Y178924D01*
X78159Y177598D01*
X80500Y177132D01*
X82841Y177598D01*
X83442Y178000D01*
X93000D01*
Y98000D01*
X84000D01*
Y127000D01*
X73000Y138000D01*
Y153000D01*
X63000Y163000D01*
Y181000D01*
X56000Y188000D01*
Y233000D01*
X74000D01*
X74000Y226841D01*
D02*
G37*
G36*
X232000Y103000D02*
X232000Y72000D01*
X276000D01*
X286000Y62000D01*
X288410D01*
X289000Y61883D01*
X289590Y62000D01*
X318409Y62000D01*
X319000Y61883D01*
X319591Y62000D01*
X325409Y62000D01*
X326000Y61883D01*
X326591Y62000D01*
X340000Y62000D01*
X364000Y38000D01*
X364000Y15059D01*
X347000D01*
X347000Y31000D01*
X339000Y39000D01*
X270000Y39000D01*
X253000Y56000D01*
X251296D01*
X251000Y56059D01*
X251000Y56059D01*
X211941Y56059D01*
X196781Y71219D01*
X197374Y72422D01*
X199500Y72142D01*
X202763Y72572D01*
X205804Y73831D01*
X208415Y75835D01*
X210419Y78446D01*
X211678Y81487D01*
X212108Y84750D01*
X211678Y88013D01*
X210419Y91054D01*
X208415Y93665D01*
X205804Y95669D01*
X202763Y96928D01*
X199500Y97358D01*
X196237Y96928D01*
X193196Y95669D01*
X190585Y93665D01*
X188581Y91054D01*
X187322Y88013D01*
X186892Y84750D01*
X187322Y81487D01*
X188227Y79300D01*
X188198Y79139D01*
X187367Y78059D01*
X167720Y78059D01*
X167522Y78019D01*
X167321Y78032D01*
X167074Y78000D01*
X166926D01*
X166679Y78032D01*
X166478Y78019D01*
X166280Y78059D01*
X159000Y78059D01*
X159000Y94000D01*
X159000Y107000D01*
X167000Y115000D01*
X220000Y115000D01*
X232000Y103000D01*
D02*
G37*
G36*
X124000Y75000D02*
X140879Y75000D01*
X141600Y74905D01*
X142321Y75000D01*
X166280Y75000D01*
X167000Y74905D01*
X167720Y75000D01*
X188000Y75000D01*
X210000Y53000D01*
X251000Y53000D01*
X268000Y36000D01*
X268000Y12000D01*
X369000D01*
X369000Y36000D01*
X393000D01*
X393000Y3000D01*
X174186Y3000D01*
X173565Y4108D01*
X175450Y7184D01*
X177860Y13001D01*
X179330Y19123D01*
X179824Y25400D01*
X179330Y31677D01*
X177860Y37799D01*
X175450Y43616D01*
X172161Y48984D01*
X168072Y53772D01*
X163284Y57861D01*
X157916Y61150D01*
X152099Y63560D01*
X145977Y65030D01*
X139700Y65524D01*
X133423Y65030D01*
X127301Y63560D01*
X121484Y61150D01*
X116116Y57861D01*
X111328Y53772D01*
X107239Y48984D01*
X103949Y43616D01*
X101540Y37799D01*
X100070Y31677D01*
X99576Y25400D01*
X100070Y19123D01*
X101540Y13001D01*
X103949Y7184D01*
X105835Y4108D01*
X105214Y3000D01*
X3000D01*
Y61000D01*
X75000Y61000D01*
X108000Y94000D01*
X108000Y97102D01*
X108898Y98000D01*
X124000Y98000D01*
X124000Y75000D01*
D02*
G37*
%LPC*%
G36*
X646000Y521000D02*
X624000D01*
Y495000D01*
X646000D01*
Y521000D01*
D02*
G37*
G36*
X427560D02*
X405560D01*
Y495000D01*
X427560D01*
Y521000D01*
D02*
G37*
G36*
X609600Y521095D02*
X606728Y520717D01*
X604053Y519608D01*
X601755Y517845D01*
X599991Y515547D01*
X598883Y512872D01*
X598505Y510000D01*
Y506000D01*
X598883Y503128D01*
X599991Y500452D01*
X601755Y498155D01*
X604053Y496391D01*
X606728Y495283D01*
X609600Y494905D01*
X612472Y495283D01*
X615148Y496391D01*
X617445Y498155D01*
X619208Y500452D01*
X620317Y503128D01*
X620695Y506000D01*
Y510000D01*
X620317Y512872D01*
X619208Y515547D01*
X617445Y517845D01*
X615148Y519608D01*
X612472Y520717D01*
X609600Y521095D01*
D02*
G37*
G36*
X584200D02*
X581328Y520717D01*
X578652Y519608D01*
X576355Y517845D01*
X574591Y515547D01*
X573483Y512872D01*
X573105Y510000D01*
Y506000D01*
X573483Y503128D01*
X574591Y500452D01*
X576355Y498155D01*
X578652Y496391D01*
X581328Y495283D01*
X584200Y494905D01*
X587072Y495283D01*
X589748Y496391D01*
X592045Y498155D01*
X593809Y500452D01*
X594917Y503128D01*
X595295Y506000D01*
Y510000D01*
X594917Y512872D01*
X593809Y515547D01*
X592045Y517845D01*
X589748Y519608D01*
X587072Y520717D01*
X584200Y521095D01*
D02*
G37*
G36*
X558800D02*
X555928Y520717D01*
X553252Y519608D01*
X550955Y517845D01*
X549192Y515547D01*
X548083Y512872D01*
X547705Y510000D01*
Y506000D01*
X548083Y503128D01*
X549192Y500452D01*
X550955Y498155D01*
X553252Y496391D01*
X555928Y495283D01*
X558800Y494905D01*
X561672Y495283D01*
X564347Y496391D01*
X566645Y498155D01*
X568409Y500452D01*
X569517Y503128D01*
X569895Y506000D01*
Y510000D01*
X569517Y512872D01*
X568409Y515547D01*
X566645Y517845D01*
X564347Y519608D01*
X561672Y520717D01*
X558800Y521095D01*
D02*
G37*
G36*
X533400D02*
X530528Y520717D01*
X527853Y519608D01*
X525555Y517845D01*
X523792Y515547D01*
X522683Y512872D01*
X522305Y510000D01*
Y506000D01*
X522683Y503128D01*
X523792Y500452D01*
X525555Y498155D01*
X527853Y496391D01*
X530528Y495283D01*
X533400Y494905D01*
X536272Y495283D01*
X538947Y496391D01*
X541245Y498155D01*
X543008Y500452D01*
X544117Y503128D01*
X544495Y506000D01*
Y510000D01*
X544117Y512872D01*
X543008Y515547D01*
X541245Y517845D01*
X538947Y519608D01*
X536272Y520717D01*
X533400Y521095D01*
D02*
G37*
G36*
X508000D02*
X505128Y520717D01*
X502453Y519608D01*
X500155Y517845D01*
X498391Y515547D01*
X497283Y512872D01*
X496905Y510000D01*
Y506000D01*
X497283Y503128D01*
X498391Y500452D01*
X500155Y498155D01*
X502453Y496391D01*
X505128Y495283D01*
X508000Y494905D01*
X510872Y495283D01*
X513548Y496391D01*
X515845Y498155D01*
X517608Y500452D01*
X518717Y503128D01*
X519095Y506000D01*
Y510000D01*
X518717Y512872D01*
X517608Y515547D01*
X515845Y517845D01*
X513548Y519608D01*
X510872Y520717D01*
X508000Y521095D01*
D02*
G37*
G36*
X482600D02*
X479728Y520717D01*
X477052Y519608D01*
X474755Y517845D01*
X472991Y515547D01*
X471883Y512872D01*
X471505Y510000D01*
Y506000D01*
X471883Y503128D01*
X472991Y500452D01*
X474755Y498155D01*
X477052Y496391D01*
X479728Y495283D01*
X482600Y494905D01*
X485472Y495283D01*
X488148Y496391D01*
X490445Y498155D01*
X492209Y500452D01*
X493317Y503128D01*
X493695Y506000D01*
Y510000D01*
X493317Y512872D01*
X492209Y515547D01*
X490445Y517845D01*
X488148Y519608D01*
X485472Y520717D01*
X482600Y521095D01*
D02*
G37*
G36*
X457200D02*
X454328Y520717D01*
X451652Y519608D01*
X449355Y517845D01*
X447592Y515547D01*
X446483Y512872D01*
X446105Y510000D01*
Y506000D01*
X446483Y503128D01*
X447592Y500452D01*
X449355Y498155D01*
X451652Y496391D01*
X454328Y495283D01*
X457200Y494905D01*
X460072Y495283D01*
X462747Y496391D01*
X465045Y498155D01*
X466809Y500452D01*
X467917Y503128D01*
X468295Y506000D01*
Y510000D01*
X467917Y512872D01*
X466809Y515547D01*
X465045Y517845D01*
X462747Y519608D01*
X460072Y520717D01*
X457200Y521095D01*
D02*
G37*
G36*
X391160D02*
X388288Y520717D01*
X385612Y519608D01*
X383315Y517845D01*
X381552Y515547D01*
X380443Y512872D01*
X380065Y510000D01*
Y506000D01*
X380443Y503128D01*
X381552Y500452D01*
X383315Y498155D01*
X385612Y496391D01*
X388288Y495283D01*
X391160Y494905D01*
X394032Y495283D01*
X396707Y496391D01*
X399005Y498155D01*
X400769Y500452D01*
X401877Y503128D01*
X402255Y506000D01*
Y510000D01*
X401877Y512872D01*
X400769Y515547D01*
X399005Y517845D01*
X396707Y519608D01*
X394032Y520717D01*
X391160Y521095D01*
D02*
G37*
G36*
X365760D02*
X362888Y520717D01*
X360213Y519608D01*
X357915Y517845D01*
X356152Y515547D01*
X355043Y512872D01*
X354665Y510000D01*
Y506000D01*
X355043Y503128D01*
X356152Y500452D01*
X357915Y498155D01*
X360213Y496391D01*
X362888Y495283D01*
X365760Y494905D01*
X368632Y495283D01*
X371307Y496391D01*
X373605Y498155D01*
X375368Y500452D01*
X376477Y503128D01*
X376855Y506000D01*
Y510000D01*
X376477Y512872D01*
X375368Y515547D01*
X373605Y517845D01*
X371307Y519608D01*
X368632Y520717D01*
X365760Y521095D01*
D02*
G37*
G36*
X340360D02*
X337488Y520717D01*
X334813Y519608D01*
X332515Y517845D01*
X330751Y515547D01*
X329643Y512872D01*
X329265Y510000D01*
Y506000D01*
X329643Y503128D01*
X330751Y500452D01*
X332515Y498155D01*
X334813Y496391D01*
X337488Y495283D01*
X340360Y494905D01*
X343232Y495283D01*
X345908Y496391D01*
X348205Y498155D01*
X349968Y500452D01*
X351077Y503128D01*
X351455Y506000D01*
Y510000D01*
X351077Y512872D01*
X349968Y515547D01*
X348205Y517845D01*
X345908Y519608D01*
X343232Y520717D01*
X340360Y521095D01*
D02*
G37*
G36*
X314960D02*
X312088Y520717D01*
X309412Y519608D01*
X307115Y517845D01*
X305352Y515547D01*
X304243Y512872D01*
X303865Y510000D01*
Y506000D01*
X304243Y503128D01*
X305352Y500452D01*
X305361Y500440D01*
X295874Y490953D01*
X290366D01*
X290201Y491201D01*
X288216Y492527D01*
X285875Y492993D01*
X283534Y492527D01*
X281549Y491201D01*
X280223Y489216D01*
X279757Y486875D01*
X280223Y484534D01*
X281549Y482549D01*
X283534Y481223D01*
X285875Y480757D01*
X288216Y481223D01*
X290201Y482549D01*
X290366Y482797D01*
X297563D01*
X297563Y482797D01*
X299124Y483107D01*
X300447Y483991D01*
X311841Y495386D01*
X312088Y495283D01*
X314960Y494905D01*
X317832Y495283D01*
X320508Y496391D01*
X322805Y498155D01*
X324568Y500452D01*
X325677Y503128D01*
X326055Y506000D01*
Y510000D01*
X325677Y512872D01*
X324568Y515547D01*
X322805Y517845D01*
X320508Y519608D01*
X317832Y520717D01*
X314960Y521095D01*
D02*
G37*
G36*
X289560D02*
X286688Y520717D01*
X284013Y519608D01*
X281715Y517845D01*
X279951Y515547D01*
X278843Y512872D01*
X278465Y510000D01*
Y506000D01*
X278843Y503128D01*
X279951Y500452D01*
X281715Y498155D01*
X284013Y496391D01*
X286688Y495283D01*
X289560Y494905D01*
X292432Y495283D01*
X295107Y496391D01*
X297405Y498155D01*
X299168Y500452D01*
X300277Y503128D01*
X300655Y506000D01*
Y510000D01*
X300277Y512872D01*
X299168Y515547D01*
X297405Y517845D01*
X295107Y519608D01*
X292432Y520717D01*
X289560Y521095D01*
D02*
G37*
G36*
X76200Y397679D02*
X73198Y397284D01*
X70400Y396125D01*
X67998Y394282D01*
X66155Y391880D01*
X64996Y389082D01*
X64601Y386080D01*
X64996Y383078D01*
X66155Y380280D01*
X67998Y377878D01*
X70400Y376035D01*
X73198Y374876D01*
X76200Y374481D01*
X79202Y374876D01*
X82000Y376035D01*
X84402Y377878D01*
X86245Y380280D01*
X87404Y383078D01*
X87799Y386080D01*
X87404Y389082D01*
X86245Y391880D01*
X84402Y394282D01*
X82000Y396125D01*
X79202Y397284D01*
X76200Y397679D01*
D02*
G37*
G36*
X91000Y375868D02*
X88659Y375402D01*
X86674Y374076D01*
X85348Y372091D01*
X84882Y369750D01*
X85348Y367409D01*
X86674Y365424D01*
X86922Y365259D01*
Y324491D01*
X86674Y324326D01*
X85348Y322341D01*
X84882Y320000D01*
X85348Y317659D01*
X86674Y315674D01*
X88659Y314348D01*
X91000Y313883D01*
X93341Y314348D01*
X95152Y315558D01*
X96422Y315203D01*
Y277075D01*
X95674Y276576D01*
X94348Y274591D01*
X93883Y272250D01*
X94348Y269909D01*
X95674Y267924D01*
X97659Y266598D01*
X100000Y266133D01*
X102341Y266598D01*
X104326Y267924D01*
X105652Y269909D01*
X106117Y272250D01*
X105652Y274591D01*
X104578Y276198D01*
Y360175D01*
X105326Y360674D01*
X106652Y362659D01*
X107118Y365000D01*
X106652Y367341D01*
X105326Y369326D01*
X103341Y370652D01*
X101000Y371118D01*
X98659Y370652D01*
X98283Y370401D01*
X96872Y370985D01*
X96652Y372091D01*
X95326Y374076D01*
X93341Y375402D01*
X91000Y375868D01*
D02*
G37*
G36*
X327000Y252118D02*
X324659Y251652D01*
X322674Y250326D01*
X321348Y248341D01*
X320882Y246000D01*
X321348Y243659D01*
X322674Y241674D01*
X323272Y241275D01*
Y213536D01*
X322133Y212974D01*
X321398Y213538D01*
X318722Y214647D01*
X315850Y215025D01*
X312978Y214647D01*
X310303Y213538D01*
X308005Y211775D01*
X307531Y211158D01*
X306328Y211566D01*
Y215561D01*
X311708Y220940D01*
X312000Y220882D01*
X314341Y221348D01*
X316326Y222674D01*
X317652Y224659D01*
X318118Y227000D01*
X317652Y229341D01*
X316326Y231326D01*
X314341Y232652D01*
X312000Y233118D01*
X309659Y232652D01*
X307674Y231326D01*
X306348Y229341D01*
X305882Y227000D01*
X305940Y226708D01*
X299366Y220134D01*
X298482Y218811D01*
X298172Y217250D01*
X298172Y217250D01*
Y213306D01*
X297033Y212744D01*
X295998Y213538D01*
X293322Y214647D01*
X290450Y215025D01*
X287578Y214647D01*
X284902Y213538D01*
X282605Y211775D01*
X280842Y209478D01*
X279733Y206802D01*
X279355Y203930D01*
Y199930D01*
X279733Y197058D01*
X280342Y195589D01*
X267831Y183078D01*
X242491D01*
X242326Y183326D01*
X240341Y184652D01*
X238000Y185117D01*
X235659Y184652D01*
X233674Y183326D01*
X232348Y181341D01*
X231882Y179000D01*
X232348Y176659D01*
X233674Y174674D01*
X235659Y173348D01*
X238000Y172882D01*
X240341Y173348D01*
X242326Y174674D01*
X242491Y174922D01*
X269520D01*
X269520Y174922D01*
X271081Y175232D01*
X272404Y176116D01*
X286109Y189822D01*
X287578Y189213D01*
X290450Y188835D01*
X293322Y189213D01*
X295998Y190322D01*
X297033Y191116D01*
X298172Y190554D01*
Y184741D01*
X297924Y184576D01*
X296598Y182591D01*
X296133Y180250D01*
X296598Y177909D01*
X297924Y175924D01*
X299909Y174598D01*
X302250Y174132D01*
X304591Y174598D01*
X306576Y175924D01*
X307902Y177909D01*
X308368Y180250D01*
X307902Y182591D01*
X306576Y184576D01*
X306328Y184741D01*
Y192294D01*
X307531Y192702D01*
X308005Y192085D01*
X310303Y190322D01*
X312978Y189213D01*
X315850Y188835D01*
X318722Y189213D01*
X321398Y190322D01*
X322133Y190886D01*
X323272Y190324D01*
Y185141D01*
X323174Y185076D01*
X321848Y183091D01*
X321382Y180750D01*
X321848Y178409D01*
X323174Y176424D01*
X325159Y175098D01*
X327500Y174632D01*
X329841Y175098D01*
X331826Y176424D01*
X333152Y178409D01*
X333618Y180750D01*
X333152Y183091D01*
X331826Y185076D01*
X331428Y185341D01*
Y192574D01*
X332698Y193005D01*
X333405Y192085D01*
X335703Y190322D01*
X338378Y189213D01*
X341250Y188835D01*
X344122Y189213D01*
X346797Y190322D01*
X349095Y192085D01*
X350858Y194382D01*
X351967Y197058D01*
X352345Y199930D01*
Y203930D01*
X351967Y206802D01*
X350858Y209478D01*
X349095Y211775D01*
X346797Y213538D01*
X344122Y214647D01*
X341250Y215025D01*
X338378Y214647D01*
X335703Y213538D01*
X333405Y211775D01*
X332698Y210855D01*
X331428Y211286D01*
Y241828D01*
X332652Y243659D01*
X333117Y246000D01*
X332652Y248341D01*
X331326Y250326D01*
X329341Y251652D01*
X327000Y252118D01*
D02*
G37*
G36*
X118500Y222118D02*
X116159Y221652D01*
X114174Y220326D01*
X112848Y218341D01*
X112382Y216000D01*
X112848Y213659D01*
X114174Y211674D01*
X116159Y210348D01*
X118500Y209883D01*
X120841Y210348D01*
X122515Y211467D01*
X129481Y204502D01*
X128995Y203328D01*
X122750D01*
X121189Y203018D01*
X119866Y202134D01*
X119866Y202134D01*
X118792Y201059D01*
X118500Y201117D01*
X116159Y200652D01*
X114174Y199326D01*
X112848Y197341D01*
X112382Y195000D01*
X112848Y192659D01*
X114174Y190674D01*
X116159Y189348D01*
X118500Y188883D01*
X120841Y189348D01*
X122826Y190674D01*
X124152Y192659D01*
X124618Y195000D01*
X124758Y195172D01*
X143009D01*
X143174Y194924D01*
X145159Y193598D01*
X147500Y193132D01*
X149841Y193598D01*
X151826Y194924D01*
X153152Y196909D01*
X153617Y199250D01*
X153389Y200402D01*
X154431Y201672D01*
X158759D01*
X158924Y201424D01*
X159107Y201302D01*
Y200032D01*
X158424Y199576D01*
X157098Y197591D01*
X156632Y195250D01*
X157098Y192909D01*
X158424Y190924D01*
X160409Y189598D01*
X162750Y189132D01*
X196250D01*
X198591Y189598D01*
X200576Y190924D01*
X213326Y203674D01*
X214652Y205659D01*
X215117Y208000D01*
X214652Y210341D01*
X213326Y212326D01*
X211341Y213652D01*
X209000Y214118D01*
X206659Y213652D01*
X204674Y212326D01*
X193716Y201368D01*
X169065D01*
X168386Y202638D01*
X168902Y203409D01*
X169368Y205750D01*
X168902Y208091D01*
X167576Y210076D01*
X165591Y211402D01*
X163250Y211868D01*
X160909Y211402D01*
X158924Y210076D01*
X158759Y209828D01*
X135689D01*
X126634Y218884D01*
X125311Y219768D01*
X123750Y220078D01*
X123750Y220078D01*
X122991D01*
X122826Y220326D01*
X120841Y221652D01*
X118500Y222118D01*
D02*
G37*
G36*
X544450Y215025D02*
X541578Y214647D01*
X538903Y213538D01*
X536605Y211775D01*
X534841Y209478D01*
X533733Y206802D01*
X533355Y203930D01*
Y199930D01*
X533733Y197058D01*
X534841Y194382D01*
X536605Y192085D01*
X538903Y190322D01*
X541578Y189213D01*
X544450Y188835D01*
X547322Y189213D01*
X549997Y190322D01*
X552295Y192085D01*
X554058Y194382D01*
X555167Y197058D01*
X555545Y199930D01*
Y203930D01*
X555167Y206802D01*
X554058Y209478D01*
X552295Y211775D01*
X549997Y213538D01*
X547322Y214647D01*
X544450Y215025D01*
D02*
G37*
G36*
X519050D02*
X516178Y214647D01*
X513503Y213538D01*
X511205Y211775D01*
X509441Y209478D01*
X508333Y206802D01*
X507955Y203930D01*
Y199930D01*
X508333Y197058D01*
X509441Y194382D01*
X511205Y192085D01*
X513503Y190322D01*
X516178Y189213D01*
X519050Y188835D01*
X521922Y189213D01*
X524598Y190322D01*
X526895Y192085D01*
X528658Y194382D01*
X529767Y197058D01*
X530145Y199930D01*
Y203930D01*
X529767Y206802D01*
X528658Y209478D01*
X526895Y211775D01*
X524598Y213538D01*
X521922Y214647D01*
X519050Y215025D01*
D02*
G37*
G36*
X493650D02*
X490778Y214647D01*
X488102Y213538D01*
X485805Y211775D01*
X484041Y209478D01*
X482933Y206802D01*
X482555Y203930D01*
Y199930D01*
X482933Y197058D01*
X484041Y194382D01*
X485805Y192085D01*
X488102Y190322D01*
X490778Y189213D01*
X493650Y188835D01*
X496522Y189213D01*
X499198Y190322D01*
X501495Y192085D01*
X503259Y194382D01*
X504367Y197058D01*
X504745Y199930D01*
Y203930D01*
X504367Y206802D01*
X503259Y209478D01*
X501495Y211775D01*
X499198Y213538D01*
X496522Y214647D01*
X493650Y215025D01*
D02*
G37*
G36*
X468250D02*
X465378Y214647D01*
X462702Y213538D01*
X460405Y211775D01*
X458642Y209478D01*
X457533Y206802D01*
X457155Y203930D01*
Y199930D01*
X457533Y197058D01*
X458642Y194382D01*
X460405Y192085D01*
X462702Y190322D01*
X465378Y189213D01*
X468250Y188835D01*
X471122Y189213D01*
X473797Y190322D01*
X476095Y192085D01*
X477859Y194382D01*
X478967Y197058D01*
X479345Y199930D01*
Y203930D01*
X478967Y206802D01*
X477859Y209478D01*
X476095Y211775D01*
X473797Y213538D01*
X471122Y214647D01*
X468250Y215025D01*
D02*
G37*
G36*
X417450D02*
X414578Y214647D01*
X411903Y213538D01*
X409605Y211775D01*
X407841Y209478D01*
X406733Y206802D01*
X406355Y203930D01*
Y199930D01*
X406733Y197058D01*
X407841Y194382D01*
X409605Y192085D01*
X411903Y190322D01*
X414578Y189213D01*
X417450Y188835D01*
X420322Y189213D01*
X422998Y190322D01*
X425295Y192085D01*
X427058Y194382D01*
X428167Y197058D01*
X428545Y199930D01*
Y203930D01*
X428167Y206802D01*
X427058Y209478D01*
X425295Y211775D01*
X422998Y213538D01*
X420322Y214647D01*
X417450Y215025D01*
D02*
G37*
G36*
X392050D02*
X389178Y214647D01*
X386502Y213538D01*
X384205Y211775D01*
X382441Y209478D01*
X381333Y206802D01*
X380955Y203930D01*
Y199930D01*
X381333Y197058D01*
X382441Y194382D01*
X384205Y192085D01*
X386502Y190322D01*
X389178Y189213D01*
X392050Y188835D01*
X394922Y189213D01*
X397598Y190322D01*
X399895Y192085D01*
X401659Y194382D01*
X402767Y197058D01*
X403145Y199930D01*
Y203930D01*
X402767Y206802D01*
X401659Y209478D01*
X399895Y211775D01*
X397598Y213538D01*
X394922Y214647D01*
X392050Y215025D01*
D02*
G37*
G36*
X366650D02*
X363778Y214647D01*
X361102Y213538D01*
X358805Y211775D01*
X357042Y209478D01*
X355933Y206802D01*
X355555Y203930D01*
Y199930D01*
X355933Y197058D01*
X357042Y194382D01*
X358805Y192085D01*
X361102Y190322D01*
X363778Y189213D01*
X366650Y188835D01*
X369522Y189213D01*
X372197Y190322D01*
X374495Y192085D01*
X376259Y194382D01*
X377367Y197058D01*
X377745Y199930D01*
Y203930D01*
X377367Y206802D01*
X376259Y209478D01*
X374495Y211775D01*
X372197Y213538D01*
X369522Y214647D01*
X366650Y215025D01*
D02*
G37*
G36*
X569850Y138825D02*
X566978Y138447D01*
X564302Y137338D01*
X562005Y135575D01*
X560242Y133278D01*
X559133Y130602D01*
X558755Y127730D01*
Y123730D01*
X559133Y120858D01*
X560242Y118182D01*
X562005Y115885D01*
X564302Y114122D01*
X566978Y113013D01*
X569850Y112635D01*
X572722Y113013D01*
X575397Y114122D01*
X577695Y115885D01*
X579459Y118182D01*
X580567Y120858D01*
X580945Y123730D01*
Y127730D01*
X580567Y130602D01*
X579459Y133278D01*
X577695Y135575D01*
X575397Y137338D01*
X572722Y138447D01*
X569850Y138825D01*
D02*
G37*
G36*
X544450D02*
X541578Y138447D01*
X538903Y137338D01*
X536605Y135575D01*
X534841Y133278D01*
X533733Y130602D01*
X533355Y127730D01*
Y123730D01*
X533733Y120858D01*
X534841Y118182D01*
X536605Y115885D01*
X538903Y114122D01*
X541578Y113013D01*
X544450Y112635D01*
X547322Y113013D01*
X549997Y114122D01*
X552295Y115885D01*
X554058Y118182D01*
X555167Y120858D01*
X555545Y123730D01*
Y127730D01*
X555167Y130602D01*
X554058Y133278D01*
X552295Y135575D01*
X549997Y137338D01*
X547322Y138447D01*
X544450Y138825D01*
D02*
G37*
G36*
X451000Y162059D02*
X449829Y161826D01*
X448837Y161163D01*
X448174Y160171D01*
X447941Y159000D01*
X447941Y151898D01*
X447941Y151898D01*
X448174Y150728D01*
X448837Y149735D01*
X449735Y148837D01*
X450728Y148174D01*
X451898Y147941D01*
X451898Y147941D01*
X459733Y147941D01*
X474992Y132683D01*
X475174Y131765D01*
X475987Y129803D01*
X476286Y127529D01*
Y123931D01*
X475987Y121657D01*
X475174Y119695D01*
X474941Y118524D01*
X474941Y101000D01*
X475174Y99830D01*
X475837Y98837D01*
X476829Y98174D01*
X478000Y97941D01*
X506000D01*
X507170Y98174D01*
X508163Y98837D01*
X508826Y99830D01*
X509059Y101000D01*
Y116595D01*
X510329Y117026D01*
X511205Y115885D01*
X513503Y114122D01*
X516178Y113013D01*
X519050Y112635D01*
X521922Y113013D01*
X524598Y114122D01*
X526895Y115885D01*
X528658Y118182D01*
X529767Y120858D01*
X530145Y123730D01*
Y127730D01*
X529767Y130602D01*
X528658Y133278D01*
X526895Y135575D01*
X524598Y137338D01*
X521922Y138447D01*
X519050Y138825D01*
X516178Y138447D01*
X513503Y137338D01*
X511205Y135575D01*
X510329Y134434D01*
X509059Y134865D01*
Y159000D01*
X508826Y160170D01*
X508163Y161163D01*
X507170Y161826D01*
X506000Y162059D01*
X451000Y162059D01*
D02*
G37*
G36*
X442850Y138825D02*
X439978Y138447D01*
X437303Y137338D01*
X435005Y135575D01*
X433242Y133278D01*
X432133Y130602D01*
X431755Y127730D01*
Y123730D01*
X432133Y120858D01*
X433242Y118182D01*
X435005Y115885D01*
X437303Y114122D01*
X439978Y113013D01*
X442850Y112635D01*
X445722Y113013D01*
X448397Y114122D01*
X450695Y115885D01*
X452458Y118182D01*
X453567Y120858D01*
X453945Y123730D01*
Y127730D01*
X453567Y130602D01*
X452458Y133278D01*
X450695Y135575D01*
X448397Y137338D01*
X445722Y138447D01*
X442850Y138825D01*
D02*
G37*
G36*
X417450D02*
X414578Y138447D01*
X411903Y137338D01*
X409605Y135575D01*
X407841Y133278D01*
X406733Y130602D01*
X406355Y127730D01*
Y123730D01*
X406733Y120858D01*
X407841Y118182D01*
X409605Y115885D01*
X411903Y114122D01*
X414578Y113013D01*
X417450Y112635D01*
X420322Y113013D01*
X422998Y114122D01*
X425295Y115885D01*
X427058Y118182D01*
X428167Y120858D01*
X428545Y123730D01*
Y127730D01*
X428167Y130602D01*
X427058Y133278D01*
X425295Y135575D01*
X422998Y137338D01*
X420322Y138447D01*
X417450Y138825D01*
D02*
G37*
G36*
X392050D02*
X389178Y138447D01*
X386502Y137338D01*
X384205Y135575D01*
X382441Y133278D01*
X381333Y130602D01*
X380955Y127730D01*
Y123730D01*
X381333Y120858D01*
X382441Y118182D01*
X384205Y115885D01*
X386502Y114122D01*
X389178Y113013D01*
X392050Y112635D01*
X394922Y113013D01*
X397598Y114122D01*
X399895Y115885D01*
X401659Y118182D01*
X402767Y120858D01*
X403145Y123730D01*
Y127730D01*
X402767Y130602D01*
X401659Y133278D01*
X399895Y135575D01*
X397598Y137338D01*
X394922Y138447D01*
X392050Y138825D01*
D02*
G37*
G36*
X366650D02*
X363778Y138447D01*
X361102Y137338D01*
X358805Y135575D01*
X357042Y133278D01*
X355933Y130602D01*
X355555Y127730D01*
Y123730D01*
X355933Y120858D01*
X357042Y118182D01*
X358805Y115885D01*
X361102Y114122D01*
X363778Y113013D01*
X366650Y112635D01*
X369522Y113013D01*
X372197Y114122D01*
X374495Y115885D01*
X376259Y118182D01*
X377367Y120858D01*
X377745Y123730D01*
Y127730D01*
X377367Y130602D01*
X376259Y133278D01*
X374495Y135575D01*
X372197Y137338D01*
X369522Y138447D01*
X366650Y138825D01*
D02*
G37*
G36*
X341250D02*
X338378Y138447D01*
X335703Y137338D01*
X333405Y135575D01*
X331642Y133278D01*
X330533Y130602D01*
X330155Y127730D01*
Y123730D01*
X330533Y120858D01*
X331642Y118182D01*
X333405Y115885D01*
X335703Y114122D01*
X338378Y113013D01*
X341250Y112635D01*
X344122Y113013D01*
X346797Y114122D01*
X349095Y115885D01*
X350858Y118182D01*
X351967Y120858D01*
X352345Y123730D01*
Y127730D01*
X351967Y130602D01*
X350858Y133278D01*
X349095Y135575D01*
X346797Y137338D01*
X344122Y138447D01*
X341250Y138825D01*
D02*
G37*
G36*
X315850D02*
X312978Y138447D01*
X310303Y137338D01*
X308005Y135575D01*
X306241Y133278D01*
X305133Y130602D01*
X304755Y127730D01*
Y123730D01*
X305133Y120858D01*
X306241Y118182D01*
X308005Y115885D01*
X310303Y114122D01*
X312978Y113013D01*
X315850Y112635D01*
X318722Y113013D01*
X321398Y114122D01*
X323695Y115885D01*
X325458Y118182D01*
X326567Y120858D01*
X326945Y123730D01*
Y127730D01*
X326567Y130602D01*
X325458Y133278D01*
X323695Y135575D01*
X321398Y137338D01*
X318722Y138447D01*
X315850Y138825D01*
D02*
G37*
G36*
X290450D02*
X287578Y138447D01*
X284902Y137338D01*
X282605Y135575D01*
X280842Y133278D01*
X279733Y130602D01*
X279355Y127730D01*
Y123730D01*
X279733Y120858D01*
X280842Y118182D01*
X282605Y115885D01*
X284902Y114122D01*
X287578Y113013D01*
X290450Y112635D01*
X293322Y113013D01*
X295998Y114122D01*
X298295Y115885D01*
X300058Y118182D01*
X301167Y120858D01*
X301545Y123730D01*
Y127730D01*
X301167Y130602D01*
X300058Y133278D01*
X298295Y135575D01*
X295998Y137338D01*
X293322Y138447D01*
X290450Y138825D01*
D02*
G37*
%LPD*%
G36*
X506000Y159000D02*
Y127926D01*
X504730Y127843D01*
X504367Y130602D01*
X503259Y133278D01*
X501495Y135575D01*
X499198Y137338D01*
X496522Y138447D01*
X493650Y138825D01*
X490778Y138447D01*
X488102Y137338D01*
X485805Y135575D01*
X484041Y133278D01*
X482933Y130602D01*
X482555Y127730D01*
Y123730D01*
X482933Y120858D01*
X484041Y118182D01*
X485805Y115885D01*
X488102Y114122D01*
X490778Y113013D01*
X493650Y112635D01*
X496522Y113013D01*
X499198Y114122D01*
X501495Y115885D01*
X503259Y118182D01*
X504367Y120858D01*
X504730Y123617D01*
X506000Y123534D01*
Y101000D01*
X478000D01*
X478000Y118524D01*
X478967Y120858D01*
X479345Y123730D01*
Y127730D01*
X478967Y130602D01*
X478000Y132935D01*
Y134000D01*
X461000Y151000D01*
X451898Y151000D01*
X451000Y151898D01*
X451000Y159000D01*
X506000Y159000D01*
D02*
G37*
%LPC*%
G36*
X36900Y483940D02*
X13900D01*
Y460940D01*
X36900D01*
Y483940D01*
D02*
G37*
G36*
Y397580D02*
X13900D01*
Y374580D01*
X36900D01*
Y397580D01*
D02*
G37*
G36*
X25400Y353599D02*
X22398Y353204D01*
X19600Y352045D01*
X17198Y350202D01*
X15355Y347800D01*
X14196Y345002D01*
X13801Y342000D01*
X14196Y338998D01*
X15355Y336200D01*
X17198Y333798D01*
X19600Y331955D01*
X22398Y330796D01*
X25400Y330401D01*
X28402Y330796D01*
X31200Y331955D01*
X33602Y333798D01*
X35445Y336200D01*
X36604Y338998D01*
X36999Y342000D01*
X36604Y345002D01*
X35445Y347800D01*
X33602Y350202D01*
X31200Y352045D01*
X28402Y353204D01*
X25400Y353599D01*
D02*
G37*
G36*
Y328199D02*
X22398Y327804D01*
X19600Y326645D01*
X17198Y324802D01*
X15355Y322400D01*
X14196Y319602D01*
X13801Y316600D01*
X14196Y313598D01*
X15355Y310800D01*
X17198Y308398D01*
X19600Y306555D01*
X22398Y305396D01*
X25400Y305001D01*
X28402Y305396D01*
X31200Y306555D01*
X33602Y308398D01*
X35445Y310800D01*
X36604Y313598D01*
X36999Y316600D01*
X36604Y319602D01*
X35445Y322400D01*
X33602Y324802D01*
X31200Y326645D01*
X28402Y327804D01*
X25400Y328199D01*
D02*
G37*
G36*
X28245Y243308D02*
X15745D01*
X13983Y243076D01*
X12341Y242396D01*
X10931Y241314D01*
X9849Y239904D01*
X9169Y238262D01*
X8937Y236500D01*
Y231500D01*
X9169Y229738D01*
X9849Y228096D01*
X10931Y226686D01*
X12341Y225604D01*
X13983Y224924D01*
X15745Y224692D01*
X28245D01*
X30007Y224924D01*
X31649Y225604D01*
X33059Y226686D01*
X34141Y228096D01*
X34821Y229738D01*
X35053Y231500D01*
Y236500D01*
X34821Y238262D01*
X34141Y239904D01*
X33059Y241314D01*
X31649Y242396D01*
X30007Y243076D01*
X28245Y243308D01*
D02*
G37*
G36*
Y177308D02*
X15745D01*
X13983Y177076D01*
X12341Y176396D01*
X10931Y175314D01*
X9849Y173904D01*
X9169Y172262D01*
X8937Y170500D01*
Y165500D01*
X9169Y163738D01*
X9849Y162096D01*
X10931Y160686D01*
X12341Y159604D01*
X13983Y158924D01*
X15745Y158692D01*
X28245D01*
X30007Y158924D01*
X31649Y159604D01*
X33059Y160686D01*
X34141Y162096D01*
X34821Y163738D01*
X35053Y165500D01*
Y170500D01*
X34821Y172262D01*
X34141Y173904D01*
X33059Y175314D01*
X31649Y176396D01*
X30007Y177076D01*
X28245Y177308D01*
D02*
G37*
G36*
X519000Y38400D02*
X497000D01*
Y12400D01*
X519000D01*
Y38400D01*
D02*
G37*
G36*
X584200Y38495D02*
X581328Y38117D01*
X578652Y37009D01*
X576355Y35245D01*
X574591Y32947D01*
X573483Y30272D01*
X573105Y27400D01*
Y23400D01*
X573483Y20528D01*
X574591Y17852D01*
X576355Y15555D01*
X578652Y13792D01*
X581328Y12683D01*
X584200Y12305D01*
X587072Y12683D01*
X589748Y13792D01*
X592045Y15555D01*
X593809Y17852D01*
X594917Y20528D01*
X595295Y23400D01*
Y27400D01*
X594917Y30272D01*
X593809Y32947D01*
X592045Y35245D01*
X589748Y37009D01*
X587072Y38117D01*
X584200Y38495D01*
D02*
G37*
G36*
X558800D02*
X555928Y38117D01*
X553252Y37009D01*
X550955Y35245D01*
X549192Y32947D01*
X548083Y30272D01*
X547705Y27400D01*
Y23400D01*
X548083Y20528D01*
X549192Y17852D01*
X550955Y15555D01*
X553252Y13792D01*
X555928Y12683D01*
X558800Y12305D01*
X561672Y12683D01*
X564347Y13792D01*
X566645Y15555D01*
X568409Y17852D01*
X569517Y20528D01*
X569895Y23400D01*
Y27400D01*
X569517Y30272D01*
X568409Y32947D01*
X566645Y35245D01*
X564347Y37009D01*
X561672Y38117D01*
X558800Y38495D01*
D02*
G37*
G36*
X533400D02*
X530528Y38117D01*
X527853Y37009D01*
X525555Y35245D01*
X523792Y32947D01*
X522683Y30272D01*
X522305Y27400D01*
Y23400D01*
X522683Y20528D01*
X523792Y17852D01*
X525555Y15555D01*
X527853Y13792D01*
X530528Y12683D01*
X533400Y12305D01*
X536272Y12683D01*
X538947Y13792D01*
X541245Y15555D01*
X543008Y17852D01*
X544117Y20528D01*
X544495Y23400D01*
Y27400D01*
X544117Y30272D01*
X543008Y32947D01*
X541245Y35245D01*
X538947Y37009D01*
X536272Y38117D01*
X533400Y38495D01*
D02*
G37*
G36*
X457200D02*
X454328Y38117D01*
X451652Y37009D01*
X449355Y35245D01*
X447592Y32947D01*
X446483Y30272D01*
X446105Y27400D01*
Y23400D01*
X446483Y20528D01*
X447592Y17852D01*
X449355Y15555D01*
X451652Y13792D01*
X454328Y12683D01*
X457200Y12305D01*
X460072Y12683D01*
X462747Y13792D01*
X465045Y15555D01*
X466809Y17852D01*
X467917Y20528D01*
X468295Y23400D01*
Y27400D01*
X467917Y30272D01*
X466809Y32947D01*
X465045Y35245D01*
X462747Y37009D01*
X460072Y38117D01*
X457200Y38495D01*
D02*
G37*
G36*
X431800D02*
X428928Y38117D01*
X426253Y37009D01*
X423955Y35245D01*
X422192Y32947D01*
X421083Y30272D01*
X420705Y27400D01*
Y23400D01*
X421083Y20528D01*
X422192Y17852D01*
X423955Y15555D01*
X426253Y13792D01*
X428928Y12683D01*
X431800Y12305D01*
X434672Y12683D01*
X437347Y13792D01*
X439645Y15555D01*
X441409Y17852D01*
X442517Y20528D01*
X442895Y23400D01*
Y27400D01*
X442517Y30272D01*
X441409Y32947D01*
X439645Y35245D01*
X437347Y37009D01*
X434672Y38117D01*
X431800Y38495D01*
D02*
G37*
G36*
X148000Y431695D02*
X144000D01*
X141128Y431317D01*
X138453Y430209D01*
X136155Y428445D01*
X134391Y426147D01*
X133283Y423472D01*
X132905Y420600D01*
X133283Y417728D01*
X134391Y415053D01*
X136155Y412755D01*
X138453Y410992D01*
X141128Y409883D01*
X144000Y409505D01*
X148000D01*
X150872Y409883D01*
X153547Y410992D01*
X155845Y412755D01*
X157608Y415053D01*
X158717Y417728D01*
X159095Y420600D01*
X158717Y423472D01*
X157608Y426147D01*
X155845Y428445D01*
X153547Y430209D01*
X150872Y431317D01*
X148000Y431695D01*
D02*
G37*
G36*
X244500Y32358D02*
X241237Y31928D01*
X238196Y30669D01*
X235585Y28665D01*
X233581Y26054D01*
X232322Y23013D01*
X231892Y19750D01*
X232322Y16487D01*
X233581Y13446D01*
X235585Y10835D01*
X238196Y8831D01*
X241237Y7572D01*
X244500Y7142D01*
X247763Y7572D01*
X250804Y8831D01*
X253415Y10835D01*
X255419Y13446D01*
X256678Y16487D01*
X257108Y19750D01*
X256678Y23013D01*
X255419Y26054D01*
X253415Y28665D01*
X250804Y30669D01*
X247763Y31928D01*
X244500Y32358D01*
D02*
G37*
G36*
X199500D02*
X196237Y31928D01*
X193196Y30669D01*
X190585Y28665D01*
X188581Y26054D01*
X187322Y23013D01*
X186892Y19750D01*
X187322Y16487D01*
X188581Y13446D01*
X190585Y10835D01*
X193196Y8831D01*
X196237Y7572D01*
X199500Y7142D01*
X202763Y7572D01*
X205804Y8831D01*
X208415Y10835D01*
X210419Y13446D01*
X211678Y16487D01*
X212108Y19750D01*
X211678Y23013D01*
X210419Y26054D01*
X208415Y28665D01*
X205804Y30669D01*
X202763Y31928D01*
X199500Y32358D01*
D02*
G37*
%LPD*%
D10*
X582750Y194752D02*
Y215750D01*
X597002Y180500D02*
X607750D01*
X582750Y194752D02*
X597002Y180500D01*
D11*
X327000Y246000D02*
X327350Y245650D01*
Y180900D02*
Y245650D01*
X302250Y180250D02*
Y217250D01*
X312000Y227000D01*
X327350Y180900D02*
X327500Y180750D01*
X297563Y486875D02*
X314960Y504272D01*
X285875Y486875D02*
X297563D01*
X269520Y179000D02*
X290450Y199930D01*
X238000Y179000D02*
X269520D01*
X545000Y409000D02*
X546000Y410000D01*
X311000Y409000D02*
X545000D01*
X308308Y402500D02*
X568500D01*
X303808Y407000D02*
X308308Y402500D01*
X568500D02*
X575000Y409000D01*
X100500Y364500D02*
X101000Y365000D01*
X100500Y273500D02*
Y364500D01*
X100000Y272250D02*
Y273000D01*
X100500Y273500D01*
X100000Y271000D02*
Y272250D01*
X221000Y407000D02*
X303808D01*
X91000Y320000D02*
Y369750D01*
X561394Y419000D02*
X568394Y426000D01*
X310000Y419000D02*
X561394D01*
X568394Y426000D02*
X569000D01*
X122750Y199250D02*
X147500D01*
X118500Y195000D02*
X122750Y199250D01*
X134000Y205750D02*
X163250D01*
X123750Y216000D02*
X134000Y205750D01*
X118500Y216000D02*
X123750D01*
X619900Y378900D02*
X623750Y382750D01*
X619900Y332100D02*
Y378900D01*
X623750Y382750D02*
Y453500D01*
X241023Y524000D02*
X250260Y514763D01*
X201960Y524000D02*
X241023D01*
X187960Y510000D02*
X201960Y524000D01*
X629000Y228000D02*
X650000Y207000D01*
X594000Y228000D02*
X629000D01*
X582000Y240000D02*
X594000Y228000D01*
X582000Y240000D02*
Y304385D01*
X629000Y146000D02*
X650000Y167000D01*
X613520Y146000D02*
X629000D01*
X595250Y127730D02*
X613520Y146000D01*
X631920Y139000D02*
X641000D01*
X620650Y127730D02*
X631920Y139000D01*
X620650Y125730D02*
Y127730D01*
X641000Y139000D02*
X660000Y158000D01*
Y214000D01*
X650000Y167000D02*
Y207000D01*
X634250Y239750D02*
X660000Y214000D01*
X634250Y239750D02*
Y302750D01*
X670750Y156750D02*
Y218250D01*
X644000Y245000D02*
X670750Y218250D01*
X644000Y245000D02*
Y308000D01*
X611000Y326000D02*
X634250Y302750D01*
X611000Y326000D02*
Y447000D01*
X619900Y332100D02*
X644000Y308000D01*
X589000Y469000D02*
X611000Y447000D01*
X603000Y325385D02*
Y441000D01*
X585000Y459000D02*
X603000Y441000D01*
X268000Y459000D02*
X585000D01*
X281000Y469000D02*
X589000D01*
X577500Y421500D02*
Y427500D01*
X572500Y432500D02*
X577500Y427500D01*
X258500Y432500D02*
X572500D01*
X229000Y462000D02*
X258500Y432500D01*
X573000Y417000D02*
X577500Y421500D01*
X569000Y417000D02*
X573000D01*
X219000Y508000D02*
X268000Y459000D01*
X213360Y508000D02*
X219000D01*
X162500Y462000D02*
X229000D01*
X582000Y304385D02*
X603000Y325385D01*
X250260Y499740D02*
X281000Y469000D01*
X250260Y499740D02*
Y514763D01*
X146500Y446000D02*
X162500Y462000D01*
X146000Y446000D02*
X146500D01*
X290450Y199930D02*
Y201930D01*
X314960Y504272D02*
Y508000D01*
X76200Y472440D02*
X102640Y446000D01*
X146000D01*
X595250Y125730D02*
Y127730D01*
X187960Y508000D02*
Y510000D01*
X290450Y125730D02*
Y127730D01*
D12*
X481650Y105350D02*
X482000Y105000D01*
D20*
X244500Y84750D02*
D03*
D62*
X199500D02*
D03*
Y19750D02*
D03*
X244500D02*
D03*
X602500Y261500D02*
D03*
Y306500D02*
D03*
X667500D02*
D03*
D63*
Y261500D02*
D03*
D69*
X162750Y195250D02*
X196250D01*
X209000Y208000D01*
D72*
X579000Y446000D02*
X592000Y433000D01*
X262250Y446000D02*
X579000D01*
X242375Y465875D02*
X262250Y446000D01*
X592000Y330000D02*
Y433000D01*
X570000Y308000D02*
X592000Y330000D01*
X570000Y228500D02*
Y308000D01*
Y228500D02*
X582750Y215750D01*
D73*
X146000Y446000D02*
D03*
X662000Y469000D02*
D03*
D74*
X146000Y420600D02*
D03*
Y395200D02*
D03*
Y369800D02*
D03*
X662000Y418200D02*
D03*
Y443600D02*
D03*
D75*
X290450Y125730D02*
D03*
X315850D02*
D03*
X341250D02*
D03*
X366650D02*
D03*
X392050D02*
D03*
X417450D02*
D03*
X442850D02*
D03*
X468250D02*
D03*
X493650D02*
D03*
X519050D02*
D03*
X544450D02*
D03*
X569850D02*
D03*
X595250D02*
D03*
X620650D02*
D03*
X290450Y201930D02*
D03*
X315850D02*
D03*
X341250D02*
D03*
X366650D02*
D03*
X392050D02*
D03*
X417450D02*
D03*
X442850D02*
D03*
X468250D02*
D03*
X493650D02*
D03*
X519050D02*
D03*
X544450D02*
D03*
X569850D02*
D03*
X595250D02*
D03*
X167000Y88000D02*
D03*
X141600D02*
D03*
X391160Y508000D02*
D03*
X365760D02*
D03*
X340360D02*
D03*
X314960D02*
D03*
X289560D02*
D03*
X264160D02*
D03*
X238760D02*
D03*
X213360D02*
D03*
X187960D02*
D03*
X457200D02*
D03*
X482600D02*
D03*
X508000D02*
D03*
X533400D02*
D03*
X558800D02*
D03*
X584200D02*
D03*
X609600D02*
D03*
X533400Y25400D02*
D03*
X558800D02*
D03*
X584200D02*
D03*
X609600D02*
D03*
X635000D02*
D03*
X457200D02*
D03*
X431800D02*
D03*
X406400D02*
D03*
X381000D02*
D03*
X355600D02*
D03*
X330200D02*
D03*
X304800D02*
D03*
D76*
X620650Y201930D02*
D03*
X116200Y88000D02*
D03*
X416560Y508000D02*
D03*
X635000D02*
D03*
X508000Y25400D02*
D03*
X279400D02*
D03*
D77*
X25400Y316600D02*
D03*
X50800D02*
D03*
X25400Y342000D02*
D03*
X50800Y386080D02*
D03*
X76200D02*
D03*
X25400Y411480D02*
D03*
X50800D02*
D03*
X76200D02*
D03*
X50800Y472440D02*
D03*
X76200D02*
D03*
X25400Y497840D02*
D03*
X50800D02*
D03*
X76200D02*
D03*
D78*
X50800Y342000D02*
D03*
X25400Y386080D02*
D03*
Y472440D02*
D03*
D79*
X21995Y234000D02*
D03*
Y168000D02*
D03*
D80*
X139700Y25400D02*
D03*
X660400Y76200D02*
D03*
Y355600D02*
D03*
D81*
X152400Y508000D02*
D03*
D82*
X21000Y25000D02*
D03*
Y133000D02*
D03*
D83*
X174209Y413791D02*
D03*
X109000Y162000D02*
D03*
X101000Y154000D02*
D03*
X117000Y162000D02*
D03*
X109000Y154000D02*
D03*
X135000Y169000D02*
D03*
Y176000D02*
D03*
Y183000D02*
D03*
X400000Y478000D02*
D03*
X400000Y486000D02*
D03*
X407000D02*
D03*
Y478000D02*
D03*
Y379000D02*
D03*
Y387000D02*
D03*
X400000D02*
D03*
X327000Y246000D02*
D03*
X285875Y486875D02*
D03*
X545000Y410000D02*
D03*
X575000Y383000D02*
D03*
Y390000D02*
D03*
X615000Y83000D02*
D03*
X455000Y155000D02*
D03*
X404000Y112000D02*
D03*
X429000Y65000D02*
D03*
X422000D02*
D03*
X326000Y68000D02*
D03*
X100000Y272250D02*
D03*
X101000Y365000D02*
D03*
X91000Y320000D02*
D03*
Y369750D02*
D03*
X310000Y419000D02*
D03*
X311000Y409000D02*
D03*
X118000Y417000D02*
D03*
Y408000D02*
D03*
X147500Y199250D02*
D03*
X569000Y426000D02*
D03*
Y417000D02*
D03*
X575000Y409000D02*
D03*
X400000Y379000D02*
D03*
X231000Y134500D02*
D03*
X208000Y135000D02*
D03*
X117000Y176000D02*
D03*
X161000Y131000D02*
D03*
X372000Y67000D02*
D03*
X221000Y407000D02*
D03*
X474000Y95000D02*
D03*
X482000Y105000D02*
D03*
X60000Y452000D02*
D03*
X319000Y68000D02*
D03*
X289000D02*
D03*
X79500Y292750D02*
D03*
X444250Y218250D02*
D03*
X472750Y256750D02*
D03*
X394250Y255000D02*
D03*
X107000Y247250D02*
D03*
X139000Y224000D02*
D03*
X150000Y274000D02*
D03*
X175000Y207500D02*
D03*
X197000Y208000D02*
D03*
X235750Y198250D02*
D03*
X271500Y241250D02*
D03*
X220000Y251750D02*
D03*
X181750Y288000D02*
D03*
X221000Y336750D02*
D03*
X274000Y348000D02*
D03*
X215000Y431750D02*
D03*
X192500Y413250D02*
D03*
X57000Y522250D02*
D03*
X575000Y397000D02*
D03*
X627500Y183750D02*
D03*
X641750Y172500D02*
D03*
X678500Y125750D02*
D03*
X457250Y114500D02*
D03*
X415000Y65000D02*
D03*
X395000Y86000D02*
D03*
X305000Y80500D02*
D03*
X193000Y142500D02*
D03*
X79750Y251500D02*
D03*
X80000Y226250D02*
D03*
X80500Y183250D02*
D03*
X283250Y417250D02*
D03*
X226750Y440250D02*
D03*
X126000Y412000D02*
D03*
X12250Y281250D02*
D03*
X40875Y286375D02*
D03*
X155750Y138750D02*
D03*
X447250Y46500D02*
D03*
X465250Y46250D02*
D03*
X615500Y76000D02*
D03*
X238000Y179000D02*
D03*
X209000Y208000D02*
D03*
X162750Y195250D02*
D03*
X88500Y111000D02*
D03*
Y101000D02*
D03*
X60000Y220750D02*
D03*
Y229250D02*
D03*
X163250Y205750D02*
D03*
X118500Y216000D02*
D03*
Y195000D02*
D03*
X242375Y465875D02*
D03*
X607750Y180500D02*
D03*
X670750Y156750D02*
D03*
X623750Y453500D02*
D03*
X327500Y180750D02*
D03*
X302250Y180250D02*
D03*
X312000Y227000D02*
D03*
M02*
