G04*
G04 #@! TF.GenerationSoftware,Altium Limited,Altium Designer,19.1.4 (82)*
G04*
G04 Layer_Physical_Order=1*
G04 Layer_Color=255*
%FSLAX44Y44*%
%MOMM*%
G71*
G01*
G75*
%ADD10C,0.5000*%
%ADD11C,0.2000*%
%ADD12C,0.4000*%
%ADD13R,1.3000X0.7000*%
%ADD14R,0.7000X1.3000*%
%ADD15R,0.6858X0.5588*%
%ADD16R,0.5588X0.6858*%
%ADD17R,0.5500X1.5000*%
%ADD18R,1.5000X0.5500*%
%ADD19R,1.3500X0.4000*%
%ADD20R,1.9000X1.9000*%
%ADD21R,1.4000X1.6000*%
%ADD22R,1.3000X0.9000*%
%ADD23R,0.9000X1.3000*%
%ADD24R,1.6000X3.0000*%
%ADD25R,0.8000X0.8000*%
%ADD26R,2.7000X2.0000*%
%ADD27R,1.0000X0.5500*%
%ADD28R,0.5500X1.0000*%
%ADD29R,2.6000X2.5000*%
%ADD30R,0.9000X0.6000*%
%ADD31R,2.5000X2.6000*%
%ADD32R,3.5000X2.2000*%
%ADD33R,0.6000X2.2000*%
%ADD62C,1.9000*%
%ADD63R,1.9000X1.9000*%
%ADD68C,1.0160*%
%ADD69C,0.6000*%
%ADD70C,0.7000*%
%ADD71C,0.8000*%
%ADD72C,1.0000*%
%ADD73R,2.0000X1.6000*%
%ADD74O,2.0000X1.6000*%
%ADD75O,1.6000X2.0000*%
%ADD76R,1.6000X2.0000*%
%ADD77C,1.7000*%
%ADD78R,1.7000X1.7000*%
G04:AMPARAMS|DCode=79|XSize=2mm|YSize=1.25mm|CornerRadius=0.375mm|HoleSize=0mm|Usage=FLASHONLY|Rotation=0.000|XOffset=0mm|YOffset=0mm|HoleType=Round|Shape=RoundedRectangle|*
%AMROUNDEDRECTD79*
21,1,2.0000,0.5000,0,0,0.0*
21,1,1.2500,1.2500,0,0,0.0*
1,1,0.7500,0.6250,-0.2500*
1,1,0.7500,-0.6250,-0.2500*
1,1,0.7500,-0.6250,0.2500*
1,1,0.7500,0.6250,0.2500*
%
%ADD79ROUNDEDRECTD79*%
%ADD80C,7.4000*%
%ADD81C,3.2000*%
%ADD82C,4.0000*%
%ADD83C,0.6000*%
G36*
X111000Y422000D02*
X132037D01*
X132922Y420730D01*
X132905Y420600D01*
X133000Y419879D01*
Y403000D01*
X88000D01*
Y420000D01*
X84000Y424000D01*
X37000D01*
X34000Y421000D01*
Y403000D01*
X16000D01*
Y437000D01*
X29000D01*
X34000Y442000D01*
X91000D01*
X111000Y422000D01*
D02*
G37*
G36*
X643000Y406000D02*
X683000D01*
Y296000D01*
X593000D01*
Y313000D01*
X586000Y320000D01*
Y335000D01*
X598000D01*
Y360000D01*
Y374000D01*
X580000D01*
Y363000D01*
X570000D01*
Y398000D01*
X574902Y402902D01*
X575000Y402882D01*
X575591Y403000D01*
X586000D01*
X589000Y406000D01*
X629000D01*
Y417000D01*
X643000D01*
Y406000D01*
D02*
G37*
G36*
X415000Y374000D02*
X393000D01*
X393000Y490000D01*
X415000D01*
X415000Y374000D01*
D02*
G37*
G36*
X53000Y225000D02*
X37000D01*
Y189000D01*
X56000D01*
Y171000D01*
X57000Y170000D01*
X64000Y163000D01*
X105000D01*
Y180000D01*
X112000D01*
X119000Y187000D01*
X141508D01*
X142000Y186902D01*
X142451D01*
X142500Y186892D01*
X142549Y186902D01*
X152000D01*
X152225Y186947D01*
X152500Y186892D01*
X153041Y187000D01*
X177882D01*
Y166000D01*
X144000Y166000D01*
X139000Y161000D01*
Y129059D01*
X129000D01*
X128705Y129000D01*
X127000Y129000D01*
X117059Y119059D01*
X108000D01*
X107704Y119000D01*
X104500Y119000D01*
X104000Y119000D01*
X104000Y117937D01*
X104000Y75000D01*
X107704D01*
X108000Y74941D01*
X124000D01*
X124296Y75000D01*
X140879D01*
X141600Y74905D01*
X142321Y75000D01*
X158705D01*
X159000Y74941D01*
X166725D01*
X167000Y74905D01*
X167274Y74941D01*
X187000D01*
X187295Y75000D01*
X190000D01*
Y77705D01*
X190059Y78000D01*
Y83931D01*
X190019Y84129D01*
X190033Y84330D01*
X190000Y84578D01*
Y84922D01*
X190033Y85170D01*
X190019Y85372D01*
X190059Y85569D01*
Y93941D01*
X196782D01*
X196980Y93981D01*
X197181Y93967D01*
X197426Y94000D01*
X201574D01*
X201819Y93967D01*
X202020Y93981D01*
X202218Y93941D01*
X215000D01*
X215000Y74000D01*
X199000D01*
Y30000D01*
X212000D01*
Y3000D01*
X100000D01*
Y44000D01*
X62000D01*
X62000Y81000D01*
X83000Y81000D01*
X83000Y83250D01*
Y84705D01*
X83059Y85000D01*
Y90059D01*
X86941Y93941D01*
X93000D01*
X93295Y94000D01*
X96000Y94000D01*
Y96705D01*
X96059Y97000D01*
Y115000D01*
X96000Y115295D01*
Y118000D01*
X93295D01*
X93000Y118059D01*
X43000D01*
X43000Y118059D01*
X42705Y118000D01*
X41000D01*
X32059Y109059D01*
X7000D01*
X6705Y109000D01*
X3000D01*
Y241000D01*
X53000D01*
Y225000D01*
D02*
G37*
G36*
X198000Y111000D02*
X215000D01*
Y97000D01*
X202218D01*
X199500Y97358D01*
X196782Y97000D01*
X187000D01*
Y85569D01*
X186892Y84750D01*
X187000Y83931D01*
Y78000D01*
X159000D01*
X159000Y101000D01*
X170000D01*
X170000Y126000D01*
X198000D01*
Y111000D01*
D02*
G37*
G36*
X93000Y97000D02*
X85000D01*
X80000Y92000D01*
Y85000D01*
X64000D01*
X63000Y86000D01*
X7000D01*
Y106000D01*
X34000D01*
X43000Y115000D01*
X93000D01*
Y97000D01*
D02*
G37*
G36*
X152000Y104000D02*
X133000D01*
X124000Y95000D01*
Y78000D01*
X108000D01*
Y116000D01*
X119000D01*
X129000Y126000D01*
X152000D01*
Y104000D01*
D02*
G37*
G36*
X430000Y114000D02*
X436000Y108000D01*
Y86000D01*
X437000Y85000D01*
X454000D01*
Y74000D01*
X431000D01*
Y71000D01*
X429591D01*
X429000Y71118D01*
X428409Y71000D01*
X422591D01*
X422000Y71118D01*
Y104000D01*
X409000Y117000D01*
Y136000D01*
X430000D01*
Y114000D01*
D02*
G37*
G36*
X419000Y68000D02*
Y67500D01*
X434000D01*
Y67500D01*
X434500Y68000D01*
X436000Y68000D01*
X436000Y62478D01*
X436000Y49000D01*
X440000Y45000D01*
Y13000D01*
X398000D01*
X398000Y54102D01*
X398898Y55000D01*
X400000Y55000D01*
X413000Y68000D01*
X419000Y68000D01*
D02*
G37*
G36*
X484000Y109000D02*
X498000Y95000D01*
X498000Y53000D01*
X493000Y48000D01*
X480000D01*
X480000Y86908D01*
X480117Y87500D01*
Y95000D01*
X480000Y95592D01*
Y98000D01*
X478000Y100000D01*
X478000Y108102D01*
X478898Y109000D01*
X484000Y109000D01*
D02*
G37*
G36*
X388000Y83000D02*
Y43000D01*
X393000Y38000D01*
Y15000D01*
X373000D01*
Y59000D01*
X378000Y64000D01*
Y66409D01*
X378117Y67000D01*
X378000Y67591D01*
Y72000D01*
X374000Y76000D01*
X345000D01*
X340000Y81000D01*
X325000D01*
Y89000D01*
X382000D01*
X388000Y83000D01*
D02*
G37*
G36*
X364000Y37000D02*
Y15000D01*
X346000D01*
X346000Y29000D01*
X331000Y44000D01*
X325059Y44000D01*
Y54000D01*
X364000D01*
Y37000D01*
D02*
G37*
G36*
X340000Y73000D02*
Y63000D01*
X324000D01*
X322000Y61000D01*
Y42000D01*
X316000Y36000D01*
Y15000D01*
X297000D01*
Y53000D01*
X311000D01*
X315000Y57000D01*
Y74000D01*
X339000D01*
X340000Y73000D01*
D02*
G37*
G36*
X41000Y34000D02*
X80000D01*
Y3000D01*
X3000D01*
Y72000D01*
X41000D01*
Y34000D01*
D02*
G37*
D10*
X208500Y208000D02*
X218000Y217500D01*
X181750Y257750D02*
X182000Y257500D01*
X145000Y209000D02*
X147500D01*
X176000Y296000D02*
X196000D01*
X172000Y292000D02*
X176000Y296000D01*
X172000Y282000D02*
Y292000D01*
Y282000D02*
X182000Y272000D01*
Y258000D02*
Y272000D01*
X210500Y296000D02*
X219000Y304500D01*
X196000Y296000D02*
X210500D01*
X196000Y296000D02*
X196000Y296000D01*
X138000Y197000D02*
X142500Y192500D01*
X138000Y197000D02*
Y202000D01*
X152500Y192500D02*
X155059Y195059D01*
X162559D01*
X162750Y195250D01*
X147500Y209000D02*
Y212000D01*
X138000Y202000D02*
X145000Y209000D01*
X182000Y250500D02*
X196000Y236500D01*
X222000Y179500D02*
X231250Y170250D01*
Y162250D02*
Y170250D01*
X128500Y212000D02*
Y234000D01*
X200000Y198500D02*
X209000Y207500D01*
Y208000D01*
X198000Y198500D02*
X200000D01*
X218000Y217500D02*
X220000D01*
X215500Y220000D02*
X218000Y217500D01*
X215500Y220000D02*
Y221000D01*
X200000Y236500D02*
X215500Y221000D01*
X198000Y236500D02*
X200000D01*
X182000Y250500D02*
Y257500D01*
X196000Y236500D02*
X198000D01*
X181750Y257750D02*
X182000Y258000D01*
X219000Y304500D02*
X221000D01*
D11*
X483000Y230000D02*
Y340000D01*
X478000Y345000D02*
X483000Y340000D01*
X478000Y345000D02*
Y469000D01*
X169000Y387500D02*
X175000D01*
X194500Y407000D02*
X221000D01*
X175000Y387500D02*
X194500Y407000D01*
X90000Y272750D02*
Y280500D01*
Y272750D02*
X90500Y272250D01*
X100000D01*
X289500Y505500D02*
X292000Y508000D01*
X368500Y99000D02*
X371500Y102000D01*
X264000Y228000D02*
X272000D01*
X250000Y214000D02*
X264000Y228000D01*
X250000Y182000D02*
Y214000D01*
X365760Y374760D02*
Y508000D01*
X324000Y333000D02*
X365760Y374760D01*
X324000Y249000D02*
Y333000D01*
Y249000D02*
X327000Y246000D01*
X336000Y242000D02*
Y330000D01*
X321000Y227000D02*
X336000Y242000D01*
X312000Y227000D02*
X321000D01*
X332000Y226000D02*
X336000D01*
X324000Y218000D02*
X332000Y226000D01*
X310250Y218000D02*
X324000D01*
X345000Y235000D02*
Y319000D01*
X336000Y226000D02*
X345000Y235000D01*
X343000Y218000D02*
X354000Y229000D01*
X336000Y218000D02*
X343000D01*
X319930Y201930D02*
X336000Y218000D01*
X354000Y229000D02*
Y309787D01*
X366000Y226680D02*
Y307000D01*
X341250Y201930D02*
X366000Y226680D01*
X315850Y201930D02*
X319930D01*
X345000Y319000D02*
X379000Y353000D01*
X294180Y201930D02*
X310250Y218000D01*
X381000Y497840D02*
X391160Y508000D01*
X381000Y375000D02*
Y497840D01*
X336000Y330000D02*
X381000Y375000D01*
X290450Y201930D02*
X294180D01*
X329442Y188000D02*
X341250Y176192D01*
X285000Y188000D02*
X329442D01*
X302250Y139530D02*
Y180250D01*
X290450Y127730D02*
X302250Y139530D01*
X327500Y139380D02*
Y180750D01*
X379000Y353000D02*
X403000D01*
X385213Y341000D02*
X405000D01*
X354000Y309787D02*
X385213Y341000D01*
X389000Y330000D02*
X408000D01*
X366000Y307000D02*
X389000Y330000D01*
X395000Y320000D02*
X416000D01*
X378000Y303000D02*
X395000Y320000D01*
X378000Y213280D02*
Y303000D01*
X278950Y208693D02*
X310000Y239743D01*
Y334000D01*
X265000Y207000D02*
X297750Y239750D01*
Y346750D01*
X335000Y384000D01*
X278950Y194050D02*
Y208693D01*
X349000Y373000D02*
Y496962D01*
X335000Y384000D02*
Y485960D01*
X286000Y359000D02*
X322000Y395000D01*
Y449000D01*
X314960Y506000D02*
Y508000D01*
X310000Y334000D02*
X349000Y373000D01*
X340360Y508000D02*
Y510000D01*
Y505602D02*
X349000Y496962D01*
X340360Y505602D02*
Y508000D01*
X314960Y506000D02*
X335000Y485960D01*
X305000Y466000D02*
X322000Y449000D01*
X286000Y108000D02*
X350920D01*
X283000Y99000D02*
X368500D01*
X286000Y242000D02*
Y359000D01*
X278950Y194050D02*
X285000Y188000D01*
X272000Y228000D02*
X286000Y242000D01*
X262000Y120000D02*
X283000Y99000D01*
X262000Y120000D02*
Y170000D01*
X250000Y182000D02*
X262000Y170000D01*
X403000Y353000D02*
X426000Y376000D01*
X405000Y341000D02*
X437000Y373000D01*
X416560Y506000D02*
X426000Y496560D01*
Y376000D02*
Y496560D01*
X230750Y287500D02*
X252000Y308750D01*
X221000Y287500D02*
X230750D01*
X437000Y373000D02*
Y488000D01*
X408000Y330000D02*
X451000Y373000D01*
Y480000D01*
X416000Y320000D02*
X464000Y368000D01*
Y475000D01*
X416560Y506000D02*
Y508000D01*
X437000Y488000D02*
X457000Y508000D01*
X457200D01*
X478000Y469000D02*
X491000Y482000D01*
X495000Y459000D02*
X506000Y470000D01*
X495000Y350600D02*
Y459000D01*
Y350600D02*
X498000Y347600D01*
X511000Y444000D02*
X553000Y486000D01*
X511000Y363000D02*
Y444000D01*
Y363000D02*
X515000Y359000D01*
X464000Y475000D02*
X481000Y492000D01*
X451000Y480000D02*
X479000Y508000D01*
X482600D01*
X519050Y201930D02*
Y216950D01*
X493650Y201930D02*
Y219350D01*
X515000Y245000D02*
Y359000D01*
X509400Y482000D02*
X533400Y506000D01*
X483000Y230000D02*
X493650Y219350D01*
X498000Y238000D02*
Y347600D01*
X506000Y470000D02*
X518787D01*
X515000Y245000D02*
X544450Y215550D01*
X491000Y482000D02*
X509400D01*
X481000Y492000D02*
X494000D01*
X508000Y506000D02*
Y508000D01*
X494000Y492000D02*
X508000Y506000D01*
X498000Y238000D02*
X519050Y216950D01*
X518787Y470000D02*
X556787Y508000D01*
X305000Y466000D02*
Y495000D01*
X292000Y508000D02*
X305000Y495000D01*
X328860Y521500D02*
X340360Y510000D01*
X265000Y188000D02*
Y207000D01*
Y188000D02*
X273000Y180000D01*
Y121000D02*
Y180000D01*
X366650Y201930D02*
X378000Y213280D01*
X424500Y255000D02*
Y269500D01*
X407500Y286500D02*
X424500Y269500D01*
X273000Y121000D02*
X286000Y108000D01*
X350920D02*
X366650Y123730D01*
X224860Y512363D02*
X233997Y521500D01*
X328860D01*
X289500Y501500D02*
X295000Y496000D01*
Y479000D02*
Y496000D01*
X267250Y451250D02*
X295000Y479000D01*
X191550Y451250D02*
X267250D01*
X123500Y459000D02*
X258000D01*
X285875Y486875D01*
X238000Y174500D02*
Y179000D01*
Y174500D02*
X249000Y163500D01*
X252000D01*
X553000Y486000D02*
X565000D01*
X586000Y438000D02*
X596000Y448000D01*
X567000Y438000D02*
X586000D01*
X556000Y427000D02*
X567000Y438000D01*
X610000Y443000D02*
Y454500D01*
X593000Y426000D02*
X610000Y443000D01*
X569000Y426000D02*
X593000D01*
X628600Y443600D02*
X662000D01*
X600000Y415000D02*
X628600Y443600D01*
X581000Y415000D02*
X600000D01*
X544000Y412000D02*
X546000Y410000D01*
X544000Y432000D02*
X566500Y454500D01*
X544000Y412000D02*
Y432000D01*
X544450Y201930D02*
Y215550D01*
X595250Y201930D02*
Y206750D01*
X545000Y257000D02*
X595250Y206750D01*
X545000Y257000D02*
Y393000D01*
X569850Y201930D02*
Y210150D01*
X528000Y252000D02*
X569850Y210150D01*
X528000Y252000D02*
Y441000D01*
X609600Y505600D02*
Y508000D01*
X580000Y476000D02*
X609600Y505600D01*
X580000Y473500D02*
Y476000D01*
X635000Y501000D02*
Y508000D01*
X610000Y476000D02*
X635000Y501000D01*
X610000Y473500D02*
Y476000D01*
X575000Y409000D02*
X581000Y415000D01*
X545000Y393000D02*
X556000Y404000D01*
Y427000D01*
X596000Y448000D02*
Y462000D01*
X607500Y473500D01*
X610000D01*
X556787Y508000D02*
X558800D01*
X560500Y473500D02*
X580000D01*
X528000Y441000D02*
X560500Y473500D01*
X565000Y486000D02*
X581713Y502713D01*
Y505513D01*
X584200Y508000D01*
X533400Y506000D02*
Y508000D01*
X564500Y259500D02*
X598000Y226000D01*
X606500D01*
X564500Y259500D02*
Y411688D01*
X569000Y416188D01*
Y417000D01*
X649250Y143000D02*
X650625Y141625D01*
X671500Y242000D02*
Y261500D01*
X670500Y169500D02*
Y186000D01*
Y169500D02*
X670625Y169375D01*
X490000Y143000D02*
X649250D01*
X621000Y175250D02*
X651500Y144750D01*
X620650Y122650D02*
Y125730D01*
X606000Y108000D02*
X620650Y122650D01*
X606000Y54400D02*
Y108000D01*
Y54400D02*
X635000Y25400D01*
X593000Y123480D02*
X595250Y125730D01*
X593000Y48000D02*
Y123480D01*
Y48000D02*
X609600Y31400D01*
X481000Y120117D02*
X507000Y94117D01*
Y50000D02*
Y94117D01*
X491000Y34000D02*
X507000Y50000D01*
X519050Y119950D02*
X539000Y100000D01*
Y31000D02*
Y100000D01*
X533400Y25400D02*
X539000Y31000D01*
X544450Y118550D02*
X558800Y104200D01*
Y25400D02*
Y104200D01*
X569850Y117150D02*
X575000Y112000D01*
Y34600D02*
Y112000D01*
Y34600D02*
X584200Y25400D01*
X609600D02*
Y31400D01*
X569850Y117150D02*
Y125730D01*
X544450Y118550D02*
Y125730D01*
X493650Y122350D02*
X522000Y94000D01*
Y39400D02*
Y94000D01*
X508000Y25400D02*
X522000Y39400D01*
X519050Y119950D02*
Y125730D01*
X481000Y120117D02*
Y134000D01*
X490000Y143000D01*
X491000Y17000D02*
Y34000D01*
X493650Y122350D02*
Y125730D01*
X480250Y6250D02*
X491000Y17000D01*
X347350Y6250D02*
X480250D01*
X118000Y343750D02*
X126000D01*
X78250Y341750D02*
X116000D01*
X74000Y346000D02*
X78250Y341750D01*
X74000Y346000D02*
Y360000D01*
X77000Y334000D02*
X88000D01*
X67000Y344000D02*
X77000Y334000D01*
X67000Y344000D02*
Y351000D01*
X61000Y357000D02*
X67000Y351000D01*
X38500Y357000D02*
X61000D01*
X94000Y328000D02*
X112000D01*
X88000Y334000D02*
X94000Y328000D01*
X116000Y341750D02*
X118000Y343750D01*
X76400Y326600D02*
X84400D01*
X61000Y342000D02*
X76400Y326600D01*
X50800Y342000D02*
X61000D01*
X91000Y320000D02*
X112000D01*
X84400Y326600D02*
X91000Y320000D01*
X83808Y318000D02*
X89808Y312000D01*
X74000Y318000D02*
X83808D01*
X63400Y328600D02*
X74000Y318000D01*
X38800Y328600D02*
X63400D01*
X70632Y310368D02*
X80632D01*
X64400Y316600D02*
X70632Y310368D01*
X50800Y316600D02*
X64400D01*
X87000Y304000D02*
X112000D01*
X80632Y310368D02*
X87000Y304000D01*
X76842Y304600D02*
X85442Y296000D01*
X37400Y304600D02*
X76842D01*
X85442Y296000D02*
X112000D01*
X25400Y316600D02*
X37400Y304600D01*
X89808Y312000D02*
X112000D01*
X25400Y370100D02*
X38500Y357000D01*
X69000Y365000D02*
X74000Y360000D01*
X51000Y365000D02*
X69000D01*
X38800Y377200D02*
X51000Y365000D01*
X83250Y351750D02*
Y363750D01*
X72920Y374080D02*
X83250Y363750D01*
X64920Y374080D02*
X72920D01*
X38800Y377200D02*
Y399480D01*
X52920Y386080D02*
X64920Y374080D01*
X50800Y386080D02*
X52920D01*
X85320Y395200D02*
X146000D01*
X76200Y386080D02*
X85320Y395200D01*
X102550Y381300D02*
X151300D01*
X91000Y369750D02*
X102550Y381300D01*
X151300D02*
X160000Y390000D01*
X100250Y272000D02*
X112000D01*
X100000Y272250D02*
X100250Y272000D01*
X160000Y390000D02*
Y408600D01*
X148000Y420600D02*
X160000Y408600D01*
X146000Y420600D02*
X148000D01*
X206750Y414500D02*
X230500D01*
X199000Y422250D02*
X206750Y414500D01*
X166358Y363773D02*
X203085Y400500D01*
X166358Y342358D02*
Y363773D01*
X203085Y400500D02*
X237500D01*
X160000Y362000D02*
Y378500D01*
X169000Y387500D01*
X101000Y365000D02*
X101812D01*
X106612Y369800D01*
X146000D01*
X145950Y369750D02*
X146000Y369800D01*
X151250Y353250D02*
X160000Y362000D01*
X151250Y343250D02*
Y353250D01*
X202429Y383000D02*
X238000D01*
X174000Y354571D02*
X202429Y383000D01*
X311000Y406000D02*
Y409000D01*
X268000Y363000D02*
X311000Y406000D01*
X217000Y363000D02*
X268000D01*
X262929Y373000D02*
X308929Y419000D01*
X209000Y373000D02*
X262929D01*
X182000Y346000D02*
X209000Y373000D01*
X182000Y342000D02*
Y346000D01*
X196000Y342000D02*
X217000Y363000D01*
X196000Y328000D02*
Y342000D01*
X308929Y419000D02*
X310000D01*
X272500Y401500D02*
Y417500D01*
X254000Y383000D02*
X272500Y401500D01*
X265000Y429000D02*
X272500Y436500D01*
X265000Y412000D02*
Y429000D01*
X254000Y401000D02*
X265000Y412000D01*
X116000Y433000D02*
X168500D01*
X50800Y472440D02*
X64620Y458620D01*
X90380D01*
X116000Y433000D01*
X97000Y485500D02*
X123500Y459000D01*
X173000Y467000D02*
X200500Y494500D01*
X131000Y467000D02*
X173000D01*
X88160Y509840D02*
X131000Y467000D01*
X200500Y494500D02*
X218123D01*
X224860Y501237D02*
Y512363D01*
X218123Y494500D02*
X224860Y501237D01*
X62800Y509840D02*
X88160D01*
X149700Y199250D02*
X156750Y206300D01*
X147500Y199250D02*
X149700D01*
X156750Y206300D02*
Y256750D01*
X157713Y257713D01*
X162676Y206324D02*
Y244926D01*
X164750Y247000D01*
Y256750D01*
X162676Y206324D02*
X163250Y205750D01*
X164750Y256750D02*
X166000Y258000D01*
X566500Y454500D02*
X580000D01*
X237500Y400500D02*
X238000Y401000D01*
X330200Y23400D02*
X347350Y6250D01*
X61507Y180543D02*
Y190243D01*
X57250Y194500D02*
X61507Y190243D01*
Y180543D02*
X66050Y176000D01*
X651500Y142500D02*
Y144750D01*
X620650Y201930D02*
X621000Y201580D01*
X620000Y202580D02*
X620650Y201930D01*
X621000Y175250D02*
Y201580D01*
X219750Y110750D02*
Y144250D01*
X230750Y105750D02*
X231000Y105500D01*
X224750Y105750D02*
X230750D01*
X219750Y110750D02*
X224750Y105750D01*
X231000Y105500D02*
X260750D01*
X212000Y152000D02*
X219750Y144250D01*
X66050Y176000D02*
X87500D01*
X89500Y174000D01*
Y173000D02*
Y174000D01*
X85243Y217250D02*
X88250D01*
X79743Y211750D02*
X85243Y217250D01*
X64250Y211500D02*
X72000D01*
X88250Y217250D02*
X89500Y216000D01*
X72250Y211750D02*
X79743D01*
X72000Y211500D02*
X72250Y211750D01*
X604500Y261500D02*
X669500D01*
X128250Y357250D02*
X134000Y351500D01*
X115250Y357250D02*
X128250D01*
X134000Y342000D02*
X134000Y342000D01*
X109750Y351750D02*
X115250Y357250D01*
X134000Y342000D02*
Y351500D01*
X174000Y342000D02*
Y354571D01*
X166000Y342000D02*
X166358Y342358D01*
X150000Y342000D02*
X151250Y343250D01*
X48745Y194500D02*
X57250D01*
X63750Y197500D02*
X72000D01*
X60250Y201000D02*
X63750Y197500D01*
X48745Y201000D02*
X60250D01*
X250000Y142500D02*
X252000Y144500D01*
X232500Y142500D02*
X250000D01*
X205500Y152000D02*
Y161500D01*
Y152000D02*
X212000D01*
X270500Y87000D02*
Y95750D01*
X260750Y105500D02*
X270500Y95750D01*
X287500Y85000D02*
X289500Y87000D01*
X287500Y78000D02*
Y85000D01*
X277000Y67500D02*
X287500Y78000D01*
X274000Y67500D02*
X277000D01*
X244500Y84750D02*
X261750Y67500D01*
X274000D01*
X244500Y19750D02*
Y84750D01*
X390500Y99000D02*
X391275Y99775D01*
Y124955D01*
X392050Y125730D01*
X62000Y236000D02*
X88500D01*
X58000Y240000D02*
X62000Y236000D01*
X58000Y240000D02*
Y251500D01*
X60250Y207500D02*
X64250Y211500D01*
X48745Y207500D02*
X60250D01*
X108500Y216000D02*
X118500D01*
X108500Y195000D02*
X118500D01*
X83000D02*
X89500D01*
X80500Y197500D02*
X83000Y195000D01*
X72000Y197500D02*
X80500D01*
X30500Y254000D02*
X38500D01*
X41000Y251500D01*
X48500D01*
X58000D01*
X11500Y254000D02*
X11750Y254250D01*
Y270558D01*
X12000Y270808D01*
X12846Y271654D01*
X29154D01*
X30000Y272500D01*
X77000Y278500D02*
X79000Y280500D01*
X67500Y278500D02*
X77000D01*
X79000Y280500D02*
X90000D01*
X250000Y268500D02*
X252000Y270500D01*
X242500Y261000D02*
X250000Y268500D01*
X242500Y242000D02*
Y261000D01*
X221000Y268500D02*
X250000D01*
X211750Y268250D02*
X220750D01*
X221000Y268500D01*
X208000Y272000D02*
X211750Y268250D01*
X196000Y272000D02*
X208000D01*
X242500Y346000D02*
X252000Y336500D01*
X242500Y346000D02*
Y348000D01*
X252000Y319500D02*
Y336500D01*
Y308750D02*
Y319500D01*
X218000Y287500D02*
X221000D01*
X210500Y280000D02*
X218000Y287500D01*
X196000Y280000D02*
X210500D01*
X230500Y414500D02*
X238000Y422000D01*
X272500Y436500D02*
Y439500D01*
X254000Y422000D02*
X254250Y422250D01*
Y439750D01*
X254500Y440000D01*
X25400Y342000D02*
X38800Y328600D01*
X25400Y370100D02*
Y386080D01*
X102250Y351750D02*
X109750D01*
X38800Y399480D02*
X50800Y411480D01*
X289500Y501500D02*
Y505500D01*
X289560Y508000D02*
X292000D01*
X182800Y442500D02*
X191550Y451250D01*
X168500Y442500D02*
X182800D01*
X168500Y433000D02*
Y442500D01*
X38460Y485500D02*
X97000D01*
X25400Y472440D02*
X38460Y485500D01*
X50800Y497840D02*
X62800Y509840D01*
X424500Y251000D02*
Y255000D01*
X408500Y235000D02*
X424500Y251000D01*
X408500Y232000D02*
Y235000D01*
X417450Y201930D02*
Y205508D01*
X425500Y213558D01*
Y230000D01*
X440450Y255000D02*
X443500D01*
X425500Y240050D02*
X440450Y255000D01*
X425500Y230000D02*
Y240050D01*
X443500Y274000D02*
X456500Y287000D01*
X443500Y255000D02*
Y274000D01*
X392050Y204550D02*
X406500Y219000D01*
X392050Y201930D02*
Y204550D01*
X406500Y219000D02*
Y230000D01*
X408500Y232000D01*
X407500Y286500D02*
Y287000D01*
X657750Y202500D02*
X661000Y199250D01*
X652000Y202500D02*
X657750D01*
X649000Y205500D02*
X652000Y202500D01*
X661000Y169500D02*
Y199250D01*
X649000Y205500D02*
Y222500D01*
X671000Y241500D02*
X671500Y242000D01*
X649000Y241500D02*
X649000Y241500D01*
X671000D01*
X647750Y242750D02*
X649000Y241500D01*
X630442Y242750D02*
X647750D01*
X629192Y244000D02*
X630442Y242750D01*
X591250Y349250D02*
X591500Y349000D01*
X591250Y349250D02*
Y366750D01*
X591000Y367000D02*
X591250Y366750D01*
X653750Y432500D02*
X657513Y428737D01*
Y422687D02*
Y428737D01*
Y422687D02*
X662000Y418200D01*
X636000Y432500D02*
X653750D01*
X658500Y472500D02*
X662000Y469000D01*
X636000Y472500D02*
X658500D01*
X620000Y202580D02*
Y212500D01*
X606500Y226000D02*
X620000Y212500D01*
X670625Y156875D02*
Y169375D01*
X330200Y23400D02*
Y25400D01*
X670625Y156875D02*
X670750Y156750D01*
X623750Y453500D02*
X636000D01*
X315850Y127730D02*
X327500Y139380D01*
X315850Y125730D02*
Y127730D01*
X341250Y125730D02*
Y176192D01*
X290450Y125730D02*
Y127730D01*
X371500Y99000D02*
Y102000D01*
X366650Y123730D02*
Y125730D01*
D12*
X142000Y192000D02*
X142500Y192500D01*
X142000Y192000D02*
X152000D01*
X152500Y192500D01*
X60000Y220750D02*
Y229250D01*
X142000Y250093D02*
Y258000D01*
X138407Y246500D02*
X142000Y250093D01*
X128500Y234000D02*
X128500Y234000D01*
X132500Y246500D02*
X138407D01*
X128500Y242500D02*
X132500Y246500D01*
X128500Y234000D02*
Y242500D01*
X174000Y237500D02*
Y258000D01*
X60000Y216343D02*
Y220750D01*
X57657Y214000D02*
X60000Y216343D01*
X48745Y214000D02*
X57657D01*
D13*
X172000Y387500D02*
D03*
Y406500D02*
D03*
X221000Y287500D02*
D03*
Y268500D02*
D03*
X610000Y454500D02*
D03*
Y473500D02*
D03*
X580000D02*
D03*
Y454500D02*
D03*
X636000Y413500D02*
D03*
Y432500D02*
D03*
X252000Y163500D02*
D03*
Y144500D02*
D03*
X649000Y222500D02*
D03*
Y241500D02*
D03*
X332000Y85500D02*
D03*
Y66500D02*
D03*
Y47500D02*
D03*
Y66500D02*
D03*
X90000Y280500D02*
D03*
Y261500D02*
D03*
X671000Y205500D02*
D03*
Y186500D02*
D03*
X30000Y272500D02*
D03*
Y291500D02*
D03*
X671000Y222500D02*
D03*
Y241500D02*
D03*
X274000Y67500D02*
D03*
Y48500D02*
D03*
D14*
X291500Y439500D02*
D03*
X272500D02*
D03*
Y417500D02*
D03*
X291500D02*
D03*
X83250Y351750D02*
D03*
X102250D02*
D03*
X89500Y216000D02*
D03*
X108500D02*
D03*
Y195000D02*
D03*
X89500D02*
D03*
Y173000D02*
D03*
X108500D02*
D03*
X371500Y99000D02*
D03*
X390500D02*
D03*
X254500Y440000D02*
D03*
X235500D02*
D03*
X406500Y230000D02*
D03*
X425500D02*
D03*
X591500Y349000D02*
D03*
X572500D02*
D03*
X11500Y254000D02*
D03*
X30500D02*
D03*
X289500Y87000D02*
D03*
X270500D02*
D03*
X147500Y212000D02*
D03*
X128500D02*
D03*
X625500Y226000D02*
D03*
X606500D02*
D03*
D15*
X12000Y295192D02*
D03*
Y270808D02*
D03*
D16*
X629192Y244000D02*
D03*
X604808D02*
D03*
D17*
X182000Y258000D02*
D03*
X174000D02*
D03*
X166000D02*
D03*
X158000D02*
D03*
X150000D02*
D03*
X142000D02*
D03*
X134000D02*
D03*
X126000D02*
D03*
Y342000D02*
D03*
X134000D02*
D03*
X142000D02*
D03*
X150000D02*
D03*
X158000D02*
D03*
X166000D02*
D03*
X174000D02*
D03*
X182000D02*
D03*
D18*
X112000Y272000D02*
D03*
Y280000D02*
D03*
Y288000D02*
D03*
Y296000D02*
D03*
Y304000D02*
D03*
Y312000D02*
D03*
Y320000D02*
D03*
Y328000D02*
D03*
X196000D02*
D03*
Y320000D02*
D03*
Y312000D02*
D03*
Y304000D02*
D03*
Y296000D02*
D03*
Y288000D02*
D03*
Y280000D02*
D03*
Y272000D02*
D03*
D19*
X48745Y214000D02*
D03*
Y207500D02*
D03*
Y201000D02*
D03*
Y194500D02*
D03*
Y188000D02*
D03*
D20*
X21995Y189000D02*
D03*
Y213000D02*
D03*
X244500Y84750D02*
D03*
D21*
X46495Y233000D02*
D03*
Y169000D02*
D03*
D22*
X198000Y236500D02*
D03*
Y217500D02*
D03*
X220000Y217500D02*
D03*
Y236500D02*
D03*
X175000Y236500D02*
D03*
Y217500D02*
D03*
X636000Y472500D02*
D03*
Y453500D02*
D03*
X23000Y432500D02*
D03*
Y451500D02*
D03*
X305000Y48500D02*
D03*
Y67500D02*
D03*
X114000Y111500D02*
D03*
Y130500D02*
D03*
X355000Y48500D02*
D03*
Y67500D02*
D03*
X208000Y105500D02*
D03*
Y124500D02*
D03*
X221000Y304500D02*
D03*
Y323500D02*
D03*
X447000Y78500D02*
D03*
Y59500D02*
D03*
X220000Y179500D02*
D03*
Y198500D02*
D03*
X231000Y105500D02*
D03*
Y124500D02*
D03*
X649000Y205500D02*
D03*
Y186500D02*
D03*
X215000Y441500D02*
D03*
Y422500D02*
D03*
X198000Y198500D02*
D03*
Y179500D02*
D03*
D23*
X242500Y242000D02*
D03*
X261500D02*
D03*
X21500Y522000D02*
D03*
X40500D02*
D03*
X484500Y77000D02*
D03*
X465500D02*
D03*
X383500Y49000D02*
D03*
X402500D02*
D03*
X128500Y234000D02*
D03*
X147500D02*
D03*
X242500Y348000D02*
D03*
X261500D02*
D03*
X443500Y255000D02*
D03*
X462500D02*
D03*
X650500Y125000D02*
D03*
X669500D02*
D03*
X426500Y99000D02*
D03*
X407500D02*
D03*
X49500Y294250D02*
D03*
X68500D02*
D03*
X484500Y55000D02*
D03*
X465500D02*
D03*
X426500Y77000D02*
D03*
X407500D02*
D03*
X463500Y230000D02*
D03*
X444500D02*
D03*
X88500Y236000D02*
D03*
X107500D02*
D03*
X242500Y485000D02*
D03*
X261500D02*
D03*
X444500Y99000D02*
D03*
X463500D02*
D03*
X572500Y328000D02*
D03*
X591500D02*
D03*
X424500Y255000D02*
D03*
X405500D02*
D03*
D24*
X72000Y99500D02*
D03*
Y140500D02*
D03*
Y19500D02*
D03*
Y60500D02*
D03*
D25*
X254000Y401000D02*
D03*
X238000D02*
D03*
X254000Y422000D02*
D03*
X238000D02*
D03*
X591000Y367000D02*
D03*
X575000D02*
D03*
X254000Y383000D02*
D03*
X238000D02*
D03*
D26*
X21000Y96000D02*
D03*
Y64000D02*
D03*
D27*
X168500Y442500D02*
D03*
Y433000D02*
D03*
Y423500D02*
D03*
X195500Y442500D02*
D03*
Y423500D02*
D03*
X205500Y161500D02*
D03*
Y152000D02*
D03*
Y142500D02*
D03*
X232500Y161500D02*
D03*
Y142500D02*
D03*
D28*
X48500Y251500D02*
D03*
X58000D02*
D03*
X67500D02*
D03*
X48500Y278500D02*
D03*
X67500D02*
D03*
X670500Y169500D02*
D03*
X661000D02*
D03*
X651500D02*
D03*
X670500Y142500D02*
D03*
X651500D02*
D03*
D29*
X252000Y319500D02*
D03*
Y270500D02*
D03*
D30*
X72000Y197500D02*
D03*
Y182500D02*
D03*
Y211500D02*
D03*
Y226500D02*
D03*
D31*
X407500Y287000D02*
D03*
X456500D02*
D03*
D32*
X161000Y177000D02*
D03*
D33*
X186400Y115000D02*
D03*
X173700D02*
D03*
X161000D02*
D03*
X148300D02*
D03*
X135600D02*
D03*
D62*
X199500Y84750D02*
D03*
Y19750D02*
D03*
X244500D02*
D03*
X602500Y261500D02*
D03*
Y306500D02*
D03*
X667500D02*
D03*
D63*
Y261500D02*
D03*
D68*
X668000Y506000D02*
D03*
Y18000D02*
D03*
X222000Y50000D02*
D03*
X106250Y506000D02*
D03*
D69*
X463500Y99500D02*
X463750Y99250D01*
X207250Y125250D02*
X208000Y126000D01*
X187559Y413441D02*
X192309D01*
X177750Y423250D02*
X187559Y413441D01*
X168750Y423250D02*
X177750D01*
X192309Y413441D02*
X192500Y413250D01*
X168500Y423500D02*
X168750Y423250D01*
X174209Y408000D02*
Y413791D01*
X172709Y406500D02*
X174209Y408000D01*
X400000Y379000D02*
X400000D01*
X682500Y223000D02*
Y274500D01*
X40875Y286375D02*
X49000D01*
X682500Y206000D02*
Y223000D01*
Y177500D02*
Y206000D01*
X671000Y205500D02*
X671500Y206000D01*
X682500D01*
X681000Y153750D02*
Y176000D01*
X682500Y177500D01*
X671500Y223000D02*
X682500D01*
X671000Y222500D02*
X671500Y223000D01*
X404000Y112000D02*
X407000Y109000D01*
Y99500D02*
Y109000D01*
Y99500D02*
X407500Y99000D01*
X70000Y292750D02*
X79500D01*
X68500Y294250D02*
X70000Y292750D01*
X178000Y157000D02*
X184000Y163000D01*
X159000Y157000D02*
X178000D01*
X146000Y144000D02*
X159000Y157000D01*
X146000Y117300D02*
Y144000D01*
Y117300D02*
X148300Y115000D01*
X184000Y163000D02*
Y208429D01*
X186500Y210929D01*
X185500Y225071D02*
Y228000D01*
Y225071D02*
X186500Y224071D01*
Y210929D02*
Y224071D01*
X177000Y236500D02*
X185500Y228000D01*
X23000Y451500D02*
X23500Y452000D01*
X60000D01*
X161000Y115000D02*
Y131000D01*
X285500Y49000D02*
X289000Y52500D01*
X274500Y49000D02*
X285500D01*
X274000Y48500D02*
X274500Y49000D01*
X231000Y124500D02*
Y134500D01*
X208000Y126000D02*
Y135000D01*
X207250Y125250D02*
X208000Y124500D01*
X355500Y67000D02*
X372000D01*
X465500Y79000D02*
X474000Y87500D01*
Y95000D01*
X289000Y52500D02*
Y68000D01*
X444250Y218250D02*
Y229750D01*
X444500Y230000D01*
X464250Y256750D02*
X472750D01*
X462500Y255000D02*
X464250Y256750D01*
X394250Y255000D02*
X405500D01*
X107000Y236500D02*
Y247250D01*
Y236500D02*
X107500Y236000D01*
X139000Y224000D02*
X139500D01*
X139000Y223750D02*
Y224000D01*
X139500D02*
X147500Y232000D01*
Y234000D01*
X150000Y258000D02*
Y274000D01*
X150000Y274000D01*
X175000Y207500D02*
Y217500D01*
X197000Y208000D02*
Y216500D01*
X198000Y217500D01*
X235500Y198500D02*
X235750Y198250D01*
X220000Y198500D02*
X235500D01*
X262250Y241250D02*
X271500D01*
X261500Y242000D02*
X262250Y241250D01*
X220000Y236500D02*
Y251750D01*
X181750Y288000D02*
X196000D01*
X221000Y323500D02*
Y336750D01*
X274000Y348000D02*
X274000Y348000D01*
X261500Y348000D02*
X274000D01*
X261500Y485000D02*
X262830Y486330D01*
Y506670D01*
X264160Y508000D01*
X215000Y422500D02*
Y431750D01*
X196000Y442000D02*
X214500D01*
X56750Y522000D02*
X57000Y522250D01*
X40500Y522000D02*
X56750D01*
X630250Y186500D02*
X649000D01*
X627500Y183750D02*
X630250Y186500D01*
X641250Y172500D02*
X641750D01*
X642133Y172117D01*
X650750D01*
Y172500D02*
X651500Y171750D01*
X650750Y172117D02*
Y172500D01*
X651500Y169500D02*
Y171750D01*
X670250Y125750D02*
X678500D01*
X669500Y125000D02*
X670250Y125750D01*
X465500Y77000D02*
Y79000D01*
X457250Y114500D02*
X460750D01*
X463500Y111750D01*
Y99500D02*
Y111750D01*
Y99000D02*
X463750Y99250D01*
X395000Y86000D02*
X400500D01*
X407500Y79000D01*
Y77000D02*
Y79000D01*
X355000Y67500D02*
X355500Y67000D01*
X305000Y67500D02*
Y80500D01*
X193000Y142500D02*
X205500D01*
X67500Y251500D02*
X79750D01*
X72250Y226250D02*
X80000D01*
X72000Y226500D02*
X72250Y226250D01*
X72250Y183250D02*
X80500D01*
X72000Y183500D02*
X72250Y183250D01*
X72000Y182500D02*
Y183500D01*
X442850Y125730D02*
X443675Y124905D01*
Y99825D02*
Y124905D01*
Y99825D02*
X444500Y99000D01*
X238760Y508000D02*
X240630Y506130D01*
Y486870D02*
Y506130D01*
Y486870D02*
X242500Y485000D01*
X23450Y499790D02*
X25400Y497840D01*
X23450Y499790D02*
Y520050D01*
X21500Y522000D02*
X23450Y520050D01*
X283250Y417250D02*
X291250D01*
X291500Y417500D01*
Y439500D01*
X226750Y440250D02*
X235250D01*
X235500Y440000D01*
X216250Y440250D02*
X226750D01*
X215000Y441500D02*
X216250Y440250D01*
X214500Y442000D02*
X215000Y441500D01*
X195500Y442500D02*
X196000Y442000D01*
X172000Y406500D02*
X172709D01*
X12250Y281250D02*
Y294942D01*
X12000Y295192D02*
X12250Y294942D01*
X12000Y295192D02*
X12635D01*
X16327Y291500D01*
X30000D01*
X49000Y279000D02*
Y286375D01*
X48500Y278500D02*
X49000Y279000D01*
X48500Y276250D02*
X63250Y261500D01*
X48500Y276250D02*
Y278500D01*
X63250Y261500D02*
X90000D01*
X220000Y179500D02*
X220000Y179500D01*
X222000D01*
X231250Y162250D02*
X232000Y161500D01*
X232500D01*
X447000Y59500D02*
X447250Y59250D01*
Y46500D02*
Y59250D01*
X175000Y236500D02*
X177000D01*
X174000Y237500D02*
X175000Y236500D01*
X135600Y112500D02*
Y115000D01*
X242375Y465875D02*
Y484875D01*
X242500Y485000D01*
D70*
X672000Y285000D02*
X682500Y274500D01*
X671000Y143750D02*
X681000Y153750D01*
X671000Y143000D02*
Y143750D01*
X670500Y142500D02*
X671000Y143000D01*
X668222Y142500D02*
X670500D01*
X651500Y127000D02*
X652722D01*
X668222Y142500D01*
X650500Y126000D02*
X651500Y127000D01*
X650500Y125000D02*
Y126000D01*
D71*
X591500Y285000D02*
X672000D01*
X572500Y304000D02*
Y328000D01*
Y269580D02*
Y304000D01*
X591500Y285000D01*
X604808Y244000D02*
X609500D01*
X625500Y228000D01*
Y226000D02*
Y228000D01*
X572500Y269580D02*
X598080Y244000D01*
X604808D01*
X572500Y328000D02*
Y349000D01*
X465250Y46250D02*
Y54750D01*
X465500Y55000D01*
X194500Y176000D02*
X198000Y179500D01*
X182000Y145000D02*
X194500Y157500D01*
X162750Y145000D02*
X182000D01*
X156938Y139187D02*
X162750Y145000D01*
X195500Y179000D02*
X196000Y179500D01*
X194500Y157500D02*
Y176000D01*
X196000Y179500D02*
X198000D01*
X220000D01*
D72*
X615500Y76000D02*
Y94500D01*
X646000Y125000D01*
X442850Y125730D02*
X445037D01*
X486307Y167000D02*
X594250D01*
X445037Y125730D02*
X486307Y167000D01*
X594250D02*
X607750Y180500D01*
X455000Y181000D02*
X468250Y194250D01*
X455000Y155000D02*
Y181000D01*
X468250Y194250D02*
Y201930D01*
X463500Y219843D02*
X468250Y215093D01*
Y201930D02*
Y215093D01*
X463500Y219843D02*
Y230000D01*
D73*
X146000Y446000D02*
D03*
X662000Y469000D02*
D03*
D74*
X146000Y420600D02*
D03*
Y395200D02*
D03*
Y369800D02*
D03*
X662000Y418200D02*
D03*
Y443600D02*
D03*
D75*
X290450Y125730D02*
D03*
X315850D02*
D03*
X341250D02*
D03*
X366650D02*
D03*
X392050D02*
D03*
X417450D02*
D03*
X442850D02*
D03*
X468250D02*
D03*
X493650D02*
D03*
X519050D02*
D03*
X544450D02*
D03*
X569850D02*
D03*
X595250D02*
D03*
X620650D02*
D03*
X290450Y201930D02*
D03*
X315850D02*
D03*
X341250D02*
D03*
X366650D02*
D03*
X392050D02*
D03*
X417450D02*
D03*
X442850D02*
D03*
X468250D02*
D03*
X493650D02*
D03*
X519050D02*
D03*
X544450D02*
D03*
X569850D02*
D03*
X595250D02*
D03*
X167000Y88000D02*
D03*
X141600D02*
D03*
X391160Y508000D02*
D03*
X365760D02*
D03*
X340360D02*
D03*
X314960D02*
D03*
X289560D02*
D03*
X264160D02*
D03*
X238760D02*
D03*
X213360D02*
D03*
X187960D02*
D03*
X457200D02*
D03*
X482600D02*
D03*
X508000D02*
D03*
X533400D02*
D03*
X558800D02*
D03*
X584200D02*
D03*
X609600D02*
D03*
X533400Y25400D02*
D03*
X558800D02*
D03*
X584200D02*
D03*
X609600D02*
D03*
X635000D02*
D03*
X457200D02*
D03*
X431800D02*
D03*
X406400D02*
D03*
X381000D02*
D03*
X355600D02*
D03*
X330200D02*
D03*
X304800D02*
D03*
D76*
X620650Y201930D02*
D03*
X116200Y88000D02*
D03*
X416560Y508000D02*
D03*
X635000D02*
D03*
X508000Y25400D02*
D03*
X279400D02*
D03*
D77*
X25400Y316600D02*
D03*
X50800D02*
D03*
X25400Y342000D02*
D03*
X50800Y386080D02*
D03*
X76200D02*
D03*
X25400Y411480D02*
D03*
X50800D02*
D03*
X76200D02*
D03*
X50800Y472440D02*
D03*
X76200D02*
D03*
X25400Y497840D02*
D03*
X50800D02*
D03*
X76200D02*
D03*
D78*
X50800Y342000D02*
D03*
X25400Y386080D02*
D03*
Y472440D02*
D03*
D79*
X21995Y234000D02*
D03*
Y168000D02*
D03*
D80*
X139700Y25400D02*
D03*
X660400Y76200D02*
D03*
Y355600D02*
D03*
D81*
X152400Y508000D02*
D03*
D82*
X21000Y25000D02*
D03*
Y133000D02*
D03*
D83*
X174209Y413791D02*
D03*
X109000Y162000D02*
D03*
X101000Y154000D02*
D03*
X117000Y162000D02*
D03*
X109000Y154000D02*
D03*
X135000Y169000D02*
D03*
Y176000D02*
D03*
Y183000D02*
D03*
X400000Y478000D02*
D03*
X400000Y486000D02*
D03*
X407000D02*
D03*
Y478000D02*
D03*
Y379000D02*
D03*
Y387000D02*
D03*
X400000D02*
D03*
X327000Y246000D02*
D03*
X285875Y486875D02*
D03*
X545000Y410000D02*
D03*
X575000Y383000D02*
D03*
Y390000D02*
D03*
X615000Y83000D02*
D03*
X455000Y155000D02*
D03*
X404000Y112000D02*
D03*
X429000Y65000D02*
D03*
X422000D02*
D03*
X326000Y68000D02*
D03*
X100000Y272250D02*
D03*
X101000Y365000D02*
D03*
X91000Y320000D02*
D03*
Y369750D02*
D03*
X310000Y419000D02*
D03*
X311000Y409000D02*
D03*
X118000Y417000D02*
D03*
Y408000D02*
D03*
X147500Y199250D02*
D03*
X569000Y426000D02*
D03*
Y417000D02*
D03*
X575000Y409000D02*
D03*
X400000Y379000D02*
D03*
X231000Y134500D02*
D03*
X208000Y135000D02*
D03*
X117000Y176000D02*
D03*
X161000Y131000D02*
D03*
X372000Y67000D02*
D03*
X221000Y407000D02*
D03*
X474000Y95000D02*
D03*
X482000Y105000D02*
D03*
X60000Y452000D02*
D03*
X319000Y68000D02*
D03*
X289000D02*
D03*
X79500Y292750D02*
D03*
X444250Y218250D02*
D03*
X472750Y256750D02*
D03*
X394250Y255000D02*
D03*
X107000Y247250D02*
D03*
X139000Y224000D02*
D03*
X150000Y274000D02*
D03*
X175000Y207500D02*
D03*
X197000Y208000D02*
D03*
X235750Y198250D02*
D03*
X271500Y241250D02*
D03*
X220000Y251750D02*
D03*
X181750Y288000D02*
D03*
X221000Y336750D02*
D03*
X274000Y348000D02*
D03*
X215000Y431750D02*
D03*
X192500Y413250D02*
D03*
X57000Y522250D02*
D03*
X575000Y397000D02*
D03*
X627500Y183750D02*
D03*
X641750Y172500D02*
D03*
X678500Y125750D02*
D03*
X457250Y114500D02*
D03*
X415000Y65000D02*
D03*
X395000Y86000D02*
D03*
X305000Y80500D02*
D03*
X193000Y142500D02*
D03*
X79750Y251500D02*
D03*
X80000Y226250D02*
D03*
X80500Y183250D02*
D03*
X283250Y417250D02*
D03*
X226750Y440250D02*
D03*
X126000Y412000D02*
D03*
X12250Y281250D02*
D03*
X40875Y286375D02*
D03*
X155750Y138750D02*
D03*
X447250Y46500D02*
D03*
X465250Y46250D02*
D03*
X615500Y76000D02*
D03*
X238000Y179000D02*
D03*
X209000Y208000D02*
D03*
X162750Y195250D02*
D03*
X88500Y111000D02*
D03*
Y101000D02*
D03*
X60000Y220750D02*
D03*
Y229250D02*
D03*
X163250Y205750D02*
D03*
X118500Y216000D02*
D03*
Y195000D02*
D03*
X242375Y465875D02*
D03*
X607750Y180500D02*
D03*
X670750Y156750D02*
D03*
X623750Y453500D02*
D03*
X327500Y180750D02*
D03*
X302250Y180250D02*
D03*
X312000Y227000D02*
D03*
M02*
