G04*
G04 #@! TF.GenerationSoftware,Altium Limited,Altium Designer,19.1.4 (82)*
G04*
G04 Layer_Color=32896*
%FSLAX44Y44*%
%MOMM*%
G71*
G01*
G75*
%ADD70C,0.7000*%
D70*
X-853000Y-559852D02*
Y-584844D01*
X-836339D01*
X-828008Y-559852D02*
X-819678D01*
X-823843D01*
Y-584844D01*
X-828008D01*
X-819678D01*
X-790520Y-564017D02*
X-794686Y-559852D01*
X-803016D01*
X-807181Y-564017D01*
Y-580678D01*
X-803016Y-584844D01*
X-794686D01*
X-790520Y-580678D01*
X-765528Y-559852D02*
X-782190D01*
Y-584844D01*
X-765528D01*
X-782190Y-572348D02*
X-773859D01*
X-757198Y-584844D02*
Y-559852D01*
X-740536Y-584844D01*
Y-559852D01*
X-715544Y-564017D02*
X-719710Y-559852D01*
X-728040D01*
X-732206Y-564017D01*
Y-580678D01*
X-728040Y-584844D01*
X-719710D01*
X-715544Y-580678D01*
X-690553Y-559852D02*
X-707214D01*
Y-584844D01*
X-690553D01*
X-707214Y-572348D02*
X-698883D01*
X-836339Y-751178D02*
X-840504Y-747013D01*
X-848835D01*
X-853000Y-751178D01*
Y-767839D01*
X-848835Y-772005D01*
X-840504D01*
X-836339Y-767839D01*
Y-759509D01*
X-844669D01*
X-828008Y-772005D02*
Y-747013D01*
X-811347Y-772005D01*
Y-747013D01*
X-803016D02*
Y-767839D01*
X-798851Y-772005D01*
X-790520D01*
X-786355Y-767839D01*
Y-747013D01*
X-736371Y-751178D02*
X-740536Y-747013D01*
X-748867D01*
X-753032Y-751178D01*
Y-767839D01*
X-748867Y-772005D01*
X-740536D01*
X-736371Y-767839D01*
Y-759509D01*
X-744702D01*
X-711379Y-747013D02*
X-728040D01*
Y-772005D01*
X-711379D01*
X-728040Y-759509D02*
X-719710D01*
X-703048Y-772005D02*
Y-747013D01*
X-686387Y-772005D01*
Y-747013D01*
X-661395D02*
X-678057D01*
Y-772005D01*
X-661395D01*
X-678057Y-759509D02*
X-669726D01*
X-653065Y-772005D02*
Y-747013D01*
X-640569D01*
X-636403Y-751178D01*
Y-759509D01*
X-640569Y-763674D01*
X-653065D01*
X-644734D02*
X-636403Y-772005D01*
X-628073D02*
Y-755343D01*
X-619742Y-747013D01*
X-611411Y-755343D01*
Y-772005D01*
Y-759509D01*
X-628073D01*
X-603081Y-747013D02*
Y-772005D01*
X-586419D01*
X-553097D02*
Y-747013D01*
X-540601D01*
X-536436Y-751178D01*
Y-759509D01*
X-540601Y-763674D01*
X-553097D01*
X-528105Y-747013D02*
Y-767839D01*
X-523940Y-772005D01*
X-515609D01*
X-511444Y-767839D01*
Y-747013D01*
X-503113D02*
Y-772005D01*
X-490617D01*
X-486452Y-767839D01*
Y-763674D01*
X-490617Y-759509D01*
X-503113D01*
X-490617D01*
X-486452Y-755343D01*
Y-751178D01*
X-490617Y-747013D01*
X-503113D01*
X-478121D02*
Y-772005D01*
X-461460D01*
X-453129Y-747013D02*
X-444799D01*
X-448964D01*
Y-772005D01*
X-453129D01*
X-444799D01*
X-415641Y-751178D02*
X-419807Y-747013D01*
X-428137D01*
X-432303Y-751178D01*
Y-767839D01*
X-428137Y-772005D01*
X-419807D01*
X-415641Y-767839D01*
X-382319Y-747013D02*
Y-772005D01*
X-365658D01*
X-357327Y-747013D02*
X-348996D01*
X-353162D01*
Y-772005D01*
X-357327D01*
X-348996D01*
X-319839Y-751178D02*
X-324004Y-747013D01*
X-332335D01*
X-336500Y-751178D01*
Y-767839D01*
X-332335Y-772005D01*
X-324004D01*
X-319839Y-767839D01*
X-294847Y-747013D02*
X-311508D01*
Y-772005D01*
X-294847D01*
X-311508Y-759509D02*
X-303178D01*
X-286516Y-772005D02*
Y-747013D01*
X-269855Y-772005D01*
Y-747013D01*
X-244863Y-751178D02*
X-249028Y-747013D01*
X-257359D01*
X-261525Y-751178D01*
Y-755343D01*
X-257359Y-759509D01*
X-249028D01*
X-244863Y-763674D01*
Y-767839D01*
X-249028Y-772005D01*
X-257359D01*
X-261525Y-767839D01*
X-219871Y-747013D02*
X-236533D01*
Y-772005D01*
X-219871D01*
X-236533Y-759509D02*
X-228202D01*
X-836339Y-887384D02*
X-853000D01*
Y-912376D01*
X-836339D01*
X-853000Y-899880D02*
X-844669D01*
X-828008Y-895714D02*
X-819678Y-912376D01*
X-811347Y-895714D01*
X-790520Y-912376D02*
X-798851D01*
X-803016Y-908210D01*
Y-899880D01*
X-798851Y-895714D01*
X-790520D01*
X-786355Y-899880D01*
Y-904045D01*
X-803016D01*
X-778024Y-895714D02*
Y-912376D01*
Y-904045D01*
X-773859Y-899880D01*
X-769694Y-895714D01*
X-765528D01*
X-753032D02*
Y-908210D01*
X-748867Y-912376D01*
X-736371D01*
Y-916541D01*
X-740536Y-920706D01*
X-744702D01*
X-736371Y-912376D02*
Y-895714D01*
X-723875Y-912376D02*
X-715544D01*
X-711379Y-908210D01*
Y-899880D01*
X-715544Y-895714D01*
X-723875D01*
X-728040Y-899880D01*
Y-908210D01*
X-723875Y-912376D01*
X-703048D02*
Y-895714D01*
X-690553D01*
X-686387Y-899880D01*
Y-912376D01*
X-665561D02*
X-673891D01*
X-678057Y-908210D01*
Y-899880D01*
X-673891Y-895714D01*
X-665561D01*
X-661395Y-899880D01*
Y-904045D01*
X-678057D01*
X-628073Y-912376D02*
X-619742D01*
X-623907D01*
Y-895714D01*
X-628073D01*
X-607246Y-912376D02*
X-594750D01*
X-590585Y-908210D01*
X-594750Y-904045D01*
X-603081D01*
X-607246Y-899880D01*
X-603081Y-895714D01*
X-590585D01*
X-557262Y-920706D02*
Y-895714D01*
X-544766D01*
X-540601Y-899880D01*
Y-908210D01*
X-544766Y-912376D01*
X-557262D01*
X-519774D02*
X-528105D01*
X-532270Y-908210D01*
Y-899880D01*
X-528105Y-895714D01*
X-519774D01*
X-515609Y-899880D01*
Y-904045D01*
X-532270D01*
X-507278Y-895714D02*
Y-912376D01*
Y-904045D01*
X-503113Y-899880D01*
X-498948Y-895714D01*
X-494782D01*
X-482286Y-912376D02*
Y-895714D01*
X-478121D01*
X-473956Y-899880D01*
Y-912376D01*
Y-899880D01*
X-469790Y-895714D01*
X-465625Y-899880D01*
Y-912376D01*
X-457295D02*
X-448964D01*
X-453129D01*
Y-895714D01*
X-457295D01*
X-432303Y-891549D02*
Y-895714D01*
X-436468D01*
X-428137D01*
X-432303D01*
Y-908210D01*
X-428137Y-912376D01*
X-411476Y-891549D02*
Y-895714D01*
X-415641D01*
X-407311D01*
X-411476D01*
Y-908210D01*
X-407311Y-912376D01*
X-382319D02*
X-390649D01*
X-394815Y-908210D01*
Y-899880D01*
X-390649Y-895714D01*
X-382319D01*
X-378153Y-899880D01*
Y-904045D01*
X-394815D01*
X-353162Y-887384D02*
Y-912376D01*
X-365658D01*
X-369823Y-908210D01*
Y-899880D01*
X-365658Y-895714D01*
X-353162D01*
X-315674Y-891549D02*
Y-895714D01*
X-319839D01*
X-311508D01*
X-315674D01*
Y-908210D01*
X-311508Y-912376D01*
X-294847D02*
X-286516D01*
X-282351Y-908210D01*
Y-899880D01*
X-286516Y-895714D01*
X-294847D01*
X-299012Y-899880D01*
Y-908210D01*
X-294847Y-912376D01*
X-232367Y-895714D02*
X-244863D01*
X-249028Y-899880D01*
Y-908210D01*
X-244863Y-912376D01*
X-232367D01*
X-219871D02*
X-211541D01*
X-207375Y-908210D01*
Y-899880D01*
X-211541Y-895714D01*
X-219871D01*
X-224037Y-899880D01*
Y-908210D01*
X-219871Y-912376D01*
X-199045Y-920706D02*
Y-895714D01*
X-186549D01*
X-182383Y-899880D01*
Y-908210D01*
X-186549Y-912376D01*
X-199045D01*
X-174053Y-895714D02*
Y-908210D01*
X-169887Y-912376D01*
X-157392D01*
Y-916541D01*
X-161557Y-920706D01*
X-165722D01*
X-157392Y-912376D02*
Y-895714D01*
X-119904D02*
X-111573D01*
X-107408Y-899880D01*
Y-912376D01*
X-119904D01*
X-124069Y-908210D01*
X-119904Y-904045D01*
X-107408D01*
X-99077Y-912376D02*
Y-895714D01*
X-86581D01*
X-82416Y-899880D01*
Y-912376D01*
X-57424Y-887384D02*
Y-912376D01*
X-69920D01*
X-74085Y-908210D01*
Y-899880D01*
X-69920Y-895714D01*
X-57424D01*
X-7440Y-887384D02*
Y-912376D01*
X-19936D01*
X-24101Y-908210D01*
Y-899880D01*
X-19936Y-895714D01*
X-7440D01*
X891Y-912376D02*
X9221D01*
X5056D01*
Y-895714D01*
X891D01*
X21717Y-912376D02*
X34213D01*
X38379Y-908210D01*
X34213Y-904045D01*
X25883D01*
X21717Y-899880D01*
X25883Y-895714D01*
X38379D01*
X50875Y-891549D02*
Y-895714D01*
X46709D01*
X55040D01*
X50875D01*
Y-908210D01*
X55040Y-912376D01*
X67536Y-895714D02*
Y-912376D01*
Y-904045D01*
X71701Y-899880D01*
X75866Y-895714D01*
X80032D01*
X92528Y-912376D02*
X100858D01*
X96693D01*
Y-895714D01*
X92528D01*
X113354Y-887384D02*
Y-912376D01*
X125850D01*
X130016Y-908210D01*
Y-904045D01*
Y-899880D01*
X125850Y-895714D01*
X113354D01*
X138346D02*
Y-908210D01*
X142512Y-912376D01*
X155008D01*
Y-895714D01*
X167504Y-891549D02*
Y-895714D01*
X163338D01*
X171669D01*
X167504D01*
Y-908210D01*
X171669Y-912376D01*
X196661D02*
X188330D01*
X184165Y-908210D01*
Y-899880D01*
X188330Y-895714D01*
X196661D01*
X200826Y-899880D01*
Y-904045D01*
X184165D01*
X234149Y-895714D02*
X242479Y-912376D01*
X250810Y-895714D01*
X271637Y-912376D02*
X263306D01*
X259141Y-908210D01*
Y-899880D01*
X263306Y-895714D01*
X271637D01*
X275802Y-899880D01*
Y-904045D01*
X259141D01*
X284132Y-895714D02*
Y-912376D01*
Y-904045D01*
X288298Y-899880D01*
X292463Y-895714D01*
X296628D01*
X309124Y-887384D02*
Y-912376D01*
X321620D01*
X325786Y-908210D01*
Y-904045D01*
Y-899880D01*
X321620Y-895714D01*
X309124D01*
X338282D02*
X346612D01*
X350778Y-899880D01*
Y-912376D01*
X338282D01*
X334116Y-908210D01*
X338282Y-904045D01*
X350778D01*
X363274Y-891549D02*
Y-895714D01*
X359108D01*
X367439D01*
X363274D01*
Y-908210D01*
X367439Y-912376D01*
X379935D02*
X388265D01*
X384100D01*
Y-895714D01*
X379935D01*
X400761Y-912376D02*
Y-895714D01*
X404927D01*
X409092Y-899880D01*
Y-912376D01*
Y-899880D01*
X413257Y-895714D01*
X417423Y-899880D01*
Y-912376D01*
X467407Y-895714D02*
X454911D01*
X450745Y-899880D01*
Y-908210D01*
X454911Y-912376D01*
X467407D01*
X479903D02*
X488233D01*
X492398Y-908210D01*
Y-899880D01*
X488233Y-895714D01*
X479903D01*
X475737Y-899880D01*
Y-908210D01*
X479903Y-912376D01*
X500729Y-920706D02*
Y-895714D01*
X513225D01*
X517391Y-899880D01*
Y-908210D01*
X513225Y-912376D01*
X500729D01*
X525721D02*
X534052D01*
X529886D01*
Y-895714D01*
X525721D01*
X559044Y-912376D02*
X550713D01*
X546548Y-908210D01*
Y-899880D01*
X550713Y-895714D01*
X559044D01*
X563209Y-899880D01*
Y-904045D01*
X546548D01*
X571540Y-912376D02*
X584036D01*
X588201Y-908210D01*
X584036Y-904045D01*
X575705D01*
X571540Y-899880D01*
X575705Y-895714D01*
X588201D01*
X625689Y-912376D02*
X634019D01*
X638185Y-908210D01*
Y-899880D01*
X634019Y-895714D01*
X625689D01*
X621524Y-899880D01*
Y-908210D01*
X625689Y-912376D01*
X650681D02*
Y-891549D01*
Y-899880D01*
X646515D01*
X654846D01*
X650681D01*
Y-891549D01*
X654846Y-887384D01*
X696499Y-891549D02*
Y-895714D01*
X692334D01*
X700665D01*
X696499D01*
Y-908210D01*
X700665Y-912376D01*
X713160Y-887384D02*
Y-912376D01*
Y-899880D01*
X717326Y-895714D01*
X725657D01*
X729822Y-899880D01*
Y-912376D01*
X738152D02*
X746483D01*
X742318D01*
Y-895714D01*
X738152D01*
X758979Y-912376D02*
X771475D01*
X775640Y-908210D01*
X771475Y-904045D01*
X763144D01*
X758979Y-899880D01*
X763144Y-895714D01*
X775640D01*
X808963Y-912376D02*
X817293D01*
X813128D01*
Y-887384D01*
X808963D01*
X829790Y-912376D02*
X838120D01*
X833955D01*
Y-895714D01*
X829790D01*
X867277D02*
X854781D01*
X850616Y-899880D01*
Y-908210D01*
X854781Y-912376D01*
X867277D01*
X888104D02*
X879773D01*
X875608Y-908210D01*
Y-899880D01*
X879773Y-895714D01*
X888104D01*
X892269Y-899880D01*
Y-904045D01*
X875608D01*
X900600Y-912376D02*
Y-895714D01*
X913096D01*
X917261Y-899880D01*
Y-912376D01*
X925592D02*
X938088D01*
X942253Y-908210D01*
X938088Y-904045D01*
X929757D01*
X925592Y-899880D01*
X929757Y-895714D01*
X942253D01*
X963080Y-912376D02*
X954749D01*
X950584Y-908210D01*
Y-899880D01*
X954749Y-895714D01*
X963080D01*
X967245Y-899880D01*
Y-904045D01*
X950584D01*
X-836339Y-942505D02*
Y-967496D01*
X-848835D01*
X-853000Y-963331D01*
Y-955001D01*
X-848835Y-950835D01*
X-836339D01*
X-823843Y-967496D02*
X-815512D01*
X-811347Y-963331D01*
Y-955001D01*
X-815512Y-950835D01*
X-823843D01*
X-828008Y-955001D01*
Y-963331D01*
X-823843Y-967496D01*
X-786355Y-950835D02*
X-798851D01*
X-803016Y-955001D01*
Y-963331D01*
X-798851Y-967496D01*
X-786355D01*
X-778024Y-950835D02*
Y-963331D01*
X-773859Y-967496D01*
X-761363D01*
Y-950835D01*
X-753032Y-967496D02*
Y-950835D01*
X-748867D01*
X-744702Y-955001D01*
Y-967496D01*
Y-955001D01*
X-740536Y-950835D01*
X-736371Y-955001D01*
Y-967496D01*
X-715544D02*
X-723875D01*
X-728040Y-963331D01*
Y-955001D01*
X-723875Y-950835D01*
X-715544D01*
X-711379Y-955001D01*
Y-959166D01*
X-728040D01*
X-703048Y-967496D02*
Y-950835D01*
X-690553D01*
X-686387Y-955001D01*
Y-967496D01*
X-673891Y-946670D02*
Y-950835D01*
X-678057D01*
X-669726D01*
X-673891D01*
Y-963331D01*
X-669726Y-967496D01*
X-653065Y-971662D02*
X-648899Y-967496D01*
Y-963331D01*
X-653065D01*
Y-967496D01*
X-648899D01*
X-653065Y-971662D01*
X-657230Y-975827D01*
X-607246Y-942505D02*
Y-967496D01*
X-594750D01*
X-590585Y-963331D01*
Y-959166D01*
Y-955001D01*
X-594750Y-950835D01*
X-607246D01*
X-582254D02*
Y-963331D01*
X-578089Y-967496D01*
X-565593D01*
Y-950835D01*
X-553097Y-946670D02*
Y-950835D01*
X-557262D01*
X-548932D01*
X-553097D01*
Y-963331D01*
X-548932Y-967496D01*
X-494782Y-950835D02*
X-507278D01*
X-511444Y-955001D01*
Y-963331D01*
X-507278Y-967496D01*
X-494782D01*
X-486452Y-942505D02*
Y-967496D01*
Y-955001D01*
X-482286Y-950835D01*
X-473956D01*
X-469790Y-955001D01*
Y-967496D01*
X-457295Y-950835D02*
X-448964D01*
X-444799Y-955001D01*
Y-967496D01*
X-457295D01*
X-461460Y-963331D01*
X-457295Y-959166D01*
X-444799D01*
X-436468Y-967496D02*
Y-950835D01*
X-423972D01*
X-419807Y-955001D01*
Y-967496D01*
X-403145Y-975827D02*
X-398980D01*
X-394815Y-971662D01*
Y-950835D01*
X-407311D01*
X-411476Y-955001D01*
Y-963331D01*
X-407311Y-967496D01*
X-394815D01*
X-386484D02*
X-378153D01*
X-382319D01*
Y-950835D01*
X-386484D01*
X-365658Y-967496D02*
Y-950835D01*
X-353162D01*
X-348996Y-955001D01*
Y-967496D01*
X-332335Y-975827D02*
X-328170D01*
X-324004Y-971662D01*
Y-950835D01*
X-336500D01*
X-340666Y-955001D01*
Y-963331D01*
X-336500Y-967496D01*
X-324004D01*
X-290682D02*
X-282351D01*
X-286516D01*
Y-950835D01*
X-290682D01*
X-265690Y-946670D02*
Y-950835D01*
X-269855D01*
X-261525D01*
X-265690D01*
Y-963331D01*
X-261525Y-967496D01*
X-224037D02*
X-215706D01*
X-219871D01*
Y-950835D01*
X-224037D01*
X-203210Y-967496D02*
X-190714D01*
X-186549Y-963331D01*
X-190714Y-959166D01*
X-199045D01*
X-203210Y-955001D01*
X-199045Y-950835D01*
X-186549D01*
X-153226Y-967496D02*
Y-950835D01*
X-140730D01*
X-136565Y-955001D01*
Y-967496D01*
X-124069D02*
X-115738D01*
X-111573Y-963331D01*
Y-955001D01*
X-115738Y-950835D01*
X-124069D01*
X-128234Y-955001D01*
Y-963331D01*
X-124069Y-967496D01*
X-99077Y-946670D02*
Y-950835D01*
X-103242D01*
X-94912D01*
X-99077D01*
Y-963331D01*
X-94912Y-967496D01*
X-53259Y-950835D02*
X-44928D01*
X-40763Y-955001D01*
Y-967496D01*
X-53259D01*
X-57424Y-963331D01*
X-53259Y-959166D01*
X-40763D01*
X-32432Y-967496D02*
X-24101D01*
X-28266D01*
Y-942505D01*
X-32432D01*
X-11605Y-967496D02*
X-3275D01*
X-7440D01*
Y-942505D01*
X-11605D01*
X13387Y-967496D02*
X21717D01*
X25883Y-963331D01*
Y-955001D01*
X21717Y-950835D01*
X13387D01*
X9221Y-955001D01*
Y-963331D01*
X13387Y-967496D01*
X34213Y-950835D02*
Y-963331D01*
X38379Y-967496D01*
X42544Y-963331D01*
X46709Y-967496D01*
X50875Y-963331D01*
Y-950835D01*
X71701Y-967496D02*
X63370D01*
X59205Y-963331D01*
Y-955001D01*
X63370Y-950835D01*
X71701D01*
X75866Y-955001D01*
Y-959166D01*
X59205D01*
X100858Y-942505D02*
Y-967496D01*
X88362D01*
X84197Y-963331D01*
Y-955001D01*
X88362Y-950835D01*
X100858D01*
X109189Y-967496D02*
Y-963331D01*
X113354D01*
Y-967496D01*
X109189D01*
X-853000Y-1044416D02*
X-836339D01*
X-844669D01*
Y-1069408D01*
X-828008Y-1044416D02*
Y-1069408D01*
Y-1056912D01*
X-823843Y-1052746D01*
X-815512D01*
X-811347Y-1056912D01*
Y-1069408D01*
X-790520D02*
X-798851D01*
X-803016Y-1065242D01*
Y-1056912D01*
X-798851Y-1052746D01*
X-790520D01*
X-786355Y-1056912D01*
Y-1061077D01*
X-803016D01*
X-736371Y-1048581D02*
X-740536Y-1044416D01*
X-748867D01*
X-753032Y-1048581D01*
Y-1065242D01*
X-748867Y-1069408D01*
X-740536D01*
X-736371Y-1065242D01*
Y-1056912D01*
X-744702D01*
X-728040Y-1069408D02*
Y-1044416D01*
X-711379Y-1069408D01*
Y-1044416D01*
X-703048D02*
Y-1065242D01*
X-698883Y-1069408D01*
X-690553D01*
X-686387Y-1065242D01*
Y-1044416D01*
X-636403Y-1048581D02*
X-640569Y-1044416D01*
X-648899D01*
X-653065Y-1048581D01*
Y-1065242D01*
X-648899Y-1069408D01*
X-640569D01*
X-636403Y-1065242D01*
Y-1056912D01*
X-644734D01*
X-615577Y-1069408D02*
X-623907D01*
X-628073Y-1065242D01*
Y-1056912D01*
X-623907Y-1052746D01*
X-615577D01*
X-611411Y-1056912D01*
Y-1061077D01*
X-628073D01*
X-603081Y-1069408D02*
Y-1052746D01*
X-590585D01*
X-586419Y-1056912D01*
Y-1069408D01*
X-565593D02*
X-573923D01*
X-578089Y-1065242D01*
Y-1056912D01*
X-573923Y-1052746D01*
X-565593D01*
X-561428Y-1056912D01*
Y-1061077D01*
X-578089D01*
X-553097Y-1052746D02*
Y-1069408D01*
Y-1061077D01*
X-548932Y-1056912D01*
X-544766Y-1052746D01*
X-540601D01*
X-523940D02*
X-515609D01*
X-511444Y-1056912D01*
Y-1069408D01*
X-523940D01*
X-528105Y-1065242D01*
X-523940Y-1061077D01*
X-511444D01*
X-503113Y-1069408D02*
X-494782D01*
X-498948D01*
Y-1044416D01*
X-503113D01*
X-457295Y-1069408D02*
Y-1044416D01*
X-444799D01*
X-440633Y-1048581D01*
Y-1056912D01*
X-444799Y-1061077D01*
X-457295D01*
X-432303Y-1052746D02*
Y-1065242D01*
X-428137Y-1069408D01*
X-415641D01*
Y-1052746D01*
X-407311Y-1044416D02*
Y-1069408D01*
X-394815D01*
X-390649Y-1065242D01*
Y-1061077D01*
Y-1056912D01*
X-394815Y-1052746D01*
X-407311D01*
X-382319Y-1069408D02*
X-373988D01*
X-378153D01*
Y-1044416D01*
X-382319D01*
X-361492Y-1069408D02*
X-353162D01*
X-357327D01*
Y-1052746D01*
X-361492D01*
X-324004D02*
X-336500D01*
X-340666Y-1056912D01*
Y-1065242D01*
X-336500Y-1069408D01*
X-324004D01*
X-290682Y-1044416D02*
Y-1069408D01*
X-274021D01*
X-265690D02*
X-257359D01*
X-261525D01*
Y-1052746D01*
X-265690D01*
X-228202D02*
X-240698D01*
X-244863Y-1056912D01*
Y-1065242D01*
X-240698Y-1069408D01*
X-228202D01*
X-207375D02*
X-215706D01*
X-219871Y-1065242D01*
Y-1056912D01*
X-215706Y-1052746D01*
X-207375D01*
X-203210Y-1056912D01*
Y-1061077D01*
X-219871D01*
X-194879Y-1069408D02*
Y-1052746D01*
X-182383D01*
X-178218Y-1056912D01*
Y-1069408D01*
X-169887D02*
X-157392D01*
X-153226Y-1065242D01*
X-157392Y-1061077D01*
X-165722D01*
X-169887Y-1056912D01*
X-165722Y-1052746D01*
X-153226D01*
X-132400Y-1069408D02*
X-140730D01*
X-144895Y-1065242D01*
Y-1056912D01*
X-140730Y-1052746D01*
X-132400D01*
X-128234Y-1056912D01*
Y-1061077D01*
X-144895D01*
X-94912Y-1069408D02*
X-86581D01*
X-90746D01*
Y-1052746D01*
X-94912D01*
X-74085Y-1069408D02*
X-61589D01*
X-57424Y-1065242D01*
X-61589Y-1061077D01*
X-69920D01*
X-74085Y-1056912D01*
X-69920Y-1052746D01*
X-57424D01*
X-19936D02*
X-11605D01*
X-7440Y-1056912D01*
Y-1069408D01*
X-19936D01*
X-24101Y-1065242D01*
X-19936Y-1061077D01*
X-7440D01*
X30048Y-1069408D02*
Y-1048581D01*
Y-1056912D01*
X25883D01*
X34213D01*
X30048D01*
Y-1048581D01*
X34213Y-1044416D01*
X46709Y-1052746D02*
Y-1069408D01*
Y-1061077D01*
X50875Y-1056912D01*
X55040Y-1052746D01*
X59205D01*
X84197Y-1069408D02*
X75866D01*
X71701Y-1065242D01*
Y-1056912D01*
X75866Y-1052746D01*
X84197D01*
X88362Y-1056912D01*
Y-1061077D01*
X71701D01*
X109189Y-1069408D02*
X100858D01*
X96693Y-1065242D01*
Y-1056912D01*
X100858Y-1052746D01*
X109189D01*
X113354Y-1056912D01*
Y-1061077D01*
X96693D01*
X125850Y-1073573D02*
X130016Y-1069408D01*
Y-1065242D01*
X125850D01*
Y-1069408D01*
X130016D01*
X125850Y-1073573D01*
X121685Y-1077738D01*
X188330Y-1052746D02*
X175834D01*
X171669Y-1056912D01*
Y-1065242D01*
X175834Y-1069408D01*
X188330D01*
X200826D02*
X209157D01*
X213322Y-1065242D01*
Y-1056912D01*
X209157Y-1052746D01*
X200826D01*
X196661Y-1056912D01*
Y-1065242D01*
X200826Y-1069408D01*
X221653Y-1077738D02*
Y-1052746D01*
X234149D01*
X238314Y-1056912D01*
Y-1065242D01*
X234149Y-1069408D01*
X221653D01*
X246645Y-1052746D02*
Y-1065242D01*
X250810Y-1069408D01*
X263306D01*
Y-1073573D01*
X259141Y-1077738D01*
X254975D01*
X263306Y-1069408D02*
Y-1052746D01*
X271637Y-1069408D02*
X279967D01*
X275802D01*
Y-1044416D01*
X271637D01*
X304959Y-1069408D02*
X296628D01*
X292463Y-1065242D01*
Y-1056912D01*
X296628Y-1052746D01*
X304959D01*
X309124Y-1056912D01*
Y-1061077D01*
X292463D01*
X321620Y-1069408D02*
Y-1048581D01*
Y-1056912D01*
X317455D01*
X325786D01*
X321620D01*
Y-1048581D01*
X325786Y-1044416D01*
X342447Y-1048581D02*
Y-1052746D01*
X338282D01*
X346612D01*
X342447D01*
Y-1065242D01*
X346612Y-1069408D01*
X384100D02*
X392431D01*
X388265D01*
Y-1044416D01*
X384100D01*
X404927Y-1069408D02*
X413257D01*
X409092D01*
Y-1052746D01*
X404927D01*
X442415D02*
X429919D01*
X425753Y-1056912D01*
Y-1065242D01*
X429919Y-1069408D01*
X442415D01*
X463241D02*
X454911D01*
X450745Y-1065242D01*
Y-1056912D01*
X454911Y-1052746D01*
X463241D01*
X467407Y-1056912D01*
Y-1061077D01*
X450745D01*
X475737Y-1069408D02*
Y-1052746D01*
X488233D01*
X492398Y-1056912D01*
Y-1069408D01*
X500729D02*
X513225D01*
X517391Y-1065242D01*
X513225Y-1061077D01*
X504894D01*
X500729Y-1056912D01*
X504894Y-1052746D01*
X517391D01*
X538217Y-1069408D02*
X529886D01*
X525721Y-1065242D01*
Y-1056912D01*
X529886Y-1052746D01*
X538217D01*
X542382Y-1056912D01*
Y-1061077D01*
X525721D01*
X579870Y-1069408D02*
Y-1048581D01*
Y-1056912D01*
X575705D01*
X584036D01*
X579870D01*
Y-1048581D01*
X584036Y-1044416D01*
X600697Y-1069408D02*
X609027D01*
X613193Y-1065242D01*
Y-1056912D01*
X609027Y-1052746D01*
X600697D01*
X596531Y-1056912D01*
Y-1065242D01*
X600697Y-1069408D01*
X621524Y-1052746D02*
Y-1069408D01*
Y-1061077D01*
X625689Y-1056912D01*
X629854Y-1052746D01*
X634019D01*
X671507Y-1069408D02*
X684003D01*
X688169Y-1065242D01*
X684003Y-1061077D01*
X675673D01*
X671507Y-1056912D01*
X675673Y-1052746D01*
X688169D01*
X700665Y-1069408D02*
X708995D01*
X713160Y-1065242D01*
Y-1056912D01*
X708995Y-1052746D01*
X700665D01*
X696499Y-1056912D01*
Y-1065242D01*
X700665Y-1069408D01*
X725657D02*
Y-1048581D01*
Y-1056912D01*
X721491D01*
X729822D01*
X725657D01*
Y-1048581D01*
X729822Y-1044416D01*
X746483Y-1048581D02*
Y-1052746D01*
X742318D01*
X750648D01*
X746483D01*
Y-1065242D01*
X750648Y-1069408D01*
X763144Y-1052746D02*
Y-1065242D01*
X767310Y-1069408D01*
X771475Y-1065242D01*
X775640Y-1069408D01*
X779806Y-1065242D01*
Y-1052746D01*
X792302D02*
X800632D01*
X804798Y-1056912D01*
Y-1069408D01*
X792302D01*
X788136Y-1065242D01*
X792302Y-1061077D01*
X804798D01*
X813128Y-1052746D02*
Y-1069408D01*
Y-1061077D01*
X817293Y-1056912D01*
X821459Y-1052746D01*
X825624D01*
X850616Y-1069408D02*
X842286D01*
X838120Y-1065242D01*
Y-1056912D01*
X842286Y-1052746D01*
X850616D01*
X854781Y-1056912D01*
Y-1061077D01*
X838120D01*
X892269Y-1052746D02*
X900600D01*
X904765Y-1056912D01*
Y-1069408D01*
X892269D01*
X888104Y-1065242D01*
X892269Y-1061077D01*
X904765D01*
X913096Y-1069408D02*
Y-1052746D01*
X925592D01*
X929757Y-1056912D01*
Y-1069408D01*
X954749Y-1044416D02*
Y-1069408D01*
X942253D01*
X938088Y-1065242D01*
Y-1056912D01*
X942253Y-1052746D01*
X954749D01*
X992237Y-1069408D02*
X1000568D01*
X1004733Y-1065242D01*
Y-1056912D01*
X1000568Y-1052746D01*
X992237D01*
X988072Y-1056912D01*
Y-1065242D01*
X992237Y-1069408D01*
X1017229Y-1048581D02*
Y-1052746D01*
X1013064D01*
X1021394D01*
X1017229D01*
Y-1065242D01*
X1021394Y-1069408D01*
X1033890Y-1044416D02*
Y-1069408D01*
Y-1056912D01*
X1038055Y-1052746D01*
X1046386D01*
X1050552Y-1056912D01*
Y-1069408D01*
X1071378D02*
X1063047D01*
X1058882Y-1065242D01*
Y-1056912D01*
X1063047Y-1052746D01*
X1071378D01*
X1075543Y-1056912D01*
Y-1061077D01*
X1058882D01*
X1083874Y-1052746D02*
Y-1069408D01*
Y-1061077D01*
X1088039Y-1056912D01*
X1092205Y-1052746D01*
X1096370D01*
X-853000Y-1124529D02*
Y-1099537D01*
Y-1116198D02*
X-840504Y-1107867D01*
X-853000Y-1116198D02*
X-840504Y-1124529D01*
X-828008D02*
X-819678D01*
X-823843D01*
Y-1107867D01*
X-828008D01*
X-807181Y-1124529D02*
Y-1107867D01*
X-794686D01*
X-790520Y-1112033D01*
Y-1124529D01*
X-765528Y-1099537D02*
Y-1124529D01*
X-778024D01*
X-782190Y-1120363D01*
Y-1112033D01*
X-778024Y-1107867D01*
X-765528D01*
X-757198Y-1124529D02*
X-744702D01*
X-740536Y-1120363D01*
X-744702Y-1116198D01*
X-753032D01*
X-757198Y-1112033D01*
X-753032Y-1107867D01*
X-740536D01*
X-703048Y-1124529D02*
X-694718D01*
X-690553Y-1120363D01*
Y-1112033D01*
X-694718Y-1107867D01*
X-703048D01*
X-707214Y-1112033D01*
Y-1120363D01*
X-703048Y-1124529D01*
X-678057D02*
Y-1103702D01*
Y-1112033D01*
X-682222D01*
X-673891D01*
X-678057D01*
Y-1103702D01*
X-673891Y-1099537D01*
X-636403Y-1107867D02*
Y-1120363D01*
X-632238Y-1124529D01*
X-628073Y-1120363D01*
X-623907Y-1124529D01*
X-619742Y-1120363D01*
Y-1107867D01*
X-607246Y-1124529D02*
X-598915D01*
X-594750Y-1120363D01*
Y-1112033D01*
X-598915Y-1107867D01*
X-607246D01*
X-611411Y-1112033D01*
Y-1120363D01*
X-607246Y-1124529D01*
X-586419Y-1107867D02*
Y-1124529D01*
Y-1116198D01*
X-582254Y-1112033D01*
X-578089Y-1107867D01*
X-573923D01*
X-561428Y-1124529D02*
Y-1099537D01*
Y-1116198D02*
X-548932Y-1107867D01*
X-561428Y-1116198D02*
X-548932Y-1124529D01*
X-536436D02*
X-523940D01*
X-519774Y-1120363D01*
X-523940Y-1116198D01*
X-532270D01*
X-536436Y-1112033D01*
X-532270Y-1107867D01*
X-519774D01*
X-511444Y-1124529D02*
Y-1120363D01*
X-507278D01*
Y-1124529D01*
X-511444D01*
X-853000Y-1193117D02*
X-836339D01*
X-844669D01*
Y-1218109D01*
X-828008Y-1193117D02*
Y-1218109D01*
Y-1205613D01*
X-823843Y-1201448D01*
X-815512D01*
X-811347Y-1205613D01*
Y-1218109D01*
X-790520D02*
X-798851D01*
X-803016Y-1213944D01*
Y-1205613D01*
X-798851Y-1201448D01*
X-790520D01*
X-786355Y-1205613D01*
Y-1209779D01*
X-803016D01*
X-753032Y-1218109D02*
X-744702D01*
X-748867D01*
Y-1193117D01*
X-753032D01*
X-732206Y-1218109D02*
X-723875D01*
X-728040D01*
Y-1201448D01*
X-732206D01*
X-694718D02*
X-707214D01*
X-711379Y-1205613D01*
Y-1213944D01*
X-707214Y-1218109D01*
X-694718D01*
X-673891D02*
X-682222D01*
X-686387Y-1213944D01*
Y-1205613D01*
X-682222Y-1201448D01*
X-673891D01*
X-669726Y-1205613D01*
Y-1209779D01*
X-686387D01*
X-661395Y-1218109D02*
Y-1201448D01*
X-648899D01*
X-644734Y-1205613D01*
Y-1218109D01*
X-636403D02*
X-623907D01*
X-619742Y-1213944D01*
X-623907Y-1209779D01*
X-632238D01*
X-636403Y-1205613D01*
X-632238Y-1201448D01*
X-619742D01*
X-598915Y-1218109D02*
X-607246D01*
X-611411Y-1213944D01*
Y-1205613D01*
X-607246Y-1201448D01*
X-598915D01*
X-594750Y-1205613D01*
Y-1209779D01*
X-611411D01*
X-586419Y-1218109D02*
X-573923D01*
X-569758Y-1213944D01*
X-573923Y-1209779D01*
X-582254D01*
X-586419Y-1205613D01*
X-582254Y-1201448D01*
X-569758D01*
X-532270Y-1218109D02*
Y-1197283D01*
Y-1205613D01*
X-536436D01*
X-528105D01*
X-532270D01*
Y-1197283D01*
X-528105Y-1193117D01*
X-511444Y-1218109D02*
X-503113D01*
X-498948Y-1213944D01*
Y-1205613D01*
X-503113Y-1201448D01*
X-511444D01*
X-515609Y-1205613D01*
Y-1213944D01*
X-511444Y-1218109D01*
X-490617Y-1201448D02*
Y-1218109D01*
Y-1209779D01*
X-486452Y-1205613D01*
X-482286Y-1201448D01*
X-478121D01*
X-440633Y-1218109D02*
Y-1201448D01*
X-436468D01*
X-432303Y-1205613D01*
Y-1218109D01*
Y-1205613D01*
X-428137Y-1201448D01*
X-423972Y-1205613D01*
Y-1218109D01*
X-411476D02*
X-403145D01*
X-398980Y-1213944D01*
Y-1205613D01*
X-403145Y-1201448D01*
X-411476D01*
X-415641Y-1205613D01*
Y-1213944D01*
X-411476Y-1218109D01*
X-390649D02*
X-378153D01*
X-373988Y-1213944D01*
X-378153Y-1209779D01*
X-386484D01*
X-390649Y-1205613D01*
X-386484Y-1201448D01*
X-373988D01*
X-361492Y-1197283D02*
Y-1201448D01*
X-365658D01*
X-357327D01*
X-361492D01*
Y-1213944D01*
X-357327Y-1218109D01*
X-319839D02*
X-307343D01*
X-303178Y-1213944D01*
X-307343Y-1209779D01*
X-315674D01*
X-319839Y-1205613D01*
X-315674Y-1201448D01*
X-303178D01*
X-290682Y-1218109D02*
X-282351D01*
X-278186Y-1213944D01*
Y-1205613D01*
X-282351Y-1201448D01*
X-290682D01*
X-294847Y-1205613D01*
Y-1213944D01*
X-290682Y-1218109D01*
X-265690D02*
Y-1197283D01*
Y-1205613D01*
X-269855D01*
X-261525D01*
X-265690D01*
Y-1197283D01*
X-261525Y-1193117D01*
X-244863Y-1197283D02*
Y-1201448D01*
X-249028D01*
X-240698D01*
X-244863D01*
Y-1213944D01*
X-240698Y-1218109D01*
X-228202Y-1201448D02*
Y-1213944D01*
X-224037Y-1218109D01*
X-219871Y-1213944D01*
X-215706Y-1218109D01*
X-211541Y-1213944D01*
Y-1201448D01*
X-199045D02*
X-190714D01*
X-186549Y-1205613D01*
Y-1218109D01*
X-199045D01*
X-203210Y-1213944D01*
X-199045Y-1209779D01*
X-186549D01*
X-178218Y-1201448D02*
Y-1218109D01*
Y-1209779D01*
X-174053Y-1205613D01*
X-169887Y-1201448D01*
X-165722D01*
X-140730Y-1218109D02*
X-149061D01*
X-153226Y-1213944D01*
Y-1205613D01*
X-149061Y-1201448D01*
X-140730D01*
X-136565Y-1205613D01*
Y-1209779D01*
X-153226D01*
X-99077Y-1201448D02*
X-90746D01*
X-86581Y-1205613D01*
Y-1218109D01*
X-99077D01*
X-103242Y-1213944D01*
X-99077Y-1209779D01*
X-86581D01*
X-78250Y-1218109D02*
Y-1201448D01*
X-65754D01*
X-61589Y-1205613D01*
Y-1218109D01*
X-36597Y-1193117D02*
Y-1218109D01*
X-49093D01*
X-53259Y-1213944D01*
Y-1205613D01*
X-49093Y-1201448D01*
X-36597D01*
X891Y-1218109D02*
X9221D01*
X13387Y-1213944D01*
Y-1205613D01*
X9221Y-1201448D01*
X891D01*
X-3275Y-1205613D01*
Y-1213944D01*
X891Y-1218109D01*
X25883Y-1197283D02*
Y-1201448D01*
X21717D01*
X30048D01*
X25883D01*
Y-1213944D01*
X30048Y-1218109D01*
X42544Y-1193117D02*
Y-1218109D01*
Y-1205613D01*
X46709Y-1201448D01*
X55040D01*
X59205Y-1205613D01*
Y-1218109D01*
X80032D02*
X71701D01*
X67536Y-1213944D01*
Y-1205613D01*
X71701Y-1201448D01*
X80032D01*
X84197Y-1205613D01*
Y-1209779D01*
X67536D01*
X92528Y-1201448D02*
Y-1218109D01*
Y-1209779D01*
X96693Y-1205613D01*
X100858Y-1201448D01*
X105024D01*
X142512Y-1226440D02*
Y-1201448D01*
X155008D01*
X159173Y-1205613D01*
Y-1213944D01*
X155008Y-1218109D01*
X142512D01*
X167504Y-1201448D02*
Y-1218109D01*
Y-1209779D01*
X171669Y-1205613D01*
X175834Y-1201448D01*
X180000D01*
X196661D02*
X204991D01*
X209157Y-1205613D01*
Y-1218109D01*
X196661D01*
X192495Y-1213944D01*
X196661Y-1209779D01*
X209157D01*
X234149Y-1201448D02*
X221653D01*
X217487Y-1205613D01*
Y-1213944D01*
X221653Y-1218109D01*
X234149D01*
X246645Y-1197283D02*
Y-1201448D01*
X242479D01*
X250810D01*
X246645D01*
Y-1213944D01*
X250810Y-1218109D01*
X263306D02*
X271637D01*
X267471D01*
Y-1201448D01*
X263306D01*
X300794D02*
X288298D01*
X284132Y-1205613D01*
Y-1213944D01*
X288298Y-1218109D01*
X300794D01*
X313290Y-1201448D02*
X321620D01*
X325786Y-1205613D01*
Y-1218109D01*
X313290D01*
X309124Y-1213944D01*
X313290Y-1209779D01*
X325786D01*
X334116Y-1218109D02*
X342447D01*
X338282D01*
Y-1193117D01*
X334116D01*
X379935Y-1201448D02*
Y-1213944D01*
X384100Y-1218109D01*
X388265Y-1213944D01*
X392431Y-1218109D01*
X396596Y-1213944D01*
Y-1201448D01*
X409092Y-1218109D02*
X417423D01*
X421588Y-1213944D01*
Y-1205613D01*
X417423Y-1201448D01*
X409092D01*
X404927Y-1205613D01*
Y-1213944D01*
X409092Y-1218109D01*
X429919Y-1201448D02*
Y-1218109D01*
Y-1209779D01*
X434084Y-1205613D01*
X438249Y-1201448D01*
X442415D01*
X454911Y-1218109D02*
Y-1193117D01*
Y-1209779D02*
X467407Y-1201448D01*
X454911Y-1209779D02*
X467407Y-1218109D01*
X479903D02*
X492398D01*
X496564Y-1213944D01*
X492398Y-1209779D01*
X484068D01*
X479903Y-1205613D01*
X484068Y-1201448D01*
X496564D01*
X534052D02*
X542382D01*
X546548Y-1205613D01*
Y-1218109D01*
X534052D01*
X529886Y-1213944D01*
X534052Y-1209779D01*
X546548D01*
X554878Y-1201448D02*
Y-1218109D01*
Y-1209779D01*
X559044Y-1205613D01*
X563209Y-1201448D01*
X567374D01*
X592366Y-1218109D02*
X584036D01*
X579870Y-1213944D01*
Y-1205613D01*
X584036Y-1201448D01*
X592366D01*
X596531Y-1205613D01*
Y-1209779D01*
X579870D01*
X646515Y-1193117D02*
Y-1218109D01*
X634019D01*
X629854Y-1213944D01*
Y-1205613D01*
X634019Y-1201448D01*
X646515D01*
X667342Y-1218109D02*
X659011D01*
X654846Y-1213944D01*
Y-1205613D01*
X659011Y-1201448D01*
X667342D01*
X671507Y-1205613D01*
Y-1209779D01*
X654846D01*
X679838Y-1218109D02*
X692334D01*
X696499Y-1213944D01*
X692334Y-1209779D01*
X684003D01*
X679838Y-1205613D01*
X684003Y-1201448D01*
X696499D01*
X704830Y-1218109D02*
X713160D01*
X708995D01*
Y-1201448D01*
X704830D01*
X733987Y-1226440D02*
X738152D01*
X742318Y-1222274D01*
Y-1201448D01*
X729822D01*
X725657Y-1205613D01*
Y-1213944D01*
X729822Y-1218109D01*
X742318D01*
X750648D02*
Y-1201448D01*
X763144D01*
X767310Y-1205613D01*
Y-1218109D01*
X788136D02*
X779806D01*
X775640Y-1213944D01*
Y-1205613D01*
X779806Y-1201448D01*
X788136D01*
X792302Y-1205613D01*
Y-1209779D01*
X775640D01*
X817293Y-1193117D02*
Y-1218109D01*
X804798D01*
X800632Y-1213944D01*
Y-1205613D01*
X804798Y-1201448D01*
X817293D01*
X854781Y-1197283D02*
Y-1201448D01*
X850616D01*
X858947D01*
X854781D01*
Y-1213944D01*
X858947Y-1218109D01*
X875608D02*
X883939D01*
X888104Y-1213944D01*
Y-1205613D01*
X883939Y-1201448D01*
X875608D01*
X871443Y-1205613D01*
Y-1213944D01*
X875608Y-1218109D01*
X925592Y-1197283D02*
Y-1201448D01*
X921427D01*
X929757D01*
X925592D01*
Y-1213944D01*
X929757Y-1218109D01*
X946419Y-1201448D02*
X954749D01*
X958914Y-1205613D01*
Y-1218109D01*
X946419D01*
X942253Y-1213944D01*
X946419Y-1209779D01*
X958914D01*
X967245Y-1218109D02*
Y-1193117D01*
Y-1209779D02*
X979741Y-1201448D01*
X967245Y-1209779D02*
X979741Y-1218109D01*
X1004733D02*
X996402D01*
X992237Y-1213944D01*
Y-1205613D01*
X996402Y-1201448D01*
X1004733D01*
X1008898Y-1205613D01*
Y-1209779D01*
X992237D01*
X1046386Y-1201448D02*
X1054717D01*
X1058882Y-1205613D01*
Y-1218109D01*
X1046386D01*
X1042221Y-1213944D01*
X1046386Y-1209779D01*
X1058882D01*
X1067213Y-1201448D02*
Y-1213944D01*
X1071378Y-1218109D01*
X1075543Y-1213944D01*
X1079709Y-1218109D01*
X1083874Y-1213944D01*
Y-1201448D01*
X1096370D02*
X1104701D01*
X1108866Y-1205613D01*
Y-1218109D01*
X1096370D01*
X1092205Y-1213944D01*
X1096370Y-1209779D01*
X1108866D01*
X1117197Y-1201448D02*
Y-1213944D01*
X1121362Y-1218109D01*
X1133858D01*
Y-1222274D01*
X1129693Y-1226440D01*
X1125527D01*
X1133858Y-1218109D02*
Y-1201448D01*
X-853000Y-1256569D02*
Y-1269065D01*
X-848835Y-1273230D01*
X-836339D01*
Y-1277395D01*
X-840504Y-1281561D01*
X-844669D01*
X-836339Y-1273230D02*
Y-1256569D01*
X-823843Y-1273230D02*
X-815512D01*
X-811347Y-1269065D01*
Y-1260734D01*
X-815512Y-1256569D01*
X-823843D01*
X-828008Y-1260734D01*
Y-1269065D01*
X-823843Y-1273230D01*
X-803016Y-1256569D02*
Y-1269065D01*
X-798851Y-1273230D01*
X-786355D01*
Y-1256569D01*
X-778024D02*
Y-1273230D01*
Y-1264900D01*
X-773859Y-1260734D01*
X-769694Y-1256569D01*
X-765528D01*
X-723875Y-1273230D02*
Y-1252403D01*
Y-1260734D01*
X-728040D01*
X-719710D01*
X-723875D01*
Y-1252403D01*
X-719710Y-1248238D01*
X-707214Y-1256569D02*
Y-1273230D01*
Y-1264900D01*
X-703048Y-1260734D01*
X-698883Y-1256569D01*
X-694718D01*
X-669726Y-1273230D02*
X-678057D01*
X-682222Y-1269065D01*
Y-1260734D01*
X-678057Y-1256569D01*
X-669726D01*
X-665561Y-1260734D01*
Y-1264900D01*
X-682222D01*
X-644734Y-1273230D02*
X-653065D01*
X-657230Y-1269065D01*
Y-1260734D01*
X-653065Y-1256569D01*
X-644734D01*
X-640569Y-1260734D01*
Y-1264900D01*
X-657230D01*
X-615577Y-1248238D02*
Y-1273230D01*
X-628073D01*
X-632238Y-1269065D01*
Y-1260734D01*
X-628073Y-1256569D01*
X-615577D01*
X-603081Y-1273230D02*
X-594750D01*
X-590585Y-1269065D01*
Y-1260734D01*
X-594750Y-1256569D01*
X-603081D01*
X-607246Y-1260734D01*
Y-1269065D01*
X-603081Y-1273230D01*
X-582254D02*
Y-1256569D01*
X-578089D01*
X-573923Y-1260734D01*
Y-1273230D01*
Y-1260734D01*
X-569758Y-1256569D01*
X-565593Y-1260734D01*
Y-1273230D01*
X-528105Y-1252403D02*
Y-1256569D01*
X-532270D01*
X-523940D01*
X-528105D01*
Y-1269065D01*
X-523940Y-1273230D01*
X-507278D02*
X-498948D01*
X-494782Y-1269065D01*
Y-1260734D01*
X-498948Y-1256569D01*
X-507278D01*
X-511444Y-1260734D01*
Y-1269065D01*
X-507278Y-1273230D01*
X-461460D02*
X-448964D01*
X-444799Y-1269065D01*
X-448964Y-1264900D01*
X-457295D01*
X-461460Y-1260734D01*
X-457295Y-1256569D01*
X-444799D01*
X-436468Y-1248238D02*
Y-1273230D01*
Y-1260734D01*
X-432303Y-1256569D01*
X-423972D01*
X-419807Y-1260734D01*
Y-1273230D01*
X-407311Y-1256569D02*
X-398980D01*
X-394815Y-1260734D01*
Y-1273230D01*
X-407311D01*
X-411476Y-1269065D01*
X-407311Y-1264900D01*
X-394815D01*
X-386484Y-1256569D02*
Y-1273230D01*
Y-1264900D01*
X-382319Y-1260734D01*
X-378153Y-1256569D01*
X-373988D01*
X-348996Y-1273230D02*
X-357327D01*
X-361492Y-1269065D01*
Y-1260734D01*
X-357327Y-1256569D01*
X-348996D01*
X-344831Y-1260734D01*
Y-1264900D01*
X-361492D01*
X-307343Y-1256569D02*
X-299012D01*
X-294847Y-1260734D01*
Y-1273230D01*
X-307343D01*
X-311508Y-1269065D01*
X-307343Y-1264900D01*
X-294847D01*
X-286516Y-1273230D02*
Y-1256569D01*
X-274021D01*
X-269855Y-1260734D01*
Y-1273230D01*
X-244863Y-1248238D02*
Y-1273230D01*
X-257359D01*
X-261525Y-1269065D01*
Y-1260734D01*
X-257359Y-1256569D01*
X-244863D01*
X-194879D02*
X-207375D01*
X-211541Y-1260734D01*
Y-1269065D01*
X-207375Y-1273230D01*
X-194879D01*
X-186549Y-1248238D02*
Y-1273230D01*
Y-1260734D01*
X-182383Y-1256569D01*
X-174053D01*
X-169887Y-1260734D01*
Y-1273230D01*
X-157392Y-1256569D02*
X-149061D01*
X-144895Y-1260734D01*
Y-1273230D01*
X-157392D01*
X-161557Y-1269065D01*
X-157392Y-1264900D01*
X-144895D01*
X-136565Y-1273230D02*
Y-1256569D01*
X-124069D01*
X-119904Y-1260734D01*
Y-1273230D01*
X-103242Y-1281561D02*
X-99077D01*
X-94912Y-1277395D01*
Y-1256569D01*
X-107408D01*
X-111573Y-1260734D01*
Y-1269065D01*
X-107408Y-1273230D01*
X-94912D01*
X-74085D02*
X-82416D01*
X-86581Y-1269065D01*
Y-1260734D01*
X-82416Y-1256569D01*
X-74085D01*
X-69920Y-1260734D01*
Y-1264900D01*
X-86581D01*
X-32432Y-1252403D02*
Y-1256569D01*
X-36597D01*
X-28266D01*
X-32432D01*
Y-1269065D01*
X-28266Y-1273230D01*
X-15771Y-1248238D02*
Y-1273230D01*
Y-1260734D01*
X-11605Y-1256569D01*
X-3275D01*
X891Y-1260734D01*
Y-1273230D01*
X21717D02*
X13387D01*
X9221Y-1269065D01*
Y-1260734D01*
X13387Y-1256569D01*
X21717D01*
X25883Y-1260734D01*
Y-1264900D01*
X9221D01*
X59205Y-1256569D02*
Y-1269065D01*
X63370Y-1273230D01*
X67536Y-1269065D01*
X71701Y-1273230D01*
X75866Y-1269065D01*
Y-1256569D01*
X88362Y-1273230D02*
X96693D01*
X100858Y-1269065D01*
Y-1260734D01*
X96693Y-1256569D01*
X88362D01*
X84197Y-1260734D01*
Y-1269065D01*
X88362Y-1273230D01*
X109189Y-1256569D02*
Y-1273230D01*
Y-1264900D01*
X113354Y-1260734D01*
X117520Y-1256569D01*
X121685D01*
X134181Y-1273230D02*
Y-1248238D01*
Y-1264900D02*
X146677Y-1256569D01*
X134181Y-1264900D02*
X146677Y-1273230D01*
X159173D02*
X171669D01*
X175834Y-1269065D01*
X171669Y-1264900D01*
X163338D01*
X159173Y-1260734D01*
X163338Y-1256569D01*
X175834D01*
X184165Y-1273230D02*
Y-1269065D01*
X188330D01*
Y-1273230D01*
X184165D01*
X229983Y-1248238D02*
Y-1273230D01*
X242479D01*
X246645Y-1269065D01*
Y-1264900D01*
X242479Y-1260734D01*
X229983D01*
X242479D01*
X246645Y-1256569D01*
Y-1252403D01*
X242479Y-1248238D01*
X229983D01*
X254975Y-1256569D02*
Y-1269065D01*
X259141Y-1273230D01*
X271637D01*
Y-1277395D01*
X267471Y-1281561D01*
X263306D01*
X271637Y-1273230D02*
Y-1256569D01*
X321620D02*
X309124D01*
X304959Y-1260734D01*
Y-1269065D01*
X309124Y-1273230D01*
X321620D01*
X334116D02*
X342447D01*
X346612Y-1269065D01*
Y-1260734D01*
X342447Y-1256569D01*
X334116D01*
X329951Y-1260734D01*
Y-1269065D01*
X334116Y-1273230D01*
X354943D02*
Y-1256569D01*
X367439D01*
X371604Y-1260734D01*
Y-1273230D01*
X384100Y-1252403D02*
Y-1256569D01*
X379935D01*
X388265D01*
X384100D01*
Y-1269065D01*
X388265Y-1273230D01*
X400761Y-1256569D02*
Y-1273230D01*
Y-1264900D01*
X404927Y-1260734D01*
X409092Y-1256569D01*
X413257D01*
X429919D02*
X438249D01*
X442415Y-1260734D01*
Y-1273230D01*
X429919D01*
X425753Y-1269065D01*
X429919Y-1264900D01*
X442415D01*
X450745Y-1273230D02*
X463241D01*
X467407Y-1269065D01*
X463241Y-1264900D01*
X454911D01*
X450745Y-1260734D01*
X454911Y-1256569D01*
X467407D01*
X479903Y-1252403D02*
Y-1256569D01*
X475737D01*
X484068D01*
X479903D01*
Y-1269065D01*
X484068Y-1273230D01*
X500729Y-1277395D02*
X504894Y-1273230D01*
Y-1269065D01*
X500729D01*
Y-1273230D01*
X504894D01*
X500729Y-1277395D01*
X496564Y-1281561D01*
X550713Y-1252403D02*
Y-1256569D01*
X546548D01*
X554878D01*
X550713D01*
Y-1269065D01*
X554878Y-1273230D01*
X567374Y-1248238D02*
Y-1273230D01*
Y-1260734D01*
X571540Y-1256569D01*
X579870D01*
X584036Y-1260734D01*
Y-1273230D01*
X604862D02*
X596531D01*
X592366Y-1269065D01*
Y-1260734D01*
X596531Y-1256569D01*
X604862D01*
X609027Y-1260734D01*
Y-1264900D01*
X592366D01*
X659011Y-1252403D02*
X654846Y-1248238D01*
X646515D01*
X642350Y-1252403D01*
Y-1269065D01*
X646515Y-1273230D01*
X654846D01*
X659011Y-1269065D01*
Y-1260734D01*
X650681D01*
X667342Y-1273230D02*
Y-1248238D01*
X684003Y-1273230D01*
Y-1248238D01*
X692334D02*
Y-1269065D01*
X696499Y-1273230D01*
X704830D01*
X708995Y-1269065D01*
Y-1248238D01*
X758979Y-1252403D02*
X754814Y-1248238D01*
X746483D01*
X742318Y-1252403D01*
Y-1269065D01*
X746483Y-1273230D01*
X754814D01*
X758979Y-1269065D01*
Y-1260734D01*
X750648D01*
X779806Y-1273230D02*
X771475D01*
X767310Y-1269065D01*
Y-1260734D01*
X771475Y-1256569D01*
X779806D01*
X783971Y-1260734D01*
Y-1264900D01*
X767310D01*
X792302Y-1273230D02*
Y-1256569D01*
X804798D01*
X808963Y-1260734D01*
Y-1273230D01*
X829790D02*
X821459D01*
X817293Y-1269065D01*
Y-1260734D01*
X821459Y-1256569D01*
X829790D01*
X833955Y-1260734D01*
Y-1264900D01*
X817293D01*
X842286Y-1256569D02*
Y-1273230D01*
Y-1264900D01*
X846451Y-1260734D01*
X850616Y-1256569D01*
X854781D01*
X871443D02*
X879773D01*
X883939Y-1260734D01*
Y-1273230D01*
X871443D01*
X867277Y-1269065D01*
X871443Y-1264900D01*
X883939D01*
X892269Y-1273230D02*
X900600D01*
X896435D01*
Y-1248238D01*
X892269D01*
X938088Y-1273230D02*
Y-1248238D01*
X950584D01*
X954749Y-1252403D01*
Y-1260734D01*
X950584Y-1264900D01*
X938088D01*
X963080Y-1256569D02*
Y-1269065D01*
X967245Y-1273230D01*
X979741D01*
Y-1256569D01*
X988072Y-1248238D02*
Y-1273230D01*
X1000568D01*
X1004733Y-1269065D01*
Y-1264900D01*
Y-1260734D01*
X1000568Y-1256569D01*
X988072D01*
X1013064Y-1273230D02*
X1021394D01*
X1017229D01*
Y-1248238D01*
X1013064D01*
X1033890Y-1273230D02*
X1042221D01*
X1038055D01*
Y-1256569D01*
X1033890D01*
X1071378D02*
X1058882D01*
X1054717Y-1260734D01*
Y-1269065D01*
X1058882Y-1273230D01*
X1071378D01*
X-853000Y-1303359D02*
Y-1328351D01*
X-836339D01*
X-828008D02*
X-819678D01*
X-823843D01*
Y-1311690D01*
X-828008D01*
X-790520D02*
X-803016D01*
X-807181Y-1315855D01*
Y-1324186D01*
X-803016Y-1328351D01*
X-790520D01*
X-769694D02*
X-778024D01*
X-782190Y-1324186D01*
Y-1315855D01*
X-778024Y-1311690D01*
X-769694D01*
X-765528Y-1315855D01*
Y-1320020D01*
X-782190D01*
X-757198Y-1328351D02*
Y-1311690D01*
X-744702D01*
X-740536Y-1315855D01*
Y-1328351D01*
X-732206D02*
X-719710D01*
X-715544Y-1324186D01*
X-719710Y-1320020D01*
X-728040D01*
X-732206Y-1315855D01*
X-728040Y-1311690D01*
X-715544D01*
X-694718Y-1328351D02*
X-703048D01*
X-707214Y-1324186D01*
Y-1315855D01*
X-703048Y-1311690D01*
X-694718D01*
X-690553Y-1315855D01*
Y-1320020D01*
X-707214D01*
X-657230Y-1328351D02*
X-648899D01*
X-653065D01*
Y-1311690D01*
X-657230D01*
X-636403Y-1328351D02*
X-623907D01*
X-619742Y-1324186D01*
X-623907Y-1320020D01*
X-632238D01*
X-636403Y-1315855D01*
X-632238Y-1311690D01*
X-619742D01*
X-586419Y-1328351D02*
X-578089D01*
X-582254D01*
Y-1311690D01*
X-586419D01*
X-565593Y-1328351D02*
Y-1311690D01*
X-553097D01*
X-548932Y-1315855D01*
Y-1328351D01*
X-536436Y-1307524D02*
Y-1311690D01*
X-540601D01*
X-532270D01*
X-536436D01*
Y-1324186D01*
X-532270Y-1328351D01*
X-507278D02*
X-515609D01*
X-519774Y-1324186D01*
Y-1315855D01*
X-515609Y-1311690D01*
X-507278D01*
X-503113Y-1315855D01*
Y-1320020D01*
X-519774D01*
X-494782Y-1328351D02*
Y-1311690D01*
X-482286D01*
X-478121Y-1315855D01*
Y-1328351D01*
X-453129Y-1303359D02*
Y-1328351D01*
X-465625D01*
X-469790Y-1324186D01*
Y-1315855D01*
X-465625Y-1311690D01*
X-453129D01*
X-432303Y-1328351D02*
X-440633D01*
X-444799Y-1324186D01*
Y-1315855D01*
X-440633Y-1311690D01*
X-432303D01*
X-428137Y-1315855D01*
Y-1320020D01*
X-444799D01*
X-403145Y-1303359D02*
Y-1328351D01*
X-415641D01*
X-419807Y-1324186D01*
Y-1315855D01*
X-415641Y-1311690D01*
X-403145D01*
X-365658Y-1307524D02*
Y-1311690D01*
X-369823D01*
X-361492D01*
X-365658D01*
Y-1324186D01*
X-361492Y-1328351D01*
X-344831D02*
X-336500D01*
X-332335Y-1324186D01*
Y-1315855D01*
X-336500Y-1311690D01*
X-344831D01*
X-348996Y-1315855D01*
Y-1324186D01*
X-344831Y-1328351D01*
X-290682Y-1336682D02*
X-286516D01*
X-282351Y-1332516D01*
Y-1311690D01*
X-294847D01*
X-299012Y-1315855D01*
Y-1324186D01*
X-294847Y-1328351D01*
X-282351D01*
X-274021Y-1311690D02*
Y-1324186D01*
X-269855Y-1328351D01*
X-257359D01*
Y-1311690D01*
X-244863D02*
X-236533D01*
X-232367Y-1315855D01*
Y-1328351D01*
X-244863D01*
X-249028Y-1324186D01*
X-244863Y-1320020D01*
X-232367D01*
X-224037Y-1311690D02*
Y-1328351D01*
Y-1320020D01*
X-219871Y-1315855D01*
X-215706Y-1311690D01*
X-211541D01*
X-194879D02*
X-186549D01*
X-182383Y-1315855D01*
Y-1328351D01*
X-194879D01*
X-199045Y-1324186D01*
X-194879Y-1320020D01*
X-182383D01*
X-174053Y-1328351D02*
Y-1311690D01*
X-161557D01*
X-157392Y-1315855D01*
Y-1328351D01*
X-144895Y-1307524D02*
Y-1311690D01*
X-149061D01*
X-140730D01*
X-144895D01*
Y-1324186D01*
X-140730Y-1328351D01*
X-115738D02*
X-124069D01*
X-128234Y-1324186D01*
Y-1315855D01*
X-124069Y-1311690D01*
X-115738D01*
X-111573Y-1315855D01*
Y-1320020D01*
X-128234D01*
X-90746Y-1328351D02*
X-99077D01*
X-103242Y-1324186D01*
Y-1315855D01*
X-99077Y-1311690D01*
X-90746D01*
X-86581Y-1315855D01*
Y-1320020D01*
X-103242D01*
X-53259Y-1311690D02*
Y-1324186D01*
X-49093Y-1328351D01*
X-36597D01*
Y-1332516D01*
X-40763Y-1336682D01*
X-44928D01*
X-36597Y-1328351D02*
Y-1311690D01*
X-24101Y-1328351D02*
X-15771D01*
X-11605Y-1324186D01*
Y-1315855D01*
X-15771Y-1311690D01*
X-24101D01*
X-28266Y-1315855D01*
Y-1324186D01*
X-24101Y-1328351D01*
X-3275Y-1311690D02*
Y-1324186D01*
X891Y-1328351D01*
X13387D01*
Y-1311690D01*
X21717D02*
Y-1328351D01*
Y-1320020D01*
X25883Y-1315855D01*
X30048Y-1311690D01*
X34213D01*
X75866Y-1328351D02*
Y-1307524D01*
Y-1315855D01*
X71701D01*
X80032D01*
X75866D01*
Y-1307524D01*
X80032Y-1303359D01*
X92528Y-1311690D02*
Y-1328351D01*
Y-1320020D01*
X96693Y-1315855D01*
X100858Y-1311690D01*
X105024D01*
X130016Y-1328351D02*
X121685D01*
X117520Y-1324186D01*
Y-1315855D01*
X121685Y-1311690D01*
X130016D01*
X134181Y-1315855D01*
Y-1320020D01*
X117520D01*
X155008Y-1328351D02*
X146677D01*
X142512Y-1324186D01*
Y-1315855D01*
X146677Y-1311690D01*
X155008D01*
X159173Y-1315855D01*
Y-1320020D01*
X142512D01*
X184165Y-1303359D02*
Y-1328351D01*
X171669D01*
X167504Y-1324186D01*
Y-1315855D01*
X171669Y-1311690D01*
X184165D01*
X196661Y-1328351D02*
X204991D01*
X209157Y-1324186D01*
Y-1315855D01*
X204991Y-1311690D01*
X196661D01*
X192495Y-1315855D01*
Y-1324186D01*
X196661Y-1328351D01*
X217487D02*
Y-1311690D01*
X221653D01*
X225818Y-1315855D01*
Y-1328351D01*
Y-1315855D01*
X229983Y-1311690D01*
X234149Y-1315855D01*
Y-1328351D01*
X271637Y-1307524D02*
Y-1311690D01*
X267471D01*
X275802D01*
X271637D01*
Y-1324186D01*
X275802Y-1328351D01*
X292463D02*
X300794D01*
X304959Y-1324186D01*
Y-1315855D01*
X300794Y-1311690D01*
X292463D01*
X288298Y-1315855D01*
Y-1324186D01*
X292463Y-1328351D01*
X338282D02*
X350778D01*
X354943Y-1324186D01*
X350778Y-1320020D01*
X342447D01*
X338282Y-1315855D01*
X342447Y-1311690D01*
X354943D01*
X363274Y-1303359D02*
Y-1328351D01*
Y-1315855D01*
X367439Y-1311690D01*
X375770D01*
X379935Y-1315855D01*
Y-1328351D01*
X392431Y-1311690D02*
X400761D01*
X404927Y-1315855D01*
Y-1328351D01*
X392431D01*
X388265Y-1324186D01*
X392431Y-1320020D01*
X404927D01*
X413257Y-1311690D02*
Y-1328351D01*
Y-1320020D01*
X417423Y-1315855D01*
X421588Y-1311690D01*
X425753D01*
X450745Y-1328351D02*
X442415D01*
X438249Y-1324186D01*
Y-1315855D01*
X442415Y-1311690D01*
X450745D01*
X454911Y-1315855D01*
Y-1320020D01*
X438249D01*
X492398Y-1311690D02*
X500729D01*
X504894Y-1315855D01*
Y-1328351D01*
X492398D01*
X488233Y-1324186D01*
X492398Y-1320020D01*
X504894D01*
X513225Y-1328351D02*
Y-1311690D01*
X525721D01*
X529886Y-1315855D01*
Y-1328351D01*
X554878Y-1303359D02*
Y-1328351D01*
X542382D01*
X538217Y-1324186D01*
Y-1315855D01*
X542382Y-1311690D01*
X554878D01*
X604862D02*
X592366D01*
X588201Y-1315855D01*
Y-1324186D01*
X592366Y-1328351D01*
X604862D01*
X613193Y-1303359D02*
Y-1328351D01*
Y-1315855D01*
X617358Y-1311690D01*
X625689D01*
X629854Y-1315855D01*
Y-1328351D01*
X642350Y-1311690D02*
X650681D01*
X654846Y-1315855D01*
Y-1328351D01*
X642350D01*
X638185Y-1324186D01*
X642350Y-1320020D01*
X654846D01*
X663177Y-1328351D02*
Y-1311690D01*
X675673D01*
X679838Y-1315855D01*
Y-1328351D01*
X696499Y-1336682D02*
X700665D01*
X704830Y-1332516D01*
Y-1311690D01*
X692334D01*
X688169Y-1315855D01*
Y-1324186D01*
X692334Y-1328351D01*
X704830D01*
X725657D02*
X717326D01*
X713160Y-1324186D01*
Y-1315855D01*
X717326Y-1311690D01*
X725657D01*
X729822Y-1315855D01*
Y-1320020D01*
X713160D01*
X767310Y-1311690D02*
X775640D01*
X779806Y-1315855D01*
Y-1328351D01*
X767310D01*
X763144Y-1324186D01*
X767310Y-1320020D01*
X779806D01*
X788136Y-1328351D02*
X796467D01*
X792302D01*
Y-1303359D01*
X788136D01*
X808963Y-1328351D02*
X817293D01*
X813128D01*
Y-1303359D01*
X808963D01*
X854781Y-1311690D02*
X863112Y-1328351D01*
X871443Y-1311690D01*
X892269Y-1328351D02*
X883939D01*
X879773Y-1324186D01*
Y-1315855D01*
X883939Y-1311690D01*
X892269D01*
X896435Y-1315855D01*
Y-1320020D01*
X879773D01*
X904765Y-1311690D02*
Y-1328351D01*
Y-1320020D01*
X908931Y-1315855D01*
X913096Y-1311690D01*
X917261D01*
X929757Y-1328351D02*
X942253D01*
X946419Y-1324186D01*
X942253Y-1320020D01*
X933923D01*
X929757Y-1315855D01*
X933923Y-1311690D01*
X946419D01*
X954749Y-1328351D02*
X963080D01*
X958914D01*
Y-1311690D01*
X954749D01*
X979741Y-1328351D02*
X988072D01*
X992237Y-1324186D01*
Y-1315855D01*
X988072Y-1311690D01*
X979741D01*
X975576Y-1315855D01*
Y-1324186D01*
X979741Y-1328351D01*
X1000568D02*
Y-1311690D01*
X1013064D01*
X1017229Y-1315855D01*
Y-1328351D01*
X1025560D02*
X1038055D01*
X1042221Y-1324186D01*
X1038055Y-1320020D01*
X1029725D01*
X1025560Y-1315855D01*
X1029725Y-1311690D01*
X1042221D01*
X1079709Y-1328351D02*
X1088039D01*
X1092205Y-1324186D01*
Y-1315855D01*
X1088039Y-1311690D01*
X1079709D01*
X1075543Y-1315855D01*
Y-1324186D01*
X1079709Y-1328351D01*
X1104701D02*
Y-1307524D01*
Y-1315855D01*
X1100535D01*
X1108866D01*
X1104701D01*
Y-1307524D01*
X1108866Y-1303359D01*
X1150519Y-1311690D02*
X1158850D01*
X1163015Y-1315855D01*
Y-1328351D01*
X1150519D01*
X1146354Y-1324186D01*
X1150519Y-1320020D01*
X1163015D01*
X-853000Y-1391803D02*
Y-1366811D01*
X-840504D01*
X-836339Y-1370976D01*
Y-1379307D01*
X-840504Y-1383472D01*
X-853000D01*
X-828008Y-1366811D02*
Y-1383472D01*
Y-1375141D01*
X-823843Y-1370976D01*
X-819678Y-1366811D01*
X-815512D01*
X-798851Y-1383472D02*
X-790520D01*
X-786355Y-1379307D01*
Y-1370976D01*
X-790520Y-1366811D01*
X-798851D01*
X-803016Y-1370976D01*
Y-1379307D01*
X-798851Y-1383472D01*
X-769694Y-1391803D02*
X-765528D01*
X-761363Y-1387637D01*
Y-1366811D01*
X-773859D01*
X-778024Y-1370976D01*
Y-1379307D01*
X-773859Y-1383472D01*
X-761363D01*
X-753032Y-1366811D02*
Y-1383472D01*
Y-1375141D01*
X-748867Y-1370976D01*
X-744702Y-1366811D01*
X-740536D01*
X-723875D02*
X-715544D01*
X-711379Y-1370976D01*
Y-1383472D01*
X-723875D01*
X-728040Y-1379307D01*
X-723875Y-1375141D01*
X-711379D01*
X-703048Y-1383472D02*
Y-1366811D01*
X-698883D01*
X-694718Y-1370976D01*
Y-1383472D01*
Y-1370976D01*
X-690553Y-1366811D01*
X-686387Y-1370976D01*
Y-1383472D01*
X-678057Y-1370976D02*
X-661395D01*
X-653065D02*
X-636403D01*
X-623907Y-1362645D02*
Y-1366811D01*
X-628073D01*
X-619742D01*
X-623907D01*
Y-1379307D01*
X-619742Y-1383472D01*
X-603081D02*
X-594750D01*
X-590585Y-1379307D01*
Y-1370976D01*
X-594750Y-1366811D01*
X-603081D01*
X-607246Y-1370976D01*
Y-1379307D01*
X-603081Y-1383472D01*
X-557262D02*
Y-1366811D01*
X-553097D01*
X-548932Y-1370976D01*
Y-1383472D01*
Y-1370976D01*
X-544766Y-1366811D01*
X-540601Y-1370976D01*
Y-1383472D01*
X-528105Y-1366811D02*
X-519774D01*
X-515609Y-1370976D01*
Y-1383472D01*
X-528105D01*
X-532270Y-1379307D01*
X-528105Y-1375141D01*
X-515609D01*
X-507278Y-1383472D02*
Y-1358480D01*
Y-1375141D02*
X-494782Y-1366811D01*
X-507278Y-1375141D02*
X-494782Y-1383472D01*
X-469790D02*
X-478121D01*
X-482286Y-1379307D01*
Y-1370976D01*
X-478121Y-1366811D01*
X-469790D01*
X-465625Y-1370976D01*
Y-1375141D01*
X-482286D01*
X-432303Y-1383472D02*
X-419807D01*
X-415641Y-1379307D01*
X-419807Y-1375141D01*
X-428137D01*
X-432303Y-1370976D01*
X-428137Y-1366811D01*
X-415641D01*
X-407311D02*
Y-1379307D01*
X-403145Y-1383472D01*
X-390649D01*
Y-1366811D01*
X-382319D02*
Y-1383472D01*
Y-1375141D01*
X-378153Y-1370976D01*
X-373988Y-1366811D01*
X-369823D01*
X-344831Y-1383472D02*
X-353162D01*
X-357327Y-1379307D01*
Y-1370976D01*
X-353162Y-1366811D01*
X-344831D01*
X-340666Y-1370976D01*
Y-1375141D01*
X-357327D01*
X-307343Y-1383472D02*
X-299012D01*
X-303178D01*
Y-1366811D01*
X-307343D01*
X-282351Y-1362645D02*
Y-1366811D01*
X-286516D01*
X-278186D01*
X-282351D01*
Y-1379307D01*
X-278186Y-1383472D01*
X-240698Y-1366811D02*
Y-1383472D01*
Y-1375141D01*
X-236533Y-1370976D01*
X-232367Y-1366811D01*
X-228202D01*
X-203210Y-1383472D02*
X-211541D01*
X-215706Y-1379307D01*
Y-1370976D01*
X-211541Y-1366811D01*
X-203210D01*
X-199045Y-1370976D01*
Y-1375141D01*
X-215706D01*
X-190714Y-1383472D02*
Y-1366811D01*
X-186549D01*
X-182383Y-1370976D01*
Y-1383472D01*
Y-1370976D01*
X-178218Y-1366811D01*
X-174053Y-1370976D01*
Y-1383472D01*
X-161557Y-1366811D02*
X-153226D01*
X-149061Y-1370976D01*
Y-1383472D01*
X-161557D01*
X-165722Y-1379307D01*
X-161557Y-1375141D01*
X-149061D01*
X-140730Y-1383472D02*
X-132400D01*
X-136565D01*
Y-1366811D01*
X-140730D01*
X-119904Y-1383472D02*
Y-1366811D01*
X-107408D01*
X-103242Y-1370976D01*
Y-1383472D01*
X-94912D02*
X-82416D01*
X-78250Y-1379307D01*
X-82416Y-1375141D01*
X-90746D01*
X-94912Y-1370976D01*
X-90746Y-1366811D01*
X-78250D01*
X-40763Y-1383472D02*
Y-1362645D01*
Y-1370976D01*
X-44928D01*
X-36597D01*
X-40763D01*
Y-1362645D01*
X-36597Y-1358480D01*
X-24101Y-1366811D02*
Y-1383472D01*
Y-1375141D01*
X-19936Y-1370976D01*
X-15771Y-1366811D01*
X-11605D01*
X13387Y-1383472D02*
X5056D01*
X891Y-1379307D01*
Y-1370976D01*
X5056Y-1366811D01*
X13387D01*
X17552Y-1370976D01*
Y-1375141D01*
X891D01*
X38379Y-1383472D02*
X30048D01*
X25883Y-1379307D01*
Y-1370976D01*
X30048Y-1366811D01*
X38379D01*
X42544Y-1370976D01*
Y-1375141D01*
X25883D01*
X75866Y-1383472D02*
X88362D01*
X92528Y-1379307D01*
X88362Y-1375141D01*
X80032D01*
X75866Y-1370976D01*
X80032Y-1366811D01*
X92528D01*
X105024Y-1383472D02*
X113354D01*
X117520Y-1379307D01*
Y-1370976D01*
X113354Y-1366811D01*
X105024D01*
X100858Y-1370976D01*
Y-1379307D01*
X105024Y-1383472D01*
X130016D02*
Y-1362645D01*
Y-1370976D01*
X125850D01*
X134181D01*
X130016D01*
Y-1362645D01*
X134181Y-1358480D01*
X150842Y-1362645D02*
Y-1366811D01*
X146677D01*
X155008D01*
X150842D01*
Y-1379307D01*
X155008Y-1383472D01*
X167504Y-1366811D02*
Y-1379307D01*
X171669Y-1383472D01*
X175834Y-1379307D01*
X180000Y-1383472D01*
X184165Y-1379307D01*
Y-1366811D01*
X196661D02*
X204991D01*
X209157Y-1370976D01*
Y-1383472D01*
X196661D01*
X192495Y-1379307D01*
X196661Y-1375141D01*
X209157D01*
X217487Y-1366811D02*
Y-1383472D01*
Y-1375141D01*
X221653Y-1370976D01*
X225818Y-1366811D01*
X229983D01*
X254975Y-1383472D02*
X246645D01*
X242479Y-1379307D01*
Y-1370976D01*
X246645Y-1366811D01*
X254975D01*
X259141Y-1370976D01*
Y-1375141D01*
X242479D01*
X296628Y-1383472D02*
Y-1362645D01*
Y-1370976D01*
X292463D01*
X300794D01*
X296628D01*
Y-1362645D01*
X300794Y-1358480D01*
X317455Y-1383472D02*
X325786D01*
X329951Y-1379307D01*
Y-1370976D01*
X325786Y-1366811D01*
X317455D01*
X313290Y-1370976D01*
Y-1379307D01*
X317455Y-1383472D01*
X338282Y-1366811D02*
Y-1383472D01*
Y-1375141D01*
X342447Y-1370976D01*
X346612Y-1366811D01*
X350778D01*
X392431D02*
X400761D01*
X404927Y-1370976D01*
Y-1383472D01*
X392431D01*
X388265Y-1379307D01*
X392431Y-1375141D01*
X404927D01*
X413257Y-1383472D02*
X421588D01*
X417423D01*
Y-1358480D01*
X413257D01*
X434084Y-1383472D02*
X442415D01*
X438249D01*
Y-1358480D01*
X434084D01*
X479903Y-1383472D02*
X488233D01*
X484068D01*
Y-1366811D01*
X479903D01*
X504894Y-1362645D02*
Y-1366811D01*
X500729D01*
X509060D01*
X504894D01*
Y-1379307D01*
X509060Y-1383472D01*
X521556D02*
X534052D01*
X538217Y-1379307D01*
X534052Y-1375141D01*
X525721D01*
X521556Y-1370976D01*
X525721Y-1366811D01*
X538217D01*
X571540D02*
Y-1379307D01*
X575705Y-1383472D01*
X588201D01*
Y-1366811D01*
X596531Y-1383472D02*
X609027D01*
X613193Y-1379307D01*
X609027Y-1375141D01*
X600697D01*
X596531Y-1370976D01*
X600697Y-1366811D01*
X613193D01*
X634019Y-1383472D02*
X625689D01*
X621524Y-1379307D01*
Y-1370976D01*
X625689Y-1366811D01*
X634019D01*
X638185Y-1370976D01*
Y-1375141D01*
X621524D01*
X646515Y-1366811D02*
Y-1383472D01*
Y-1375141D01*
X650681Y-1370976D01*
X654846Y-1366811D01*
X659011D01*
X671507Y-1383472D02*
X684003D01*
X688169Y-1379307D01*
X684003Y-1375141D01*
X675673D01*
X671507Y-1370976D01*
X675673Y-1366811D01*
X688169D01*
X696499Y-1383472D02*
Y-1379307D01*
X700665D01*
Y-1383472D01*
X696499D01*
X742318Y-1358480D02*
Y-1383472D01*
X750648Y-1375141D01*
X758979Y-1383472D01*
Y-1358480D01*
X779806Y-1383472D02*
X771475D01*
X767310Y-1379307D01*
Y-1370976D01*
X771475Y-1366811D01*
X779806D01*
X783971Y-1370976D01*
Y-1375141D01*
X767310D01*
X796467Y-1387637D02*
X800632Y-1383472D01*
Y-1379307D01*
X796467D01*
Y-1383472D01*
X800632D01*
X796467Y-1387637D01*
X792302Y-1391803D01*
X846451Y-1362645D02*
Y-1366811D01*
X842286D01*
X850616D01*
X846451D01*
Y-1379307D01*
X850616Y-1383472D01*
X863112Y-1358480D02*
Y-1383472D01*
Y-1370976D01*
X867277Y-1366811D01*
X875608D01*
X879773Y-1370976D01*
Y-1383472D01*
X900600D02*
X892269D01*
X888104Y-1379307D01*
Y-1370976D01*
X892269Y-1366811D01*
X900600D01*
X904765Y-1370976D01*
Y-1375141D01*
X888104D01*
X954749Y-1358480D02*
X938088D01*
Y-1370976D01*
X946419D01*
X938088D01*
Y-1383472D01*
X963080Y-1366811D02*
Y-1383472D01*
Y-1375141D01*
X967245Y-1370976D01*
X971410Y-1366811D01*
X975576D01*
X1000568Y-1383472D02*
X992237D01*
X988072Y-1379307D01*
Y-1370976D01*
X992237Y-1366811D01*
X1000568D01*
X1004733Y-1370976D01*
Y-1375141D01*
X988072D01*
X1025560Y-1383472D02*
X1017229D01*
X1013064Y-1379307D01*
Y-1370976D01*
X1017229Y-1366811D01*
X1025560D01*
X1029725Y-1370976D01*
Y-1375141D01*
X1013064D01*
X-836339Y-1417766D02*
X-840504Y-1413601D01*
X-848835D01*
X-853000Y-1417766D01*
Y-1421932D01*
X-848835Y-1426097D01*
X-840504D01*
X-836339Y-1430262D01*
Y-1434427D01*
X-840504Y-1438593D01*
X-848835D01*
X-853000Y-1434427D01*
X-823843Y-1438593D02*
X-815512D01*
X-811347Y-1434427D01*
Y-1426097D01*
X-815512Y-1421932D01*
X-823843D01*
X-828008Y-1426097D01*
Y-1434427D01*
X-823843Y-1438593D01*
X-798851D02*
Y-1417766D01*
Y-1426097D01*
X-803016D01*
X-794686D01*
X-798851D01*
Y-1417766D01*
X-794686Y-1413601D01*
X-778024Y-1417766D02*
Y-1421932D01*
X-782190D01*
X-773859D01*
X-778024D01*
Y-1434427D01*
X-773859Y-1438593D01*
X-761363Y-1421932D02*
Y-1434427D01*
X-757198Y-1438593D01*
X-753032Y-1434427D01*
X-748867Y-1438593D01*
X-744702Y-1434427D01*
Y-1421932D01*
X-732206D02*
X-723875D01*
X-719710Y-1426097D01*
Y-1438593D01*
X-732206D01*
X-736371Y-1434427D01*
X-732206Y-1430262D01*
X-719710D01*
X-711379Y-1421932D02*
Y-1438593D01*
Y-1430262D01*
X-707214Y-1426097D01*
X-703048Y-1421932D01*
X-698883D01*
X-673891Y-1438593D02*
X-682222D01*
X-686387Y-1434427D01*
Y-1426097D01*
X-682222Y-1421932D01*
X-673891D01*
X-669726Y-1426097D01*
Y-1430262D01*
X-686387D01*
X-619742Y-1413601D02*
X-636403D01*
Y-1426097D01*
X-628073D01*
X-636403D01*
Y-1438593D01*
X-607246D02*
X-598915D01*
X-594750Y-1434427D01*
Y-1426097D01*
X-598915Y-1421932D01*
X-607246D01*
X-611411Y-1426097D01*
Y-1434427D01*
X-607246Y-1438593D01*
X-586419Y-1421932D02*
Y-1434427D01*
X-582254Y-1438593D01*
X-569758D01*
Y-1421932D01*
X-561428Y-1438593D02*
Y-1421932D01*
X-548932D01*
X-544766Y-1426097D01*
Y-1438593D01*
X-519774Y-1413601D02*
Y-1438593D01*
X-532270D01*
X-536436Y-1434427D01*
Y-1426097D01*
X-532270Y-1421932D01*
X-519774D01*
X-507278D02*
X-498948D01*
X-494782Y-1426097D01*
Y-1438593D01*
X-507278D01*
X-511444Y-1434427D01*
X-507278Y-1430262D01*
X-494782D01*
X-482286Y-1417766D02*
Y-1421932D01*
X-486452D01*
X-478121D01*
X-482286D01*
Y-1434427D01*
X-478121Y-1438593D01*
X-465625D02*
X-457295D01*
X-461460D01*
Y-1421932D01*
X-465625D01*
X-440633Y-1438593D02*
X-432303D01*
X-428137Y-1434427D01*
Y-1426097D01*
X-432303Y-1421932D01*
X-440633D01*
X-444799Y-1426097D01*
Y-1434427D01*
X-440633Y-1438593D01*
X-419807D02*
Y-1421932D01*
X-407311D01*
X-403145Y-1426097D01*
Y-1438593D01*
X-390649Y-1442758D02*
X-386484Y-1438593D01*
Y-1434427D01*
X-390649D01*
Y-1438593D01*
X-386484D01*
X-390649Y-1442758D01*
X-394815Y-1446924D01*
X-344831Y-1421932D02*
Y-1434427D01*
X-340666Y-1438593D01*
X-328170D01*
Y-1421932D01*
X-319839Y-1438593D02*
X-307343D01*
X-303178Y-1434427D01*
X-307343Y-1430262D01*
X-315674D01*
X-319839Y-1426097D01*
X-315674Y-1421932D01*
X-303178D01*
X-282351Y-1438593D02*
X-290682D01*
X-294847Y-1434427D01*
Y-1426097D01*
X-290682Y-1421932D01*
X-282351D01*
X-278186Y-1426097D01*
Y-1430262D01*
X-294847D01*
X-240698Y-1417766D02*
Y-1421932D01*
X-244863D01*
X-236533D01*
X-240698D01*
Y-1434427D01*
X-236533Y-1438593D01*
X-224037Y-1413601D02*
Y-1438593D01*
Y-1426097D01*
X-219871Y-1421932D01*
X-211541D01*
X-207375Y-1426097D01*
Y-1438593D01*
X-186549D02*
X-194879D01*
X-199045Y-1434427D01*
Y-1426097D01*
X-194879Y-1421932D01*
X-186549D01*
X-182383Y-1426097D01*
Y-1430262D01*
X-199045D01*
X-132400Y-1417766D02*
X-136565Y-1413601D01*
X-144895D01*
X-149061Y-1417766D01*
Y-1434427D01*
X-144895Y-1438593D01*
X-136565D01*
X-132400Y-1434427D01*
Y-1426097D01*
X-140730D01*
X-124069Y-1438593D02*
Y-1413601D01*
X-107408Y-1438593D01*
Y-1413601D01*
X-99077D02*
Y-1434427D01*
X-94912Y-1438593D01*
X-86581D01*
X-82416Y-1434427D01*
Y-1413601D01*
X-32432Y-1417766D02*
X-36597Y-1413601D01*
X-44928D01*
X-49093Y-1417766D01*
Y-1434427D01*
X-44928Y-1438593D01*
X-36597D01*
X-32432Y-1434427D01*
Y-1426097D01*
X-40763D01*
X-11605Y-1438593D02*
X-19936D01*
X-24101Y-1434427D01*
Y-1426097D01*
X-19936Y-1421932D01*
X-11605D01*
X-7440Y-1426097D01*
Y-1430262D01*
X-24101D01*
X891Y-1438593D02*
Y-1421932D01*
X13387D01*
X17552Y-1426097D01*
Y-1438593D01*
X38379D02*
X30048D01*
X25883Y-1434427D01*
Y-1426097D01*
X30048Y-1421932D01*
X38379D01*
X42544Y-1426097D01*
Y-1430262D01*
X25883D01*
X50875Y-1421932D02*
Y-1438593D01*
Y-1430262D01*
X55040Y-1426097D01*
X59205Y-1421932D01*
X63370D01*
X80032D02*
X88362D01*
X92528Y-1426097D01*
Y-1438593D01*
X80032D01*
X75866Y-1434427D01*
X80032Y-1430262D01*
X92528D01*
X100858Y-1438593D02*
X109189D01*
X105024D01*
Y-1413601D01*
X100858D01*
X146677Y-1438593D02*
Y-1413601D01*
X159173D01*
X163338Y-1417766D01*
Y-1426097D01*
X159173Y-1430262D01*
X146677D01*
X171669Y-1421932D02*
Y-1434427D01*
X175834Y-1438593D01*
X188330D01*
Y-1421932D01*
X196661Y-1413601D02*
Y-1438593D01*
X209157D01*
X213322Y-1434427D01*
Y-1430262D01*
Y-1426097D01*
X209157Y-1421932D01*
X196661D01*
X221653Y-1438593D02*
X229983D01*
X225818D01*
Y-1413601D01*
X221653D01*
X242479Y-1438593D02*
X250810D01*
X246645D01*
Y-1421932D01*
X242479D01*
X279967D02*
X267471D01*
X263306Y-1426097D01*
Y-1434427D01*
X267471Y-1438593D01*
X279967D01*
X313290Y-1413601D02*
Y-1438593D01*
X329951D01*
X338282D02*
X346612D01*
X342447D01*
Y-1421932D01*
X338282D01*
X375770D02*
X363274D01*
X359108Y-1426097D01*
Y-1434427D01*
X363274Y-1438593D01*
X375770D01*
X396596D02*
X388265D01*
X384100Y-1434427D01*
Y-1426097D01*
X388265Y-1421932D01*
X396596D01*
X400761Y-1426097D01*
Y-1430262D01*
X384100D01*
X409092Y-1438593D02*
Y-1421932D01*
X421588D01*
X425753Y-1426097D01*
Y-1438593D01*
X434084D02*
X446580D01*
X450745Y-1434427D01*
X446580Y-1430262D01*
X438249D01*
X434084Y-1426097D01*
X438249Y-1421932D01*
X450745D01*
X471572Y-1438593D02*
X463241D01*
X459076Y-1434427D01*
Y-1426097D01*
X463241Y-1421932D01*
X471572D01*
X475737Y-1426097D01*
Y-1430262D01*
X459076D01*
X513225Y-1438593D02*
Y-1417766D01*
Y-1426097D01*
X509060D01*
X517391D01*
X513225D01*
Y-1417766D01*
X517391Y-1413601D01*
X534052Y-1438593D02*
X542382D01*
X546548Y-1434427D01*
Y-1426097D01*
X542382Y-1421932D01*
X534052D01*
X529886Y-1426097D01*
Y-1434427D01*
X534052Y-1438593D01*
X554878Y-1421932D02*
Y-1438593D01*
Y-1430262D01*
X559044Y-1426097D01*
X563209Y-1421932D01*
X567374D01*
X604862Y-1438593D02*
Y-1421932D01*
X609027D01*
X613193Y-1426097D01*
Y-1438593D01*
Y-1426097D01*
X617358Y-1421932D01*
X621524Y-1426097D01*
Y-1438593D01*
X634019D02*
X642350D01*
X646515Y-1434427D01*
Y-1426097D01*
X642350Y-1421932D01*
X634019D01*
X629854Y-1426097D01*
Y-1434427D01*
X634019Y-1438593D01*
X654846D02*
X667342D01*
X671507Y-1434427D01*
X667342Y-1430262D01*
X659011D01*
X654846Y-1426097D01*
X659011Y-1421932D01*
X671507D01*
X684003Y-1417766D02*
Y-1421932D01*
X679838D01*
X688169D01*
X684003D01*
Y-1434427D01*
X688169Y-1438593D01*
X729822D02*
X738152D01*
X742318Y-1434427D01*
Y-1426097D01*
X738152Y-1421932D01*
X729822D01*
X725657Y-1426097D01*
Y-1434427D01*
X729822Y-1438593D01*
X754814D02*
Y-1417766D01*
Y-1426097D01*
X750648D01*
X758979D01*
X754814D01*
Y-1417766D01*
X758979Y-1413601D01*
X800632Y-1438593D02*
X808963D01*
X813128Y-1434427D01*
Y-1426097D01*
X808963Y-1421932D01*
X800632D01*
X796467Y-1426097D01*
Y-1434427D01*
X800632Y-1438593D01*
X821459Y-1421932D02*
Y-1434427D01*
X825624Y-1438593D01*
X838120D01*
Y-1421932D01*
X846451D02*
Y-1438593D01*
Y-1430262D01*
X850616Y-1426097D01*
X854781Y-1421932D01*
X858947D01*
X896435Y-1438593D02*
X908931D01*
X913096Y-1434427D01*
X908931Y-1430262D01*
X900600D01*
X896435Y-1426097D01*
X900600Y-1421932D01*
X913096D01*
X925592Y-1438593D02*
X933923D01*
X938088Y-1434427D01*
Y-1426097D01*
X933923Y-1421932D01*
X925592D01*
X921427Y-1426097D01*
Y-1434427D01*
X925592Y-1438593D01*
X950584D02*
Y-1417766D01*
Y-1426097D01*
X946419D01*
X954749D01*
X950584D01*
Y-1417766D01*
X954749Y-1413601D01*
X971410Y-1417766D02*
Y-1421932D01*
X967245D01*
X975576D01*
X971410D01*
Y-1434427D01*
X975576Y-1438593D01*
X988072Y-1421932D02*
Y-1434427D01*
X992237Y-1438593D01*
X996402Y-1434427D01*
X1000568Y-1438593D01*
X1004733Y-1434427D01*
Y-1421932D01*
X1017229D02*
X1025560D01*
X1029725Y-1426097D01*
Y-1438593D01*
X1017229D01*
X1013064Y-1434427D01*
X1017229Y-1430262D01*
X1029725D01*
X1038055Y-1421932D02*
Y-1438593D01*
Y-1430262D01*
X1042221Y-1426097D01*
X1046386Y-1421932D01*
X1050552D01*
X1075543Y-1438593D02*
X1067213D01*
X1063047Y-1434427D01*
Y-1426097D01*
X1067213Y-1421932D01*
X1075543D01*
X1079709Y-1426097D01*
Y-1430262D01*
X1063047D01*
X1088039Y-1426097D02*
Y-1421932D01*
X1092205D01*
Y-1426097D01*
X1088039D01*
Y-1434427D02*
X1092205D01*
Y-1438593D01*
X1088039Y-1442758D01*
X1092205Y-1438593D02*
X1088039D01*
Y-1434427D01*
X1133858Y-1438593D02*
X1142188D01*
X1138023D01*
Y-1421932D01*
X1133858D01*
X1158850Y-1417766D02*
Y-1421932D01*
X1154685D01*
X1163015D01*
X1158850D01*
Y-1434427D01*
X1163015Y-1438593D01*
X-848835Y-1472887D02*
X-840504D01*
X-836339Y-1477052D01*
Y-1489548D01*
X-848835D01*
X-853000Y-1485383D01*
X-848835Y-1481218D01*
X-836339D01*
X-828008Y-1497879D02*
Y-1472887D01*
X-815512D01*
X-811347Y-1477052D01*
Y-1485383D01*
X-815512Y-1489548D01*
X-828008D01*
X-803016Y-1497879D02*
Y-1472887D01*
X-790520D01*
X-786355Y-1477052D01*
Y-1485383D01*
X-790520Y-1489548D01*
X-803016D01*
X-778024D02*
X-769694D01*
X-773859D01*
Y-1464556D01*
X-778024D01*
X-757198Y-1489548D02*
X-748867D01*
X-753032D01*
Y-1472887D01*
X-757198D01*
X-723875Y-1489548D02*
X-732206D01*
X-736371Y-1485383D01*
Y-1477052D01*
X-732206Y-1472887D01*
X-723875D01*
X-719710Y-1477052D01*
Y-1481218D01*
X-736371D01*
X-711379Y-1489548D02*
X-698883D01*
X-694718Y-1485383D01*
X-698883Y-1481218D01*
X-707214D01*
X-711379Y-1477052D01*
X-707214Y-1472887D01*
X-694718D01*
X-657230D02*
X-648899D01*
X-644734Y-1477052D01*
Y-1489548D01*
X-657230D01*
X-661395Y-1485383D01*
X-657230Y-1481218D01*
X-644734D01*
X-636403Y-1489548D02*
X-628073D01*
X-632238D01*
Y-1464556D01*
X-636403D01*
X-615577Y-1489548D02*
X-603081D01*
X-598915Y-1485383D01*
X-603081Y-1481218D01*
X-611411D01*
X-615577Y-1477052D01*
X-611411Y-1472887D01*
X-598915D01*
X-586419Y-1489548D02*
X-578089D01*
X-573923Y-1485383D01*
Y-1477052D01*
X-578089Y-1472887D01*
X-586419D01*
X-590585Y-1477052D01*
Y-1485383D01*
X-586419Y-1489548D01*
X-536436Y-1468722D02*
Y-1472887D01*
X-540601D01*
X-532270D01*
X-536436D01*
Y-1485383D01*
X-532270Y-1489548D01*
X-515609D02*
X-507278D01*
X-503113Y-1485383D01*
Y-1477052D01*
X-507278Y-1472887D01*
X-515609D01*
X-519774Y-1477052D01*
Y-1485383D01*
X-515609Y-1489548D01*
X-465625Y-1472887D02*
X-457295D01*
X-453129Y-1477052D01*
Y-1489548D01*
X-465625D01*
X-469790Y-1485383D01*
X-465625Y-1481218D01*
X-453129D01*
X-444799Y-1489548D02*
Y-1472887D01*
X-432303D01*
X-428137Y-1477052D01*
Y-1489548D01*
X-419807Y-1472887D02*
Y-1485383D01*
X-415641Y-1489548D01*
X-403145D01*
Y-1493714D01*
X-407311Y-1497879D01*
X-411476D01*
X-403145Y-1489548D02*
Y-1472887D01*
X-365658Y-1489548D02*
X-357327D01*
X-353162Y-1485383D01*
Y-1477052D01*
X-357327Y-1472887D01*
X-365658D01*
X-369823Y-1477052D01*
Y-1485383D01*
X-365658Y-1489548D01*
X-340666Y-1468722D02*
Y-1472887D01*
X-344831D01*
X-336500D01*
X-340666D01*
Y-1485383D01*
X-336500Y-1489548D01*
X-324004Y-1464556D02*
Y-1489548D01*
Y-1477052D01*
X-319839Y-1472887D01*
X-311508D01*
X-307343Y-1477052D01*
Y-1489548D01*
X-286516D02*
X-294847D01*
X-299012Y-1485383D01*
Y-1477052D01*
X-294847Y-1472887D01*
X-286516D01*
X-282351Y-1477052D01*
Y-1481218D01*
X-299012D01*
X-274021Y-1472887D02*
Y-1489548D01*
Y-1481218D01*
X-269855Y-1477052D01*
X-265690Y-1472887D01*
X-261525D01*
X-224037D02*
Y-1485383D01*
X-219871Y-1489548D01*
X-215706Y-1485383D01*
X-211541Y-1489548D01*
X-207375Y-1485383D01*
Y-1472887D01*
X-194879Y-1489548D02*
X-186549D01*
X-182383Y-1485383D01*
Y-1477052D01*
X-186549Y-1472887D01*
X-194879D01*
X-199045Y-1477052D01*
Y-1485383D01*
X-194879Y-1489548D01*
X-174053Y-1472887D02*
Y-1489548D01*
Y-1481218D01*
X-169887Y-1477052D01*
X-165722Y-1472887D01*
X-161557D01*
X-149061Y-1489548D02*
Y-1464556D01*
Y-1481218D02*
X-136565Y-1472887D01*
X-149061Y-1481218D02*
X-136565Y-1489548D01*
X-99077Y-1472887D02*
Y-1489548D01*
Y-1481218D01*
X-94912Y-1477052D01*
X-90746Y-1472887D01*
X-86581D01*
X-61589Y-1489548D02*
X-69920D01*
X-74085Y-1485383D01*
Y-1477052D01*
X-69920Y-1472887D01*
X-61589D01*
X-57424Y-1477052D01*
Y-1481218D01*
X-74085D01*
X-49093Y-1489548D02*
X-40763D01*
X-44928D01*
Y-1464556D01*
X-49093D01*
X-15771Y-1489548D02*
X-24101D01*
X-28266Y-1485383D01*
Y-1477052D01*
X-24101Y-1472887D01*
X-15771D01*
X-11605Y-1477052D01*
Y-1481218D01*
X-28266D01*
X891Y-1472887D02*
X9221D01*
X13387Y-1477052D01*
Y-1489548D01*
X891D01*
X-3275Y-1485383D01*
X891Y-1481218D01*
X13387D01*
X21717Y-1489548D02*
X34213D01*
X38379Y-1485383D01*
X34213Y-1481218D01*
X25883D01*
X21717Y-1477052D01*
X25883Y-1472887D01*
X38379D01*
X59205Y-1489548D02*
X50875D01*
X46709Y-1485383D01*
Y-1477052D01*
X50875Y-1472887D01*
X59205D01*
X63370Y-1477052D01*
Y-1481218D01*
X46709D01*
X88362Y-1464556D02*
Y-1489548D01*
X75866D01*
X71701Y-1485383D01*
Y-1477052D01*
X75866Y-1472887D01*
X88362D01*
X125850Y-1468722D02*
Y-1472887D01*
X121685D01*
X130016D01*
X125850D01*
Y-1485383D01*
X130016Y-1489548D01*
X142512Y-1464556D02*
Y-1489548D01*
Y-1477052D01*
X146677Y-1472887D01*
X155008D01*
X159173Y-1477052D01*
Y-1489548D01*
X167504D02*
X175834D01*
X171669D01*
Y-1472887D01*
X167504D01*
X188330Y-1489548D02*
X200826D01*
X204991Y-1485383D01*
X200826Y-1481218D01*
X192495D01*
X188330Y-1477052D01*
X192495Y-1472887D01*
X204991D01*
X238314D02*
Y-1485383D01*
X242479Y-1489548D01*
X246645Y-1485383D01*
X250810Y-1489548D01*
X254975Y-1485383D01*
Y-1472887D01*
X267471D02*
X275802D01*
X279967Y-1477052D01*
Y-1489548D01*
X267471D01*
X263306Y-1485383D01*
X267471Y-1481218D01*
X279967D01*
X288298Y-1472887D02*
Y-1485383D01*
X292463Y-1489548D01*
X304959D01*
Y-1493714D01*
X300794Y-1497879D01*
X296628D01*
X304959Y-1489548D02*
Y-1472887D01*
X338282Y-1464556D02*
Y-1489548D01*
X350778D01*
X354943Y-1485383D01*
Y-1481218D01*
Y-1477052D01*
X350778Y-1472887D01*
X338282D01*
X363274D02*
Y-1485383D01*
X367439Y-1489548D01*
X379935D01*
Y-1493714D01*
X375770Y-1497879D01*
X371604D01*
X379935Y-1489548D02*
Y-1472887D01*
X413257Y-1489548D02*
X421588D01*
X417423D01*
Y-1472887D01*
X413257D01*
X438249Y-1468722D02*
Y-1472887D01*
X434084D01*
X442415D01*
X438249D01*
Y-1485383D01*
X442415Y-1489548D01*
X454911D02*
X467407D01*
X471572Y-1485383D01*
X467407Y-1481218D01*
X459076D01*
X454911Y-1477052D01*
X459076Y-1472887D01*
X471572D01*
X509060D02*
X517391D01*
X521556Y-1477052D01*
Y-1489548D01*
X509060D01*
X504894Y-1485383D01*
X509060Y-1481218D01*
X521556D01*
X529886Y-1472887D02*
Y-1485383D01*
X534052Y-1489548D01*
X546548D01*
Y-1472887D01*
X559044Y-1468722D02*
Y-1472887D01*
X554878D01*
X563209D01*
X559044D01*
Y-1485383D01*
X563209Y-1489548D01*
X575705Y-1464556D02*
Y-1489548D01*
Y-1477052D01*
X579870Y-1472887D01*
X588201D01*
X592366Y-1477052D01*
Y-1489548D01*
X604862D02*
X613193D01*
X617358Y-1485383D01*
Y-1477052D01*
X613193Y-1472887D01*
X604862D01*
X600697Y-1477052D01*
Y-1485383D01*
X604862Y-1489548D01*
X625689Y-1472887D02*
Y-1489548D01*
Y-1481218D01*
X629854Y-1477052D01*
X634019Y-1472887D01*
X638185D01*
X650681Y-1489548D02*
X663177D01*
X667342Y-1485383D01*
X663177Y-1481218D01*
X654846D01*
X650681Y-1477052D01*
X654846Y-1472887D01*
X667342D01*
X675673Y-1489548D02*
Y-1485383D01*
X679838D01*
Y-1489548D01*
X675673D01*
X721491Y-1464556D02*
Y-1468722D01*
X729822Y-1477052D01*
X738152Y-1468722D01*
Y-1464556D01*
X729822Y-1477052D02*
Y-1489548D01*
X750648D02*
X758979D01*
X763144Y-1485383D01*
Y-1477052D01*
X758979Y-1472887D01*
X750648D01*
X746483Y-1477052D01*
Y-1485383D01*
X750648Y-1489548D01*
X771475Y-1472887D02*
Y-1485383D01*
X775640Y-1489548D01*
X788136D01*
Y-1472887D01*
X838120D02*
X825624D01*
X821459Y-1477052D01*
Y-1485383D01*
X825624Y-1489548D01*
X838120D01*
X850616Y-1472887D02*
X858947D01*
X863112Y-1477052D01*
Y-1489548D01*
X850616D01*
X846451Y-1485383D01*
X850616Y-1481218D01*
X863112D01*
X871443Y-1489548D02*
Y-1472887D01*
X883939D01*
X888104Y-1477052D01*
Y-1489548D01*
X925592Y-1472887D02*
X933923D01*
X938088Y-1477052D01*
Y-1489548D01*
X925592D01*
X921427Y-1485383D01*
X925592Y-1481218D01*
X938088D01*
X946419Y-1497879D02*
Y-1472887D01*
X958914D01*
X963080Y-1477052D01*
Y-1485383D01*
X958914Y-1489548D01*
X946419D01*
X971410Y-1497879D02*
Y-1472887D01*
X983906D01*
X988072Y-1477052D01*
Y-1485383D01*
X983906Y-1489548D01*
X971410D01*
X996402D02*
X1004733D01*
X1000568D01*
Y-1464556D01*
X996402D01*
X1017229Y-1472887D02*
Y-1485383D01*
X1021394Y-1489548D01*
X1033890D01*
Y-1493714D01*
X1029725Y-1497879D01*
X1025560D01*
X1033890Y-1489548D02*
Y-1472887D01*
X1067213Y-1489548D02*
X1075543D01*
X1071378D01*
Y-1472887D01*
X1067213D01*
X1092205Y-1468722D02*
Y-1472887D01*
X1088039D01*
X1096370D01*
X1092205D01*
Y-1485383D01*
X1096370Y-1489548D01*
X1138023Y-1468722D02*
Y-1472887D01*
X1133858D01*
X1142188D01*
X1138023D01*
Y-1485383D01*
X1142188Y-1489548D01*
X1158850D02*
X1167180D01*
X1171346Y-1485383D01*
Y-1477052D01*
X1167180Y-1472887D01*
X1158850D01*
X1154685Y-1477052D01*
Y-1485383D01*
X1158850Y-1489548D01*
X-853000Y-1528008D02*
Y-1540504D01*
X-848835Y-1544669D01*
X-836339D01*
Y-1548835D01*
X-840504Y-1553000D01*
X-844669D01*
X-836339Y-1544669D02*
Y-1528008D01*
X-823843Y-1544669D02*
X-815512D01*
X-811347Y-1540504D01*
Y-1532173D01*
X-815512Y-1528008D01*
X-823843D01*
X-828008Y-1532173D01*
Y-1540504D01*
X-823843Y-1544669D01*
X-803016Y-1528008D02*
Y-1540504D01*
X-798851Y-1544669D01*
X-786355D01*
Y-1528008D01*
X-778024D02*
Y-1544669D01*
Y-1536339D01*
X-773859Y-1532173D01*
X-769694Y-1528008D01*
X-765528D01*
X-728040Y-1553000D02*
Y-1528008D01*
X-715544D01*
X-711379Y-1532173D01*
Y-1540504D01*
X-715544Y-1544669D01*
X-728040D01*
X-703048Y-1528008D02*
Y-1544669D01*
Y-1536339D01*
X-698883Y-1532173D01*
X-694718Y-1528008D01*
X-690553D01*
X-673891Y-1544669D02*
X-665561D01*
X-661395Y-1540504D01*
Y-1532173D01*
X-665561Y-1528008D01*
X-673891D01*
X-678057Y-1532173D01*
Y-1540504D01*
X-673891Y-1544669D01*
X-644734Y-1553000D02*
X-640569D01*
X-636403Y-1548835D01*
Y-1528008D01*
X-648899D01*
X-653065Y-1532173D01*
Y-1540504D01*
X-648899Y-1544669D01*
X-636403D01*
X-628073Y-1528008D02*
Y-1544669D01*
Y-1536339D01*
X-623907Y-1532173D01*
X-619742Y-1528008D01*
X-615577D01*
X-598915D02*
X-590585D01*
X-586419Y-1532173D01*
Y-1544669D01*
X-598915D01*
X-603081Y-1540504D01*
X-598915Y-1536339D01*
X-586419D01*
X-578089Y-1544669D02*
Y-1528008D01*
X-573923D01*
X-569758Y-1532173D01*
Y-1544669D01*
Y-1532173D01*
X-565593Y-1528008D01*
X-561428Y-1532173D01*
Y-1544669D01*
X-553097D02*
X-540601D01*
X-536436Y-1540504D01*
X-540601Y-1536339D01*
X-548932D01*
X-553097Y-1532173D01*
X-548932Y-1528008D01*
X-536436D01*
X-523940Y-1548835D02*
X-519774Y-1544669D01*
Y-1540504D01*
X-523940D01*
Y-1544669D01*
X-519774D01*
X-523940Y-1548835D01*
X-528105Y-1553000D01*
X-473956Y-1523843D02*
Y-1528008D01*
X-478121D01*
X-469790D01*
X-473956D01*
Y-1540504D01*
X-469790Y-1544669D01*
X-453129D02*
X-444799D01*
X-440633Y-1540504D01*
Y-1532173D01*
X-444799Y-1528008D01*
X-453129D01*
X-457295Y-1532173D01*
Y-1540504D01*
X-453129Y-1544669D01*
X-428137D02*
X-419807D01*
X-415641Y-1540504D01*
Y-1532173D01*
X-419807Y-1528008D01*
X-428137D01*
X-432303Y-1532173D01*
Y-1540504D01*
X-428137Y-1544669D01*
X-407311D02*
Y-1540504D01*
X-403145D01*
Y-1544669D01*
X-407311D01*
M02*
