G04*
G04 #@! TF.GenerationSoftware,Altium Limited,Altium Designer,19.1.4 (82)*
G04*
G04 Layer_Color=16711935*
%FSLAX44Y44*%
%MOMM*%
G71*
G01*
G75*
%ADD41R,2.1000X2.1000*%
%ADD56C,2.1000*%
%ADD57R,2.1000X2.1000*%
%ADD58R,2.2000X1.8000*%
%ADD59O,2.2000X1.8000*%
%ADD60O,1.8000X2.2000*%
%ADD61R,1.8000X2.2000*%
%ADD62C,1.9000*%
%ADD63R,1.9000X1.9000*%
G04:AMPARAMS|DCode=64|XSize=2.2mm|YSize=1.45mm|CornerRadius=0.475mm|HoleSize=0mm|Usage=FLASHONLY|Rotation=0.000|XOffset=0mm|YOffset=0mm|HoleType=Round|Shape=RoundedRectangle|*
%AMROUNDEDRECTD64*
21,1,2.2000,0.5000,0,0,0.0*
21,1,1.2500,1.4500,0,0,0.0*
1,1,0.9500,0.6250,-0.2500*
1,1,0.9500,-0.6250,-0.2500*
1,1,0.9500,-0.6250,0.2500*
1,1,0.9500,0.6250,0.2500*
%
%ADD64ROUNDEDRECTD64*%
%ADD65C,7.6000*%
%ADD66C,3.4000*%
%ADD67C,4.2000*%
G36*
X403656Y380981D02*
X403898D01*
Y380739D01*
X404624D01*
Y380497D01*
X404866D01*
Y380739D01*
X405109D01*
Y380497D01*
X405351D01*
Y380739D01*
X405593D01*
Y380497D01*
X405835D01*
Y380255D01*
X406077D01*
Y380013D01*
X406320D01*
Y380255D01*
X406562D01*
Y380013D01*
X406804D01*
Y380255D01*
X407046D01*
Y380013D01*
X407530D01*
Y379771D01*
X408015D01*
Y379529D01*
X408257D01*
Y379771D01*
X408499D01*
Y379529D01*
X408741D01*
Y379286D01*
X408983D01*
Y379044D01*
X409226D01*
Y379286D01*
X409468D01*
Y379044D01*
X409710D01*
Y378802D01*
X410436D01*
Y378560D01*
X411163D01*
Y378318D01*
X411405D01*
Y378075D01*
X412132D01*
Y377833D01*
X412374D01*
Y377591D01*
X412616D01*
Y377833D01*
X412858D01*
Y377591D01*
X413100D01*
Y377349D01*
X413343D01*
Y377107D01*
X413827D01*
Y376865D01*
X414311D01*
Y376622D01*
X414553D01*
Y376380D01*
X414795D01*
Y376138D01*
X415038D01*
Y376380D01*
X415280D01*
Y376138D01*
X415522D01*
Y375896D01*
X415764D01*
Y375654D01*
X416006D01*
Y375411D01*
X416249D01*
Y375169D01*
X416491D01*
Y375411D01*
X416733D01*
Y374927D01*
X417217D01*
Y374685D01*
X417459D01*
Y374443D01*
X417702D01*
Y374201D01*
X417944D01*
Y374443D01*
X418186D01*
Y373716D01*
X418428D01*
Y373959D01*
X418670D01*
Y373232D01*
X418913D01*
Y373474D01*
X419155D01*
Y373232D01*
X419397D01*
Y372990D01*
X419639D01*
Y372748D01*
X419881D01*
Y372505D01*
X420123D01*
Y372263D01*
X420365D01*
Y372021D01*
X420608D01*
Y371779D01*
X420850D01*
Y371537D01*
X421092D01*
Y371295D01*
X421334D01*
Y371052D01*
X421576D01*
Y370810D01*
X421819D01*
Y370568D01*
X422061D01*
Y370326D01*
X422303D01*
Y370084D01*
X422545D01*
Y369357D01*
X422787D01*
Y369599D01*
X423029D01*
Y368873D01*
X423272D01*
Y368631D01*
X423514D01*
Y368388D01*
X423756D01*
Y368146D01*
X423998D01*
Y367904D01*
X424240D01*
Y367662D01*
X424482D01*
Y366936D01*
X424725D01*
Y366693D01*
X424967D01*
Y366451D01*
X425209D01*
Y366209D01*
X425451D01*
Y365482D01*
X425693D01*
Y365725D01*
X425936D01*
Y364998D01*
X426178D01*
Y364756D01*
X426420D01*
Y364029D01*
X426662D01*
Y363787D01*
X426904D01*
Y363545D01*
X427146D01*
Y363303D01*
X427388D01*
Y363061D01*
X427146D01*
Y363303D01*
X426904D01*
Y363061D01*
X427146D01*
Y362819D01*
X427388D01*
Y362576D01*
X427631D01*
Y362334D01*
X427873D01*
Y362092D01*
X427631D01*
Y361850D01*
X427873D01*
Y361123D01*
X428115D01*
Y360881D01*
X428357D01*
Y360155D01*
X428599D01*
Y359912D01*
X428842D01*
Y359670D01*
X429084D01*
Y359428D01*
X428842D01*
Y359186D01*
X429084D01*
Y358944D01*
X429326D01*
Y358217D01*
X429568D01*
Y357975D01*
X429810D01*
Y357733D01*
X429568D01*
Y357975D01*
X429326D01*
Y357733D01*
X429568D01*
Y357491D01*
X429810D01*
Y356764D01*
X430052D01*
Y356522D01*
X430295D01*
Y356280D01*
X430052D01*
Y356038D01*
X430295D01*
Y355311D01*
X430537D01*
Y355069D01*
X430779D01*
Y354827D01*
X430537D01*
Y355069D01*
X430295D01*
Y354827D01*
X430537D01*
Y354585D01*
X430779D01*
Y353858D01*
X431021D01*
Y353616D01*
X430779D01*
Y353374D01*
X431021D01*
Y353132D01*
X431263D01*
Y352890D01*
X431021D01*
Y352647D01*
X431263D01*
Y351436D01*
X431505D01*
Y351194D01*
X431748D01*
Y350952D01*
X431505D01*
Y351194D01*
X431263D01*
Y350952D01*
X431505D01*
Y350710D01*
X431748D01*
Y350468D01*
X431505D01*
Y350226D01*
X431748D01*
Y349015D01*
X431990D01*
Y348773D01*
X431748D01*
Y348530D01*
X431990D01*
Y348288D01*
X431748D01*
Y348046D01*
X431990D01*
Y347804D01*
X431748D01*
Y347562D01*
X431990D01*
Y346835D01*
X432232D01*
Y346593D01*
X431990D01*
Y346351D01*
X432232D01*
Y346109D01*
X431990D01*
Y345867D01*
X432232D01*
Y340297D01*
X431990D01*
Y340054D01*
X432232D01*
Y339812D01*
X431990D01*
Y339570D01*
X432232D01*
Y339328D01*
X431990D01*
Y339086D01*
X432232D01*
Y338843D01*
X431990D01*
Y338601D01*
X431748D01*
Y338359D01*
X431990D01*
Y338117D01*
X431748D01*
Y336422D01*
X431505D01*
Y336180D01*
X431748D01*
Y335937D01*
X431505D01*
Y335695D01*
X431748D01*
Y335453D01*
X431505D01*
Y335695D01*
X431263D01*
Y335453D01*
X431505D01*
Y335211D01*
X431263D01*
Y334969D01*
X431505D01*
Y334726D01*
X431263D01*
Y334000D01*
X431021D01*
Y333758D01*
X431263D01*
Y333516D01*
X431021D01*
Y333274D01*
X430779D01*
Y333031D01*
X431021D01*
Y332789D01*
X430779D01*
Y332063D01*
X430537D01*
Y331820D01*
X430779D01*
Y331578D01*
X430537D01*
Y331820D01*
X430295D01*
Y331578D01*
X430537D01*
Y331336D01*
X430295D01*
Y330610D01*
X430052D01*
Y330367D01*
X430295D01*
Y330125D01*
X430052D01*
Y330367D01*
X429810D01*
Y330125D01*
X430052D01*
Y329883D01*
X429810D01*
Y329156D01*
X429568D01*
Y328914D01*
X429326D01*
Y328188D01*
X429084D01*
Y327461D01*
X428842D01*
Y326735D01*
X428599D01*
Y326493D01*
X428357D01*
Y325766D01*
X428115D01*
Y325524D01*
X427873D01*
Y324797D01*
X427631D01*
Y325040D01*
X427388D01*
Y324797D01*
X427631D01*
Y324555D01*
X427388D01*
Y324313D01*
X427146D01*
Y324071D01*
X426904D01*
Y323344D01*
X426662D01*
Y323102D01*
X426420D01*
Y322860D01*
X426178D01*
Y322618D01*
X426420D01*
Y322376D01*
X426178D01*
Y322618D01*
X425936D01*
Y321891D01*
X425693D01*
Y321649D01*
X425451D01*
Y321407D01*
X425209D01*
Y321165D01*
X424967D01*
Y320438D01*
X424725D01*
Y320196D01*
X424482D01*
Y319954D01*
X424240D01*
Y319712D01*
X423998D01*
Y319470D01*
X423756D01*
Y319228D01*
X423514D01*
Y318985D01*
X423272D01*
Y318743D01*
X423029D01*
Y318501D01*
X422787D01*
Y318259D01*
X423029D01*
Y318017D01*
X422787D01*
Y318259D01*
X422545D01*
Y318017D01*
X422303D01*
Y317774D01*
X422061D01*
Y317532D01*
X421819D01*
Y317290D01*
X422061D01*
Y317048D01*
X421819D01*
Y317290D01*
X421576D01*
Y317048D01*
X421334D01*
Y316806D01*
X421092D01*
Y316564D01*
X420850D01*
Y316321D01*
X420608D01*
Y316079D01*
X420365D01*
Y315837D01*
X420123D01*
Y315595D01*
X419881D01*
Y315353D01*
X419639D01*
Y315110D01*
X419397D01*
Y314868D01*
X419155D01*
Y314626D01*
X418913D01*
Y314384D01*
X418670D01*
Y314142D01*
X418428D01*
Y313900D01*
X418186D01*
Y313657D01*
X417944D01*
Y313415D01*
X417702D01*
Y313173D01*
X417459D01*
Y312931D01*
X417217D01*
Y312689D01*
X416733D01*
Y312447D01*
X416249D01*
Y311962D01*
X415764D01*
Y311720D01*
X415522D01*
Y311478D01*
X415280D01*
Y311236D01*
X415038D01*
Y311478D01*
X414795D01*
Y311236D01*
X415038D01*
Y310994D01*
X414795D01*
Y310751D01*
X414553D01*
Y310994D01*
X414311D01*
Y310267D01*
X414069D01*
Y310509D01*
X413827D01*
Y310267D01*
X413585D01*
Y310025D01*
X413343D01*
Y309783D01*
X413100D01*
Y309541D01*
X412858D01*
Y309298D01*
X412374D01*
Y309056D01*
X411889D01*
Y308814D01*
X411647D01*
Y308572D01*
X411405D01*
Y308330D01*
X411163D01*
Y308088D01*
X410921D01*
Y307845D01*
X410679D01*
Y308088D01*
X410436D01*
Y307845D01*
X410194D01*
Y307603D01*
X409952D01*
Y307361D01*
X409710D01*
Y307119D01*
X409468D01*
Y306877D01*
X409226D01*
Y307119D01*
X408983D01*
Y306635D01*
X408499D01*
Y306392D01*
X408257D01*
Y306150D01*
X408015D01*
Y305908D01*
X408499D01*
Y305666D01*
X408983D01*
Y305424D01*
X409226D01*
Y305182D01*
X409468D01*
Y304939D01*
X409710D01*
Y305182D01*
X409952D01*
Y304939D01*
X410194D01*
Y304697D01*
X410436D01*
Y304455D01*
X410679D01*
Y304213D01*
X410921D01*
Y303971D01*
X411405D01*
Y303728D01*
X411889D01*
Y303486D01*
X412132D01*
Y303244D01*
X412374D01*
Y303002D01*
X412616D01*
Y302760D01*
X412858D01*
Y302518D01*
X413100D01*
Y302760D01*
X413343D01*
Y302033D01*
X414069D01*
Y301791D01*
X414311D01*
Y301549D01*
X414553D01*
Y301307D01*
X414795D01*
Y301064D01*
X415038D01*
Y300822D01*
X415280D01*
Y300580D01*
X415764D01*
Y300096D01*
X416249D01*
Y299854D01*
X416733D01*
Y299611D01*
X416975D01*
Y299369D01*
X417217D01*
Y299127D01*
X417459D01*
Y298885D01*
X417702D01*
Y298643D01*
X417944D01*
Y298401D01*
X418186D01*
Y298158D01*
X418428D01*
Y297916D01*
X418670D01*
Y297674D01*
X418913D01*
Y297432D01*
X419155D01*
Y297190D01*
X419397D01*
Y296948D01*
X419639D01*
Y296705D01*
X419881D01*
Y296463D01*
X420123D01*
Y296221D01*
X420365D01*
Y295979D01*
X420608D01*
Y295737D01*
X420850D01*
Y295495D01*
X421092D01*
Y295252D01*
X421334D01*
Y295010D01*
X421576D01*
Y294526D01*
X422061D01*
Y293799D01*
X422303D01*
Y293557D01*
X422545D01*
Y293315D01*
X422787D01*
Y293073D01*
X423029D01*
Y292831D01*
X423272D01*
Y292589D01*
X423514D01*
Y292346D01*
X423756D01*
Y292104D01*
X423998D01*
Y291378D01*
X424240D01*
Y291135D01*
X424482D01*
Y290893D01*
X424725D01*
Y290651D01*
X424967D01*
Y290167D01*
X425209D01*
Y289682D01*
X425451D01*
Y289440D01*
X425693D01*
Y289198D01*
X425936D01*
Y288956D01*
X426178D01*
Y288714D01*
X426420D01*
Y288472D01*
X426178D01*
Y288714D01*
X425936D01*
Y288472D01*
X426178D01*
Y288229D01*
X426420D01*
Y287987D01*
X426662D01*
Y287745D01*
X426904D01*
Y287019D01*
X427146D01*
Y286776D01*
X427388D01*
Y286050D01*
X427631D01*
Y285808D01*
X427873D01*
Y285081D01*
X428115D01*
Y284839D01*
X428357D01*
Y284112D01*
X428599D01*
Y283870D01*
X428842D01*
Y283144D01*
X429084D01*
Y282902D01*
X429326D01*
Y282175D01*
X429568D01*
Y281933D01*
X429810D01*
Y281691D01*
X429568D01*
Y281448D01*
X429810D01*
Y281206D01*
X430052D01*
Y280964D01*
X429810D01*
Y280722D01*
X430052D01*
Y280480D01*
X430295D01*
Y280238D01*
X430052D01*
Y279995D01*
X430295D01*
Y279753D01*
X430537D01*
Y279511D01*
X430295D01*
Y279269D01*
X430537D01*
Y279027D01*
X430779D01*
Y278300D01*
X431021D01*
Y278058D01*
X430779D01*
Y277816D01*
X431021D01*
Y277574D01*
X431263D01*
Y277332D01*
X431021D01*
Y277089D01*
X431263D01*
Y275879D01*
X431505D01*
Y275636D01*
X431748D01*
Y275394D01*
X431505D01*
Y275152D01*
X431748D01*
Y274426D01*
X431990D01*
Y274183D01*
X431748D01*
Y273941D01*
X431990D01*
Y273699D01*
X432232D01*
Y273457D01*
X431990D01*
Y273215D01*
X432232D01*
Y272004D01*
X432474D01*
Y271762D01*
X432232D01*
Y271519D01*
X432474D01*
Y271277D01*
X432232D01*
Y271035D01*
X432474D01*
Y270793D01*
X432716D01*
Y270551D01*
X432474D01*
Y270793D01*
X432232D01*
Y270551D01*
X432474D01*
Y270309D01*
X432716D01*
Y270066D01*
X432474D01*
Y269824D01*
X432716D01*
Y265223D01*
X432474D01*
Y264981D01*
X432716D01*
Y264254D01*
X432474D01*
Y264012D01*
X432716D01*
Y263770D01*
X432474D01*
Y264012D01*
X432232D01*
Y263770D01*
X432474D01*
Y263528D01*
X432716D01*
Y263286D01*
X432474D01*
Y263043D01*
X432232D01*
Y262801D01*
X432474D01*
Y262559D01*
X432232D01*
Y262317D01*
X432474D01*
Y262075D01*
X432232D01*
Y260864D01*
X431990D01*
Y260622D01*
X432232D01*
Y260380D01*
X431990D01*
Y260137D01*
X431748D01*
Y259895D01*
X431990D01*
Y259653D01*
X431748D01*
Y258927D01*
X431505D01*
Y258684D01*
X431748D01*
Y258442D01*
X431505D01*
Y258200D01*
X431748D01*
Y257958D01*
X431505D01*
Y258200D01*
X431263D01*
Y256989D01*
X431021D01*
Y256747D01*
X430779D01*
Y256505D01*
X431021D01*
Y256263D01*
X430779D01*
Y255536D01*
X430537D01*
Y255294D01*
X430779D01*
Y255052D01*
X430537D01*
Y255294D01*
X430295D01*
Y254567D01*
X430052D01*
Y253841D01*
X429810D01*
Y253114D01*
X429568D01*
Y252872D01*
X429326D01*
Y252146D01*
X429084D01*
Y251903D01*
X428842D01*
Y251177D01*
X428599D01*
Y250935D01*
X428357D01*
Y250208D01*
X428115D01*
Y249966D01*
X427873D01*
Y249240D01*
X427631D01*
Y248997D01*
X427388D01*
Y248755D01*
X427146D01*
Y248029D01*
X426904D01*
Y247787D01*
X426662D01*
Y247544D01*
X426420D01*
Y247302D01*
X426178D01*
Y247060D01*
X426420D01*
Y246818D01*
X426178D01*
Y247060D01*
X425936D01*
Y246334D01*
X425693D01*
Y246091D01*
X425451D01*
Y245849D01*
X425209D01*
Y245607D01*
X424967D01*
Y244881D01*
X424725D01*
Y244638D01*
X424482D01*
Y244396D01*
X424240D01*
Y244154D01*
X423998D01*
Y243912D01*
X423756D01*
Y243670D01*
X423514D01*
Y243427D01*
X423272D01*
Y243185D01*
X423029D01*
Y242459D01*
X422787D01*
Y242701D01*
X422545D01*
Y241974D01*
X422303D01*
Y242217D01*
X422061D01*
Y241732D01*
X421576D01*
Y241006D01*
X421334D01*
Y241248D01*
X421092D01*
Y240521D01*
X420850D01*
Y240763D01*
X420608D01*
Y240279D01*
X420123D01*
Y239553D01*
X419881D01*
Y239795D01*
X419639D01*
Y239553D01*
X419397D01*
Y239310D01*
X419155D01*
Y239068D01*
X418913D01*
Y238826D01*
X418670D01*
Y238584D01*
X418428D01*
Y238342D01*
X418186D01*
Y238100D01*
X417944D01*
Y237857D01*
X417702D01*
Y237615D01*
X417217D01*
Y237373D01*
X416733D01*
Y237131D01*
X416491D01*
Y236889D01*
X416249D01*
Y236647D01*
X416006D01*
Y236889D01*
X415764D01*
Y236162D01*
X415522D01*
Y236404D01*
X415280D01*
Y236162D01*
X415038D01*
Y235920D01*
X414795D01*
Y235678D01*
X414553D01*
Y235436D01*
X413827D01*
Y235194D01*
X413585D01*
Y234951D01*
X413343D01*
Y234709D01*
X413100D01*
Y234951D01*
X412858D01*
Y234709D01*
X412616D01*
Y234467D01*
X412374D01*
Y234225D01*
X412132D01*
Y234467D01*
X411889D01*
Y234225D01*
X411647D01*
Y233983D01*
X411405D01*
Y233741D01*
X411163D01*
Y233983D01*
X410921D01*
Y233741D01*
X410679D01*
Y233498D01*
X410436D01*
Y233256D01*
X409710D01*
Y233014D01*
X409468D01*
Y232772D01*
X409226D01*
Y233014D01*
X408983D01*
Y232772D01*
X408741D01*
Y232530D01*
X408499D01*
Y232288D01*
X408257D01*
Y232530D01*
X408015D01*
Y232288D01*
X407772D01*
Y232530D01*
X407530D01*
Y232288D01*
X407288D01*
Y232045D01*
X407530D01*
Y231803D01*
X407288D01*
Y232045D01*
X407046D01*
Y231803D01*
X406804D01*
Y232045D01*
X406562D01*
Y231803D01*
X405835D01*
Y231561D01*
X405593D01*
Y231319D01*
X405351D01*
Y231561D01*
X405109D01*
Y231319D01*
X404866D01*
Y231561D01*
X404624D01*
Y231319D01*
X404382D01*
Y231077D01*
X403656D01*
Y230834D01*
X403413D01*
Y231077D01*
X403171D01*
Y230834D01*
X401960D01*
Y230592D01*
X401718D01*
Y230350D01*
X401476D01*
Y230592D01*
X401234D01*
Y230350D01*
X400992D01*
Y230592D01*
X400750D01*
Y230350D01*
X400507D01*
Y230592D01*
X400265D01*
Y230350D01*
X399054D01*
Y230108D01*
X398812D01*
Y230350D01*
X398570D01*
Y230108D01*
X393000D01*
Y230350D01*
X391789D01*
Y230592D01*
X391547D01*
Y230350D01*
X391305D01*
Y230592D01*
X391063D01*
Y230350D01*
X390820D01*
Y230592D01*
X390578D01*
Y230350D01*
X390336D01*
Y230592D01*
X389610D01*
Y230834D01*
X388883D01*
Y231077D01*
X388641D01*
Y230834D01*
X388399D01*
Y231077D01*
X388157D01*
Y230834D01*
X387914D01*
Y231077D01*
X387672D01*
Y231319D01*
X387430D01*
Y231561D01*
X387188D01*
Y231319D01*
X386946D01*
Y231561D01*
X386703D01*
Y231319D01*
X386461D01*
Y231561D01*
X385977D01*
Y231803D01*
X385493D01*
Y232045D01*
X385251D01*
Y231803D01*
X385008D01*
Y232045D01*
X384766D01*
Y232288D01*
X384040D01*
Y232530D01*
X383797D01*
Y232288D01*
X383555D01*
Y232530D01*
X383313D01*
Y232772D01*
X383071D01*
Y233014D01*
X382829D01*
Y232772D01*
X382587D01*
Y233014D01*
X382344D01*
Y233256D01*
X382102D01*
Y233498D01*
X381860D01*
Y233256D01*
X381618D01*
Y233498D01*
X381376D01*
Y233741D01*
X381133D01*
Y233983D01*
X380891D01*
Y233741D01*
X380649D01*
Y233983D01*
X380407D01*
Y234225D01*
X380165D01*
Y234467D01*
X379923D01*
Y234225D01*
X379680D01*
Y234467D01*
X379438D01*
Y234709D01*
X379196D01*
Y234951D01*
X378712D01*
Y235194D01*
X378228D01*
Y235436D01*
X377985D01*
Y235678D01*
X377743D01*
Y235920D01*
X377501D01*
Y235678D01*
X377259D01*
Y236162D01*
X376774D01*
Y236404D01*
X376532D01*
Y236647D01*
X376290D01*
Y236889D01*
X376048D01*
Y237131D01*
X375806D01*
Y237373D01*
X375321D01*
Y237857D01*
X375079D01*
Y237615D01*
X374837D01*
Y237857D01*
X374595D01*
Y238100D01*
X374353D01*
Y238342D01*
X374110D01*
Y238584D01*
X373868D01*
Y238826D01*
X373626D01*
Y239068D01*
X373384D01*
Y239310D01*
X373142D01*
Y239553D01*
X372900D01*
Y239795D01*
X372658D01*
Y240037D01*
X372415D01*
Y240279D01*
X372173D01*
Y240521D01*
X371931D01*
Y240763D01*
X371689D01*
Y241006D01*
X371447D01*
Y241248D01*
X371204D01*
Y241490D01*
X370962D01*
Y241732D01*
X370720D01*
Y241974D01*
X370478D01*
Y242217D01*
X370236D01*
Y242459D01*
X369994D01*
Y243185D01*
X369751D01*
Y242943D01*
X369509D01*
Y243670D01*
X369267D01*
Y243912D01*
X369025D01*
Y244154D01*
X368783D01*
Y244396D01*
X368540D01*
Y244638D01*
X368298D01*
Y244881D01*
X368056D01*
Y245607D01*
X367814D01*
Y245849D01*
X367572D01*
Y246091D01*
X367330D01*
Y246334D01*
X367088D01*
Y247060D01*
X366845D01*
Y247302D01*
X366603D01*
Y248029D01*
X366361D01*
Y248271D01*
X366119D01*
Y248513D01*
X365877D01*
Y248755D01*
X365634D01*
Y249482D01*
X365392D01*
Y249724D01*
X365150D01*
Y250450D01*
X364908D01*
Y250935D01*
X364666D01*
Y251419D01*
X364424D01*
Y251661D01*
X364181D01*
Y251903D01*
X364424D01*
Y252146D01*
X364181D01*
Y252388D01*
X363939D01*
Y252630D01*
X364181D01*
Y252872D01*
X363939D01*
Y253114D01*
X363697D01*
Y253356D01*
X363455D01*
Y253599D01*
X363697D01*
Y253841D01*
X363455D01*
Y254083D01*
X363213D01*
Y255052D01*
X362728D01*
Y255294D01*
X362971D01*
Y255536D01*
X362728D01*
Y256263D01*
X362486D01*
Y256505D01*
X362728D01*
Y256747D01*
X362486D01*
Y256989D01*
X362244D01*
Y257716D01*
X362002D01*
Y257958D01*
X362244D01*
Y258200D01*
X362002D01*
Y258442D01*
X361760D01*
Y258684D01*
X362002D01*
Y258442D01*
X362244D01*
Y258684D01*
X362002D01*
Y258927D01*
X361760D01*
Y259653D01*
X361517D01*
Y259895D01*
X361760D01*
Y260137D01*
X361517D01*
Y260380D01*
X361275D01*
Y260622D01*
X361517D01*
Y260864D01*
X361275D01*
Y262075D01*
X361033D01*
Y262317D01*
X361275D01*
Y262559D01*
X361033D01*
Y262801D01*
X360791D01*
Y263043D01*
X361033D01*
Y263286D01*
X360791D01*
Y263528D01*
X361033D01*
Y263770D01*
X360791D01*
Y273699D01*
X361033D01*
Y273941D01*
X360791D01*
Y274183D01*
X361033D01*
Y274426D01*
X360791D01*
Y274668D01*
X361033D01*
Y274910D01*
X361275D01*
Y275152D01*
X361033D01*
Y275394D01*
X361275D01*
Y276121D01*
X361517D01*
Y276363D01*
X361275D01*
Y276605D01*
X361517D01*
Y276847D01*
X361275D01*
Y277089D01*
X361517D01*
Y276847D01*
X361760D01*
Y277089D01*
X361517D01*
Y277332D01*
X361760D01*
Y277574D01*
X361517D01*
Y277816D01*
X361760D01*
Y278542D01*
X362002D01*
Y278785D01*
X362244D01*
Y279027D01*
X362002D01*
Y279269D01*
X362244D01*
Y279995D01*
X362486D01*
Y280238D01*
X362728D01*
Y280480D01*
X362486D01*
Y280722D01*
X362728D01*
Y281448D01*
X362971D01*
Y281691D01*
X363213D01*
Y281933D01*
X362971D01*
Y282175D01*
X363213D01*
Y282417D01*
X363455D01*
Y282659D01*
X363213D01*
Y282902D01*
X363455D01*
Y283144D01*
X363697D01*
Y283870D01*
X363939D01*
Y284112D01*
X364181D01*
Y284839D01*
X364424D01*
Y285081D01*
X364666D01*
Y285808D01*
X364908D01*
Y286050D01*
X365150D01*
Y286776D01*
X365634D01*
Y287261D01*
X365877D01*
Y287503D01*
X366119D01*
Y288229D01*
X366361D01*
Y287987D01*
X366603D01*
Y288229D01*
X366361D01*
Y288472D01*
X366603D01*
Y288714D01*
X366845D01*
Y288956D01*
X367088D01*
Y289682D01*
X367330D01*
Y289925D01*
X367572D01*
Y290167D01*
X367814D01*
Y290409D01*
X368056D01*
Y290651D01*
X368298D01*
Y290893D01*
X368540D01*
Y291620D01*
X368783D01*
Y291862D01*
X369025D01*
Y292104D01*
X369267D01*
Y292346D01*
X369509D01*
Y293073D01*
X369751D01*
Y292831D01*
X369994D01*
Y293557D01*
X370478D01*
Y294042D01*
X370720D01*
Y294284D01*
X370962D01*
Y294526D01*
X371204D01*
Y294768D01*
X371447D01*
Y295010D01*
X371689D01*
Y295252D01*
X371931D01*
Y295495D01*
X372173D01*
Y295737D01*
X372415D01*
Y295979D01*
X372658D01*
Y296221D01*
X372900D01*
Y296463D01*
X373142D01*
Y296705D01*
X373384D01*
Y296948D01*
X373626D01*
Y297190D01*
X373868D01*
Y297432D01*
X374110D01*
Y297674D01*
X374353D01*
Y297916D01*
X374595D01*
Y298158D01*
X374837D01*
Y298401D01*
X375079D01*
Y298643D01*
X375321D01*
Y298885D01*
X375564D01*
Y299127D01*
X375806D01*
Y299369D01*
X376048D01*
Y299611D01*
X376290D01*
Y299854D01*
X376774D01*
Y300338D01*
X377017D01*
Y300096D01*
X377259D01*
Y300822D01*
X377501D01*
Y300580D01*
X377743D01*
Y300822D01*
X377985D01*
Y301064D01*
X378228D01*
Y301307D01*
X378470D01*
Y301549D01*
X378712D01*
Y301791D01*
X378954D01*
Y302033D01*
X379196D01*
Y302275D01*
X379680D01*
Y302518D01*
X380165D01*
Y302760D01*
X380407D01*
Y303002D01*
X380649D01*
Y303244D01*
X380891D01*
Y303486D01*
X381133D01*
Y303728D01*
X381618D01*
Y303971D01*
X382102D01*
Y304213D01*
X382344D01*
Y304455D01*
X382587D01*
Y304697D01*
X382829D01*
Y304939D01*
X383555D01*
Y305182D01*
X383797D01*
Y305424D01*
X384040D01*
Y305666D01*
X384282D01*
Y305908D01*
X384040D01*
Y306150D01*
X383797D01*
Y305908D01*
X383555D01*
Y306150D01*
X383313D01*
Y306392D01*
X383071D01*
Y306635D01*
X382829D01*
Y306877D01*
X382587D01*
Y307119D01*
X382102D01*
Y307603D01*
X381860D01*
Y307361D01*
X381618D01*
Y307603D01*
X381376D01*
Y307845D01*
X381133D01*
Y308088D01*
X380891D01*
Y308330D01*
X380649D01*
Y308572D01*
X380407D01*
Y308814D01*
X380165D01*
Y309056D01*
X379923D01*
Y308814D01*
X379680D01*
Y309056D01*
X379438D01*
Y309298D01*
X379196D01*
Y309541D01*
X378954D01*
Y309783D01*
X378712D01*
Y310025D01*
X378470D01*
Y310267D01*
X378228D01*
Y310509D01*
X377985D01*
Y310751D01*
X377743D01*
Y310994D01*
X377259D01*
Y311478D01*
X377017D01*
Y311236D01*
X376774D01*
Y311962D01*
X376532D01*
Y311720D01*
X376290D01*
Y312204D01*
X375806D01*
Y312447D01*
X375564D01*
Y312689D01*
X375321D01*
Y312931D01*
X375079D01*
Y313173D01*
X374837D01*
Y313415D01*
X374595D01*
Y313657D01*
X374353D01*
Y313900D01*
X374110D01*
Y314142D01*
X373868D01*
Y314384D01*
X373626D01*
Y314626D01*
X373384D01*
Y314868D01*
X373142D01*
Y315110D01*
X372900D01*
Y315353D01*
X372658D01*
Y315595D01*
X372415D01*
Y315837D01*
X372173D01*
Y316079D01*
X371931D01*
Y316806D01*
X371689D01*
Y316564D01*
X371447D01*
Y317290D01*
X370962D01*
Y317774D01*
X370720D01*
Y318017D01*
X370478D01*
Y318259D01*
X370236D01*
Y318501D01*
X369994D01*
Y318743D01*
X369751D01*
Y318985D01*
X369509D01*
Y319712D01*
X369267D01*
Y319954D01*
X369025D01*
Y320196D01*
X368783D01*
Y320438D01*
X368540D01*
Y320681D01*
X368298D01*
Y320923D01*
X368056D01*
Y321649D01*
X367814D01*
Y321891D01*
X367572D01*
Y322133D01*
X367330D01*
Y322376D01*
X367088D01*
Y323102D01*
X366845D01*
Y323344D01*
X366603D01*
Y323587D01*
X366361D01*
Y323829D01*
X366119D01*
Y324555D01*
X365877D01*
Y324797D01*
X365634D01*
Y325524D01*
X365392D01*
Y325766D01*
X365150D01*
Y326493D01*
X364908D01*
Y326735D01*
X364666D01*
Y327461D01*
X364424D01*
Y327704D01*
X364181D01*
Y328430D01*
X363939D01*
Y328672D01*
X363697D01*
Y328914D01*
X363939D01*
Y329156D01*
X363697D01*
Y329883D01*
X363455D01*
Y330125D01*
X363213D01*
Y330852D01*
X362971D01*
Y331094D01*
X362728D01*
Y331336D01*
X362971D01*
Y331094D01*
X363213D01*
Y331336D01*
X362971D01*
Y331578D01*
X362728D01*
Y332305D01*
X362486D01*
Y332547D01*
X362728D01*
Y332789D01*
X362486D01*
Y333031D01*
X362244D01*
Y334242D01*
X362002D01*
Y334484D01*
X361760D01*
Y334726D01*
X362002D01*
Y334969D01*
X361760D01*
Y336180D01*
X361517D01*
Y336422D01*
X361760D01*
Y336664D01*
X361517D01*
Y336906D01*
X361275D01*
Y337148D01*
X361517D01*
Y337390D01*
X361275D01*
Y339086D01*
X361033D01*
Y339328D01*
X361275D01*
Y339570D01*
X361033D01*
Y339812D01*
X361275D01*
Y340054D01*
X361033D01*
Y340297D01*
X360791D01*
Y340539D01*
X361033D01*
Y341265D01*
X360791D01*
Y341507D01*
X361033D01*
Y341749D01*
X360791D01*
Y341992D01*
X361033D01*
Y342234D01*
X360791D01*
Y342476D01*
X361033D01*
Y342718D01*
X360791D01*
Y342960D01*
X361033D01*
Y343203D01*
X360791D01*
Y343445D01*
X361033D01*
Y343687D01*
X360791D01*
Y344413D01*
X361033D01*
Y344656D01*
X360791D01*
Y348288D01*
X361033D01*
Y348530D01*
X360791D01*
Y348773D01*
X361033D01*
Y349015D01*
X360791D01*
Y349257D01*
X361033D01*
Y349499D01*
X360791D01*
Y349741D01*
X361033D01*
Y349983D01*
X360791D01*
Y350226D01*
X361033D01*
Y350468D01*
X361275D01*
Y350710D01*
X361033D01*
Y350952D01*
X361275D01*
Y352647D01*
X361517D01*
Y352890D01*
X361760D01*
Y353132D01*
X361517D01*
Y353374D01*
X361760D01*
Y354585D01*
X362002D01*
Y354827D01*
X361760D01*
Y355069D01*
X362002D01*
Y355311D01*
X362244D01*
Y356038D01*
X362486D01*
Y356280D01*
X362244D01*
Y356522D01*
X362486D01*
Y356764D01*
X362728D01*
Y357491D01*
X362971D01*
Y357733D01*
X362728D01*
Y357975D01*
X362971D01*
Y358217D01*
X363213D01*
Y358459D01*
X363455D01*
Y358702D01*
X363213D01*
Y358944D01*
X363455D01*
Y359186D01*
X363697D01*
Y359912D01*
X363939D01*
Y360155D01*
X364181D01*
Y360881D01*
X364424D01*
Y361123D01*
X364666D01*
Y361850D01*
X364908D01*
Y362092D01*
X365150D01*
Y362819D01*
X365392D01*
Y362576D01*
X365634D01*
Y362819D01*
X365392D01*
Y363061D01*
X365634D01*
Y363787D01*
X365877D01*
Y364029D01*
X366119D01*
Y364272D01*
X366361D01*
Y364514D01*
X366603D01*
Y365240D01*
X366845D01*
Y365482D01*
X367088D01*
Y365725D01*
X367330D01*
Y365967D01*
X367572D01*
Y366209D01*
X367814D01*
Y366451D01*
X367572D01*
Y366693D01*
X367814D01*
Y366451D01*
X368056D01*
Y367178D01*
X368540D01*
Y367662D01*
X368783D01*
Y367904D01*
X369025D01*
Y368146D01*
X369267D01*
Y368388D01*
X369509D01*
Y368631D01*
X369751D01*
Y368873D01*
X369994D01*
Y369115D01*
X370236D01*
Y369357D01*
X370478D01*
Y369599D01*
X370720D01*
Y369842D01*
X370962D01*
Y370084D01*
X371204D01*
Y370326D01*
X371447D01*
Y370568D01*
X371689D01*
Y370810D01*
X371931D01*
Y371052D01*
X372173D01*
Y371295D01*
X372415D01*
Y371537D01*
X372658D01*
Y371779D01*
X372900D01*
Y372021D01*
X373142D01*
Y372263D01*
X373384D01*
Y372505D01*
X373626D01*
Y372748D01*
X373868D01*
Y372990D01*
X374353D01*
Y373474D01*
X374837D01*
Y373716D01*
X375321D01*
Y373959D01*
X375564D01*
Y374201D01*
X375806D01*
Y374443D01*
X376048D01*
Y374685D01*
X376290D01*
Y374927D01*
X376532D01*
Y374685D01*
X376774D01*
Y374927D01*
X377017D01*
Y375169D01*
X377259D01*
Y375411D01*
X377501D01*
Y375654D01*
X378228D01*
Y375896D01*
X378470D01*
Y376138D01*
X378712D01*
Y376380D01*
X378954D01*
Y376138D01*
X379196D01*
Y376380D01*
X379438D01*
Y376622D01*
X379680D01*
Y376865D01*
X380165D01*
Y377349D01*
X380407D01*
Y377107D01*
X380649D01*
Y377349D01*
X380891D01*
Y377591D01*
X381133D01*
Y377833D01*
X381376D01*
Y377591D01*
X381618D01*
Y377833D01*
X381860D01*
Y378075D01*
X382102D01*
Y378318D01*
X382344D01*
Y378075D01*
X382587D01*
Y378318D01*
X382829D01*
Y378075D01*
X383071D01*
Y378318D01*
X382829D01*
Y378560D01*
X383555D01*
Y378802D01*
X384282D01*
Y379044D01*
X384524D01*
Y379286D01*
X384766D01*
Y379044D01*
X385008D01*
Y379286D01*
X385493D01*
Y379529D01*
X385977D01*
Y379771D01*
X386219D01*
Y379529D01*
X386461D01*
Y379771D01*
X386946D01*
Y380013D01*
X387430D01*
Y380255D01*
X387672D01*
Y380013D01*
X387914D01*
Y380255D01*
X388641D01*
Y380497D01*
X388883D01*
Y380739D01*
X389125D01*
Y380497D01*
X389367D01*
Y380739D01*
X389610D01*
Y380497D01*
X389852D01*
Y380739D01*
X390578D01*
Y380981D01*
X391789D01*
Y381224D01*
X392031D01*
Y380981D01*
X392273D01*
Y381224D01*
X402202D01*
Y380981D01*
X402445D01*
Y381224D01*
X402687D01*
Y380981D01*
X403413D01*
Y381224D01*
X403656D01*
Y380981D01*
D02*
G37*
G36*
X462746Y374685D02*
X462019D01*
Y374443D01*
X461777D01*
Y374201D01*
X461535D01*
Y374443D01*
X461293D01*
Y374201D01*
X461050D01*
Y374443D01*
X460808D01*
Y374201D01*
X460082D01*
Y373959D01*
X459840D01*
Y373716D01*
X459598D01*
Y373959D01*
X459355D01*
Y373716D01*
X458629D01*
Y373474D01*
X457902D01*
Y373232D01*
X458144D01*
Y372990D01*
X457902D01*
Y371295D01*
X458144D01*
Y371052D01*
X457902D01*
Y369357D01*
X458144D01*
Y369115D01*
X457902D01*
Y367420D01*
X458144D01*
Y367178D01*
X457902D01*
Y365482D01*
X458144D01*
Y365240D01*
X457902D01*
Y364998D01*
X458629D01*
Y364756D01*
X458871D01*
Y364514D01*
X459113D01*
Y364756D01*
X459355D01*
Y364514D01*
X459598D01*
Y364756D01*
X459840D01*
Y364514D01*
X460082D01*
Y364272D01*
X460808D01*
Y364029D01*
X461050D01*
Y364272D01*
X461293D01*
Y364029D01*
X462019D01*
Y363787D01*
X462261D01*
Y363545D01*
X462504D01*
Y363787D01*
X462746D01*
Y358217D01*
X462504D01*
Y358459D01*
X462261D01*
Y358702D01*
X462019D01*
Y358459D01*
X461777D01*
Y358702D01*
X461535D01*
Y358944D01*
X461293D01*
Y358702D01*
X461050D01*
Y358944D01*
X460324D01*
Y359186D01*
X460082D01*
Y359428D01*
X459840D01*
Y359186D01*
X459598D01*
Y359428D01*
X459355D01*
Y359186D01*
X459113D01*
Y359428D01*
X458871D01*
Y359670D01*
X458629D01*
Y359912D01*
X458387D01*
Y359670D01*
X458144D01*
Y359912D01*
X457902D01*
Y359670D01*
X457660D01*
Y359912D01*
X457418D01*
Y360155D01*
X456691D01*
Y360397D01*
X456449D01*
Y360155D01*
X456207D01*
Y360397D01*
X455480D01*
Y360639D01*
X454754D01*
Y360881D01*
X454027D01*
Y361123D01*
X453301D01*
Y361366D01*
X453059D01*
Y361123D01*
X452817D01*
Y361366D01*
X452575D01*
Y361608D01*
X452332D01*
Y361366D01*
X452090D01*
Y361608D01*
X451848D01*
Y361850D01*
X451606D01*
Y361608D01*
X451364D01*
Y361850D01*
X451121D01*
Y361608D01*
X450879D01*
Y361850D01*
X450637D01*
Y362092D01*
X450395D01*
Y362334D01*
X450153D01*
Y362092D01*
X449911D01*
Y362334D01*
X449668D01*
Y362092D01*
X449426D01*
Y362334D01*
X449184D01*
Y362576D01*
X448457D01*
Y362819D01*
X448215D01*
Y362576D01*
X447973D01*
Y362819D01*
X447489D01*
Y363061D01*
X447005D01*
Y363303D01*
X446762D01*
Y363061D01*
X446520D01*
Y363303D01*
X445794D01*
Y363545D01*
X445067D01*
Y363787D01*
X444825D01*
Y363545D01*
X444583D01*
Y363787D01*
X444341D01*
Y364029D01*
X443614D01*
Y364272D01*
X443372D01*
Y364029D01*
X443130D01*
Y364272D01*
X442888D01*
Y364514D01*
X442645D01*
Y364272D01*
X442403D01*
Y364514D01*
X442161D01*
Y364756D01*
X441919D01*
Y364514D01*
X441677D01*
Y364756D01*
X441435D01*
Y364514D01*
X441192D01*
Y364756D01*
X440950D01*
Y364998D01*
X440708D01*
Y365240D01*
X440466D01*
Y364998D01*
X440224D01*
Y365240D01*
X439981D01*
Y364998D01*
X439739D01*
Y365240D01*
X439255D01*
Y365482D01*
X438286D01*
Y365725D01*
X438044D01*
Y365967D01*
X438286D01*
Y366693D01*
X438044D01*
Y366936D01*
X438286D01*
Y367662D01*
X438044D01*
Y367904D01*
X438286D01*
Y368631D01*
X438044D01*
Y368873D01*
X438286D01*
Y369599D01*
X438044D01*
Y369842D01*
X438286D01*
Y370568D01*
X438044D01*
Y370810D01*
X438286D01*
Y371537D01*
X438044D01*
Y371779D01*
X438286D01*
Y372505D01*
X438529D01*
Y372263D01*
X438771D01*
Y372505D01*
X439013D01*
Y372263D01*
X439255D01*
Y372505D01*
X439497D01*
Y372748D01*
X439739D01*
Y372990D01*
X439981D01*
Y372748D01*
X440224D01*
Y372990D01*
X440466D01*
Y372748D01*
X440708D01*
Y372990D01*
X440950D01*
Y373232D01*
X441677D01*
Y373474D01*
X441919D01*
Y373232D01*
X442161D01*
Y373474D01*
X442645D01*
Y373716D01*
X443130D01*
Y373959D01*
X443372D01*
Y373716D01*
X443614D01*
Y373959D01*
X443856D01*
Y373716D01*
X444098D01*
Y373959D01*
X444341D01*
Y374201D01*
X445067D01*
Y374443D01*
X445309D01*
Y374201D01*
X445551D01*
Y374443D01*
X445794D01*
Y374685D01*
X446520D01*
Y374927D01*
X446762D01*
Y374685D01*
X447005D01*
Y374927D01*
X447247D01*
Y374685D01*
X447489D01*
Y374927D01*
X447731D01*
Y375169D01*
X447973D01*
Y375411D01*
X448215D01*
Y375169D01*
X448457D01*
Y375411D01*
X448700D01*
Y375169D01*
X448942D01*
Y375411D01*
X449184D01*
Y375654D01*
X449911D01*
Y375896D01*
X450153D01*
Y375654D01*
X450395D01*
Y375896D01*
X450879D01*
Y376380D01*
X451121D01*
Y376138D01*
X451364D01*
Y376380D01*
X451606D01*
Y376138D01*
X451848D01*
Y376380D01*
X452575D01*
Y376622D01*
X453301D01*
Y376865D01*
X453543D01*
Y376622D01*
X453785D01*
Y376865D01*
X454027D01*
Y377107D01*
X454754D01*
Y377349D01*
X454996D01*
Y377107D01*
X455238D01*
Y377349D01*
X455480D01*
Y377107D01*
X455723D01*
Y377349D01*
X455965D01*
Y377591D01*
X456207D01*
Y377833D01*
X456449D01*
Y377591D01*
X456691D01*
Y377833D01*
X457418D01*
Y378075D01*
X457660D01*
Y378318D01*
X457902D01*
Y378075D01*
X458144D01*
Y378318D01*
X458387D01*
Y378075D01*
X458629D01*
Y378318D01*
X458871D01*
Y378560D01*
X459598D01*
Y378802D01*
X459840D01*
Y378560D01*
X460082D01*
Y378802D01*
X460808D01*
Y379044D01*
X461535D01*
Y379286D01*
X462261D01*
Y379529D01*
X462746D01*
Y374685D01*
D02*
G37*
G36*
Y350952D02*
X462504D01*
Y351194D01*
X462261D01*
Y350952D01*
X462019D01*
Y351194D01*
X461777D01*
Y350952D01*
X461535D01*
Y351194D01*
X461293D01*
Y350952D01*
X461050D01*
Y351194D01*
X460808D01*
Y350952D01*
X460566D01*
Y351194D01*
X460324D01*
Y350952D01*
X460082D01*
Y351194D01*
X459840D01*
Y350952D01*
X459598D01*
Y351194D01*
X459355D01*
Y350952D01*
X459113D01*
Y351194D01*
X458871D01*
Y350952D01*
X458629D01*
Y351194D01*
X458387D01*
Y350952D01*
X458144D01*
Y351194D01*
X457902D01*
Y350952D01*
X457660D01*
Y351194D01*
X457418D01*
Y350952D01*
X457176D01*
Y351194D01*
X456934D01*
Y350952D01*
X456691D01*
Y351194D01*
X456449D01*
Y350952D01*
X456207D01*
Y351194D01*
X455965D01*
Y350952D01*
X455723D01*
Y351194D01*
X455480D01*
Y350952D01*
X455238D01*
Y351194D01*
X454996D01*
Y350952D01*
X454754D01*
Y351194D01*
X454512D01*
Y350952D01*
X454270D01*
Y351194D01*
X454027D01*
Y350952D01*
X453785D01*
Y351194D01*
X453543D01*
Y350952D01*
X452817D01*
Y351194D01*
X452575D01*
Y349499D01*
X452817D01*
Y349257D01*
X453059D01*
Y349015D01*
X452817D01*
Y349257D01*
X452575D01*
Y349015D01*
X452817D01*
Y348773D01*
X453059D01*
Y348530D01*
X453301D01*
Y347804D01*
X453543D01*
Y347562D01*
X454027D01*
Y347319D01*
X454512D01*
Y347077D01*
X454754D01*
Y347319D01*
X454996D01*
Y347077D01*
X455238D01*
Y346835D01*
X455480D01*
Y346593D01*
X455965D01*
Y346351D01*
X456449D01*
Y346109D01*
X456691D01*
Y346351D01*
X456934D01*
Y346109D01*
X457176D01*
Y345867D01*
X457418D01*
Y345624D01*
X457660D01*
Y345867D01*
X457902D01*
Y345624D01*
X458144D01*
Y345382D01*
X458387D01*
Y345140D01*
X458629D01*
Y345382D01*
X458871D01*
Y345140D01*
X459113D01*
Y344898D01*
X459840D01*
Y344656D01*
X460566D01*
Y344413D01*
X460808D01*
Y344171D01*
X461050D01*
Y344413D01*
X461293D01*
Y344171D01*
X461535D01*
Y343929D01*
X461777D01*
Y343687D01*
X462019D01*
Y343929D01*
X462261D01*
Y343687D01*
X462504D01*
Y343445D01*
X462746D01*
Y342234D01*
X462988D01*
Y341992D01*
X462746D01*
Y341265D01*
X462988D01*
Y341023D01*
X462746D01*
Y340297D01*
X462988D01*
Y340054D01*
X462746D01*
Y339328D01*
X462988D01*
Y339086D01*
X462746D01*
Y338359D01*
X462504D01*
Y338117D01*
X462261D01*
Y338359D01*
X461535D01*
Y338601D01*
X461050D01*
Y338843D01*
X460566D01*
Y339086D01*
X460324D01*
Y339328D01*
X460082D01*
Y339086D01*
X459840D01*
Y339328D01*
X459598D01*
Y339570D01*
X459113D01*
Y339812D01*
X458629D01*
Y340054D01*
X458387D01*
Y339812D01*
X458144D01*
Y340054D01*
X457902D01*
Y340297D01*
X457660D01*
Y340539D01*
X456934D01*
Y340781D01*
X456691D01*
Y341023D01*
X456449D01*
Y340781D01*
X456207D01*
Y341023D01*
X455965D01*
Y341265D01*
X455723D01*
Y341507D01*
X455480D01*
Y341265D01*
X455238D01*
Y341507D01*
X454996D01*
Y341749D01*
X454754D01*
Y341992D01*
X454512D01*
Y341749D01*
X454270D01*
Y341992D01*
X454027D01*
Y342234D01*
X453785D01*
Y342476D01*
X453543D01*
Y342234D01*
X453301D01*
Y342476D01*
X453059D01*
Y342718D01*
X452817D01*
Y342960D01*
X452575D01*
Y343203D01*
X452332D01*
Y343445D01*
X452090D01*
Y343203D01*
X451848D01*
Y343929D01*
X451606D01*
Y344171D01*
X451364D01*
Y344413D01*
X451121D01*
Y344171D01*
X450879D01*
Y343929D01*
X451121D01*
Y343687D01*
X450879D01*
Y343445D01*
X450637D01*
Y342718D01*
X450395D01*
Y342476D01*
X450153D01*
Y341749D01*
X449911D01*
Y341992D01*
X449668D01*
Y341265D01*
X449426D01*
Y341023D01*
X449184D01*
Y340781D01*
X448942D01*
Y341023D01*
X448700D01*
Y340781D01*
X448457D01*
Y340539D01*
X448215D01*
Y340297D01*
X447973D01*
Y340539D01*
X447731D01*
Y340297D01*
X447489D01*
Y340054D01*
X447247D01*
Y339812D01*
X447005D01*
Y340054D01*
X446762D01*
Y339812D01*
X446520D01*
Y339570D01*
X446278D01*
Y339812D01*
X446036D01*
Y339570D01*
X445309D01*
Y339328D01*
X445067D01*
Y339570D01*
X443856D01*
Y339812D01*
X443130D01*
Y340054D01*
X442888D01*
Y339812D01*
X442645D01*
Y340054D01*
X442161D01*
Y340539D01*
X441919D01*
Y340297D01*
X441677D01*
Y340539D01*
X441435D01*
Y340781D01*
X441192D01*
Y341023D01*
X440950D01*
Y340781D01*
X440708D01*
Y341023D01*
X440466D01*
Y341265D01*
X440224D01*
Y341507D01*
X439981D01*
Y341749D01*
X439739D01*
Y342476D01*
X439497D01*
Y342718D01*
X439255D01*
Y342960D01*
X439013D01*
Y343203D01*
X439255D01*
Y343445D01*
X439013D01*
Y343687D01*
X438771D01*
Y344413D01*
X438529D01*
Y344656D01*
X438771D01*
Y344898D01*
X438529D01*
Y345140D01*
X438286D01*
Y345382D01*
X438529D01*
Y345624D01*
X438286D01*
Y349257D01*
X438044D01*
Y349499D01*
X438286D01*
Y349741D01*
X438044D01*
Y349983D01*
X438286D01*
Y350226D01*
X438044D01*
Y350468D01*
X438286D01*
Y350710D01*
X438044D01*
Y350952D01*
X438286D01*
Y351194D01*
X438044D01*
Y351436D01*
X438286D01*
Y351679D01*
X438044D01*
Y351921D01*
X438286D01*
Y352163D01*
X438044D01*
Y352405D01*
X438286D01*
Y352647D01*
X438044D01*
Y352890D01*
X438286D01*
Y353132D01*
X438044D01*
Y353374D01*
X438286D01*
Y353616D01*
X438044D01*
Y353858D01*
X438286D01*
Y354100D01*
X438044D01*
Y354342D01*
X438286D01*
Y354585D01*
X438044D01*
Y354827D01*
X438286D01*
Y355069D01*
X438044D01*
Y355311D01*
X438286D01*
Y356038D01*
X438529D01*
Y355796D01*
X438771D01*
Y356038D01*
X439013D01*
Y355796D01*
X439255D01*
Y356038D01*
X439497D01*
Y355796D01*
X439739D01*
Y356038D01*
X439981D01*
Y355796D01*
X440224D01*
Y356038D01*
X440466D01*
Y355796D01*
X440708D01*
Y356038D01*
X440950D01*
Y355796D01*
X441192D01*
Y356038D01*
X441435D01*
Y355796D01*
X441677D01*
Y356038D01*
X441919D01*
Y355796D01*
X442161D01*
Y356038D01*
X442403D01*
Y355796D01*
X442645D01*
Y356038D01*
X442888D01*
Y355796D01*
X443130D01*
Y356038D01*
X443372D01*
Y355796D01*
X443614D01*
Y356038D01*
X443856D01*
Y355796D01*
X444098D01*
Y356038D01*
X444341D01*
Y355796D01*
X444583D01*
Y356038D01*
X444825D01*
Y355796D01*
X445067D01*
Y356038D01*
X445309D01*
Y355796D01*
X445551D01*
Y356038D01*
X445794D01*
Y355796D01*
X446036D01*
Y356038D01*
X446278D01*
Y355796D01*
X446520D01*
Y356038D01*
X446762D01*
Y355796D01*
X447005D01*
Y356038D01*
X447247D01*
Y355796D01*
X447489D01*
Y356038D01*
X447731D01*
Y355796D01*
X447973D01*
Y356038D01*
X448215D01*
Y355796D01*
X448457D01*
Y356038D01*
X448700D01*
Y355796D01*
X448942D01*
Y356038D01*
X449184D01*
Y355796D01*
X449426D01*
Y356038D01*
X449668D01*
Y355796D01*
X449911D01*
Y356038D01*
X450153D01*
Y355796D01*
X450395D01*
Y356038D01*
X450637D01*
Y355796D01*
X450879D01*
Y356038D01*
X451121D01*
Y355796D01*
X451364D01*
Y356038D01*
X451606D01*
Y355796D01*
X451848D01*
Y356038D01*
X452090D01*
Y355796D01*
X452332D01*
Y356038D01*
X452575D01*
Y355796D01*
X452817D01*
Y356038D01*
X453059D01*
Y355796D01*
X453301D01*
Y356038D01*
X453543D01*
Y355796D01*
X453785D01*
Y356038D01*
X454027D01*
Y355796D01*
X454270D01*
Y356038D01*
X454512D01*
Y355796D01*
X454754D01*
Y356038D01*
X454996D01*
Y355796D01*
X455238D01*
Y356038D01*
X455480D01*
Y355796D01*
X455723D01*
Y356038D01*
X455965D01*
Y355796D01*
X456207D01*
Y356038D01*
X456449D01*
Y355796D01*
X456691D01*
Y356038D01*
X456934D01*
Y355796D01*
X457176D01*
Y356038D01*
X457418D01*
Y355796D01*
X457660D01*
Y356038D01*
X457902D01*
Y355796D01*
X458144D01*
Y356038D01*
X458387D01*
Y355796D01*
X458629D01*
Y356038D01*
X458871D01*
Y355796D01*
X459113D01*
Y356038D01*
X459355D01*
Y355796D01*
X459598D01*
Y356038D01*
X459840D01*
Y355796D01*
X460082D01*
Y356038D01*
X460324D01*
Y355796D01*
X460566D01*
Y356038D01*
X460808D01*
Y355796D01*
X461050D01*
Y356038D01*
X461293D01*
Y355796D01*
X461535D01*
Y356038D01*
X461777D01*
Y355796D01*
X462019D01*
Y356038D01*
X462261D01*
Y355796D01*
X462504D01*
Y356038D01*
X462746D01*
Y350952D01*
D02*
G37*
G36*
X462019Y335211D02*
X462746D01*
Y327219D01*
X462504D01*
Y326977D01*
X462746D01*
Y326735D01*
X462504D01*
Y326493D01*
X462746D01*
Y326250D01*
X462504D01*
Y326008D01*
X462746D01*
Y325766D01*
X462504D01*
Y326008D01*
X462261D01*
Y325766D01*
X462504D01*
Y325524D01*
X462261D01*
Y324313D01*
X462019D01*
Y323587D01*
X461777D01*
Y322860D01*
X461535D01*
Y322618D01*
X461293D01*
Y321891D01*
X461050D01*
Y321649D01*
X460808D01*
Y320923D01*
X460566D01*
Y321165D01*
X460324D01*
Y320438D01*
X460082D01*
Y320196D01*
X459840D01*
Y319954D01*
X459598D01*
Y319712D01*
X459355D01*
Y319470D01*
X459113D01*
Y319228D01*
X458871D01*
Y318985D01*
X458629D01*
Y319228D01*
X458387D01*
Y318501D01*
X458144D01*
Y318743D01*
X457902D01*
Y318501D01*
X457660D01*
Y318259D01*
X457418D01*
Y318017D01*
X457176D01*
Y318259D01*
X456934D01*
Y318017D01*
X456449D01*
Y317532D01*
X456207D01*
Y317774D01*
X455965D01*
Y317532D01*
X455238D01*
Y317290D01*
X454996D01*
Y317048D01*
X454754D01*
Y317290D01*
X454512D01*
Y317048D01*
X454270D01*
Y317290D01*
X454027D01*
Y317048D01*
X453785D01*
Y317290D01*
X453543D01*
Y317048D01*
X453301D01*
Y316806D01*
X452090D01*
Y316564D01*
X451848D01*
Y316806D01*
X451606D01*
Y316564D01*
X451364D01*
Y316806D01*
X451121D01*
Y316564D01*
X450879D01*
Y316806D01*
X450637D01*
Y316564D01*
X450395D01*
Y316806D01*
X450153D01*
Y316564D01*
X449911D01*
Y316806D01*
X449668D01*
Y316564D01*
X449426D01*
Y316806D01*
X449184D01*
Y316564D01*
X448942D01*
Y316806D01*
X448700D01*
Y316564D01*
X448457D01*
Y316806D01*
X448215D01*
Y316564D01*
X447973D01*
Y316806D01*
X447731D01*
Y316564D01*
X447489D01*
Y316806D01*
X446762D01*
Y317048D01*
X446520D01*
Y316806D01*
X446278D01*
Y317048D01*
X446036D01*
Y317290D01*
X445794D01*
Y317048D01*
X445551D01*
Y317290D01*
X445309D01*
Y317048D01*
X445067D01*
Y317290D01*
X444825D01*
Y317532D01*
X444583D01*
Y317774D01*
X444341D01*
Y317532D01*
X444098D01*
Y317774D01*
X443372D01*
Y318017D01*
X443130D01*
Y318259D01*
X442645D01*
Y318501D01*
X442161D01*
Y318743D01*
X441919D01*
Y318985D01*
X441677D01*
Y319228D01*
X441435D01*
Y319470D01*
X441192D01*
Y319712D01*
X440950D01*
Y319954D01*
X440708D01*
Y320196D01*
X440466D01*
Y320438D01*
X440224D01*
Y320681D01*
X439981D01*
Y320923D01*
X439739D01*
Y321649D01*
X439497D01*
Y321891D01*
X439255D01*
Y322133D01*
X439013D01*
Y322376D01*
X438771D01*
Y322618D01*
X439013D01*
Y322376D01*
X439255D01*
Y322618D01*
X439013D01*
Y322860D01*
X438771D01*
Y323587D01*
X438529D01*
Y323829D01*
X438286D01*
Y324071D01*
X438529D01*
Y324313D01*
X438286D01*
Y326977D01*
X438044D01*
Y327219D01*
X438286D01*
Y327946D01*
X438044D01*
Y328188D01*
X438286D01*
Y328914D01*
X438044D01*
Y329156D01*
X438286D01*
Y329399D01*
X438044D01*
Y329641D01*
X438286D01*
Y329883D01*
X438044D01*
Y330125D01*
X438286D01*
Y330367D01*
X438044D01*
Y330610D01*
X438286D01*
Y330852D01*
X438044D01*
Y331094D01*
X438286D01*
Y331336D01*
X438044D01*
Y331578D01*
X438286D01*
Y331820D01*
X438044D01*
Y332063D01*
X438286D01*
Y332305D01*
X438044D01*
Y332547D01*
X438286D01*
Y332789D01*
X438044D01*
Y333031D01*
X438286D01*
Y333274D01*
X438044D01*
Y333516D01*
X438286D01*
Y333758D01*
X438044D01*
Y334000D01*
X438286D01*
Y334242D01*
X438044D01*
Y334484D01*
X438286D01*
Y334726D01*
X438044D01*
Y334969D01*
X438286D01*
Y335211D01*
X438529D01*
Y335453D01*
X438771D01*
Y335211D01*
X439497D01*
Y335453D01*
X439739D01*
Y335211D01*
X440466D01*
Y335453D01*
X440708D01*
Y335211D01*
X441435D01*
Y335453D01*
X441677D01*
Y335211D01*
X442403D01*
Y335453D01*
X442645D01*
Y335211D01*
X443372D01*
Y335453D01*
X443614D01*
Y335211D01*
X444341D01*
Y335453D01*
X444583D01*
Y335211D01*
X445309D01*
Y335453D01*
X445551D01*
Y335211D01*
X446278D01*
Y335453D01*
X446520D01*
Y335211D01*
X447247D01*
Y335453D01*
X447489D01*
Y335211D01*
X448215D01*
Y335453D01*
X448457D01*
Y335211D01*
X449184D01*
Y335453D01*
X449426D01*
Y335211D01*
X450153D01*
Y335453D01*
X450395D01*
Y335211D01*
X451121D01*
Y335453D01*
X451364D01*
Y335211D01*
X452090D01*
Y335453D01*
X452332D01*
Y335211D01*
X453059D01*
Y335453D01*
X453301D01*
Y335211D01*
X454027D01*
Y335453D01*
X454270D01*
Y335211D01*
X454996D01*
Y335453D01*
X455238D01*
Y335211D01*
X455965D01*
Y335453D01*
X456207D01*
Y335211D01*
X456934D01*
Y335453D01*
X457176D01*
Y335211D01*
X457902D01*
Y335453D01*
X458144D01*
Y335211D01*
X458871D01*
Y335453D01*
X459113D01*
Y335211D01*
X459840D01*
Y335453D01*
X460082D01*
Y335211D01*
X460808D01*
Y335453D01*
X461050D01*
Y335211D01*
X461777D01*
Y335453D01*
X462019D01*
Y335211D01*
D02*
G37*
G36*
X454512Y313657D02*
X456207D01*
Y313415D01*
X456449D01*
Y313657D01*
X456691D01*
Y313415D01*
X457418D01*
Y313173D01*
X457660D01*
Y313415D01*
X457902D01*
Y313173D01*
X458629D01*
Y312931D01*
X458871D01*
Y312689D01*
X459113D01*
Y312931D01*
X459355D01*
Y312689D01*
X459598D01*
Y312447D01*
X459840D01*
Y312204D01*
X460082D01*
Y311962D01*
X460324D01*
Y311720D01*
X460808D01*
Y311236D01*
X461050D01*
Y310994D01*
X461293D01*
Y310751D01*
X461535D01*
Y310509D01*
X461777D01*
Y310267D01*
X462019D01*
Y310025D01*
X462261D01*
Y309298D01*
X462504D01*
Y309056D01*
X462746D01*
Y308814D01*
X462504D01*
Y308572D01*
X462746D01*
Y308330D01*
X462988D01*
Y308088D01*
X462746D01*
Y307845D01*
X462988D01*
Y307603D01*
X463230D01*
Y307361D01*
X462988D01*
Y307119D01*
X463230D01*
Y303486D01*
X462988D01*
Y303244D01*
X463230D01*
Y303002D01*
X462988D01*
Y302760D01*
X463230D01*
Y302518D01*
X462988D01*
Y302275D01*
X462746D01*
Y302033D01*
X462988D01*
Y301791D01*
X462746D01*
Y301064D01*
X462504D01*
Y300822D01*
X462261D01*
Y300096D01*
X462019D01*
Y299854D01*
X461777D01*
Y299127D01*
X461535D01*
Y299369D01*
X461293D01*
Y298643D01*
X461050D01*
Y298401D01*
X460808D01*
Y298158D01*
X460566D01*
Y297916D01*
X460324D01*
Y297674D01*
X460082D01*
Y297432D01*
X459840D01*
Y297190D01*
X459598D01*
Y297432D01*
X459355D01*
Y297190D01*
X459113D01*
Y296948D01*
X458871D01*
Y296705D01*
X458629D01*
Y296948D01*
X458387D01*
Y296705D01*
X458144D01*
Y296463D01*
X457902D01*
Y296221D01*
X457176D01*
Y295979D01*
X456449D01*
Y295737D01*
X456207D01*
Y295979D01*
X455965D01*
Y295737D01*
X455723D01*
Y295979D01*
X455480D01*
Y295737D01*
X455238D01*
Y295979D01*
X454996D01*
Y295737D01*
X454754D01*
Y295979D01*
X454512D01*
Y295737D01*
X454270D01*
Y295495D01*
X454027D01*
Y295737D01*
X453785D01*
Y295979D01*
X453543D01*
Y295737D01*
X453301D01*
Y295495D01*
X453059D01*
Y295737D01*
X452817D01*
Y295979D01*
X452575D01*
Y295737D01*
X452332D01*
Y295495D01*
X452090D01*
Y295737D01*
X451848D01*
Y295979D01*
X451606D01*
Y295737D01*
X451364D01*
Y295495D01*
X451121D01*
Y295737D01*
X450395D01*
Y295495D01*
X450153D01*
Y295737D01*
X449911D01*
Y295979D01*
X449668D01*
Y295737D01*
X449426D01*
Y295495D01*
X449184D01*
Y295737D01*
X448942D01*
Y295979D01*
X448700D01*
Y295737D01*
X448457D01*
Y295495D01*
X448215D01*
Y295737D01*
X447973D01*
Y295979D01*
X447731D01*
Y295737D01*
X447489D01*
Y295495D01*
X447247D01*
Y295737D01*
X446520D01*
Y295495D01*
X446278D01*
Y295737D01*
X446036D01*
Y295979D01*
X445794D01*
Y295737D01*
X445551D01*
Y295495D01*
X445309D01*
Y295737D01*
X445067D01*
Y295979D01*
X444825D01*
Y295737D01*
X444583D01*
Y295495D01*
X444341D01*
Y295737D01*
X444098D01*
Y295979D01*
X443856D01*
Y295737D01*
X443614D01*
Y295495D01*
X443372D01*
Y295737D01*
X442645D01*
Y295495D01*
X442403D01*
Y295737D01*
X442161D01*
Y295979D01*
X441919D01*
Y295737D01*
X441677D01*
Y295495D01*
X441435D01*
Y295737D01*
X441192D01*
Y295979D01*
X440950D01*
Y295737D01*
X440708D01*
Y295495D01*
X440466D01*
Y295737D01*
X440224D01*
Y295979D01*
X439981D01*
Y295737D01*
X439739D01*
Y295495D01*
X439497D01*
Y295737D01*
X438771D01*
Y295495D01*
X438529D01*
Y295737D01*
X438286D01*
Y295979D01*
X438044D01*
Y296221D01*
X438286D01*
Y296463D01*
X438044D01*
Y296705D01*
X438286D01*
Y296948D01*
X438044D01*
Y297190D01*
X438286D01*
Y297432D01*
X438044D01*
Y297674D01*
X438286D01*
Y297916D01*
X438044D01*
Y298158D01*
X438286D01*
Y298401D01*
X438044D01*
Y298643D01*
X438286D01*
Y298885D01*
X438044D01*
Y299127D01*
X438286D01*
Y299369D01*
X438044D01*
Y299611D01*
X438286D01*
Y299854D01*
X438044D01*
Y300096D01*
X438286D01*
Y300580D01*
X438771D01*
Y300338D01*
X439013D01*
Y300580D01*
X439255D01*
Y300338D01*
X439497D01*
Y300580D01*
X439739D01*
Y300338D01*
X439981D01*
Y300580D01*
X440224D01*
Y300338D01*
X440466D01*
Y300580D01*
X440708D01*
Y300338D01*
X440950D01*
Y300580D01*
X441192D01*
Y300338D01*
X441435D01*
Y300580D01*
X441677D01*
Y300338D01*
X441919D01*
Y300580D01*
X442161D01*
Y300338D01*
X442403D01*
Y300580D01*
X442645D01*
Y300338D01*
X442888D01*
Y300580D01*
X443130D01*
Y300338D01*
X443372D01*
Y300580D01*
X443614D01*
Y300338D01*
X443856D01*
Y300580D01*
X444098D01*
Y300338D01*
X444341D01*
Y300580D01*
X444583D01*
Y300338D01*
X444825D01*
Y300580D01*
X445067D01*
Y300338D01*
X445309D01*
Y300580D01*
X445551D01*
Y300338D01*
X445794D01*
Y300580D01*
X446036D01*
Y300338D01*
X446278D01*
Y300580D01*
X446520D01*
Y300338D01*
X446762D01*
Y300580D01*
X447005D01*
Y300338D01*
X447247D01*
Y300580D01*
X447489D01*
Y300338D01*
X447731D01*
Y300580D01*
X447973D01*
Y300338D01*
X448215D01*
Y300580D01*
X448457D01*
Y300338D01*
X448700D01*
Y300580D01*
X448942D01*
Y300338D01*
X449184D01*
Y300580D01*
X449426D01*
Y300338D01*
X449668D01*
Y300580D01*
X449911D01*
Y300338D01*
X450153D01*
Y300580D01*
X450395D01*
Y300338D01*
X450637D01*
Y300580D01*
X450879D01*
Y300822D01*
X451121D01*
Y300580D01*
X451364D01*
Y300338D01*
X451606D01*
Y300580D01*
X452332D01*
Y300338D01*
X452575D01*
Y300580D01*
X452817D01*
Y300338D01*
X453059D01*
Y300580D01*
X453301D01*
Y300338D01*
X453543D01*
Y300580D01*
X453785D01*
Y300338D01*
X454027D01*
Y300580D01*
X454270D01*
Y300338D01*
X454512D01*
Y300580D01*
X454754D01*
Y300822D01*
X454996D01*
Y300580D01*
X455723D01*
Y300822D01*
X455965D01*
Y300580D01*
X456207D01*
Y300822D01*
X456449D01*
Y300580D01*
X456691D01*
Y300822D01*
X456934D01*
Y301064D01*
X457176D01*
Y301307D01*
X457418D01*
Y301064D01*
X457660D01*
Y301307D01*
X457902D01*
Y301549D01*
X458144D01*
Y301791D01*
X458387D01*
Y302033D01*
X458629D01*
Y302760D01*
X458871D01*
Y303002D01*
X459113D01*
Y304213D01*
X459355D01*
Y304455D01*
X459113D01*
Y306150D01*
X458871D01*
Y306392D01*
X458629D01*
Y307119D01*
X458387D01*
Y307361D01*
X458144D01*
Y307603D01*
X457902D01*
Y307845D01*
X457660D01*
Y308088D01*
X457418D01*
Y308330D01*
X457176D01*
Y308572D01*
X456934D01*
Y308330D01*
X456691D01*
Y308572D01*
X455965D01*
Y308814D01*
X455238D01*
Y309056D01*
X454996D01*
Y308814D01*
X453301D01*
Y309056D01*
X453059D01*
Y308814D01*
X451364D01*
Y309056D01*
X451121D01*
Y308814D01*
X449426D01*
Y309056D01*
X449184D01*
Y308814D01*
X447489D01*
Y309056D01*
X447247D01*
Y308814D01*
X445551D01*
Y309056D01*
X445309D01*
Y308814D01*
X444583D01*
Y309056D01*
X444341D01*
Y308814D01*
X444098D01*
Y309056D01*
X443856D01*
Y308814D01*
X443614D01*
Y309056D01*
X443372D01*
Y308814D01*
X442645D01*
Y309056D01*
X442403D01*
Y308814D01*
X442161D01*
Y309056D01*
X441919D01*
Y308814D01*
X441677D01*
Y309056D01*
X441435D01*
Y308814D01*
X441192D01*
Y309056D01*
X440950D01*
Y308814D01*
X440708D01*
Y309056D01*
X440466D01*
Y308814D01*
X440224D01*
Y309056D01*
X439981D01*
Y308814D01*
X439739D01*
Y309056D01*
X439497D01*
Y308814D01*
X439255D01*
Y309056D01*
X439013D01*
Y308814D01*
X438771D01*
Y309056D01*
X438529D01*
Y308814D01*
X438286D01*
Y309056D01*
X438044D01*
Y309298D01*
X438286D01*
Y309541D01*
X438044D01*
Y309783D01*
X438286D01*
Y310025D01*
X438044D01*
Y310267D01*
X438286D01*
Y310509D01*
X438044D01*
Y310751D01*
X438286D01*
Y310994D01*
X438044D01*
Y311236D01*
X438286D01*
Y311478D01*
X438044D01*
Y311720D01*
X438286D01*
Y311962D01*
X438044D01*
Y312204D01*
X438286D01*
Y312447D01*
X438044D01*
Y312689D01*
X438286D01*
Y312931D01*
X438044D01*
Y313173D01*
X438286D01*
Y313415D01*
X438044D01*
Y313657D01*
X438286D01*
Y313900D01*
X438529D01*
Y313657D01*
X438771D01*
Y313900D01*
X439013D01*
Y313657D01*
X439255D01*
Y313900D01*
X439497D01*
Y313657D01*
X439739D01*
Y313900D01*
X439981D01*
Y313657D01*
X440708D01*
Y313900D01*
X440950D01*
Y313657D01*
X441192D01*
Y313900D01*
X441435D01*
Y313657D01*
X441677D01*
Y313900D01*
X441919D01*
Y313657D01*
X442161D01*
Y313900D01*
X442403D01*
Y313657D01*
X442645D01*
Y313900D01*
X442888D01*
Y313657D01*
X443130D01*
Y313900D01*
X443372D01*
Y313657D01*
X443614D01*
Y313900D01*
X443856D01*
Y313657D01*
X444583D01*
Y313900D01*
X444825D01*
Y313657D01*
X445067D01*
Y313900D01*
X445309D01*
Y313657D01*
X445551D01*
Y313900D01*
X445794D01*
Y313657D01*
X446036D01*
Y313900D01*
X446278D01*
Y313657D01*
X446520D01*
Y313900D01*
X446762D01*
Y313657D01*
X447005D01*
Y313900D01*
X447247D01*
Y313657D01*
X447489D01*
Y313900D01*
X447731D01*
Y313657D01*
X448457D01*
Y313900D01*
X448700D01*
Y313657D01*
X449426D01*
Y313900D01*
X449668D01*
Y313657D01*
X450395D01*
Y313900D01*
X450637D01*
Y313657D01*
X450879D01*
Y313900D01*
X451121D01*
Y313657D01*
X451364D01*
Y313900D01*
X451606D01*
Y313657D01*
X451848D01*
Y313900D01*
X452090D01*
Y313657D01*
X452332D01*
Y313900D01*
X452575D01*
Y313657D01*
X452817D01*
Y313900D01*
X453059D01*
Y313657D01*
X453301D01*
Y313900D01*
X453543D01*
Y313657D01*
X453785D01*
Y313900D01*
X454027D01*
Y313657D01*
X454270D01*
Y313900D01*
X454512D01*
Y313657D01*
D02*
G37*
G36*
X462261Y291378D02*
X462504D01*
Y291135D01*
X462746D01*
Y289440D01*
X462504D01*
Y289198D01*
X462746D01*
Y287503D01*
X462504D01*
Y287261D01*
X462746D01*
Y285565D01*
X462504D01*
Y285323D01*
X462746D01*
Y283628D01*
X462504D01*
Y283386D01*
X462746D01*
Y281691D01*
X462504D01*
Y281448D01*
X462746D01*
Y279753D01*
X462504D01*
Y279511D01*
X462746D01*
Y277816D01*
X462504D01*
Y277574D01*
X462746D01*
Y275879D01*
X458629D01*
Y281448D01*
X458387D01*
Y281206D01*
X458144D01*
Y281448D01*
X457902D01*
Y281206D01*
X457660D01*
Y281448D01*
X457418D01*
Y281206D01*
X457176D01*
Y281448D01*
X456934D01*
Y281206D01*
X456691D01*
Y281448D01*
X456449D01*
Y281206D01*
X456207D01*
Y281448D01*
X455965D01*
Y281206D01*
X455723D01*
Y281448D01*
X455480D01*
Y281206D01*
X455238D01*
Y281448D01*
X454996D01*
Y281206D01*
X454754D01*
Y281448D01*
X454512D01*
Y281206D01*
X454270D01*
Y281448D01*
X454027D01*
Y281206D01*
X453785D01*
Y281448D01*
X453543D01*
Y281206D01*
X453301D01*
Y281448D01*
X453059D01*
Y281206D01*
X452817D01*
Y281448D01*
X452575D01*
Y281206D01*
X452332D01*
Y281448D01*
X452090D01*
Y281206D01*
X451848D01*
Y281448D01*
X451606D01*
Y281206D01*
X451364D01*
Y281448D01*
X451121D01*
Y281206D01*
X450879D01*
Y281448D01*
X450637D01*
Y281206D01*
X450395D01*
Y281448D01*
X450153D01*
Y281206D01*
X449911D01*
Y281448D01*
X449668D01*
Y281206D01*
X449426D01*
Y281448D01*
X449184D01*
Y281206D01*
X448942D01*
Y281448D01*
X448700D01*
Y281206D01*
X448457D01*
Y281448D01*
X448215D01*
Y281206D01*
X447973D01*
Y281448D01*
X447731D01*
Y281206D01*
X447489D01*
Y281448D01*
X447247D01*
Y281206D01*
X447005D01*
Y281448D01*
X446762D01*
Y281206D01*
X446520D01*
Y281448D01*
X446278D01*
Y281206D01*
X446036D01*
Y281448D01*
X445794D01*
Y281206D01*
X445551D01*
Y281448D01*
X445309D01*
Y281206D01*
X445067D01*
Y281448D01*
X444825D01*
Y281206D01*
X444583D01*
Y281448D01*
X444341D01*
Y281206D01*
X444098D01*
Y281448D01*
X443856D01*
Y281206D01*
X443614D01*
Y281448D01*
X443372D01*
Y281206D01*
X443130D01*
Y281448D01*
X442888D01*
Y281206D01*
X442645D01*
Y281448D01*
X442403D01*
Y281206D01*
X442161D01*
Y281448D01*
X441919D01*
Y275879D01*
X438286D01*
Y276121D01*
X438044D01*
Y276363D01*
X437802D01*
Y276605D01*
X438044D01*
Y276363D01*
X438286D01*
Y276605D01*
X438044D01*
Y276847D01*
X437802D01*
Y277089D01*
X438044D01*
Y277332D01*
X437802D01*
Y277574D01*
X438044D01*
Y277332D01*
X438286D01*
Y277574D01*
X438044D01*
Y277816D01*
X437802D01*
Y278058D01*
X438044D01*
Y277816D01*
X438286D01*
Y278058D01*
X438044D01*
Y278300D01*
X437802D01*
Y278542D01*
X438044D01*
Y278300D01*
X438286D01*
Y278542D01*
X438044D01*
Y278785D01*
X437802D01*
Y279027D01*
X438044D01*
Y279269D01*
X437802D01*
Y279511D01*
X438044D01*
Y279269D01*
X438286D01*
Y279511D01*
X438044D01*
Y279753D01*
X437802D01*
Y279995D01*
X438044D01*
Y279753D01*
X438286D01*
Y279995D01*
X438044D01*
Y280238D01*
X437802D01*
Y280480D01*
X438044D01*
Y280238D01*
X438286D01*
Y280480D01*
X438044D01*
Y280722D01*
X437802D01*
Y280964D01*
X438044D01*
Y281206D01*
X437802D01*
Y281448D01*
X438044D01*
Y281206D01*
X438286D01*
Y281448D01*
X438044D01*
Y281691D01*
X437802D01*
Y281933D01*
X438044D01*
Y281691D01*
X438286D01*
Y281933D01*
X438044D01*
Y282175D01*
X437802D01*
Y282417D01*
X438044D01*
Y282175D01*
X438286D01*
Y282417D01*
X438044D01*
Y282659D01*
X437802D01*
Y282902D01*
X438044D01*
Y283144D01*
X437802D01*
Y283386D01*
X438044D01*
Y283144D01*
X438286D01*
Y283386D01*
X438044D01*
Y283628D01*
X437802D01*
Y283870D01*
X438044D01*
Y283628D01*
X438286D01*
Y283870D01*
X438044D01*
Y284112D01*
X437802D01*
Y284355D01*
X438044D01*
Y284112D01*
X438286D01*
Y284355D01*
X438044D01*
Y284597D01*
X437802D01*
Y284839D01*
X438044D01*
Y285081D01*
X437802D01*
Y285323D01*
X438044D01*
Y285081D01*
X438286D01*
Y285323D01*
X438044D01*
Y285565D01*
X437802D01*
Y285808D01*
X438044D01*
Y285565D01*
X438286D01*
Y285808D01*
X438044D01*
Y286050D01*
X437802D01*
Y286292D01*
X438044D01*
Y286050D01*
X438286D01*
Y286292D01*
X438044D01*
Y286534D01*
X437802D01*
Y286776D01*
X438044D01*
Y287019D01*
X437802D01*
Y287261D01*
X438044D01*
Y287019D01*
X438286D01*
Y287261D01*
X438044D01*
Y287503D01*
X437802D01*
Y287745D01*
X438044D01*
Y287503D01*
X438286D01*
Y287745D01*
X438044D01*
Y287987D01*
X437802D01*
Y288229D01*
X438044D01*
Y287987D01*
X438286D01*
Y288229D01*
X438044D01*
Y288472D01*
X437802D01*
Y288714D01*
X438044D01*
Y288956D01*
X437802D01*
Y289198D01*
X438044D01*
Y288956D01*
X438286D01*
Y289198D01*
X438044D01*
Y289440D01*
X437802D01*
Y289682D01*
X438044D01*
Y289440D01*
X438286D01*
Y289682D01*
X438044D01*
Y289925D01*
X437802D01*
Y290167D01*
X438044D01*
Y289925D01*
X438286D01*
Y290167D01*
X438044D01*
Y290409D01*
X437802D01*
Y290651D01*
X438044D01*
Y290893D01*
X437802D01*
Y291135D01*
X438044D01*
Y290893D01*
X438286D01*
Y291135D01*
X438044D01*
Y291378D01*
X437802D01*
Y291620D01*
X438044D01*
Y291378D01*
X438286D01*
Y291620D01*
X438529D01*
Y291378D01*
X438771D01*
Y291620D01*
X439013D01*
Y291378D01*
X439255D01*
Y291620D01*
X439497D01*
Y291378D01*
X439739D01*
Y291620D01*
X439981D01*
Y291378D01*
X440224D01*
Y291620D01*
X440466D01*
Y291378D01*
X440708D01*
Y291620D01*
X440950D01*
Y291378D01*
X441192D01*
Y291620D01*
X441435D01*
Y291378D01*
X441677D01*
Y291620D01*
X441919D01*
Y286050D01*
X442161D01*
Y286292D01*
X442403D01*
Y286050D01*
X442645D01*
Y286292D01*
X442888D01*
Y286050D01*
X443130D01*
Y286292D01*
X443372D01*
Y286050D01*
X443614D01*
Y286292D01*
X443856D01*
Y286050D01*
X444098D01*
Y286292D01*
X444341D01*
Y286050D01*
X444583D01*
Y286292D01*
X444825D01*
Y286050D01*
X445067D01*
Y286292D01*
X445309D01*
Y286050D01*
X445551D01*
Y286292D01*
X445794D01*
Y286050D01*
X446036D01*
Y286292D01*
X446278D01*
Y286050D01*
X446520D01*
Y286292D01*
X446762D01*
Y286050D01*
X447005D01*
Y286292D01*
X447247D01*
Y286050D01*
X447489D01*
Y286292D01*
X447731D01*
Y286050D01*
X447973D01*
Y286292D01*
X448215D01*
Y286050D01*
X448457D01*
Y286292D01*
X448700D01*
Y286050D01*
X448942D01*
Y286292D01*
X449184D01*
Y286050D01*
X449426D01*
Y286292D01*
X449668D01*
Y286050D01*
X449911D01*
Y286292D01*
X450153D01*
Y286050D01*
X450395D01*
Y286292D01*
X450637D01*
Y286050D01*
X450879D01*
Y286292D01*
X451121D01*
Y286050D01*
X451364D01*
Y286292D01*
X451606D01*
Y286050D01*
X451848D01*
Y286292D01*
X452090D01*
Y286050D01*
X452332D01*
Y286292D01*
X452575D01*
Y286050D01*
X452817D01*
Y286292D01*
X453059D01*
Y286050D01*
X453301D01*
Y286292D01*
X453543D01*
Y286050D01*
X453785D01*
Y286292D01*
X454027D01*
Y286050D01*
X454270D01*
Y286292D01*
X454512D01*
Y286050D01*
X454754D01*
Y286292D01*
X454996D01*
Y286050D01*
X455238D01*
Y286292D01*
X455480D01*
Y286050D01*
X455723D01*
Y286292D01*
X455965D01*
Y286050D01*
X456207D01*
Y286292D01*
X456449D01*
Y286050D01*
X456691D01*
Y286292D01*
X456934D01*
Y286050D01*
X457176D01*
Y286292D01*
X457418D01*
Y286050D01*
X457660D01*
Y286292D01*
X457902D01*
Y286050D01*
X458144D01*
Y286292D01*
X458387D01*
Y286050D01*
X458629D01*
Y291620D01*
X458871D01*
Y291378D01*
X459113D01*
Y291620D01*
X459355D01*
Y291378D01*
X459598D01*
Y291620D01*
X459840D01*
Y291378D01*
X460082D01*
Y291620D01*
X460324D01*
Y291378D01*
X460566D01*
Y291620D01*
X460808D01*
Y291378D01*
X461050D01*
Y291620D01*
X461293D01*
Y291378D01*
X461535D01*
Y291620D01*
X461777D01*
Y291378D01*
X462019D01*
Y291620D01*
X462261D01*
Y291378D01*
D02*
G37*
G36*
X462746Y266676D02*
X461535D01*
Y266918D01*
X461293D01*
Y266676D01*
X459598D01*
Y266918D01*
X459355D01*
Y266676D01*
X457660D01*
Y266918D01*
X457418D01*
Y266676D01*
X455723D01*
Y266918D01*
X455480D01*
Y266676D01*
X453785D01*
Y266918D01*
X453543D01*
Y266676D01*
X451848D01*
Y266918D01*
X451606D01*
Y266676D01*
X449911D01*
Y266918D01*
X449668D01*
Y266676D01*
X447973D01*
Y266918D01*
X447731D01*
Y266676D01*
X446036D01*
Y266918D01*
X445794D01*
Y266676D01*
X445551D01*
Y266434D01*
X445794D01*
Y266192D01*
X446036D01*
Y266434D01*
X446278D01*
Y266192D01*
X446762D01*
Y265707D01*
X447005D01*
Y265949D01*
X447247D01*
Y265707D01*
X447731D01*
Y265465D01*
X448215D01*
Y265223D01*
X448457D01*
Y265465D01*
X448700D01*
Y265223D01*
X448942D01*
Y264981D01*
X449184D01*
Y264739D01*
X449426D01*
Y264981D01*
X449668D01*
Y264739D01*
X449911D01*
Y264496D01*
X450153D01*
Y264254D01*
X450395D01*
Y264496D01*
X450637D01*
Y264254D01*
X450879D01*
Y264012D01*
X451606D01*
Y263770D01*
X451848D01*
Y264012D01*
X452090D01*
Y263770D01*
X452332D01*
Y263528D01*
X452575D01*
Y263286D01*
X452817D01*
Y263528D01*
X453059D01*
Y263286D01*
X453301D01*
Y263043D01*
X453543D01*
Y262801D01*
X453785D01*
Y263043D01*
X454027D01*
Y262801D01*
X454270D01*
Y262559D01*
X454512D01*
Y262317D01*
X454754D01*
Y262559D01*
X454996D01*
Y262317D01*
X455238D01*
Y262075D01*
X455480D01*
Y261833D01*
X455723D01*
Y262075D01*
X455965D01*
Y261833D01*
X456449D01*
Y261590D01*
X456934D01*
Y261348D01*
X457176D01*
Y261590D01*
X457418D01*
Y261348D01*
X457660D01*
Y261106D01*
X457902D01*
Y260864D01*
X458144D01*
Y261106D01*
X458387D01*
Y260864D01*
X458629D01*
Y260622D01*
X458871D01*
Y260380D01*
X459113D01*
Y260622D01*
X459355D01*
Y260380D01*
X459598D01*
Y260137D01*
X460324D01*
Y259895D01*
X460566D01*
Y260137D01*
X460808D01*
Y259895D01*
X461050D01*
Y259653D01*
X461293D01*
Y259411D01*
X461535D01*
Y259653D01*
X461777D01*
Y259411D01*
X462019D01*
Y259169D01*
X462261D01*
Y258927D01*
X462504D01*
Y259169D01*
X462746D01*
Y253114D01*
X462504D01*
Y253356D01*
X462261D01*
Y253114D01*
X462019D01*
Y253356D01*
X461777D01*
Y253114D01*
X461535D01*
Y253356D01*
X461293D01*
Y253114D01*
X461050D01*
Y253356D01*
X460808D01*
Y253114D01*
X460566D01*
Y253356D01*
X460324D01*
Y253114D01*
X460082D01*
Y253356D01*
X459840D01*
Y253114D01*
X459598D01*
Y253356D01*
X459355D01*
Y253114D01*
X459113D01*
Y253356D01*
X458871D01*
Y253114D01*
X458629D01*
Y253356D01*
X458387D01*
Y253114D01*
X458144D01*
Y253356D01*
X457902D01*
Y253114D01*
X457660D01*
Y253356D01*
X457418D01*
Y253114D01*
X457176D01*
Y253356D01*
X456934D01*
Y253114D01*
X456691D01*
Y253356D01*
X456449D01*
Y253114D01*
X456207D01*
Y253356D01*
X455965D01*
Y253114D01*
X455723D01*
Y253356D01*
X455480D01*
Y253114D01*
X455238D01*
Y253356D01*
X454996D01*
Y253114D01*
X454754D01*
Y253356D01*
X454512D01*
Y253114D01*
X454270D01*
Y253356D01*
X454027D01*
Y253114D01*
X453785D01*
Y253356D01*
X453543D01*
Y253114D01*
X453301D01*
Y253356D01*
X453059D01*
Y253114D01*
X452817D01*
Y253356D01*
X452575D01*
Y253114D01*
X452332D01*
Y253356D01*
X452090D01*
Y253114D01*
X451848D01*
Y253356D01*
X451606D01*
Y253114D01*
X451364D01*
Y253356D01*
X451121D01*
Y253114D01*
X450879D01*
Y253356D01*
X450637D01*
Y253114D01*
X450395D01*
Y253356D01*
X450153D01*
Y253114D01*
X449911D01*
Y253356D01*
X449668D01*
Y253114D01*
X449426D01*
Y253356D01*
X449184D01*
Y253114D01*
X448942D01*
Y253356D01*
X448700D01*
Y253114D01*
X448457D01*
Y253356D01*
X448215D01*
Y253114D01*
X447973D01*
Y253356D01*
X447731D01*
Y253114D01*
X447489D01*
Y253356D01*
X447247D01*
Y253114D01*
X447005D01*
Y253356D01*
X446762D01*
Y253114D01*
X446520D01*
Y253356D01*
X446278D01*
Y253114D01*
X446036D01*
Y253356D01*
X445794D01*
Y253114D01*
X445551D01*
Y253356D01*
X445309D01*
Y253114D01*
X445067D01*
Y253356D01*
X444825D01*
Y253114D01*
X444583D01*
Y253356D01*
X444341D01*
Y253114D01*
X444098D01*
Y253356D01*
X443856D01*
Y253114D01*
X443614D01*
Y253356D01*
X443372D01*
Y253114D01*
X443130D01*
Y253356D01*
X442888D01*
Y253114D01*
X442645D01*
Y253356D01*
X442403D01*
Y253114D01*
X442161D01*
Y253356D01*
X441919D01*
Y253114D01*
X441677D01*
Y253356D01*
X441435D01*
Y253114D01*
X441192D01*
Y253356D01*
X440950D01*
Y253114D01*
X440708D01*
Y253356D01*
X440466D01*
Y253114D01*
X440224D01*
Y253356D01*
X439981D01*
Y253114D01*
X439739D01*
Y253356D01*
X439497D01*
Y253114D01*
X439255D01*
Y253356D01*
X439013D01*
Y253114D01*
X438771D01*
Y253356D01*
X438529D01*
Y253114D01*
X438286D01*
Y253356D01*
X438044D01*
Y253599D01*
X438286D01*
Y254325D01*
X438044D01*
Y254567D01*
X438286D01*
Y255294D01*
X438044D01*
Y255536D01*
X438286D01*
Y256263D01*
X438044D01*
Y256505D01*
X438286D01*
Y257231D01*
X438044D01*
Y257473D01*
X438286D01*
Y257716D01*
X438529D01*
Y257473D01*
X438771D01*
Y257716D01*
X439013D01*
Y257473D01*
X439255D01*
Y257716D01*
X439497D01*
Y257473D01*
X439739D01*
Y257716D01*
X439981D01*
Y257473D01*
X440224D01*
Y257716D01*
X440466D01*
Y257473D01*
X440708D01*
Y257716D01*
X440950D01*
Y257473D01*
X441192D01*
Y257716D01*
X441435D01*
Y257473D01*
X441677D01*
Y257716D01*
X441919D01*
Y257473D01*
X442161D01*
Y257716D01*
X442403D01*
Y257473D01*
X442645D01*
Y257716D01*
X442888D01*
Y257473D01*
X443130D01*
Y257716D01*
X443372D01*
Y257473D01*
X443614D01*
Y257716D01*
X443856D01*
Y257473D01*
X444098D01*
Y257716D01*
X444341D01*
Y257473D01*
X444583D01*
Y257716D01*
X444825D01*
Y257473D01*
X445067D01*
Y257716D01*
X445309D01*
Y257473D01*
X445551D01*
Y257716D01*
X445794D01*
Y257473D01*
X446036D01*
Y257716D01*
X446278D01*
Y257473D01*
X446520D01*
Y257716D01*
X446762D01*
Y257473D01*
X447005D01*
Y257716D01*
X447247D01*
Y257473D01*
X447489D01*
Y257716D01*
X447731D01*
Y257473D01*
X447973D01*
Y257716D01*
X448215D01*
Y257473D01*
X448457D01*
Y257716D01*
X448700D01*
Y257473D01*
X448942D01*
Y257716D01*
X449184D01*
Y257473D01*
X449426D01*
Y257716D01*
X449668D01*
Y257473D01*
X449911D01*
Y257716D01*
X450153D01*
Y257473D01*
X450395D01*
Y257716D01*
X450637D01*
Y257473D01*
X450879D01*
Y257716D01*
X451121D01*
Y257473D01*
X451364D01*
Y257716D01*
X451606D01*
Y257473D01*
X451848D01*
Y257716D01*
X452090D01*
Y257473D01*
X452332D01*
Y257716D01*
X452575D01*
Y257473D01*
X452817D01*
Y257716D01*
X453059D01*
Y257473D01*
X453301D01*
Y257716D01*
X453543D01*
Y257473D01*
X453785D01*
Y257716D01*
X454027D01*
Y257473D01*
X454270D01*
Y257716D01*
X454512D01*
Y257473D01*
X454754D01*
Y258200D01*
X454512D01*
Y257958D01*
X454270D01*
Y258200D01*
X454027D01*
Y257958D01*
X453785D01*
Y258200D01*
X453543D01*
Y258442D01*
X453301D01*
Y258684D01*
X453059D01*
Y258442D01*
X452817D01*
Y258684D01*
X452575D01*
Y258927D01*
X451848D01*
Y259169D01*
X451606D01*
Y259411D01*
X451364D01*
Y259653D01*
X451121D01*
Y259411D01*
X450879D01*
Y259653D01*
X450153D01*
Y259895D01*
X449911D01*
Y260137D01*
X449184D01*
Y260380D01*
X448942D01*
Y260622D01*
X448700D01*
Y260380D01*
X448457D01*
Y260622D01*
X448215D01*
Y260864D01*
X447973D01*
Y261106D01*
X447731D01*
Y260864D01*
X447489D01*
Y261106D01*
X447247D01*
Y261348D01*
X446520D01*
Y261590D01*
X446036D01*
Y261833D01*
X445551D01*
Y262075D01*
X445309D01*
Y261833D01*
X445067D01*
Y262075D01*
X444825D01*
Y262317D01*
X444583D01*
Y262559D01*
X444341D01*
Y262317D01*
X444098D01*
Y262559D01*
X443856D01*
Y262801D01*
X443614D01*
Y263043D01*
X443372D01*
Y262801D01*
X443130D01*
Y263043D01*
X442888D01*
Y263286D01*
X442645D01*
Y263528D01*
X442403D01*
Y263286D01*
X442161D01*
Y263528D01*
X441919D01*
Y263770D01*
X441677D01*
Y263528D01*
X441435D01*
Y263770D01*
X441192D01*
Y264012D01*
X440466D01*
Y264254D01*
X440224D01*
Y264496D01*
X439981D01*
Y264254D01*
X439739D01*
Y264496D01*
X439497D01*
Y264739D01*
X439255D01*
Y264981D01*
X439013D01*
Y264739D01*
X438771D01*
Y264981D01*
X438529D01*
Y265223D01*
X438286D01*
Y265949D01*
X438044D01*
Y266192D01*
X438286D01*
Y266918D01*
X438044D01*
Y267160D01*
X438286D01*
Y267887D01*
X438044D01*
Y268129D01*
X438286D01*
Y268855D01*
X438044D01*
Y269098D01*
X438286D01*
Y269824D01*
X438044D01*
Y270066D01*
X438286D01*
Y270793D01*
X438044D01*
Y271035D01*
X462746D01*
Y266676D01*
D02*
G37*
G36*
X452817Y250450D02*
X453543D01*
Y250208D01*
X453785D01*
Y250450D01*
X454027D01*
Y250208D01*
X454270D01*
Y250450D01*
X454512D01*
Y250208D01*
X454754D01*
Y250450D01*
X454996D01*
Y250208D01*
X455723D01*
Y249966D01*
X456449D01*
Y249724D01*
X456691D01*
Y249966D01*
X456934D01*
Y249724D01*
X457176D01*
Y249482D01*
X457418D01*
Y249240D01*
X457660D01*
Y249482D01*
X457902D01*
Y249240D01*
X458387D01*
Y248997D01*
X458871D01*
Y248755D01*
X459113D01*
Y248513D01*
X459355D01*
Y248271D01*
X459598D01*
Y248513D01*
X459840D01*
Y248271D01*
X460082D01*
Y248029D01*
X460324D01*
Y247787D01*
X460566D01*
Y247544D01*
X460808D01*
Y247302D01*
X461050D01*
Y247060D01*
X461293D01*
Y246334D01*
X461535D01*
Y246576D01*
X461777D01*
Y245849D01*
X462019D01*
Y245607D01*
X462261D01*
Y244881D01*
X462504D01*
Y244638D01*
X462746D01*
Y243912D01*
X462988D01*
Y243670D01*
X462746D01*
Y243427D01*
X462988D01*
Y243185D01*
X463230D01*
Y242943D01*
X462988D01*
Y242701D01*
X463230D01*
Y242459D01*
X462988D01*
Y242217D01*
X463230D01*
Y240037D01*
X462988D01*
Y239795D01*
X463230D01*
Y239553D01*
X462988D01*
Y239310D01*
X463230D01*
Y239068D01*
X462988D01*
Y238826D01*
X462746D01*
Y238584D01*
X462988D01*
Y238342D01*
X462746D01*
Y237615D01*
X462504D01*
Y237373D01*
X462261D01*
Y237131D01*
X462504D01*
Y236889D01*
X462261D01*
Y236647D01*
X462019D01*
Y236404D01*
X462261D01*
Y236162D01*
X462019D01*
Y236404D01*
X461777D01*
Y236162D01*
X462019D01*
Y235920D01*
X461777D01*
Y235678D01*
X461535D01*
Y235436D01*
X461293D01*
Y234709D01*
X461050D01*
Y234467D01*
X460808D01*
Y234225D01*
X460566D01*
Y233983D01*
X460324D01*
Y233741D01*
X460082D01*
Y233498D01*
X459840D01*
Y233256D01*
X459598D01*
Y233014D01*
X459355D01*
Y232772D01*
X459113D01*
Y233014D01*
X458871D01*
Y232772D01*
X458629D01*
Y232530D01*
X458387D01*
Y232288D01*
X458144D01*
Y232530D01*
X457902D01*
Y232288D01*
X457660D01*
Y232045D01*
X456934D01*
Y231803D01*
X456207D01*
Y231561D01*
X455965D01*
Y231319D01*
X455723D01*
Y231561D01*
X455480D01*
Y231319D01*
X455238D01*
Y231561D01*
X454996D01*
Y231319D01*
X454754D01*
Y231077D01*
X453543D01*
Y230834D01*
X453301D01*
Y231077D01*
X453059D01*
Y230834D01*
X452817D01*
Y231077D01*
X452575D01*
Y230834D01*
X452332D01*
Y231077D01*
X452090D01*
Y230834D01*
X451848D01*
Y231077D01*
X451606D01*
Y230834D01*
X451364D01*
Y230592D01*
X451121D01*
Y230834D01*
X450879D01*
Y231077D01*
X450637D01*
Y230834D01*
X450395D01*
Y230592D01*
X450153D01*
Y230834D01*
X449426D01*
Y230592D01*
X449184D01*
Y230834D01*
X448942D01*
Y231077D01*
X448700D01*
Y230834D01*
X447973D01*
Y231077D01*
X447731D01*
Y230834D01*
X447489D01*
Y231077D01*
X447247D01*
Y230834D01*
X447005D01*
Y231077D01*
X446762D01*
Y230834D01*
X446520D01*
Y231077D01*
X445794D01*
Y231319D01*
X445551D01*
Y231561D01*
X445309D01*
Y231319D01*
X445067D01*
Y231561D01*
X444825D01*
Y231319D01*
X444583D01*
Y231561D01*
X444098D01*
Y232045D01*
X443856D01*
Y231803D01*
X443614D01*
Y232045D01*
X443372D01*
Y231803D01*
X443130D01*
Y232045D01*
X442888D01*
Y232288D01*
X442645D01*
Y232530D01*
X442403D01*
Y232288D01*
X442161D01*
Y232530D01*
X441919D01*
Y232772D01*
X441677D01*
Y233014D01*
X441435D01*
Y232772D01*
X441192D01*
Y233014D01*
X440950D01*
Y233256D01*
X440708D01*
Y233498D01*
X440466D01*
Y233741D01*
X440224D01*
Y233983D01*
X439981D01*
Y234225D01*
X439739D01*
Y234467D01*
X439497D01*
Y234709D01*
X439255D01*
Y234951D01*
X439013D01*
Y235194D01*
X438771D01*
Y235436D01*
X439013D01*
Y235678D01*
X438771D01*
Y236404D01*
X438529D01*
Y236647D01*
X438286D01*
Y237373D01*
X438044D01*
Y237615D01*
X438286D01*
Y237857D01*
X438044D01*
Y238100D01*
X437802D01*
Y238342D01*
X438044D01*
Y238584D01*
X437802D01*
Y239795D01*
X437560D01*
Y240037D01*
X437802D01*
Y240279D01*
X437560D01*
Y240521D01*
X437802D01*
Y240763D01*
X437560D01*
Y241006D01*
X437802D01*
Y241248D01*
X437560D01*
Y241490D01*
X437802D01*
Y241732D01*
X437560D01*
Y241974D01*
X437802D01*
Y243185D01*
X438044D01*
Y243427D01*
X438286D01*
Y243670D01*
X438044D01*
Y243912D01*
X438286D01*
Y244638D01*
X438529D01*
Y244881D01*
X438771D01*
Y245607D01*
X439013D01*
Y245849D01*
X439255D01*
Y246091D01*
X439497D01*
Y246334D01*
X439255D01*
Y246576D01*
X439497D01*
Y246334D01*
X439739D01*
Y246818D01*
X440224D01*
Y247302D01*
X440708D01*
Y247787D01*
X441192D01*
Y248029D01*
X441435D01*
Y248271D01*
X441677D01*
Y248513D01*
X442161D01*
Y248755D01*
X442645D01*
Y248997D01*
X442888D01*
Y249240D01*
X443130D01*
Y249482D01*
X443372D01*
Y249240D01*
X443614D01*
Y249482D01*
X443856D01*
Y249240D01*
X444098D01*
Y249482D01*
X443856D01*
Y249724D01*
X444098D01*
Y249482D01*
X444341D01*
Y249724D01*
X445067D01*
Y249966D01*
X445309D01*
Y250208D01*
X445551D01*
Y249966D01*
X445794D01*
Y250208D01*
X446036D01*
Y250450D01*
X446278D01*
Y250208D01*
X446520D01*
Y250450D01*
X446762D01*
Y250208D01*
X447005D01*
Y250450D01*
X447731D01*
Y250208D01*
X447973D01*
Y250450D01*
X448215D01*
Y250693D01*
X448457D01*
Y250450D01*
X448700D01*
Y250693D01*
X448942D01*
Y250450D01*
X449184D01*
Y250693D01*
X451848D01*
Y250450D01*
X452090D01*
Y250693D01*
X452332D01*
Y250450D01*
X452575D01*
Y250208D01*
X452817D01*
Y250450D01*
X452575D01*
Y250693D01*
X452817D01*
Y250450D01*
D02*
G37*
G36*
X364181Y239310D02*
X364424D01*
Y239068D01*
X364181D01*
Y239310D01*
X363939D01*
Y239068D01*
X364181D01*
Y238342D01*
X364424D01*
Y238100D01*
X364666D01*
Y238342D01*
X364908D01*
Y238100D01*
X365150D01*
Y238342D01*
X365392D01*
Y238100D01*
X365634D01*
Y238342D01*
X365877D01*
Y238100D01*
X366119D01*
Y238342D01*
X366361D01*
Y238100D01*
X366603D01*
Y238342D01*
X366845D01*
Y238100D01*
X367088D01*
Y237857D01*
X366845D01*
Y237615D01*
X366603D01*
Y237857D01*
X366361D01*
Y237615D01*
X365634D01*
Y237857D01*
X365392D01*
Y237615D01*
X364666D01*
Y237857D01*
X364424D01*
Y237615D01*
X364181D01*
Y237373D01*
X364424D01*
Y237131D01*
X364181D01*
Y237373D01*
X363939D01*
Y237131D01*
X364181D01*
Y236404D01*
X364424D01*
Y236162D01*
X364666D01*
Y236404D01*
X364908D01*
Y236162D01*
X365150D01*
Y236404D01*
X365392D01*
Y236162D01*
X365634D01*
Y236404D01*
X365877D01*
Y236162D01*
X366119D01*
Y236404D01*
X366361D01*
Y236162D01*
X366603D01*
Y236404D01*
X366845D01*
Y236162D01*
X367088D01*
Y235436D01*
X366845D01*
Y235678D01*
X366603D01*
Y235920D01*
X366361D01*
Y235678D01*
X366119D01*
Y235436D01*
X365877D01*
Y235678D01*
X365150D01*
Y235436D01*
X365392D01*
Y235194D01*
X365634D01*
Y235436D01*
X365877D01*
Y235194D01*
X366603D01*
Y234951D01*
X366845D01*
Y234709D01*
X367088D01*
Y234467D01*
X366845D01*
Y234225D01*
X366603D01*
Y233983D01*
X365877D01*
Y233741D01*
X365634D01*
Y233983D01*
X365392D01*
Y233741D01*
X365634D01*
Y233498D01*
X365877D01*
Y233256D01*
X366119D01*
Y233498D01*
X366845D01*
Y233256D01*
X367088D01*
Y233014D01*
X366845D01*
Y232772D01*
X366603D01*
Y233014D01*
X366361D01*
Y232772D01*
X366119D01*
Y233014D01*
X365877D01*
Y232772D01*
X365634D01*
Y233014D01*
X365392D01*
Y232772D01*
X365150D01*
Y233014D01*
X364908D01*
Y232772D01*
X364666D01*
Y233014D01*
X364424D01*
Y232772D01*
X364181D01*
Y233014D01*
X363939D01*
Y232772D01*
X363697D01*
Y233014D01*
X363455D01*
Y233256D01*
X363697D01*
Y233498D01*
X363455D01*
Y233741D01*
X363697D01*
Y233983D01*
X364424D01*
Y233741D01*
X364666D01*
Y233983D01*
X364424D01*
Y234225D01*
X364666D01*
Y234467D01*
X364908D01*
Y234225D01*
X365150D01*
Y234467D01*
X365392D01*
Y234225D01*
X365634D01*
Y234951D01*
X365392D01*
Y234709D01*
X365150D01*
Y234951D01*
X364908D01*
Y234709D01*
X364666D01*
Y234951D01*
X364424D01*
Y235194D01*
X363697D01*
Y235436D01*
X363455D01*
Y235678D01*
X363697D01*
Y235920D01*
X363455D01*
Y236162D01*
X363697D01*
Y236889D01*
X363455D01*
Y237131D01*
X363697D01*
Y237373D01*
X363455D01*
Y237615D01*
X363697D01*
Y237857D01*
X363455D01*
Y238100D01*
X363697D01*
Y238342D01*
X363455D01*
Y238584D01*
X363697D01*
Y238826D01*
X363455D01*
Y239068D01*
X363697D01*
Y239553D01*
X364181D01*
Y239310D01*
D02*
G37*
%LPC*%
G36*
X397359Y369357D02*
X397117D01*
Y369115D01*
X396390D01*
Y368873D01*
X396148D01*
Y369115D01*
X395906D01*
Y368873D01*
X395664D01*
Y369115D01*
X395422D01*
Y368873D01*
X395180D01*
Y369115D01*
X394937D01*
Y368873D01*
X394695D01*
Y369115D01*
X394453D01*
Y368873D01*
X394211D01*
Y369115D01*
X393969D01*
Y368873D01*
X393242D01*
Y368631D01*
X393000D01*
Y368388D01*
X392758D01*
Y368631D01*
X392516D01*
Y368388D01*
X392273D01*
Y368631D01*
X392031D01*
Y368388D01*
X391789D01*
Y368631D01*
X391547D01*
Y368388D01*
X391305D01*
Y368146D01*
X390578D01*
Y367904D01*
X390336D01*
Y368146D01*
X390094D01*
Y367904D01*
X389852D01*
Y367662D01*
X389125D01*
Y367420D01*
X388883D01*
Y367662D01*
X388641D01*
Y367420D01*
X388399D01*
Y367178D01*
X388157D01*
Y366936D01*
X387914D01*
Y367178D01*
X387672D01*
Y366936D01*
X387430D01*
Y366693D01*
X387188D01*
Y366451D01*
X386946D01*
Y366693D01*
X386703D01*
Y366451D01*
X386461D01*
Y366209D01*
X386219D01*
Y365967D01*
X385977D01*
Y366209D01*
X385735D01*
Y365967D01*
X385493D01*
Y365725D01*
X385251D01*
Y365482D01*
X385008D01*
Y365725D01*
X384766D01*
Y365482D01*
X384524D01*
Y365240D01*
X384282D01*
Y364998D01*
X384040D01*
Y364756D01*
X383797D01*
Y364514D01*
X383313D01*
Y364272D01*
X382829D01*
Y364029D01*
X382587D01*
Y363787D01*
X382344D01*
Y363545D01*
X382102D01*
Y363787D01*
X381860D01*
Y363545D01*
X382102D01*
Y363303D01*
X381860D01*
Y363061D01*
X381376D01*
Y362576D01*
X381133D01*
Y362819D01*
X380891D01*
Y362092D01*
X380649D01*
Y362334D01*
X380407D01*
Y361608D01*
X380165D01*
Y361850D01*
X379923D01*
Y361608D01*
X379680D01*
Y361366D01*
X379438D01*
Y360639D01*
X379196D01*
Y360881D01*
X378954D01*
Y360155D01*
X378712D01*
Y360397D01*
X378470D01*
Y359670D01*
X378228D01*
Y359912D01*
X377985D01*
Y359670D01*
X378228D01*
Y359428D01*
X377985D01*
Y359186D01*
X377743D01*
Y358944D01*
X377501D01*
Y358702D01*
X377259D01*
Y358459D01*
X377017D01*
Y357733D01*
X376774D01*
Y357491D01*
X376532D01*
Y357249D01*
X376290D01*
Y357006D01*
X376532D01*
Y356764D01*
X376290D01*
Y357006D01*
X376048D01*
Y356280D01*
X375806D01*
Y356038D01*
X375564D01*
Y355311D01*
X375321D01*
Y355069D01*
X375079D01*
Y354342D01*
X374837D01*
Y354100D01*
X374595D01*
Y353858D01*
X374837D01*
Y353616D01*
X374595D01*
Y353374D01*
X374353D01*
Y353132D01*
X374595D01*
Y352890D01*
X374353D01*
Y353132D01*
X374110D01*
Y352890D01*
X374353D01*
Y352647D01*
X374110D01*
Y351921D01*
X373868D01*
Y351679D01*
X374110D01*
Y351436D01*
X373868D01*
Y351679D01*
X373626D01*
Y351436D01*
X373868D01*
Y351194D01*
X373626D01*
Y350952D01*
X373868D01*
Y350710D01*
X373626D01*
Y349983D01*
X373384D01*
Y349741D01*
X373626D01*
Y349499D01*
X373384D01*
Y349257D01*
X373626D01*
Y349015D01*
X373384D01*
Y349257D01*
X373142D01*
Y349015D01*
X373384D01*
Y348773D01*
X373142D01*
Y348530D01*
X373384D01*
Y348288D01*
X373142D01*
Y348046D01*
X373384D01*
Y347804D01*
X373142D01*
Y347562D01*
X373384D01*
Y347319D01*
X373142D01*
Y345624D01*
X373384D01*
Y345382D01*
X373142D01*
Y345140D01*
X373384D01*
Y344898D01*
X373142D01*
Y344656D01*
X373384D01*
Y344413D01*
X373142D01*
Y344171D01*
X373384D01*
Y343929D01*
X373142D01*
Y343687D01*
X373384D01*
Y343445D01*
X373142D01*
Y343203D01*
X373384D01*
Y342960D01*
X373142D01*
Y342718D01*
X373384D01*
Y342476D01*
X373626D01*
Y342234D01*
X373384D01*
Y342476D01*
X373142D01*
Y342234D01*
X373384D01*
Y341507D01*
X373626D01*
Y341265D01*
X373384D01*
Y341507D01*
X373142D01*
Y341265D01*
X373384D01*
Y341023D01*
X373626D01*
Y340781D01*
X373384D01*
Y340539D01*
X373626D01*
Y338843D01*
X373868D01*
Y338601D01*
X373626D01*
Y338359D01*
X373868D01*
Y338117D01*
X374110D01*
Y337875D01*
X373868D01*
Y338117D01*
X373626D01*
Y337875D01*
X373868D01*
Y337633D01*
X374110D01*
Y336906D01*
X374353D01*
Y336664D01*
X374595D01*
Y336422D01*
X374353D01*
Y336664D01*
X374110D01*
Y336422D01*
X374353D01*
Y336180D01*
X374595D01*
Y335937D01*
X374353D01*
Y335695D01*
X374595D01*
Y335453D01*
X374837D01*
Y335211D01*
X374595D01*
Y334969D01*
X374837D01*
Y334726D01*
X375079D01*
Y334484D01*
X374837D01*
Y334242D01*
X375079D01*
Y334000D01*
X375321D01*
Y333758D01*
X375564D01*
Y333516D01*
X375321D01*
Y333758D01*
X375079D01*
Y333516D01*
X375321D01*
Y333274D01*
X375564D01*
Y332547D01*
X375806D01*
Y332305D01*
X376048D01*
Y331578D01*
X376290D01*
Y331336D01*
X376532D01*
Y330610D01*
X376774D01*
Y330367D01*
X377017D01*
Y330125D01*
X377259D01*
Y329883D01*
X377501D01*
Y329156D01*
X377743D01*
Y328914D01*
X377985D01*
Y328430D01*
X378470D01*
Y327704D01*
X378712D01*
Y327461D01*
X378954D01*
Y327219D01*
X379196D01*
Y326735D01*
X379438D01*
Y326250D01*
X379680D01*
Y326493D01*
X379923D01*
Y325766D01*
X380165D01*
Y325524D01*
X380407D01*
Y325282D01*
X380649D01*
Y325040D01*
X380891D01*
Y324797D01*
X381133D01*
Y324555D01*
X381376D01*
Y324313D01*
X381618D01*
Y324071D01*
X381860D01*
Y323829D01*
X382102D01*
Y323587D01*
X382344D01*
Y323344D01*
X382587D01*
Y323102D01*
X382829D01*
Y322860D01*
X383071D01*
Y322618D01*
X383313D01*
Y322376D01*
X383555D01*
Y322133D01*
X383797D01*
Y321891D01*
X384040D01*
Y321649D01*
X384282D01*
Y321407D01*
X384524D01*
Y321165D01*
X384766D01*
Y320923D01*
X385008D01*
Y320681D01*
X385251D01*
Y320438D01*
X385493D01*
Y320196D01*
X385735D01*
Y319954D01*
X385977D01*
Y320196D01*
X386219D01*
Y319470D01*
X386461D01*
Y319712D01*
X386703D01*
Y318985D01*
X386946D01*
Y319228D01*
X387188D01*
Y318985D01*
X387430D01*
Y318743D01*
X387672D01*
Y318501D01*
X387914D01*
Y318259D01*
X388157D01*
Y318017D01*
X388399D01*
Y317774D01*
X388641D01*
Y317532D01*
X388883D01*
Y317774D01*
X389125D01*
Y317532D01*
X389367D01*
Y317290D01*
X389610D01*
Y317048D01*
X389852D01*
Y316806D01*
X390094D01*
Y316564D01*
X390578D01*
Y316079D01*
X390820D01*
Y316321D01*
X391063D01*
Y316079D01*
X391305D01*
Y315837D01*
X391547D01*
Y315595D01*
X391789D01*
Y315353D01*
X392516D01*
Y315110D01*
X392758D01*
Y314868D01*
X393000D01*
Y314626D01*
X393242D01*
Y314384D01*
X393484D01*
Y314142D01*
X393727D01*
Y314384D01*
X393969D01*
Y314142D01*
X394211D01*
Y313900D01*
X394453D01*
Y313657D01*
X394695D01*
Y313415D01*
X394937D01*
Y313173D01*
X395180D01*
Y313415D01*
X395422D01*
Y313173D01*
X395664D01*
Y312931D01*
X395906D01*
Y313173D01*
X396148D01*
Y313415D01*
X396390D01*
Y313657D01*
X397117D01*
Y313900D01*
X397359D01*
Y314142D01*
X397844D01*
Y314384D01*
X398086D01*
Y314626D01*
X398570D01*
Y314868D01*
X398812D01*
Y315110D01*
X399054D01*
Y315353D01*
X399296D01*
Y315110D01*
X399539D01*
Y315353D01*
X399781D01*
Y315595D01*
X400023D01*
Y315837D01*
X400265D01*
Y316079D01*
X400992D01*
Y316321D01*
X401234D01*
Y316564D01*
X401476D01*
Y316806D01*
X401718D01*
Y317048D01*
X401960D01*
Y317290D01*
X402202D01*
Y317048D01*
X402445D01*
Y317290D01*
X402687D01*
Y317532D01*
X402929D01*
Y317774D01*
X403171D01*
Y318017D01*
X403413D01*
Y318259D01*
X403898D01*
Y318501D01*
X404382D01*
Y318743D01*
X404624D01*
Y318985D01*
X404866D01*
Y319228D01*
X405109D01*
Y318985D01*
X405351D01*
Y319470D01*
X405835D01*
Y319712D01*
X406077D01*
Y319954D01*
X406320D01*
Y320196D01*
X406562D01*
Y320438D01*
X406804D01*
Y320681D01*
X407288D01*
Y321165D01*
X407530D01*
Y320923D01*
X407772D01*
Y321407D01*
X408257D01*
Y321649D01*
X408499D01*
Y321891D01*
X408741D01*
Y322133D01*
X408983D01*
Y322376D01*
X409226D01*
Y322618D01*
X409468D01*
Y322860D01*
X409710D01*
Y323102D01*
X409952D01*
Y322860D01*
X410194D01*
Y323102D01*
X409952D01*
Y323344D01*
X410194D01*
Y323587D01*
X410436D01*
Y323344D01*
X410679D01*
Y324071D01*
X410921D01*
Y323829D01*
X411163D01*
Y324555D01*
X411405D01*
Y324313D01*
X411647D01*
Y324797D01*
X412132D01*
Y325524D01*
X412374D01*
Y325282D01*
X412616D01*
Y325524D01*
X412858D01*
Y325766D01*
X413100D01*
Y326008D01*
X413343D01*
Y326250D01*
X413585D01*
Y326493D01*
X413827D01*
Y326735D01*
X414069D01*
Y327461D01*
X414311D01*
Y327219D01*
X414553D01*
Y327946D01*
X414795D01*
Y327704D01*
X415038D01*
Y327946D01*
X414795D01*
Y328188D01*
X415038D01*
Y328430D01*
X415280D01*
Y328672D01*
X415522D01*
Y328914D01*
X415764D01*
Y329156D01*
X416006D01*
Y329883D01*
X416249D01*
Y330125D01*
X416491D01*
Y330367D01*
X416733D01*
Y330610D01*
X416975D01*
Y330852D01*
X416733D01*
Y331094D01*
X416975D01*
Y331336D01*
X417217D01*
Y331578D01*
X416975D01*
Y331820D01*
X417217D01*
Y331578D01*
X417459D01*
Y331820D01*
X417217D01*
Y332063D01*
X417459D01*
Y332305D01*
X417702D01*
Y332547D01*
X417944D01*
Y332789D01*
X417702D01*
Y333031D01*
X417944D01*
Y333758D01*
X418186D01*
Y334000D01*
X418428D01*
Y334726D01*
X418670D01*
Y334969D01*
X418428D01*
Y335211D01*
X418670D01*
Y335453D01*
X418913D01*
Y335695D01*
X418670D01*
Y335937D01*
X418913D01*
Y336664D01*
X419155D01*
Y336906D01*
X419397D01*
Y337148D01*
X419155D01*
Y337390D01*
X419397D01*
Y337633D01*
X419155D01*
Y337875D01*
X419397D01*
Y339086D01*
X419639D01*
Y339328D01*
X419397D01*
Y339570D01*
X419639D01*
Y339812D01*
X419397D01*
Y340054D01*
X419639D01*
Y340297D01*
X419881D01*
Y340539D01*
X419639D01*
Y340781D01*
X419881D01*
Y341023D01*
X419639D01*
Y341265D01*
X419881D01*
Y341507D01*
X419639D01*
Y341749D01*
X419881D01*
Y344413D01*
X419639D01*
Y344656D01*
X419881D01*
Y345382D01*
X419639D01*
Y345624D01*
X419881D01*
Y345867D01*
X419639D01*
Y346109D01*
X419881D01*
Y346351D01*
X419639D01*
Y346593D01*
X419397D01*
Y346835D01*
X419639D01*
Y347077D01*
X419397D01*
Y347319D01*
X419639D01*
Y347562D01*
X419397D01*
Y348773D01*
X419155D01*
Y349015D01*
X419397D01*
Y349257D01*
X419155D01*
Y349499D01*
X418913D01*
Y349741D01*
X419155D01*
Y349983D01*
X418913D01*
Y351194D01*
X418670D01*
Y351436D01*
X418428D01*
Y351679D01*
X418670D01*
Y351921D01*
X418428D01*
Y352647D01*
X418186D01*
Y352890D01*
X417944D01*
Y353132D01*
X418186D01*
Y353374D01*
X417944D01*
Y354100D01*
X417702D01*
Y354342D01*
X417459D01*
Y355069D01*
X417217D01*
Y355311D01*
X416975D01*
Y356038D01*
X416733D01*
Y356280D01*
X416491D01*
Y356522D01*
X416733D01*
Y356764D01*
X416491D01*
Y357006D01*
X416249D01*
Y357249D01*
X416006D01*
Y357975D01*
X415764D01*
Y358217D01*
X415522D01*
Y358944D01*
X415280D01*
Y359186D01*
X415038D01*
Y359428D01*
X414795D01*
Y359670D01*
X414553D01*
Y360397D01*
X414311D01*
Y360155D01*
X414069D01*
Y360881D01*
X413827D01*
Y361123D01*
X413585D01*
Y361366D01*
X413343D01*
Y361608D01*
X413100D01*
Y361850D01*
X412858D01*
Y362092D01*
X412616D01*
Y362334D01*
X412374D01*
Y362576D01*
X412132D01*
Y362819D01*
X411889D01*
Y363061D01*
X411647D01*
Y363303D01*
X411405D01*
Y363545D01*
X411163D01*
Y363787D01*
X410921D01*
Y364029D01*
X410679D01*
Y364272D01*
X410436D01*
Y364514D01*
X410194D01*
Y364756D01*
X409710D01*
Y365240D01*
X409468D01*
Y364998D01*
X409226D01*
Y365240D01*
X408983D01*
Y365482D01*
X408741D01*
Y365725D01*
X408499D01*
Y365967D01*
X408257D01*
Y366209D01*
X408015D01*
Y365967D01*
X407772D01*
Y366209D01*
X407530D01*
Y366451D01*
X407288D01*
Y366693D01*
X407046D01*
Y366451D01*
X406804D01*
Y366693D01*
X406562D01*
Y366936D01*
X406320D01*
Y367178D01*
X406077D01*
Y366936D01*
X405835D01*
Y367178D01*
X405593D01*
Y367420D01*
X405351D01*
Y367662D01*
X405109D01*
Y367420D01*
X404866D01*
Y367662D01*
X404624D01*
Y367904D01*
X403898D01*
Y368146D01*
X403656D01*
Y367904D01*
X403413D01*
Y368146D01*
X403171D01*
Y368388D01*
X402445D01*
Y368631D01*
X402202D01*
Y368388D01*
X401960D01*
Y368631D01*
X401234D01*
Y368873D01*
X400507D01*
Y369115D01*
X400265D01*
Y368873D01*
X400023D01*
Y369115D01*
X399781D01*
Y368873D01*
X399539D01*
Y369115D01*
X399296D01*
Y368873D01*
X399054D01*
Y369115D01*
X398328D01*
Y368873D01*
X398086D01*
Y369115D01*
X397359D01*
Y369357D01*
D02*
G37*
G36*
X377259Y329883D02*
X377017D01*
Y329641D01*
X377259D01*
Y329883D01*
D02*
G37*
G36*
X366603Y324071D02*
X366361D01*
Y323829D01*
X366603D01*
Y324071D01*
D02*
G37*
G36*
X368540Y321165D02*
X368298D01*
Y320923D01*
X368540D01*
Y321165D01*
D02*
G37*
G36*
X410194Y304697D02*
X409952D01*
Y304455D01*
X410194D01*
Y304697D01*
D02*
G37*
G36*
X396390Y298643D02*
X395906D01*
Y298401D01*
X395422D01*
Y298158D01*
X395180D01*
Y297916D01*
X394937D01*
Y297674D01*
X394695D01*
Y297916D01*
X394453D01*
Y297674D01*
X394211D01*
Y297432D01*
X393969D01*
Y297190D01*
X393484D01*
Y296705D01*
X393242D01*
Y296948D01*
X393000D01*
Y296705D01*
X392758D01*
Y296463D01*
X392516D01*
Y296221D01*
X392273D01*
Y295979D01*
X392031D01*
Y295737D01*
X391789D01*
Y295979D01*
X391547D01*
Y295737D01*
X391305D01*
Y295495D01*
X391063D01*
Y295252D01*
X390820D01*
Y295010D01*
X390578D01*
Y294768D01*
X390336D01*
Y295010D01*
X390094D01*
Y294526D01*
X389610D01*
Y294284D01*
X389367D01*
Y294042D01*
X389125D01*
Y293799D01*
X388883D01*
Y294042D01*
X388641D01*
Y293315D01*
X388399D01*
Y293557D01*
X388157D01*
Y293315D01*
X387914D01*
Y293073D01*
X387672D01*
Y292831D01*
X387430D01*
Y292589D01*
X387188D01*
Y292346D01*
X386946D01*
Y292104D01*
X386703D01*
Y291862D01*
X386219D01*
Y291620D01*
X385735D01*
Y291378D01*
X385493D01*
Y291135D01*
X385251D01*
Y290893D01*
X385008D01*
Y290651D01*
X384766D01*
Y290409D01*
X384524D01*
Y290167D01*
X384282D01*
Y289925D01*
X384040D01*
Y290167D01*
X383797D01*
Y289440D01*
X383555D01*
Y289682D01*
X383313D01*
Y288956D01*
X383071D01*
Y289198D01*
X382829D01*
Y288472D01*
X382587D01*
Y288714D01*
X382344D01*
Y288229D01*
X381860D01*
Y287503D01*
X381618D01*
Y287745D01*
X381376D01*
Y287019D01*
X381133D01*
Y287261D01*
X380891D01*
Y286534D01*
X380649D01*
Y286292D01*
X380407D01*
Y286050D01*
X380165D01*
Y286292D01*
X379923D01*
Y286050D01*
X380165D01*
Y285808D01*
X379923D01*
Y285565D01*
X379680D01*
Y285323D01*
X379438D01*
Y285081D01*
X379196D01*
Y284839D01*
X378954D01*
Y284355D01*
X378712D01*
Y284112D01*
X378470D01*
Y283628D01*
X378228D01*
Y283386D01*
X377985D01*
Y283144D01*
X377743D01*
Y282902D01*
X377501D01*
Y282175D01*
X377259D01*
Y282417D01*
X377017D01*
Y282175D01*
X377259D01*
Y281933D01*
X377017D01*
Y281691D01*
X376774D01*
Y281448D01*
X376532D01*
Y280722D01*
X376290D01*
Y280480D01*
X376048D01*
Y280238D01*
X375806D01*
Y279995D01*
X375564D01*
Y279269D01*
X375321D01*
Y279027D01*
X375079D01*
Y278300D01*
X374837D01*
Y278058D01*
X375079D01*
Y277816D01*
X374837D01*
Y278058D01*
X374595D01*
Y277816D01*
X374837D01*
Y277574D01*
X374595D01*
Y276847D01*
X374353D01*
Y276605D01*
X374110D01*
Y275879D01*
X373868D01*
Y275636D01*
X374110D01*
Y275394D01*
X373868D01*
Y275152D01*
X373626D01*
Y274910D01*
X373868D01*
Y274668D01*
X373626D01*
Y273941D01*
X373384D01*
Y273699D01*
X373626D01*
Y273457D01*
X373384D01*
Y272730D01*
X373142D01*
Y272488D01*
X373384D01*
Y272246D01*
X373142D01*
Y270551D01*
X372900D01*
Y270309D01*
X373142D01*
Y270066D01*
X372900D01*
Y269824D01*
X373142D01*
Y269582D01*
X372900D01*
Y269340D01*
X373142D01*
Y269098D01*
X372900D01*
Y268855D01*
X373142D01*
Y268613D01*
X372900D01*
Y268371D01*
X373142D01*
Y268129D01*
X372900D01*
Y267887D01*
X373142D01*
Y267645D01*
X372900D01*
Y267402D01*
X373142D01*
Y267160D01*
X372900D01*
Y266918D01*
X373142D01*
Y265223D01*
X373384D01*
Y264981D01*
X373142D01*
Y264739D01*
X373384D01*
Y264012D01*
X373626D01*
Y263770D01*
X373384D01*
Y263528D01*
X373626D01*
Y262317D01*
X373868D01*
Y261590D01*
X374110D01*
Y260380D01*
X374353D01*
Y260137D01*
X374595D01*
Y258927D01*
X374837D01*
Y258684D01*
X375079D01*
Y257958D01*
X375321D01*
Y257716D01*
X375564D01*
Y257473D01*
X375321D01*
Y257231D01*
X375564D01*
Y256989D01*
X375806D01*
Y256747D01*
X375564D01*
Y256505D01*
X375806D01*
Y256263D01*
X376048D01*
Y255536D01*
X376290D01*
Y255294D01*
X376532D01*
Y255052D01*
X376774D01*
Y254809D01*
X377017D01*
Y254567D01*
X376774D01*
Y254809D01*
X376532D01*
Y254567D01*
X376774D01*
Y254325D01*
X377017D01*
Y254083D01*
X377259D01*
Y253599D01*
X377501D01*
Y253114D01*
X377743D01*
Y252872D01*
X377985D01*
Y252630D01*
X378228D01*
Y252388D01*
X378470D01*
Y251661D01*
X378712D01*
Y251419D01*
X378954D01*
Y251177D01*
X379196D01*
Y250935D01*
X379438D01*
Y250693D01*
X379680D01*
Y250450D01*
X379923D01*
Y249966D01*
X380407D01*
Y249482D01*
X380891D01*
Y248997D01*
X381376D01*
Y248513D01*
X381860D01*
Y248029D01*
X382344D01*
Y247787D01*
X382587D01*
Y247544D01*
X382829D01*
Y247302D01*
X383071D01*
Y247060D01*
X383313D01*
Y246818D01*
X383555D01*
Y246576D01*
X383797D01*
Y246334D01*
X384040D01*
Y246576D01*
X384282D01*
Y246334D01*
X384524D01*
Y246091D01*
X384766D01*
Y245849D01*
X385008D01*
Y245607D01*
X385251D01*
Y245365D01*
X385735D01*
Y245123D01*
X386219D01*
Y244881D01*
X386703D01*
Y244396D01*
X386946D01*
Y244638D01*
X387188D01*
Y244396D01*
X387672D01*
Y244154D01*
X388157D01*
Y243912D01*
X388399D01*
Y244154D01*
X388641D01*
Y243912D01*
X388883D01*
Y243670D01*
X389125D01*
Y243427D01*
X389367D01*
Y243670D01*
X389610D01*
Y243427D01*
X389852D01*
Y243670D01*
X390094D01*
Y243427D01*
X390336D01*
Y243185D01*
X391063D01*
Y242943D01*
X391305D01*
Y243185D01*
X391547D01*
Y242943D01*
X392273D01*
Y242701D01*
X392516D01*
Y242459D01*
X392758D01*
Y242701D01*
X393484D01*
Y242459D01*
X393727D01*
Y242701D01*
X393969D01*
Y242459D01*
X394211D01*
Y242701D01*
X394453D01*
Y242459D01*
X394695D01*
Y242701D01*
X394937D01*
Y242459D01*
X395664D01*
Y242701D01*
X395906D01*
Y242459D01*
X396633D01*
Y242701D01*
X396875D01*
Y242459D01*
X397117D01*
Y242701D01*
X397359D01*
Y242459D01*
X397601D01*
Y242701D01*
X397844D01*
Y242459D01*
X398086D01*
Y242701D01*
X398328D01*
Y242459D01*
X398570D01*
Y242701D01*
X399296D01*
Y242943D01*
X399539D01*
Y242701D01*
X399781D01*
Y242943D01*
X400023D01*
Y243185D01*
X400265D01*
Y242943D01*
X400507D01*
Y243185D01*
X400750D01*
Y242943D01*
X400992D01*
Y243185D01*
X401718D01*
Y243427D01*
X401960D01*
Y243670D01*
X402202D01*
Y243427D01*
X402445D01*
Y243670D01*
X403171D01*
Y243912D01*
X403413D01*
Y244154D01*
X403656D01*
Y243912D01*
X403898D01*
Y244154D01*
X404382D01*
Y244638D01*
X404624D01*
Y244396D01*
X404866D01*
Y244638D01*
X405109D01*
Y244396D01*
X405351D01*
Y244638D01*
X405593D01*
Y244881D01*
X405835D01*
Y245123D01*
X406320D01*
Y245365D01*
X406804D01*
Y245607D01*
X407046D01*
Y245365D01*
X407288D01*
Y245607D01*
X407046D01*
Y245849D01*
X407772D01*
Y246091D01*
X408015D01*
Y246334D01*
X408257D01*
Y246576D01*
X408741D01*
Y246818D01*
X409226D01*
Y247060D01*
X409468D01*
Y247302D01*
X409710D01*
Y247544D01*
X409952D01*
Y247787D01*
X410194D01*
Y248029D01*
X410436D01*
Y247787D01*
X410679D01*
Y248271D01*
X411163D01*
Y248513D01*
X411405D01*
Y248755D01*
X411647D01*
Y248997D01*
X411889D01*
Y249240D01*
X412132D01*
Y249482D01*
X412374D01*
Y249724D01*
X412616D01*
Y249966D01*
X412858D01*
Y250208D01*
X413100D01*
Y250450D01*
X413343D01*
Y250693D01*
X413585D01*
Y250935D01*
X413827D01*
Y251177D01*
X414069D01*
Y251903D01*
X414311D01*
Y251661D01*
X414553D01*
Y252388D01*
X414795D01*
Y252146D01*
X415038D01*
Y252388D01*
X414795D01*
Y252630D01*
X415038D01*
Y252872D01*
X415280D01*
Y253114D01*
X415522D01*
Y253356D01*
X415764D01*
Y253599D01*
X416006D01*
Y254325D01*
X416249D01*
Y254567D01*
X416491D01*
Y254809D01*
X416733D01*
Y255052D01*
X416975D01*
Y255294D01*
X416733D01*
Y255536D01*
X416975D01*
Y255778D01*
X417217D01*
Y256020D01*
X417459D01*
Y256747D01*
X417702D01*
Y256989D01*
X417944D01*
Y257716D01*
X418186D01*
Y257958D01*
X418428D01*
Y258684D01*
X418670D01*
Y258927D01*
X418913D01*
Y259169D01*
X418670D01*
Y259411D01*
X418913D01*
Y260137D01*
X419155D01*
Y260380D01*
X419397D01*
Y260622D01*
X419155D01*
Y260864D01*
X419397D01*
Y261590D01*
X419639D01*
Y261833D01*
X419881D01*
Y262075D01*
X419639D01*
Y262317D01*
X419881D01*
Y263528D01*
X420123D01*
Y263770D01*
X419881D01*
Y264012D01*
X420123D01*
Y264254D01*
X419881D01*
Y264496D01*
X420123D01*
Y264254D01*
X420365D01*
Y264496D01*
X420123D01*
Y264739D01*
X420365D01*
Y264981D01*
X420123D01*
Y265223D01*
X420365D01*
Y265465D01*
X420123D01*
Y265707D01*
X420365D01*
Y266434D01*
X420123D01*
Y266676D01*
X420365D01*
Y267402D01*
X420123D01*
Y267645D01*
X420365D01*
Y268371D01*
X420123D01*
Y268613D01*
X420365D01*
Y268855D01*
X420123D01*
Y269098D01*
X420365D01*
Y269340D01*
X420123D01*
Y269582D01*
X419881D01*
Y269824D01*
X420123D01*
Y270066D01*
X419881D01*
Y270309D01*
X420123D01*
Y270551D01*
X419881D01*
Y271762D01*
X419639D01*
Y272004D01*
X419397D01*
Y272246D01*
X419639D01*
Y272488D01*
X419397D01*
Y273215D01*
X419155D01*
Y273457D01*
X419397D01*
Y273699D01*
X419155D01*
Y273941D01*
X418913D01*
Y274183D01*
X419155D01*
Y274426D01*
X418913D01*
Y275152D01*
X418670D01*
Y275394D01*
X418913D01*
Y275636D01*
X418670D01*
Y275879D01*
X418428D01*
Y276121D01*
X418670D01*
Y276363D01*
X418428D01*
Y276605D01*
X418186D01*
Y276847D01*
X417944D01*
Y277089D01*
X418186D01*
Y276847D01*
X418428D01*
Y277089D01*
X418186D01*
Y277332D01*
X417944D01*
Y278058D01*
X417702D01*
Y278300D01*
X417459D01*
Y279027D01*
X417217D01*
Y279269D01*
X416975D01*
Y279995D01*
X416733D01*
Y280238D01*
X416491D01*
Y280964D01*
X416249D01*
Y281206D01*
X416006D01*
Y281448D01*
X415764D01*
Y281691D01*
X415522D01*
Y281933D01*
X415764D01*
Y281691D01*
X416006D01*
Y281933D01*
X415764D01*
Y282175D01*
X415522D01*
Y282417D01*
X415280D01*
Y282659D01*
X415038D01*
Y283386D01*
X414795D01*
Y283628D01*
X414553D01*
Y283870D01*
X414311D01*
Y284112D01*
X414069D01*
Y284355D01*
X413827D01*
Y284597D01*
X413585D01*
Y285323D01*
X413343D01*
Y285565D01*
X413100D01*
Y285808D01*
X412858D01*
Y286050D01*
X412616D01*
Y286292D01*
X412374D01*
Y286534D01*
X412132D01*
Y286776D01*
X411889D01*
Y287019D01*
X411647D01*
Y287261D01*
X411405D01*
Y287503D01*
X411163D01*
Y288229D01*
X410921D01*
Y287987D01*
X410679D01*
Y288472D01*
X410194D01*
Y289198D01*
X409952D01*
Y288956D01*
X409710D01*
Y289198D01*
X409468D01*
Y289440D01*
X409226D01*
Y289682D01*
X408983D01*
Y289925D01*
X408741D01*
Y290167D01*
X408499D01*
Y290409D01*
X408257D01*
Y290651D01*
X408015D01*
Y290893D01*
X407772D01*
Y291135D01*
X407530D01*
Y291378D01*
X407288D01*
Y291620D01*
X407046D01*
Y291862D01*
X406804D01*
Y292104D01*
X406562D01*
Y291862D01*
X406320D01*
Y292104D01*
X406077D01*
Y292346D01*
X405835D01*
Y292589D01*
X405593D01*
Y292831D01*
X405351D01*
Y293073D01*
X405109D01*
Y293315D01*
X404866D01*
Y293557D01*
X404624D01*
Y293315D01*
X404382D01*
Y293799D01*
X403898D01*
Y294042D01*
X403656D01*
Y294284D01*
X403413D01*
Y294526D01*
X402929D01*
Y294768D01*
X402445D01*
Y295010D01*
X402202D01*
Y295252D01*
X401960D01*
Y295495D01*
X401476D01*
Y295979D01*
X401234D01*
Y295737D01*
X400992D01*
Y295979D01*
X400750D01*
Y296221D01*
X400507D01*
Y296463D01*
X399781D01*
Y296705D01*
X399539D01*
Y296948D01*
X399296D01*
Y296705D01*
X399054D01*
Y296948D01*
X398812D01*
Y297190D01*
X398570D01*
Y297432D01*
X398328D01*
Y297190D01*
X398086D01*
Y297432D01*
X397844D01*
Y297674D01*
X397601D01*
Y297916D01*
X397117D01*
Y298158D01*
X396633D01*
Y298401D01*
X396390D01*
Y298643D01*
D02*
G37*
G36*
X423756Y292104D02*
X423514D01*
Y291862D01*
X423756D01*
Y292104D01*
D02*
G37*
G36*
X409226Y290167D02*
X408983D01*
Y289925D01*
X409226D01*
Y290167D01*
D02*
G37*
G36*
X378228Y252388D02*
X377985D01*
Y252146D01*
X378228D01*
Y252388D01*
D02*
G37*
G36*
X367572Y246576D02*
X367330D01*
Y246334D01*
X367572D01*
Y246576D01*
D02*
G37*
%LPD*%
G36*
X397844Y356280D02*
X398086D01*
Y355553D01*
X398328D01*
Y355311D01*
X398086D01*
Y355553D01*
X397844D01*
Y355311D01*
X398086D01*
Y354585D01*
X398328D01*
Y354342D01*
X398086D01*
Y354585D01*
X397844D01*
Y354342D01*
X398086D01*
Y353616D01*
X398328D01*
Y353374D01*
X398086D01*
Y353616D01*
X397844D01*
Y353374D01*
X398086D01*
Y352647D01*
X398328D01*
Y352405D01*
X398086D01*
Y352647D01*
X397844D01*
Y352405D01*
X398086D01*
Y351679D01*
X398328D01*
Y351436D01*
X398086D01*
Y351679D01*
X397844D01*
Y351436D01*
X398086D01*
Y350710D01*
X398328D01*
Y350468D01*
X398086D01*
Y350710D01*
X397844D01*
Y350468D01*
X398086D01*
Y349741D01*
X398328D01*
Y349499D01*
X398086D01*
Y349741D01*
X397844D01*
Y349499D01*
X398086D01*
Y348773D01*
X398328D01*
Y348530D01*
X398086D01*
Y348773D01*
X397844D01*
Y348530D01*
X398086D01*
Y347804D01*
X398328D01*
Y347562D01*
X398086D01*
Y347804D01*
X397844D01*
Y347562D01*
X398086D01*
Y346835D01*
X398328D01*
Y346593D01*
X398086D01*
Y346835D01*
X397844D01*
Y346593D01*
X398086D01*
Y345867D01*
X398328D01*
Y345624D01*
X398086D01*
Y345867D01*
X397844D01*
Y345624D01*
X398086D01*
Y344898D01*
X398328D01*
Y344656D01*
X398086D01*
Y344898D01*
X397844D01*
Y344656D01*
X398086D01*
Y343929D01*
X398328D01*
Y343687D01*
X398086D01*
Y343929D01*
X397844D01*
Y343687D01*
X398086D01*
Y342960D01*
X398328D01*
Y342718D01*
X398086D01*
Y342960D01*
X397844D01*
Y342718D01*
X398086D01*
Y341992D01*
X398328D01*
Y341749D01*
X398086D01*
Y341992D01*
X397844D01*
Y341749D01*
X398086D01*
Y341023D01*
X398328D01*
Y340781D01*
X398086D01*
Y341023D01*
X397844D01*
Y340781D01*
X398086D01*
Y340054D01*
X398328D01*
Y339812D01*
X398086D01*
Y340054D01*
X397844D01*
Y339812D01*
X398086D01*
Y339086D01*
X398328D01*
Y338843D01*
X398086D01*
Y339086D01*
X397844D01*
Y338843D01*
X398086D01*
Y338117D01*
X398328D01*
Y337875D01*
X398086D01*
Y338117D01*
X397844D01*
Y337875D01*
X398086D01*
Y337148D01*
X398328D01*
Y336906D01*
X398086D01*
Y337148D01*
X397844D01*
Y336906D01*
X398086D01*
Y336180D01*
X398328D01*
Y335937D01*
X398086D01*
Y336180D01*
X397844D01*
Y335937D01*
X398086D01*
Y335211D01*
X398328D01*
Y334969D01*
X398086D01*
Y335211D01*
X397844D01*
Y334969D01*
X398086D01*
Y334242D01*
X398328D01*
Y334000D01*
X398086D01*
Y334242D01*
X397844D01*
Y334000D01*
X398086D01*
Y333274D01*
X398328D01*
Y333031D01*
X398086D01*
Y333274D01*
X397844D01*
Y333031D01*
X398086D01*
Y332305D01*
X398328D01*
Y332063D01*
X398086D01*
Y332305D01*
X397844D01*
Y332063D01*
X398086D01*
Y331336D01*
X397844D01*
Y331094D01*
X397601D01*
Y331336D01*
X397359D01*
Y331094D01*
X397117D01*
Y331336D01*
X396875D01*
Y331094D01*
X396633D01*
Y331336D01*
X396390D01*
Y331094D01*
X396148D01*
Y331336D01*
X395906D01*
Y331094D01*
X395664D01*
Y331336D01*
X395422D01*
Y331094D01*
X395180D01*
Y331336D01*
X394937D01*
Y331094D01*
X394695D01*
Y331336D01*
X394453D01*
Y331094D01*
X394211D01*
Y331336D01*
X393969D01*
Y331094D01*
X393727D01*
Y331336D01*
X393484D01*
Y331094D01*
X393242D01*
Y331336D01*
X393000D01*
Y331094D01*
X392758D01*
Y331820D01*
X393000D01*
Y332063D01*
X392758D01*
Y333758D01*
X393000D01*
Y334000D01*
X392758D01*
Y335695D01*
X393000D01*
Y335937D01*
X392758D01*
Y337633D01*
X393000D01*
Y337875D01*
X392758D01*
Y339570D01*
X393000D01*
Y339812D01*
X392758D01*
Y341507D01*
X393000D01*
Y341749D01*
X392758D01*
Y343445D01*
X393000D01*
Y343687D01*
X392758D01*
Y345382D01*
X393000D01*
Y345624D01*
X392758D01*
Y347319D01*
X393000D01*
Y347562D01*
X392758D01*
Y349257D01*
X393000D01*
Y349499D01*
X392758D01*
Y351194D01*
X393000D01*
Y351436D01*
X392758D01*
Y353132D01*
X393000D01*
Y353374D01*
X392758D01*
Y355069D01*
X393000D01*
Y355311D01*
X392758D01*
Y356522D01*
X393000D01*
Y356280D01*
X393242D01*
Y356522D01*
X393484D01*
Y356280D01*
X393727D01*
Y356522D01*
X393969D01*
Y356280D01*
X394211D01*
Y356522D01*
X394453D01*
Y356280D01*
X394695D01*
Y356522D01*
X394937D01*
Y356280D01*
X395180D01*
Y356522D01*
X395422D01*
Y356280D01*
X395664D01*
Y356522D01*
X395906D01*
Y356280D01*
X396148D01*
Y356522D01*
X396390D01*
Y356280D01*
X396633D01*
Y356522D01*
X396875D01*
Y356280D01*
X397117D01*
Y356522D01*
X397359D01*
Y356280D01*
X397601D01*
Y356522D01*
X397844D01*
Y356280D01*
D02*
G37*
G36*
X398812Y272246D02*
X406077D01*
Y272004D01*
X405835D01*
Y271762D01*
X406077D01*
Y271519D01*
X405835D01*
Y271277D01*
X406077D01*
Y271035D01*
X405835D01*
Y270793D01*
X406077D01*
Y270551D01*
X405835D01*
Y270309D01*
X406077D01*
Y270066D01*
X405835D01*
Y269824D01*
X406077D01*
Y269582D01*
X405835D01*
Y269340D01*
X406077D01*
Y269098D01*
X405835D01*
Y268855D01*
X406077D01*
Y268613D01*
X405835D01*
Y268371D01*
X406077D01*
Y268129D01*
X405835D01*
Y267887D01*
X406077D01*
Y267645D01*
X405835D01*
Y267402D01*
X406077D01*
Y267160D01*
X405835D01*
Y266918D01*
X406077D01*
Y266676D01*
X405835D01*
Y266434D01*
X406077D01*
Y266192D01*
X405835D01*
Y265949D01*
X406077D01*
Y265707D01*
X405835D01*
Y265465D01*
X405109D01*
Y265707D01*
X404866D01*
Y265465D01*
X404140D01*
Y265707D01*
X403898D01*
Y265465D01*
X403171D01*
Y265707D01*
X402929D01*
Y265465D01*
X402202D01*
Y265707D01*
X401960D01*
Y265465D01*
X401234D01*
Y265707D01*
X400992D01*
Y265465D01*
X400265D01*
Y265707D01*
X400023D01*
Y265465D01*
X399296D01*
Y265707D01*
X399054D01*
Y265465D01*
X398812D01*
Y258200D01*
X392031D01*
Y258442D01*
X392273D01*
Y258684D01*
X392031D01*
Y258927D01*
X392273D01*
Y259169D01*
X392031D01*
Y259411D01*
X392273D01*
Y259653D01*
X392031D01*
Y259895D01*
X392273D01*
Y260137D01*
X392031D01*
Y260380D01*
X392273D01*
Y260622D01*
X392031D01*
Y260864D01*
X392273D01*
Y261106D01*
X392031D01*
Y261348D01*
X392273D01*
Y261590D01*
X392031D01*
Y261833D01*
X392273D01*
Y262075D01*
X392031D01*
Y262317D01*
X392273D01*
Y262559D01*
X392031D01*
Y262801D01*
X392273D01*
Y263043D01*
X392031D01*
Y263286D01*
X392273D01*
Y263528D01*
X392031D01*
Y263770D01*
X392273D01*
Y264012D01*
X392031D01*
Y264254D01*
X392273D01*
Y264496D01*
X392031D01*
Y264739D01*
X392273D01*
Y264981D01*
X392031D01*
Y265223D01*
X392273D01*
Y265465D01*
X392031D01*
Y265707D01*
X391789D01*
Y265465D01*
X391547D01*
Y265707D01*
X391305D01*
Y265465D01*
X390578D01*
Y265707D01*
X390336D01*
Y265465D01*
X389610D01*
Y265707D01*
X389367D01*
Y265465D01*
X388641D01*
Y265707D01*
X388399D01*
Y265465D01*
X387672D01*
Y265707D01*
X387430D01*
Y265465D01*
X386703D01*
Y265707D01*
X386461D01*
Y265465D01*
X385735D01*
Y265707D01*
X385493D01*
Y265465D01*
X385008D01*
Y272246D01*
X392031D01*
Y272488D01*
X392273D01*
Y272730D01*
X392031D01*
Y272973D01*
X392273D01*
Y273215D01*
X392031D01*
Y273457D01*
X392273D01*
Y273699D01*
X392031D01*
Y273941D01*
X392273D01*
Y274183D01*
X392031D01*
Y274426D01*
X392273D01*
Y274668D01*
X392031D01*
Y274910D01*
X392273D01*
Y275152D01*
X392031D01*
Y275394D01*
X392273D01*
Y275636D01*
X392031D01*
Y275879D01*
X392273D01*
Y276121D01*
X392031D01*
Y276363D01*
X392273D01*
Y276605D01*
X392031D01*
Y276847D01*
X392273D01*
Y277089D01*
X392031D01*
Y277332D01*
X392273D01*
Y277574D01*
X392031D01*
Y277816D01*
X392273D01*
Y278058D01*
X392031D01*
Y278300D01*
X392273D01*
Y278542D01*
X392031D01*
Y278785D01*
X392273D01*
Y279027D01*
X392031D01*
Y279269D01*
X398812D01*
Y272246D01*
D02*
G37*
%LPC*%
G36*
X454270Y372021D02*
X454027D01*
Y371779D01*
X454270D01*
Y372021D01*
D02*
G37*
G36*
X453785D02*
X453543D01*
Y371779D01*
X453301D01*
Y372021D01*
X453059D01*
Y371779D01*
X452817D01*
Y372021D01*
X452575D01*
Y371779D01*
X451848D01*
Y371537D01*
X451121D01*
Y371295D01*
X450879D01*
Y371537D01*
X450637D01*
Y371295D01*
X450395D01*
Y371052D01*
X449668D01*
Y370810D01*
X449426D01*
Y371052D01*
X449184D01*
Y370810D01*
X448457D01*
Y370568D01*
X447731D01*
Y370326D01*
X447005D01*
Y370568D01*
X446762D01*
Y370326D01*
X447005D01*
Y370084D01*
X446278D01*
Y369842D01*
X446036D01*
Y370084D01*
X445794D01*
Y369842D01*
X445551D01*
Y370084D01*
X445309D01*
Y369842D01*
X445067D01*
Y369599D01*
X444341D01*
Y369357D01*
X444098D01*
Y369599D01*
X443856D01*
Y369357D01*
X443614D01*
Y369115D01*
X443856D01*
Y368873D01*
X444583D01*
Y368631D01*
X444825D01*
Y368388D01*
X445067D01*
Y368631D01*
X445309D01*
Y368388D01*
X446036D01*
Y368146D01*
X446278D01*
Y368388D01*
X446520D01*
Y368146D01*
X446762D01*
Y367904D01*
X447489D01*
Y368146D01*
X447731D01*
Y367904D01*
X447973D01*
Y367662D01*
X448700D01*
Y367420D01*
X448942D01*
Y367662D01*
X449184D01*
Y367420D01*
X449426D01*
Y367178D01*
X450153D01*
Y366936D01*
X450395D01*
Y367178D01*
X450637D01*
Y366936D01*
X451364D01*
Y366693D01*
X452090D01*
Y366451D01*
X452332D01*
Y366693D01*
X452575D01*
Y366451D01*
X452817D01*
Y366693D01*
X453059D01*
Y366451D01*
X453301D01*
Y366209D01*
X453543D01*
Y365967D01*
X453785D01*
Y366209D01*
X454027D01*
Y366451D01*
X453785D01*
Y366693D01*
X454027D01*
Y366936D01*
X453785D01*
Y367178D01*
X454027D01*
Y367420D01*
X453785D01*
Y367662D01*
X454027D01*
Y367904D01*
X453785D01*
Y368146D01*
X454027D01*
Y367904D01*
X454270D01*
Y368146D01*
X454027D01*
Y368388D01*
X453785D01*
Y368631D01*
X454027D01*
Y368873D01*
X453785D01*
Y369115D01*
X454027D01*
Y369357D01*
X453785D01*
Y369599D01*
X454027D01*
Y369842D01*
X453785D01*
Y370084D01*
X454027D01*
Y369842D01*
X454270D01*
Y370084D01*
X454027D01*
Y370326D01*
X453785D01*
Y370568D01*
X454027D01*
Y370810D01*
X453785D01*
Y371052D01*
X454027D01*
Y371295D01*
X453785D01*
Y371537D01*
X454027D01*
Y371779D01*
X453785D01*
Y372021D01*
D02*
G37*
G36*
X443614Y369115D02*
X443372D01*
Y368873D01*
X443614D01*
Y369115D01*
D02*
G37*
G36*
X448942Y351194D02*
X448700D01*
Y350952D01*
X448942D01*
Y351194D01*
D02*
G37*
G36*
X448457D02*
X448215D01*
Y350952D01*
X447973D01*
Y351194D01*
X447731D01*
Y350952D01*
X447489D01*
Y351194D01*
X447247D01*
Y350952D01*
X447005D01*
Y351194D01*
X446762D01*
Y350952D01*
X446520D01*
Y351194D01*
X446278D01*
Y350952D01*
X446036D01*
Y351194D01*
X445794D01*
Y350952D01*
X445551D01*
Y351194D01*
X445309D01*
Y350952D01*
X445067D01*
Y351194D01*
X444825D01*
Y350952D01*
X444583D01*
Y351194D01*
X444341D01*
Y350952D01*
X444098D01*
Y351194D01*
X443856D01*
Y350952D01*
X443614D01*
Y351194D01*
X443372D01*
Y350952D01*
X443130D01*
Y351194D01*
X442888D01*
Y350952D01*
X442645D01*
Y351194D01*
X442403D01*
Y350952D01*
X442161D01*
Y351194D01*
X441919D01*
Y350952D01*
X442161D01*
Y350710D01*
X442403D01*
Y350468D01*
X442161D01*
Y350710D01*
X441919D01*
Y350468D01*
X442161D01*
Y350226D01*
X442403D01*
Y349983D01*
X442161D01*
Y350226D01*
X441919D01*
Y349983D01*
X442161D01*
Y349741D01*
X442403D01*
Y349499D01*
X442161D01*
Y349741D01*
X441919D01*
Y349499D01*
X442161D01*
Y349257D01*
X442403D01*
Y349015D01*
X442161D01*
Y349257D01*
X441919D01*
Y349015D01*
X442161D01*
Y348773D01*
X442403D01*
Y348530D01*
X442161D01*
Y348288D01*
X442403D01*
Y348046D01*
X442161D01*
Y348288D01*
X441919D01*
Y348046D01*
X442161D01*
Y347804D01*
X442403D01*
Y347562D01*
X442161D01*
Y347319D01*
X442403D01*
Y346593D01*
X442645D01*
Y346351D01*
X442888D01*
Y346109D01*
X442645D01*
Y345867D01*
X442888D01*
Y345624D01*
X443130D01*
Y345382D01*
X443372D01*
Y345140D01*
X443856D01*
Y344898D01*
X444341D01*
Y344656D01*
X444583D01*
Y344898D01*
X444825D01*
Y344656D01*
X445067D01*
Y344898D01*
X445309D01*
Y344656D01*
X445551D01*
Y344898D01*
X445794D01*
Y344656D01*
X446036D01*
Y344898D01*
X446278D01*
Y344656D01*
X446520D01*
Y344898D01*
X446762D01*
Y345140D01*
X447489D01*
Y345382D01*
X447731D01*
Y345624D01*
X447973D01*
Y346351D01*
X448215D01*
Y346593D01*
X448457D01*
Y347319D01*
X448700D01*
Y347562D01*
X448457D01*
Y347804D01*
X448700D01*
Y348046D01*
X448942D01*
Y348288D01*
X448700D01*
Y348530D01*
X448942D01*
Y348773D01*
X448700D01*
Y349015D01*
X448942D01*
Y349257D01*
X448700D01*
Y349499D01*
X448942D01*
Y349741D01*
X448700D01*
Y349983D01*
X448942D01*
Y350226D01*
X448700D01*
Y350468D01*
X448942D01*
Y350710D01*
X448700D01*
Y350952D01*
X448457D01*
Y351194D01*
D02*
G37*
G36*
X442161Y330852D02*
X441919D01*
Y330610D01*
X442161D01*
Y330852D01*
D02*
G37*
G36*
X458387Y330610D02*
X458144D01*
Y330367D01*
X457418D01*
Y330610D01*
X457176D01*
Y330367D01*
X456934D01*
Y330610D01*
X456691D01*
Y330367D01*
X456449D01*
Y330610D01*
X456207D01*
Y330367D01*
X455480D01*
Y330610D01*
X455238D01*
Y330367D01*
X454512D01*
Y330610D01*
X454270D01*
Y330367D01*
X453543D01*
Y330610D01*
X453301D01*
Y330367D01*
X453059D01*
Y330610D01*
X452817D01*
Y330367D01*
X452575D01*
Y330610D01*
X452332D01*
Y330367D01*
X451606D01*
Y330610D01*
X451364D01*
Y330367D01*
X450637D01*
Y330610D01*
X450395D01*
Y330367D01*
X449668D01*
Y330610D01*
X449426D01*
Y330367D01*
X449184D01*
Y330610D01*
X448942D01*
Y330367D01*
X448700D01*
Y330610D01*
X448457D01*
Y330367D01*
X447731D01*
Y330610D01*
X447489D01*
Y330367D01*
X446762D01*
Y330610D01*
X446520D01*
Y330367D01*
X445794D01*
Y330610D01*
X445551D01*
Y330367D01*
X445309D01*
Y330610D01*
X445067D01*
Y330367D01*
X444825D01*
Y330610D01*
X444583D01*
Y330367D01*
X443856D01*
Y330610D01*
X443614D01*
Y330367D01*
X442888D01*
Y330610D01*
X442645D01*
Y330367D01*
X441919D01*
Y330125D01*
X442161D01*
Y329883D01*
X441919D01*
Y329641D01*
X442161D01*
Y329399D01*
X441919D01*
Y329156D01*
X442161D01*
Y328914D01*
X441919D01*
Y328672D01*
X442161D01*
Y328430D01*
X441919D01*
Y328188D01*
X442161D01*
Y327946D01*
X441919D01*
Y327704D01*
X442161D01*
Y327461D01*
X441919D01*
Y327219D01*
X442161D01*
Y326977D01*
X442403D01*
Y326735D01*
X442161D01*
Y326977D01*
X441919D01*
Y326735D01*
X442161D01*
Y326493D01*
X442403D01*
Y325766D01*
X442645D01*
Y325524D01*
X442403D01*
Y325282D01*
X442645D01*
Y325040D01*
X442888D01*
Y324313D01*
X443130D01*
Y324071D01*
X443372D01*
Y323829D01*
X443614D01*
Y323587D01*
X443856D01*
Y323344D01*
X444341D01*
Y323102D01*
X444825D01*
Y322860D01*
X445309D01*
Y322618D01*
X445794D01*
Y322376D01*
X446036D01*
Y322618D01*
X446278D01*
Y322376D01*
X446520D01*
Y322133D01*
X446762D01*
Y322376D01*
X447005D01*
Y322133D01*
X447247D01*
Y321891D01*
X447489D01*
Y322133D01*
X447731D01*
Y321891D01*
X447973D01*
Y322133D01*
X448215D01*
Y321891D01*
X448942D01*
Y322133D01*
X449184D01*
Y321891D01*
X449426D01*
Y321649D01*
X449668D01*
Y321891D01*
X450395D01*
Y321649D01*
X450637D01*
Y321891D01*
X451364D01*
Y321649D01*
X451606D01*
Y321891D01*
X452817D01*
Y322133D01*
X453059D01*
Y321891D01*
X453301D01*
Y322133D01*
X453543D01*
Y321891D01*
X453785D01*
Y322133D01*
X454027D01*
Y322376D01*
X454270D01*
Y322618D01*
X454512D01*
Y322376D01*
X454754D01*
Y322618D01*
X454996D01*
Y322376D01*
X455238D01*
Y322618D01*
X455480D01*
Y322860D01*
X455723D01*
Y323102D01*
X456207D01*
Y323344D01*
X456691D01*
Y323587D01*
X456934D01*
Y323829D01*
X457176D01*
Y324071D01*
X457418D01*
Y324313D01*
X457660D01*
Y325040D01*
X457902D01*
Y325282D01*
X458144D01*
Y326008D01*
X458387D01*
Y326250D01*
X458144D01*
Y326493D01*
X458387D01*
Y326250D01*
X458629D01*
Y326493D01*
X458387D01*
Y326735D01*
X458629D01*
Y326977D01*
X458387D01*
Y327219D01*
X458629D01*
Y330367D01*
X458387D01*
Y330610D01*
D02*
G37*
G36*
X457660Y261106D02*
X457418D01*
Y260864D01*
X457660D01*
Y261106D01*
D02*
G37*
G36*
X455238Y257716D02*
X454996D01*
Y257473D01*
X455238D01*
Y257716D01*
D02*
G37*
G36*
X460082Y248029D02*
X459840D01*
Y247787D01*
X460082D01*
Y248029D01*
D02*
G37*
G36*
X453785Y245607D02*
X453543D01*
Y245365D01*
X453301D01*
Y245607D01*
X453059D01*
Y245365D01*
X452817D01*
Y245607D01*
X452575D01*
Y245365D01*
X452332D01*
Y245607D01*
X452090D01*
Y245365D01*
X451848D01*
Y245607D01*
X451606D01*
Y245365D01*
X451364D01*
Y245607D01*
X451121D01*
Y245365D01*
X450879D01*
Y245607D01*
X450637D01*
Y245365D01*
X450395D01*
Y245607D01*
X450153D01*
Y245365D01*
X449911D01*
Y245607D01*
X449668D01*
Y245365D01*
X449426D01*
Y245607D01*
X449184D01*
Y245365D01*
X448942D01*
Y245607D01*
X448700D01*
Y245365D01*
X448457D01*
Y245607D01*
X448215D01*
Y245365D01*
X447973D01*
Y245607D01*
X447731D01*
Y245365D01*
X447489D01*
Y245607D01*
X447247D01*
Y245365D01*
X446520D01*
Y245123D01*
X445794D01*
Y244881D01*
X445551D01*
Y245123D01*
X445309D01*
Y244881D01*
X445067D01*
Y244638D01*
X444341D01*
Y244396D01*
X444098D01*
Y244154D01*
X443856D01*
Y243912D01*
X443614D01*
Y244154D01*
X443372D01*
Y243427D01*
X443130D01*
Y243670D01*
X442888D01*
Y242943D01*
X442645D01*
Y242701D01*
X442403D01*
Y241974D01*
X442161D01*
Y241732D01*
X442403D01*
Y241490D01*
X442161D01*
Y241732D01*
X441919D01*
Y241490D01*
X442161D01*
Y241248D01*
X441919D01*
Y241006D01*
X442161D01*
Y240763D01*
X441919D01*
Y240521D01*
X442161D01*
Y240279D01*
X441919D01*
Y240037D01*
X442161D01*
Y239795D01*
X441919D01*
Y239553D01*
X442161D01*
Y239310D01*
X442403D01*
Y239068D01*
X442161D01*
Y238826D01*
X442403D01*
Y238584D01*
X442645D01*
Y238342D01*
X442888D01*
Y237615D01*
X443130D01*
Y237857D01*
X443372D01*
Y237615D01*
X443614D01*
Y237373D01*
X443856D01*
Y237131D01*
X444098D01*
Y236889D01*
X444341D01*
Y236647D01*
X444583D01*
Y236889D01*
X444825D01*
Y236647D01*
X445551D01*
Y236404D01*
X445794D01*
Y236162D01*
X446036D01*
Y236404D01*
X446278D01*
Y236162D01*
X446520D01*
Y236404D01*
X446762D01*
Y236162D01*
X447005D01*
Y235920D01*
X447247D01*
Y236162D01*
X447489D01*
Y235920D01*
X447731D01*
Y235678D01*
X447973D01*
Y235920D01*
X448700D01*
Y235678D01*
X448942D01*
Y235920D01*
X449184D01*
Y235678D01*
X449426D01*
Y235920D01*
X449668D01*
Y235678D01*
X449911D01*
Y235920D01*
X450153D01*
Y235678D01*
X450395D01*
Y235920D01*
X450637D01*
Y235678D01*
X450879D01*
Y235920D01*
X451121D01*
Y235678D01*
X451364D01*
Y235920D01*
X451606D01*
Y235678D01*
X451848D01*
Y235920D01*
X453543D01*
Y235678D01*
X453785D01*
Y235920D01*
X453543D01*
Y236162D01*
X454270D01*
Y236404D01*
X454512D01*
Y236162D01*
X454754D01*
Y236404D01*
X454996D01*
Y236162D01*
X455238D01*
Y236404D01*
X455723D01*
Y236647D01*
X456207D01*
Y236889D01*
X456449D01*
Y236647D01*
X456691D01*
Y236889D01*
X456934D01*
Y237131D01*
X457176D01*
Y237373D01*
X457418D01*
Y237615D01*
X457660D01*
Y237857D01*
X457902D01*
Y238100D01*
X458144D01*
Y238342D01*
X458387D01*
Y238584D01*
X458629D01*
Y238826D01*
X458387D01*
Y239068D01*
X458629D01*
Y239795D01*
X458871D01*
Y240037D01*
X458629D01*
Y240279D01*
X458871D01*
Y240521D01*
X458629D01*
Y240763D01*
X458871D01*
Y241006D01*
X458629D01*
Y241248D01*
X458871D01*
Y241490D01*
X458629D01*
Y242701D01*
X458387D01*
Y242943D01*
X458144D01*
Y243185D01*
X457902D01*
Y243427D01*
X457660D01*
Y243670D01*
X457418D01*
Y243912D01*
X457176D01*
Y244154D01*
X456934D01*
Y244396D01*
X456691D01*
Y244638D01*
X456449D01*
Y244396D01*
X456207D01*
Y244638D01*
X455965D01*
Y244881D01*
X455723D01*
Y245123D01*
X455480D01*
Y244881D01*
X455238D01*
Y245123D01*
X454996D01*
Y244881D01*
X454754D01*
Y245123D01*
X454512D01*
Y245365D01*
X454270D01*
Y245123D01*
X454027D01*
Y245365D01*
X453785D01*
Y245607D01*
D02*
G37*
G36*
X364181Y236404D02*
X363939D01*
Y236162D01*
X364181D01*
Y236404D01*
D02*
G37*
G36*
X365392Y233741D02*
X365150D01*
Y233498D01*
X365392D01*
Y233741D01*
D02*
G37*
%LPD*%
D41*
X244500Y84750D02*
D03*
D56*
X199500D02*
D03*
Y19750D02*
D03*
X244500D02*
D03*
X602500Y261500D02*
D03*
Y306500D02*
D03*
X667500D02*
D03*
D57*
Y261500D02*
D03*
D58*
X146000Y446000D02*
D03*
X662000Y469000D02*
D03*
D59*
X146000Y420600D02*
D03*
Y395200D02*
D03*
Y369800D02*
D03*
X662000Y418200D02*
D03*
Y443600D02*
D03*
D60*
X290450Y125730D02*
D03*
X315850D02*
D03*
X341250D02*
D03*
X366650D02*
D03*
X392050D02*
D03*
X417450D02*
D03*
X442850D02*
D03*
X468250D02*
D03*
X493650D02*
D03*
X519050D02*
D03*
X544450D02*
D03*
X569850D02*
D03*
X595250D02*
D03*
X620650D02*
D03*
X290450Y201930D02*
D03*
X315850D02*
D03*
X341250D02*
D03*
X366650D02*
D03*
X392050D02*
D03*
X417450D02*
D03*
X442850D02*
D03*
X468250D02*
D03*
X493650D02*
D03*
X519050D02*
D03*
X544450D02*
D03*
X569850D02*
D03*
X595250D02*
D03*
X167000Y88000D02*
D03*
X141600D02*
D03*
X391160Y508000D02*
D03*
X365760D02*
D03*
X340360D02*
D03*
X314960D02*
D03*
X289560D02*
D03*
X264160D02*
D03*
X238760D02*
D03*
X213360D02*
D03*
X187960D02*
D03*
X457200D02*
D03*
X482600D02*
D03*
X508000D02*
D03*
X533400D02*
D03*
X558800D02*
D03*
X584200D02*
D03*
X609600D02*
D03*
X533400Y25400D02*
D03*
X558800D02*
D03*
X584200D02*
D03*
X609600D02*
D03*
X635000D02*
D03*
X457200D02*
D03*
X431800D02*
D03*
X406400D02*
D03*
X381000D02*
D03*
X355600D02*
D03*
X330200D02*
D03*
X304800D02*
D03*
D61*
X620650Y201930D02*
D03*
X116200Y88000D02*
D03*
X416560Y508000D02*
D03*
X635000D02*
D03*
X508000Y25400D02*
D03*
X279400D02*
D03*
D62*
X25400Y316600D02*
D03*
X50800D02*
D03*
X25400Y342000D02*
D03*
X50800Y386080D02*
D03*
X76200D02*
D03*
X25400Y411480D02*
D03*
X50800D02*
D03*
X76200D02*
D03*
X50800Y472440D02*
D03*
X76200D02*
D03*
X25400Y497840D02*
D03*
X50800D02*
D03*
X76200D02*
D03*
D63*
X50800Y342000D02*
D03*
X25400Y386080D02*
D03*
Y472440D02*
D03*
D64*
X21995Y234000D02*
D03*
Y168000D02*
D03*
D65*
X139700Y25400D02*
D03*
X660400Y76200D02*
D03*
Y355600D02*
D03*
D66*
X152400Y508000D02*
D03*
D67*
X21000Y25000D02*
D03*
Y133000D02*
D03*
M02*
