G04*
G04 #@! TF.GenerationSoftware,Altium Limited,Altium Designer,19.1.4 (82)*
G04*
G04 Layer_Color=8421504*
%FSLAX44Y44*%
%MOMM*%
G71*
G01*
G75*
%ADD13R,1.3000X0.7000*%
%ADD14R,0.7000X1.3000*%
%ADD15R,0.6858X0.5588*%
%ADD16R,0.5588X0.6858*%
%ADD17R,0.5500X1.5000*%
%ADD18R,1.5000X0.5500*%
%ADD19R,1.3500X0.4000*%
%ADD20R,1.9000X1.9000*%
%ADD21R,1.4000X1.6000*%
%ADD22R,1.3000X0.9000*%
%ADD23R,0.9000X1.3000*%
%ADD24R,1.6000X3.0000*%
%ADD25R,0.8000X0.8000*%
%ADD26R,2.7000X2.0000*%
%ADD27R,1.0000X0.5500*%
%ADD28R,0.5500X1.0000*%
%ADD29R,2.6000X2.5000*%
%ADD30R,0.9000X0.6000*%
%ADD31R,2.5000X2.6000*%
%ADD32R,3.5000X2.2000*%
%ADD33R,0.6000X2.2000*%
D13*
X172000Y387500D02*
D03*
Y406500D02*
D03*
X221000Y287500D02*
D03*
Y268500D02*
D03*
X610000Y454500D02*
D03*
Y473500D02*
D03*
X580000D02*
D03*
Y454500D02*
D03*
X636000Y413500D02*
D03*
Y432500D02*
D03*
X252000Y163500D02*
D03*
Y144500D02*
D03*
X649000Y222500D02*
D03*
Y241500D02*
D03*
X332000Y85500D02*
D03*
Y66500D02*
D03*
Y47500D02*
D03*
Y66500D02*
D03*
X90000Y280500D02*
D03*
Y261500D02*
D03*
X671000Y205500D02*
D03*
Y186500D02*
D03*
X30000Y272500D02*
D03*
Y291500D02*
D03*
X671000Y222500D02*
D03*
Y241500D02*
D03*
X274000Y67500D02*
D03*
Y48500D02*
D03*
D14*
X291500Y439500D02*
D03*
X272500D02*
D03*
Y417500D02*
D03*
X291500D02*
D03*
X83250Y351750D02*
D03*
X102250D02*
D03*
X89500Y216000D02*
D03*
X108500D02*
D03*
Y195000D02*
D03*
X89500D02*
D03*
Y173000D02*
D03*
X108500D02*
D03*
X371500Y99000D02*
D03*
X390500D02*
D03*
X254500Y440000D02*
D03*
X235500D02*
D03*
X406500Y230000D02*
D03*
X425500D02*
D03*
X591500Y349000D02*
D03*
X572500D02*
D03*
X11500Y254000D02*
D03*
X30500D02*
D03*
X289500Y87000D02*
D03*
X270500D02*
D03*
X147500Y212000D02*
D03*
X128500D02*
D03*
X625500Y226000D02*
D03*
X606500D02*
D03*
D15*
X12000Y295192D02*
D03*
Y270808D02*
D03*
D16*
X629192Y244000D02*
D03*
X604808D02*
D03*
D17*
X182000Y258000D02*
D03*
X174000D02*
D03*
X166000D02*
D03*
X158000D02*
D03*
X150000D02*
D03*
X142000D02*
D03*
X134000D02*
D03*
X126000D02*
D03*
Y342000D02*
D03*
X134000D02*
D03*
X142000D02*
D03*
X150000D02*
D03*
X158000D02*
D03*
X166000D02*
D03*
X174000D02*
D03*
X182000D02*
D03*
D18*
X112000Y272000D02*
D03*
Y280000D02*
D03*
Y288000D02*
D03*
Y296000D02*
D03*
Y304000D02*
D03*
Y312000D02*
D03*
Y320000D02*
D03*
Y328000D02*
D03*
X196000D02*
D03*
Y320000D02*
D03*
Y312000D02*
D03*
Y304000D02*
D03*
Y296000D02*
D03*
Y288000D02*
D03*
Y280000D02*
D03*
Y272000D02*
D03*
D19*
X48745Y214000D02*
D03*
Y207500D02*
D03*
Y201000D02*
D03*
Y194500D02*
D03*
Y188000D02*
D03*
D20*
X21995Y189000D02*
D03*
Y213000D02*
D03*
D21*
X46495Y233000D02*
D03*
Y169000D02*
D03*
D22*
X198000Y236500D02*
D03*
Y217500D02*
D03*
X220000Y217500D02*
D03*
Y236500D02*
D03*
X175000Y236500D02*
D03*
Y217500D02*
D03*
X636000Y472500D02*
D03*
Y453500D02*
D03*
X23000Y432500D02*
D03*
Y451500D02*
D03*
X305000Y48500D02*
D03*
Y67500D02*
D03*
X114000Y111500D02*
D03*
Y130500D02*
D03*
X355000Y48500D02*
D03*
Y67500D02*
D03*
X208000Y105500D02*
D03*
Y124500D02*
D03*
X221000Y304500D02*
D03*
Y323500D02*
D03*
X447000Y78500D02*
D03*
Y59500D02*
D03*
X220000Y179500D02*
D03*
Y198500D02*
D03*
X231000Y105500D02*
D03*
Y124500D02*
D03*
X649000Y205500D02*
D03*
Y186500D02*
D03*
X215000Y441500D02*
D03*
Y422500D02*
D03*
X198000Y198500D02*
D03*
Y179500D02*
D03*
D23*
X242500Y242000D02*
D03*
X261500D02*
D03*
X21500Y522000D02*
D03*
X40500D02*
D03*
X484500Y77000D02*
D03*
X465500D02*
D03*
X383500Y49000D02*
D03*
X402500D02*
D03*
X128500Y234000D02*
D03*
X147500D02*
D03*
X242500Y348000D02*
D03*
X261500D02*
D03*
X443500Y255000D02*
D03*
X462500D02*
D03*
X650500Y125000D02*
D03*
X669500D02*
D03*
X426500Y99000D02*
D03*
X407500D02*
D03*
X49500Y294250D02*
D03*
X68500D02*
D03*
X484500Y55000D02*
D03*
X465500D02*
D03*
X426500Y77000D02*
D03*
X407500D02*
D03*
X463500Y230000D02*
D03*
X444500D02*
D03*
X88500Y236000D02*
D03*
X107500D02*
D03*
X242500Y485000D02*
D03*
X261500D02*
D03*
X444500Y99000D02*
D03*
X463500D02*
D03*
X572500Y328000D02*
D03*
X591500D02*
D03*
X424500Y255000D02*
D03*
X405500D02*
D03*
D24*
X72000Y99500D02*
D03*
Y140500D02*
D03*
Y19500D02*
D03*
Y60500D02*
D03*
D25*
X254000Y401000D02*
D03*
X238000D02*
D03*
X254000Y422000D02*
D03*
X238000D02*
D03*
X591000Y367000D02*
D03*
X575000D02*
D03*
X254000Y383000D02*
D03*
X238000D02*
D03*
D26*
X21000Y96000D02*
D03*
Y64000D02*
D03*
D27*
X168500Y442500D02*
D03*
Y433000D02*
D03*
Y423500D02*
D03*
X195500Y442500D02*
D03*
Y423500D02*
D03*
X205500Y161500D02*
D03*
Y152000D02*
D03*
Y142500D02*
D03*
X232500Y161500D02*
D03*
Y142500D02*
D03*
D28*
X48500Y251500D02*
D03*
X58000D02*
D03*
X67500D02*
D03*
X48500Y278500D02*
D03*
X67500D02*
D03*
X670500Y169500D02*
D03*
X661000D02*
D03*
X651500D02*
D03*
X670500Y142500D02*
D03*
X651500D02*
D03*
D29*
X252000Y319500D02*
D03*
Y270500D02*
D03*
D30*
X72000Y197500D02*
D03*
Y182500D02*
D03*
Y211500D02*
D03*
Y226500D02*
D03*
D31*
X407500Y287000D02*
D03*
X456500D02*
D03*
D32*
X161000Y177000D02*
D03*
D33*
X186400Y115000D02*
D03*
X173700D02*
D03*
X161000D02*
D03*
X148300D02*
D03*
X135600D02*
D03*
M02*
